%TF.GenerationSoftware,KiCad,Pcbnew,7.0.6*%
%TF.CreationDate,2024-03-19T20:52:53+13:00*%
%TF.ProjectId,Arduino Uno R3,41726475-696e-46f2-9055-6e6f2052332e,rev?*%
%TF.SameCoordinates,Original*%
%TF.FileFunction,Soldermask,Bot*%
%TF.FilePolarity,Negative*%
%FSLAX46Y46*%
G04 Gerber Fmt 4.6, Leading zero omitted, Abs format (unit mm)*
G04 Created by KiCad (PCBNEW 7.0.6) date 2024-03-19 20:52:53*
%MOMM*%
%LPD*%
G01*
G04 APERTURE LIST*
G04 Aperture macros list*
%AMRoundRect*
0 Rectangle with rounded corners*
0 $1 Rounding radius*
0 $2 $3 $4 $5 $6 $7 $8 $9 X,Y pos of 4 corners*
0 Add a 4 corners polygon primitive as box body*
4,1,4,$2,$3,$4,$5,$6,$7,$8,$9,$2,$3,0*
0 Add four circle primitives for the rounded corners*
1,1,$1+$1,$2,$3*
1,1,$1+$1,$4,$5*
1,1,$1+$1,$6,$7*
1,1,$1+$1,$8,$9*
0 Add four rect primitives between the rounded corners*
20,1,$1+$1,$2,$3,$4,$5,0*
20,1,$1+$1,$4,$5,$6,$7,0*
20,1,$1+$1,$6,$7,$8,$9,0*
20,1,$1+$1,$8,$9,$2,$3,0*%
G04 Aperture macros list end*
%ADD10C,1.500000*%
%ADD11R,1.524000X1.524000*%
%ADD12C,1.524000*%
%ADD13R,1.700000X1.700000*%
%ADD14O,1.700000X1.700000*%
%ADD15O,1.150000X1.800000*%
%ADD16O,1.450000X2.000000*%
%ADD17O,0.800000X0.800000*%
%ADD18RoundRect,0.875000X-0.875000X0.875000X-0.875000X-0.875000X0.875000X-0.875000X0.875000X0.875000X0*%
%ADD19RoundRect,0.750000X-1.000000X0.750000X-1.000000X-0.750000X1.000000X-0.750000X1.000000X0.750000X0*%
%ADD20R,3.500000X3.500000*%
G04 APERTURE END LIST*
D10*
%TO.C,Y3*%
X162433000Y-80438000D03*
X162433000Y-75438000D03*
%TD*%
D11*
%TO.C,U7*%
X144018000Y-77978000D03*
D12*
X144018000Y-80518000D03*
X144018000Y-83058000D03*
X144018000Y-85598000D03*
X144018000Y-88138000D03*
X144018000Y-90678000D03*
X144018000Y-93218000D03*
X144018000Y-95758000D03*
X144018000Y-98298000D03*
X144018000Y-100838000D03*
X144018000Y-103378000D03*
X144018000Y-105918000D03*
X144018000Y-108458000D03*
X144018000Y-110998000D03*
X151638000Y-110998000D03*
X151638000Y-108458000D03*
X151638000Y-105918000D03*
X151638000Y-103378000D03*
X151638000Y-100838000D03*
X151638000Y-98298000D03*
X151638000Y-95758000D03*
X151638000Y-93218000D03*
X151638000Y-90678000D03*
X151638000Y-88138000D03*
X151638000Y-85598000D03*
X151638000Y-83058000D03*
X151638000Y-80518000D03*
X151638000Y-77978000D03*
%TD*%
D13*
%TO.C,J8*%
X135382000Y-109728000D03*
D14*
X135382000Y-107188000D03*
X135382000Y-104648000D03*
X135382000Y-102108000D03*
X135382000Y-99568000D03*
X135382000Y-97028000D03*
X135382000Y-94488000D03*
X135382000Y-91948000D03*
%TD*%
%TO.C,J7*%
X185801000Y-87757000D03*
X185801000Y-90297000D03*
X185801000Y-92837000D03*
X185801000Y-95377000D03*
X185801000Y-97917000D03*
X185801000Y-100457000D03*
X185801000Y-102997000D03*
X185801000Y-105537000D03*
X185801000Y-108077000D03*
D13*
X185801000Y-110617000D03*
%TD*%
%TO.C,J6*%
X186055000Y-81534000D03*
D14*
X186055000Y-78994000D03*
X186055000Y-76454000D03*
X186055000Y-73914000D03*
X186055000Y-71374000D03*
X186055000Y-68834000D03*
%TD*%
D13*
%TO.C,J5*%
X135255000Y-68199000D03*
D14*
X135255000Y-70739000D03*
X135255000Y-73279000D03*
X135255000Y-75819000D03*
X135255000Y-78359000D03*
X135255000Y-80899000D03*
X135255000Y-83439000D03*
X135255000Y-85979000D03*
%TD*%
D13*
%TO.C,J4*%
X156718000Y-105029000D03*
D14*
X159258000Y-105029000D03*
X156718000Y-107569000D03*
X159258000Y-107569000D03*
X156718000Y-110109000D03*
X159258000Y-110109000D03*
%TD*%
D13*
%TO.C,J3*%
X179197000Y-64516000D03*
D14*
X181737000Y-64516000D03*
X179197000Y-67056000D03*
X181737000Y-67056000D03*
X179197000Y-69596000D03*
X181737000Y-69596000D03*
%TD*%
D15*
%TO.C,J2*%
X185271000Y-49105000D03*
X177521000Y-49105000D03*
D16*
X185121000Y-45305000D03*
X177671000Y-45305000D03*
D17*
X183896000Y-46355000D03*
X178896000Y-46355000D03*
%TD*%
D18*
%TO.C,J1*%
X135889000Y-49863000D03*
D19*
X140589000Y-46863000D03*
D20*
X140589000Y-52863000D03*
%TD*%
M02*
