%TF.GenerationSoftware,KiCad,Pcbnew,7.0.6*%
%TF.CreationDate,2024-03-19T20:52:53+13:00*%
%TF.ProjectId,Arduino Uno R3,41726475-696e-46f2-9055-6e6f2052332e,rev?*%
%TF.SameCoordinates,Original*%
%TF.FileFunction,Copper,L1,Top*%
%TF.FilePolarity,Positive*%
%FSLAX46Y46*%
G04 Gerber Fmt 4.6, Leading zero omitted, Abs format (unit mm)*
G04 Created by KiCad (PCBNEW 7.0.6) date 2024-03-19 20:52:53*
%MOMM*%
%LPD*%
G01*
G04 APERTURE LIST*
G04 Aperture macros list*
%AMRoundRect*
0 Rectangle with rounded corners*
0 $1 Rounding radius*
0 $2 $3 $4 $5 $6 $7 $8 $9 X,Y pos of 4 corners*
0 Add a 4 corners polygon primitive as box body*
4,1,4,$2,$3,$4,$5,$6,$7,$8,$9,$2,$3,0*
0 Add four circle primitives for the rounded corners*
1,1,$1+$1,$2,$3*
1,1,$1+$1,$4,$5*
1,1,$1+$1,$6,$7*
1,1,$1+$1,$8,$9*
0 Add four rect primitives between the rounded corners*
20,1,$1+$1,$2,$3,$4,$5,0*
20,1,$1+$1,$4,$5,$6,$7,0*
20,1,$1+$1,$6,$7,$8,$9,0*
20,1,$1+$1,$8,$9,$2,$3,0*%
G04 Aperture macros list end*
%TA.AperFunction,SMDPad,CuDef*%
%ADD10R,1.905000X0.406400*%
%TD*%
%TA.AperFunction,SMDPad,CuDef*%
%ADD11RoundRect,0.250000X-0.450000X0.262500X-0.450000X-0.262500X0.450000X-0.262500X0.450000X0.262500X0*%
%TD*%
%TA.AperFunction,SMDPad,CuDef*%
%ADD12RoundRect,0.150000X-0.150000X0.587500X-0.150000X-0.587500X0.150000X-0.587500X0.150000X0.587500X0*%
%TD*%
%TA.AperFunction,ComponentPad*%
%ADD13C,1.500000*%
%TD*%
%TA.AperFunction,ComponentPad*%
%ADD14R,1.524000X1.524000*%
%TD*%
%TA.AperFunction,ComponentPad*%
%ADD15C,1.524000*%
%TD*%
%TA.AperFunction,SMDPad,CuDef*%
%ADD16R,0.799999X0.250000*%
%TD*%
%TA.AperFunction,SMDPad,CuDef*%
%ADD17R,0.250000X0.799999*%
%TD*%
%TA.AperFunction,SMDPad,CuDef*%
%ADD18R,3.250001X3.250001*%
%TD*%
%TA.AperFunction,SMDPad,CuDef*%
%ADD19RoundRect,0.150000X-0.512500X-0.150000X0.512500X-0.150000X0.512500X0.150000X-0.512500X0.150000X0*%
%TD*%
%TA.AperFunction,SMDPad,CuDef*%
%ADD20R,1.500000X2.000000*%
%TD*%
%TA.AperFunction,SMDPad,CuDef*%
%ADD21R,3.800000X2.000000*%
%TD*%
%TA.AperFunction,SMDPad,CuDef*%
%ADD22R,0.990600X3.200400*%
%TD*%
%TA.AperFunction,SMDPad,CuDef*%
%ADD23RoundRect,0.250000X0.262500X0.450000X-0.262500X0.450000X-0.262500X-0.450000X0.262500X-0.450000X0*%
%TD*%
%TA.AperFunction,SMDPad,CuDef*%
%ADD24RoundRect,0.250000X-0.262500X-0.450000X0.262500X-0.450000X0.262500X0.450000X-0.262500X0.450000X0*%
%TD*%
%TA.AperFunction,SMDPad,CuDef*%
%ADD25RoundRect,0.250000X0.450000X-0.262500X0.450000X0.262500X-0.450000X0.262500X-0.450000X-0.262500X0*%
%TD*%
%TA.AperFunction,ComponentPad*%
%ADD26R,1.700000X1.700000*%
%TD*%
%TA.AperFunction,ComponentPad*%
%ADD27O,1.700000X1.700000*%
%TD*%
%TA.AperFunction,ComponentPad*%
%ADD28O,1.150000X1.800000*%
%TD*%
%TA.AperFunction,ComponentPad*%
%ADD29O,1.450000X2.000000*%
%TD*%
%TA.AperFunction,SMDPad,CuDef*%
%ADD30R,0.450000X1.300000*%
%TD*%
%TA.AperFunction,ComponentPad*%
%ADD31RoundRect,0.875000X-0.875000X0.875000X-0.875000X-0.875000X0.875000X-0.875000X0.875000X0.875000X0*%
%TD*%
%TA.AperFunction,ComponentPad*%
%ADD32RoundRect,0.750000X-1.000000X0.750000X-1.000000X-0.750000X1.000000X-0.750000X1.000000X0.750000X0*%
%TD*%
%TA.AperFunction,ComponentPad*%
%ADD33R,3.500000X3.500000*%
%TD*%
%TA.AperFunction,SMDPad,CuDef*%
%ADD34R,1.327899X0.431000*%
%TD*%
%TA.AperFunction,SMDPad,CuDef*%
%ADD35RoundRect,0.250000X0.350000X-0.275000X0.350000X0.275000X-0.350000X0.275000X-0.350000X-0.275000X0*%
%TD*%
%TA.AperFunction,SMDPad,CuDef*%
%ADD36RoundRect,0.250000X-1.450000X0.400000X-1.450000X-0.400000X1.450000X-0.400000X1.450000X0.400000X0*%
%TD*%
%TA.AperFunction,SMDPad,CuDef*%
%ADD37RoundRect,0.225000X0.225000X0.375000X-0.225000X0.375000X-0.225000X-0.375000X0.225000X-0.375000X0*%
%TD*%
%TA.AperFunction,SMDPad,CuDef*%
%ADD38RoundRect,0.243750X-0.456250X0.243750X-0.456250X-0.243750X0.456250X-0.243750X0.456250X0.243750X0*%
%TD*%
%TA.AperFunction,SMDPad,CuDef*%
%ADD39RoundRect,0.225000X-0.375000X0.225000X-0.375000X-0.225000X0.375000X-0.225000X0.375000X0.225000X0*%
%TD*%
%TA.AperFunction,SMDPad,CuDef*%
%ADD40RoundRect,0.243750X-0.243750X-0.456250X0.243750X-0.456250X0.243750X0.456250X-0.243750X0.456250X0*%
%TD*%
%TA.AperFunction,SMDPad,CuDef*%
%ADD41RoundRect,0.250000X1.000000X0.650000X-1.000000X0.650000X-1.000000X-0.650000X1.000000X-0.650000X0*%
%TD*%
%TA.AperFunction,SMDPad,CuDef*%
%ADD42RoundRect,0.250000X-0.250000X-0.475000X0.250000X-0.475000X0.250000X0.475000X-0.250000X0.475000X0*%
%TD*%
%TA.AperFunction,SMDPad,CuDef*%
%ADD43RoundRect,0.250000X0.250000X0.475000X-0.250000X0.475000X-0.250000X-0.475000X0.250000X-0.475000X0*%
%TD*%
%TA.AperFunction,SMDPad,CuDef*%
%ADD44RoundRect,0.250000X0.475000X-0.250000X0.475000X0.250000X-0.475000X0.250000X-0.475000X-0.250000X0*%
%TD*%
%TA.AperFunction,SMDPad,CuDef*%
%ADD45RoundRect,0.250000X-0.475000X0.250000X-0.475000X-0.250000X0.475000X-0.250000X0.475000X0.250000X0*%
%TD*%
%TA.AperFunction,SMDPad,CuDef*%
%ADD46R,1.492199X3.752799*%
%TD*%
%TA.AperFunction,ViaPad*%
%ADD47C,0.800000*%
%TD*%
%TA.AperFunction,Conductor*%
%ADD48C,0.250000*%
%TD*%
%TA.AperFunction,Conductor*%
%ADD49C,0.200000*%
%TD*%
G04 APERTURE END LIST*
D10*
%TO.P,Y2,1*%
%TO.N,Net-(U7A-(PCINT7{slash}XTAL2{slash}TOSC2)_PB7)*%
X140335000Y-95180000D03*
%TO.P,Y2,2*%
%TO.N,GND*%
X140335000Y-93980000D03*
%TO.P,Y2,3*%
%TO.N,Net-(U7A-(PCINT6{slash}XTAL1{slash}TOSC1)_PB6)*%
X140335000Y-92780000D03*
%TD*%
D11*
%TO.P,R8,1*%
%TO.N,5V_LDO*%
X179197000Y-78820000D03*
%TO.P,R8,2*%
%TO.N,Net-(D4-A)*%
X179197000Y-80645000D03*
%TD*%
D12*
%TO.P,Q1,1,G*%
%TO.N,Net-(IC1-OUT)*%
X161097000Y-68277500D03*
%TO.P,Q1,2,S*%
%TO.N,5V_LDO*%
X159197000Y-68277500D03*
%TO.P,Q1,3,D*%
%TO.N,USBVCC*%
X160147000Y-70152500D03*
%TD*%
D13*
%TO.P,Y3,1*%
%TO.N,Net-(U5-PC0)*%
X162433000Y-80438000D03*
%TO.P,Y3,2*%
%TO.N,Net-(U5-XTAL1)*%
X162433000Y-75438000D03*
%TD*%
D14*
%TO.P,U7,1,(PCINT14/RESET)PC6*%
%TO.N,Vin*%
X144018000Y-77978000D03*
D15*
%TO.P,U7,2,(PCINT16/RXD)PD0*%
%TO.N,/ATMEGA328P_subsystem/ARD_DIG0*%
X144018000Y-80518000D03*
%TO.P,U7,3,(PCINT17/TXD)PD1*%
%TO.N,/ATMEGA328P_subsystem/ARD_DIG1*%
X144018000Y-83058000D03*
%TO.P,U7,4,(PCINT18/INT0)_PD2*%
%TO.N,/ATMEGA328P_subsystem/ARD_DIG2*%
X144018000Y-85598000D03*
%TO.P,U7,5,(PCINT19/OC2B/INT1)_PD3*%
%TO.N,/ATMEGA328P_subsystem/ARD_DIG3*%
X144018000Y-88138000D03*
%TO.P,U7,6,(PCINT20/XCK/T0)_PD4*%
%TO.N,/ATMEGA328P_subsystem/ARD_DIG4*%
X144018000Y-90678000D03*
%TO.P,U7,7,VCC*%
%TO.N,5V_LDO*%
X144018000Y-93218000D03*
%TO.P,U7,8,GND*%
%TO.N,GND*%
X144018000Y-95758000D03*
%TO.P,U7,9,(PCINT6/XTAL1/TOSC1)_PB6*%
%TO.N,Net-(U7A-(PCINT6{slash}XTAL1{slash}TOSC1)_PB6)*%
X144018000Y-98298000D03*
%TO.P,U7,10,(PCINT7/XTAL2/TOSC2)_PB7*%
%TO.N,Net-(U7A-(PCINT7{slash}XTAL2{slash}TOSC2)_PB7)*%
X144018000Y-100838000D03*
%TO.P,U7,11,(PCINT21/OC0B/T1)_PD5*%
%TO.N,/ATMEGA328P_subsystem/ARD_DIG5*%
X144018000Y-103378000D03*
%TO.P,U7,12,(PCINT22/OC0A/AIN0)_PD6*%
%TO.N,/ATMEGA328P_subsystem/ARD_DIG6*%
X144018000Y-105918000D03*
%TO.P,U7,13,(PCINT23/AIN1)_PD7*%
%TO.N,/ATMEGA328P_subsystem/ARD_DIG7*%
X144018000Y-108458000D03*
%TO.P,U7,14,(PCINT0/CLKO/ICP1)_PB0*%
%TO.N,/ATMEGA328P_subsystem/ARD_DIG8*%
X144018000Y-110998000D03*
%TO.P,U7,15,PB1_(OC1A/PCINT1)*%
%TO.N,/ATMEGA328P_subsystem/ARD_DIG9*%
X151638000Y-110998000D03*
%TO.P,U7,16,PB2_(SS/OC1B/PCINT2)*%
%TO.N,/ATMEGA328P_subsystem/ARD_DIG10{slash}SPI_SS*%
X151638000Y-108458000D03*
%TO.P,U7,17,PB3_(MOSI/OC2A/PCINT3)*%
%TO.N,/ATMEGA328P_subsystem/328P_ICSP_MOSI*%
X151638000Y-105918000D03*
%TO.P,U7,18,PB4_(MISO/PCINT4)*%
%TO.N,/ATMEGA328P_subsystem/328P_ICSP_MISO*%
X151638000Y-103378000D03*
%TO.P,U7,19,PB5_(SCK/PCINT5)*%
%TO.N,SCK*%
X151638000Y-100838000D03*
%TO.P,U7,20,AVCC*%
%TO.N,5V_LDO*%
X151638000Y-98298000D03*
%TO.P,U7,21,AREF*%
%TO.N,/ATMEGA328P_subsystem/AREF*%
X151638000Y-95758000D03*
%TO.P,U7,22,GND*%
%TO.N,GND*%
X151638000Y-93218000D03*
%TO.P,U7,23,PC0_(ADC0/PCINT8)*%
%TO.N,/ATMEGA328P_subsystem/ARD_AN0*%
X151638000Y-90678000D03*
%TO.P,U7,24,PC1_(ADC1/PCINT9)*%
%TO.N,/ATMEGA328P_subsystem/ARD_AN1*%
X151638000Y-88138000D03*
%TO.P,U7,25,PC2_(ADC2/PCINT10)*%
%TO.N,/ATMEGA328P_subsystem/ARD_AN2*%
X151638000Y-85598000D03*
%TO.P,U7,26,PC3_(ADC3/PCINT11)*%
%TO.N,/ATMEGA328P_subsystem/ARD_AN3*%
X151638000Y-83058000D03*
%TO.P,U7,27,PC4_(ADC4/SDA/PCINT12)*%
%TO.N,/ATMEGA328P_subsystem/ARD_AN4{slash}SDA*%
X151638000Y-80518000D03*
%TO.P,U7,28,PC5_(ADC5/SCL/PCINT13)*%
%TO.N,/ATMEGA328P_subsystem/ARD_AN5{slash}SCL*%
X151638000Y-77978000D03*
%TD*%
D16*
%TO.P,U5,1,XTAL1*%
%TO.N,Net-(U5-XTAL1)*%
X171503000Y-80272001D03*
%TO.P,U5,2,PC0*%
%TO.N,Net-(U5-PC0)*%
X171503000Y-80772000D03*
%TO.P,U5,3,GND*%
%TO.N,GND*%
X171503000Y-81271999D03*
%TO.P,U5,4,VCC*%
%TO.N,5V_LDO*%
X171503000Y-81772000D03*
%TO.P,U5,5,PC2*%
%TO.N,unconnected-(U5-PC2-Pad5)*%
X171503000Y-82272000D03*
%TO.P,U5,6,PD0*%
%TO.N,unconnected-(U5-PD0-Pad6)*%
X171503000Y-82772001D03*
%TO.P,U5,7,PD1*%
%TO.N,unconnected-(U5-PD1-Pad7)*%
X171503000Y-83272000D03*
%TO.P,U5,8,PD2*%
%TO.N,/ATMEGA16U2/SERIAL_Tx*%
X171503000Y-83771999D03*
D17*
%TO.P,U5,9,PD3*%
%TO.N,/ATMEGA16U2/SERIAL_Rx*%
X172203001Y-84472000D03*
%TO.P,U5,10,PD4*%
%TO.N,Net-(D6-K)*%
X172703000Y-84472000D03*
%TO.P,U5,11,PD5*%
%TO.N,Net-(D5-K)*%
X173202999Y-84472000D03*
%TO.P,U5,12,PD6*%
%TO.N,unconnected-(U5-PD6-Pad12)*%
X173703000Y-84472000D03*
%TO.P,U5,13,PD7*%
%TO.N,/ATMEGA16U2/DTR*%
X174203000Y-84472000D03*
%TO.P,U5,14,PB0*%
%TO.N,unconnected-(U5-PB0-Pad14)*%
X174703001Y-84472000D03*
%TO.P,U5,15,PB1*%
%TO.N,/ATMEGA16U2/ICSP_SCK*%
X175203000Y-84472000D03*
%TO.P,U5,16,PB2*%
%TO.N,/ATMEGA16U2/ICSP_MOSI*%
X175702999Y-84472000D03*
D16*
%TO.P,U5,17,PB3*%
%TO.N,/ATMEGA16U2/ICSP_MISO*%
X176403000Y-83771999D03*
%TO.P,U5,18,PB4*%
%TO.N,unconnected-(U5-PB4-Pad18)*%
X176403000Y-83272000D03*
%TO.P,U5,19,PB5*%
%TO.N,unconnected-(U5-PB5-Pad19)*%
X176403000Y-82772001D03*
%TO.P,U5,20,PB6*%
%TO.N,unconnected-(U5-PB6-Pad20)*%
X176403000Y-82272000D03*
%TO.P,U5,21,PB7*%
%TO.N,unconnected-(U5-PB7-Pad21)*%
X176403000Y-81772000D03*
%TO.P,U5,22,PC7*%
%TO.N,unconnected-(U5-PC7-Pad22)*%
X176403000Y-81271999D03*
%TO.P,U5,23,PC6*%
%TO.N,unconnected-(U5-PC6-Pad23)*%
X176403000Y-80772000D03*
%TO.P,U5,24,PC1//~{RESET}*%
%TO.N,Net-(D4-A)*%
X176403000Y-80272001D03*
D17*
%TO.P,U5,25,PC5*%
%TO.N,unconnected-(U5-PC5-Pad25)*%
X175702999Y-79572000D03*
%TO.P,U5,26,PC4*%
%TO.N,unconnected-(U5-PC4-Pad26)*%
X175203000Y-79572000D03*
%TO.P,U5,27,UCAP*%
%TO.N,Net-(U5-UCAP)*%
X174703001Y-79572000D03*
%TO.P,U5,28,UGND*%
%TO.N,/ATMEGA16U2/USB_GND*%
X174203000Y-79572000D03*
%TO.P,U5,29,D+*%
%TO.N,/ATMEGA16U2/USB_RD+*%
X173703000Y-79572000D03*
%TO.P,U5,30,D-*%
%TO.N,/ATMEGA16U2/USB_RD-*%
X173202999Y-79572000D03*
%TO.P,U5,31,UVCC*%
%TO.N,USBVCC*%
X172703000Y-79572000D03*
%TO.P,U5,32,AVCC*%
%TO.N,5V_LDO*%
X172203001Y-79572000D03*
D18*
%TO.P,U5,33,EXP*%
%TO.N,GND*%
X173953000Y-82022000D03*
%TD*%
D19*
%TO.P,U4,1,VIN*%
%TO.N,5V_LDO*%
X172344500Y-61407000D03*
%TO.P,U4,2,GND*%
%TO.N,GND*%
X172344500Y-62357000D03*
%TO.P,U4,3,INH*%
%TO.N,5V_LDO*%
X172344500Y-63307000D03*
%TO.P,U4,4,BYP*%
%TO.N,unconnected-(U4-BYP-Pad4)*%
X174619500Y-63307000D03*
%TO.P,U4,5,VOUT*%
%TO.N,3V3_LDO*%
X174619500Y-61407000D03*
%TD*%
%TO.P,U2,5,V+*%
%TO.N,5V_LDO*%
X172079500Y-104775000D03*
%TO.P,U2,4*%
%TO.N,Net-(U2--)*%
X172079500Y-106675000D03*
%TO.P,U2,3,+*%
%TO.N,SCK*%
X169804500Y-106675000D03*
%TO.P,U2,2,V-*%
%TO.N,GND*%
X169804500Y-105725000D03*
%TO.P,U2,1,-*%
%TO.N,Net-(U2--)*%
X169804500Y-104775000D03*
%TD*%
D20*
%TO.P,U1,1,GND*%
%TO.N,GND*%
X165774000Y-45745000D03*
D21*
%TO.P,U1,2,VO*%
%TO.N,5V_LDO*%
X163474000Y-52045000D03*
D20*
X163474000Y-45745000D03*
%TO.P,U1,3,VI*%
%TO.N,Vin*%
X161174000Y-45745000D03*
%TD*%
D22*
%TO.P,S1,1,NO_1*%
%TO.N,GND*%
X173069001Y-92485002D03*
%TO.P,S1,2,COM_1*%
X169068999Y-92485002D03*
%TO.P,S1,3,COM_2*%
%TO.N,Vin*%
X169068999Y-99284998D03*
%TO.P,S1,4,NO_2*%
X173069001Y-99284998D03*
%TD*%
D11*
%TO.P,RV2,1*%
%TO.N,Net-(J2-D+)*%
X180848000Y-55165000D03*
%TO.P,RV2,2*%
%TO.N,Net-(J2-Shield)*%
X180848000Y-56990000D03*
%TD*%
%TO.P,RV1,1*%
%TO.N,Net-(J2-D-)*%
X178435000Y-55245000D03*
%TO.P,RV1,2*%
%TO.N,Net-(J2-Shield)*%
X178435000Y-57070000D03*
%TD*%
D23*
%TO.P,R17,1*%
%TO.N,/ATMEGA16U2/SERIAL_Tx*%
X157861000Y-86135000D03*
%TO.P,R17,2*%
%TO.N,/ATMEGA328P_subsystem/ARD_DIG1*%
X156036000Y-86135000D03*
%TD*%
%TO.P,R16,1*%
%TO.N,/ATMEGA16U2/SERIAL_Rx*%
X157861000Y-83185000D03*
%TO.P,R16,2*%
%TO.N,/ATMEGA328P_subsystem/ARD_DIG0*%
X156036000Y-83185000D03*
%TD*%
D24*
%TO.P,R15,1*%
%TO.N,Net-(C12-Pad2)*%
X162513000Y-92456000D03*
%TO.P,R15,2*%
%TO.N,Vin*%
X164338000Y-92456000D03*
%TD*%
%TO.P,R14,1*%
%TO.N,/ATMEGA16U2/DTR*%
X162767000Y-95631000D03*
%TO.P,R14,2*%
%TO.N,GND*%
X164592000Y-95631000D03*
%TD*%
%TO.P,R13,1*%
%TO.N,5V_LDO*%
X163148000Y-102870000D03*
%TO.P,R13,2*%
%TO.N,Vin*%
X164973000Y-102870000D03*
%TD*%
D25*
%TO.P,R12,1*%
%TO.N,Net-(U7A-(PCINT7{slash}XTAL2{slash}TOSC2)_PB7)*%
X139827000Y-103933000D03*
%TO.P,R12,2*%
%TO.N,Net-(U7A-(PCINT6{slash}XTAL1{slash}TOSC1)_PB6)*%
X139827000Y-102108000D03*
%TD*%
%TO.P,R11,1*%
%TO.N,Net-(U5-PC0)*%
X168124500Y-79144500D03*
%TO.P,R11,2*%
%TO.N,Net-(U5-XTAL1)*%
X168124500Y-77319500D03*
%TD*%
%TO.P,R10,1*%
%TO.N,5V_LDO*%
X179197000Y-96186000D03*
%TO.P,R10,2*%
%TO.N,Net-(D6-A)*%
X179197000Y-94361000D03*
%TD*%
%TO.P,R9,1*%
%TO.N,5V_LDO*%
X181864000Y-96186000D03*
%TO.P,R9,2*%
%TO.N,Net-(D5-A)*%
X181864000Y-94361000D03*
%TD*%
D24*
%TO.P,R7,1*%
%TO.N,GND*%
X172419000Y-66548000D03*
%TO.P,R7,2*%
%TO.N,/ATMEGA16U2/USB_GND*%
X174244000Y-66548000D03*
%TD*%
D11*
%TO.P,R6,1*%
%TO.N,Net-(J2-D-)*%
X174879000Y-54991000D03*
%TO.P,R6,2*%
%TO.N,/ATMEGA16U2/USB_RD-*%
X174879000Y-56816000D03*
%TD*%
%TO.P,R5,1*%
%TO.N,Net-(J2-D+)*%
X183515000Y-55118000D03*
%TO.P,R5,2*%
%TO.N,/ATMEGA16U2/USB_RD+*%
X183515000Y-56943000D03*
%TD*%
%TO.P,R4,1*%
%TO.N,Net-(U2--)*%
X178308000Y-100584000D03*
%TO.P,R4,2*%
%TO.N,Net-(D3-A)*%
X178308000Y-102409000D03*
%TD*%
D23*
%TO.P,R3,1*%
%TO.N,Net-(IC1-1IN+)*%
X168148000Y-58166000D03*
%TO.P,R3,2*%
%TO.N,GND*%
X166323000Y-58166000D03*
%TD*%
D24*
%TO.P,R2,1*%
%TO.N,Vin*%
X166450000Y-55753000D03*
%TO.P,R2,2*%
%TO.N,Net-(IC1-1IN+)*%
X168275000Y-55753000D03*
%TD*%
%TO.P,R1,1*%
%TO.N,5V_LDO*%
X159211000Y-55499000D03*
%TO.P,R1,2*%
%TO.N,Net-(D2-A)*%
X161036000Y-55499000D03*
%TD*%
D26*
%TO.P,J8,1,Pin_1*%
%TO.N,/ATMEGA328P_subsystem/ARD_DIG7*%
X135382000Y-109728000D03*
D27*
%TO.P,J8,2,Pin_2*%
%TO.N,/ATMEGA328P_subsystem/ARD_DIG6*%
X135382000Y-107188000D03*
%TO.P,J8,3,Pin_3*%
%TO.N,/ATMEGA328P_subsystem/ARD_DIG5*%
X135382000Y-104648000D03*
%TO.P,J8,4,Pin_4*%
%TO.N,/ATMEGA328P_subsystem/ARD_DIG4*%
X135382000Y-102108000D03*
%TO.P,J8,5,Pin_5*%
%TO.N,/ATMEGA328P_subsystem/ARD_DIG3*%
X135382000Y-99568000D03*
%TO.P,J8,6,Pin_6*%
%TO.N,/ATMEGA328P_subsystem/ARD_DIG2*%
X135382000Y-97028000D03*
%TO.P,J8,7,Pin_7*%
%TO.N,/ATMEGA328P_subsystem/ARD_DIG1*%
X135382000Y-94488000D03*
%TO.P,J8,8,Pin_8*%
%TO.N,/ATMEGA328P_subsystem/ARD_DIG0*%
X135382000Y-91948000D03*
%TD*%
%TO.P,J7,10,Pin_10*%
%TO.N,/ATMEGA328P_subsystem/ARD_AN5{slash}SCL*%
X185801000Y-87757000D03*
%TO.P,J7,9,Pin_9*%
%TO.N,/ATMEGA328P_subsystem/ARD_AN4{slash}SDA*%
X185801000Y-90297000D03*
%TO.P,J7,8,Pin_8*%
%TO.N,/ATMEGA328P_subsystem/AREF*%
X185801000Y-92837000D03*
%TO.P,J7,7,Pin_7*%
%TO.N,GND*%
X185801000Y-95377000D03*
%TO.P,J7,6,Pin_6*%
%TO.N,SCK*%
X185801000Y-97917000D03*
%TO.P,J7,5,Pin_5*%
%TO.N,/ATMEGA328P_subsystem/328P_ICSP_MISO*%
X185801000Y-100457000D03*
%TO.P,J7,4,Pin_4*%
%TO.N,/ATMEGA328P_subsystem/328P_ICSP_MOSI*%
X185801000Y-102997000D03*
%TO.P,J7,3,Pin_3*%
%TO.N,/ATMEGA328P_subsystem/ARD_DIG10{slash}SPI_SS*%
X185801000Y-105537000D03*
%TO.P,J7,2,Pin_2*%
%TO.N,/ATMEGA328P_subsystem/ARD_DIG9*%
X185801000Y-108077000D03*
D26*
%TO.P,J7,1,Pin_1*%
%TO.N,/ATMEGA328P_subsystem/ARD_DIG8*%
X185801000Y-110617000D03*
%TD*%
%TO.P,J6,1,Pin_1*%
%TO.N,/ATMEGA328P_subsystem/ARD_AN0*%
X186055000Y-81534000D03*
D27*
%TO.P,J6,2,Pin_2*%
%TO.N,/ATMEGA328P_subsystem/ARD_AN1*%
X186055000Y-78994000D03*
%TO.P,J6,3,Pin_3*%
%TO.N,/ATMEGA328P_subsystem/ARD_AN2*%
X186055000Y-76454000D03*
%TO.P,J6,4,Pin_4*%
%TO.N,/ATMEGA328P_subsystem/ARD_AN3*%
X186055000Y-73914000D03*
%TO.P,J6,5,Pin_5*%
%TO.N,/ATMEGA328P_subsystem/ARD_AN4{slash}SDA*%
X186055000Y-71374000D03*
%TO.P,J6,6,Pin_6*%
%TO.N,/ATMEGA328P_subsystem/ARD_AN5{slash}SCL*%
X186055000Y-68834000D03*
%TD*%
D26*
%TO.P,J5,1,Pin_1*%
%TO.N,unconnected-(J5-Pin_1-Pad1)*%
X135255000Y-68199000D03*
D27*
%TO.P,J5,2,Pin_2*%
%TO.N,5V_LDO*%
X135255000Y-70739000D03*
%TO.P,J5,3,Pin_3*%
%TO.N,Vin*%
X135255000Y-73279000D03*
%TO.P,J5,4,Pin_4*%
%TO.N,3V3_LDO*%
X135255000Y-75819000D03*
%TO.P,J5,5,Pin_5*%
%TO.N,5V_LDO*%
X135255000Y-78359000D03*
%TO.P,J5,6,Pin_6*%
%TO.N,GND*%
X135255000Y-80899000D03*
%TO.P,J5,7,Pin_7*%
X135255000Y-83439000D03*
%TO.P,J5,8,Pin_8*%
%TO.N,Vin*%
X135255000Y-85979000D03*
%TD*%
D26*
%TO.P,J4,1,1*%
%TO.N,/ATMEGA328P_subsystem/328P_ICSP_MISO*%
X156718000Y-105029000D03*
D27*
%TO.P,J4,2,2*%
%TO.N,5V_LDO*%
X159258000Y-105029000D03*
%TO.P,J4,3,3*%
%TO.N,SCK*%
X156718000Y-107569000D03*
%TO.P,J4,4,4*%
%TO.N,/ATMEGA328P_subsystem/328P_ICSP_MOSI*%
X159258000Y-107569000D03*
%TO.P,J4,5,5*%
%TO.N,Vin*%
X156718000Y-110109000D03*
%TO.P,J4,6,6*%
%TO.N,GND*%
X159258000Y-110109000D03*
%TD*%
D26*
%TO.P,J3,1,1*%
%TO.N,/ATMEGA16U2/ICSP_MISO*%
X179197000Y-64516000D03*
D27*
%TO.P,J3,2,2*%
%TO.N,5V_LDO*%
X181737000Y-64516000D03*
%TO.P,J3,3,3*%
%TO.N,/ATMEGA16U2/ICSP_SCK*%
X179197000Y-67056000D03*
%TO.P,J3,4,4*%
%TO.N,/ATMEGA16U2/ICSP_MOSI*%
X181737000Y-67056000D03*
%TO.P,J3,5,5*%
%TO.N,Net-(D4-A)*%
X179197000Y-69596000D03*
%TO.P,J3,6,6*%
%TO.N,GND*%
X181737000Y-69596000D03*
%TD*%
D28*
%TO.P,J2,6,Shield_2*%
%TO.N,Net-(J2-Shield)*%
X185271000Y-49105000D03*
X177521000Y-49105000D03*
D29*
X185121000Y-45305000D03*
X177671000Y-45305000D03*
D30*
%TO.P,J2,5,Shield*%
X182696000Y-45255000D03*
%TO.P,J2,4,GND*%
%TO.N,/ATMEGA16U2/USB_GND*%
X182046000Y-45255000D03*
%TO.P,J2,3,D+*%
%TO.N,Net-(J2-D+)*%
X181396000Y-45255000D03*
%TO.P,J2,2,D-*%
%TO.N,Net-(J2-D-)*%
X180746000Y-45255000D03*
%TO.P,J2,1,VBUS*%
%TO.N,Net-(J2-VBUS)*%
X180096000Y-45255000D03*
%TD*%
D31*
%TO.P,J1,3*%
%TO.N,GND*%
X135889000Y-49863000D03*
D32*
%TO.P,J1,2*%
X140589000Y-46863000D03*
D33*
%TO.P,J1,1*%
%TO.N,Net-(D1-A)*%
X140589000Y-52863000D03*
%TD*%
D34*
%TO.P,IC1,1,OUT*%
%TO.N,Net-(IC1-OUT)*%
X167948348Y-63204999D03*
%TO.P,IC1,2,1IN-*%
%TO.N,3V3_LDO*%
X167948348Y-62555001D03*
%TO.P,IC1,3,1IN+*%
%TO.N,Net-(IC1-1IN+)*%
X167948348Y-61904999D03*
%TO.P,IC1,4,GND*%
%TO.N,GND*%
X167948348Y-61255001D03*
%TO.P,IC1,5,2IN+*%
%TO.N,unconnected-(IC1-2IN+-Pad5)*%
X163521652Y-61255001D03*
%TO.P,IC1,6,2IN-*%
%TO.N,unconnected-(IC1-2IN--Pad6)*%
X163521652Y-61904999D03*
%TO.P,IC1,7,2OUT*%
%TO.N,unconnected-(IC1-2OUT-Pad7)*%
X163521652Y-62555001D03*
%TO.P,IC1,8,VCC+*%
%TO.N,5V_LDO*%
X163521652Y-63204999D03*
%TD*%
D35*
%TO.P,FB1,1*%
%TO.N,Net-(J2-Shield)*%
X186436000Y-57164000D03*
%TO.P,FB1,2*%
%TO.N,/ATMEGA16U2/USB_GND*%
X186436000Y-54864000D03*
%TD*%
D36*
%TO.P,F2,1*%
%TO.N,Net-(J2-VBUS)*%
X172974000Y-45339000D03*
%TO.P,F2,2*%
%TO.N,USBVCC*%
X172974000Y-49789000D03*
%TD*%
D37*
%TO.P,D8,1,K*%
%TO.N,5V_LDO*%
X158114000Y-100330000D03*
%TO.P,D8,2,A*%
%TO.N,Vin*%
X154814000Y-100330000D03*
%TD*%
D38*
%TO.P,D6,1,K*%
%TO.N,Net-(D6-K)*%
X179070000Y-87630000D03*
%TO.P,D6,2,A*%
%TO.N,Net-(D6-A)*%
X179070000Y-89505000D03*
%TD*%
%TO.P,D5,1,K*%
%TO.N,Net-(D5-K)*%
X182118000Y-87630000D03*
%TO.P,D5,2,A*%
%TO.N,Net-(D5-A)*%
X182118000Y-89505000D03*
%TD*%
D39*
%TO.P,D4,1,K*%
%TO.N,5V_LDO*%
X175895000Y-69469000D03*
%TO.P,D4,2,A*%
%TO.N,Net-(D4-A)*%
X175895000Y-72769000D03*
%TD*%
D38*
%TO.P,D3,1,K*%
%TO.N,GND*%
X181737000Y-100584000D03*
%TO.P,D3,2,A*%
%TO.N,Net-(D3-A)*%
X181737000Y-102459000D03*
%TD*%
D40*
%TO.P,D2,1,K*%
%TO.N,GND*%
X159161000Y-57785000D03*
%TO.P,D2,2,A*%
%TO.N,Net-(D2-A)*%
X161036000Y-57785000D03*
%TD*%
D41*
%TO.P,D1,1,K*%
%TO.N,Vin*%
X154051000Y-48387000D03*
%TO.P,D1,2,A*%
%TO.N,Net-(D1-A)*%
X150051000Y-48387000D03*
%TD*%
D42*
%TO.P,C13,1*%
%TO.N,/ATMEGA328P_subsystem/AREF*%
X155067000Y-95250000D03*
%TO.P,C13,2*%
%TO.N,GND*%
X156967000Y-95250000D03*
%TD*%
%TO.P,C12,1*%
%TO.N,/ATMEGA16U2/DTR*%
X162692000Y-98933000D03*
%TO.P,C12,2*%
%TO.N,Net-(C12-Pad2)*%
X164592000Y-98933000D03*
%TD*%
%TO.P,C11,1*%
%TO.N,5V_LDO*%
X155072000Y-91694000D03*
%TO.P,C11,2*%
%TO.N,GND*%
X156972000Y-91694000D03*
%TD*%
D43*
%TO.P,C10,1*%
%TO.N,Net-(U5-XTAL1)*%
X151257000Y-73025000D03*
%TO.P,C10,2*%
%TO.N,GND*%
X149357000Y-73025000D03*
%TD*%
D42*
%TO.P,C9,1*%
%TO.N,GND*%
X161930000Y-85344000D03*
%TO.P,C9,2*%
%TO.N,Net-(U5-PC0)*%
X163830000Y-85344000D03*
%TD*%
%TO.P,C8,1*%
%TO.N,GND*%
X170312000Y-73660000D03*
%TO.P,C8,2*%
%TO.N,5V_LDO*%
X172212000Y-73660000D03*
%TD*%
%TO.P,C7,1*%
%TO.N,/ATMEGA16U2/USB_GND*%
X170312000Y-70485000D03*
%TO.P,C7,2*%
%TO.N,Net-(U5-UCAP)*%
X172212000Y-70485000D03*
%TD*%
D44*
%TO.P,C6,1*%
%TO.N,3V3_LDO*%
X172339000Y-57018000D03*
%TO.P,C6,2*%
%TO.N,GND*%
X172339000Y-55118000D03*
%TD*%
D45*
%TO.P,C5,2*%
%TO.N,GND*%
X163703000Y-70226000D03*
%TO.P,C5,1*%
%TO.N,5V_LDO*%
X163703000Y-68326000D03*
%TD*%
D44*
%TO.P,C4,1*%
%TO.N,5V_LDO*%
X159639000Y-62860000D03*
%TO.P,C4,2*%
%TO.N,GND*%
X159639000Y-60960000D03*
%TD*%
D45*
%TO.P,C3,1*%
%TO.N,5V_LDO*%
X149987000Y-52578000D03*
%TO.P,C3,2*%
%TO.N,GND*%
X149987000Y-54478000D03*
%TD*%
D46*
%TO.P,C2,1*%
%TO.N,5V_LDO*%
X153289000Y-58039000D03*
%TO.P,C2,2*%
%TO.N,GND*%
X153289000Y-65090600D03*
%TD*%
%TO.P,C1,1*%
%TO.N,Vin*%
X143510000Y-58039000D03*
%TO.P,C1,2*%
%TO.N,GND*%
X143510000Y-65090600D03*
%TD*%
D47*
%TO.N,GND*%
X186309000Y-60452000D03*
X182626000Y-60706000D03*
X166243000Y-83185000D03*
X160528000Y-88646000D03*
X163449000Y-88392000D03*
X149479000Y-95377000D03*
X158369000Y-59436000D03*
X173482000Y-53975000D03*
X166370000Y-96266000D03*
X139192000Y-98298000D03*
X168656000Y-65151000D03*
X168656000Y-68199000D03*
X171196000Y-91567000D03*
X167640000Y-59944000D03*
X165862000Y-80772000D03*
%TO.N,5V_LDO*%
X160576717Y-97595131D03*
X159131000Y-99187000D03*
%TO.N,SCK*%
X178943000Y-106553000D03*
%TO.N,3V3_LDO*%
X157226000Y-67437000D03*
X162687000Y-65278000D03*
%TO.N,/ATMEGA328P_subsystem/ARD_AN2*%
X154305000Y-81242500D03*
X156210000Y-75946000D03*
%TO.N,/ATMEGA328P_subsystem/ARD_AN3*%
X148336000Y-82695500D03*
%TO.N,/ATMEGA328P_subsystem/ARD_AN0*%
X175006000Y-89154000D03*
%TO.N,/ATMEGA328P_subsystem/AREF*%
X159512000Y-93345000D03*
%TO.N,/ATMEGA328P_subsystem/328P_ICSP_MISO*%
X176530000Y-105156000D03*
X180213000Y-105156000D03*
%TO.N,Vin*%
X154051000Y-98425000D03*
%TO.N,/ATMEGA16U2/SERIAL_Rx*%
X166624000Y-86487000D03*
X160020000Y-85471000D03*
%TO.N,/ATMEGA16U2/DTR*%
X174244000Y-85852500D03*
X169164000Y-89154000D03*
%TO.N,USBVCC*%
X173101000Y-75184000D03*
X169418000Y-75692000D03*
%TO.N,5V_LDO*%
X167513000Y-81444500D03*
X170561000Y-77978000D03*
%TO.N,/ATMEGA16U2/ICSP_SCK*%
X176022000Y-85852000D03*
X181229000Y-79629000D03*
%TO.N,Net-(D4-A)*%
X176752500Y-71501000D03*
X178816000Y-72898000D03*
%TO.N,5V_LDO*%
X172466000Y-72136000D03*
X175006000Y-69977000D03*
X181356000Y-59690000D03*
X177927000Y-59690000D03*
%TO.N,Net-(U5-UCAP)*%
X174968500Y-75311000D03*
X173519500Y-73787000D03*
%TO.N,/ATMEGA16U2/USB_RD-*%
X173519500Y-76200000D03*
X176022000Y-59817000D03*
%TO.N,/ATMEGA16U2/USB_RD+*%
X173990000Y-77280500D03*
X183515000Y-57695500D03*
%TO.N,Net-(J2-Shield)*%
X184912000Y-55372000D03*
X185801000Y-50800000D03*
%TO.N,USBVCC*%
X161417000Y-70358000D03*
X170307000Y-53594000D03*
%TD*%
D48*
%TO.N,GND*%
X137922000Y-97917000D02*
X138303000Y-98298000D01*
X138303000Y-98298000D02*
X139192000Y-98298000D01*
X137922000Y-94856300D02*
X137922000Y-97917000D01*
X140335000Y-93980000D02*
X138798300Y-93980000D01*
X138798300Y-93980000D02*
X137922000Y-94856300D01*
%TO.N,Net-(U7A-(PCINT7{slash}XTAL2{slash}TOSC2)_PB7)*%
X138802000Y-102908000D02*
X139827000Y-103933000D01*
X138802000Y-101607327D02*
X138802000Y-102908000D01*
X139954000Y-95561000D02*
X139954000Y-100455327D01*
X140335000Y-95180000D02*
X139954000Y-95561000D01*
X139954000Y-100455327D02*
X138802000Y-101607327D01*
%TO.N,Net-(U7A-(PCINT6{slash}XTAL1{slash}TOSC1)_PB6)*%
X140930878Y-92780000D02*
X140335000Y-92780000D01*
X141612500Y-93461622D02*
X140930878Y-92780000D01*
X141612500Y-97383600D02*
X141612500Y-93461622D01*
X140571100Y-98425000D02*
X141612500Y-97383600D01*
%TO.N,GND*%
X166116000Y-59944000D02*
X167640000Y-59944000D01*
X173482000Y-53975000D02*
X172339000Y-55118000D01*
X153995000Y-94671000D02*
X156972000Y-91694000D01*
X150185000Y-94671000D02*
X149479000Y-95377000D01*
X153995000Y-94671000D02*
X150185000Y-94671000D01*
X182880000Y-60452000D02*
X182626000Y-60706000D01*
X186309000Y-60452000D02*
X182880000Y-60452000D01*
X165862000Y-82804000D02*
X166243000Y-83185000D01*
X165862000Y-80772000D02*
X165862000Y-82804000D01*
X163195000Y-88646000D02*
X163449000Y-88392000D01*
X160528000Y-88646000D02*
X163195000Y-88646000D01*
X155372000Y-96845000D02*
X150947000Y-96845000D01*
X150947000Y-96845000D02*
X149479000Y-95377000D01*
X156967000Y-95250000D02*
X155372000Y-96845000D01*
X167813305Y-80719500D02*
X165914500Y-80719500D01*
X168365804Y-81271999D02*
X167813305Y-80719500D01*
X165914500Y-80719500D02*
X165862000Y-80772000D01*
X171503000Y-81271999D02*
X168365804Y-81271999D01*
X165100000Y-81534000D02*
X165862000Y-80772000D01*
X164846000Y-86868000D02*
X165100000Y-86614000D01*
X163068000Y-86868000D02*
X164846000Y-86868000D01*
X161930000Y-85730000D02*
X163068000Y-86868000D01*
X165100000Y-86614000D02*
X165100000Y-81534000D01*
X161930000Y-85344000D02*
X161930000Y-85730000D01*
X162179000Y-113030000D02*
X159258000Y-110109000D01*
X187452000Y-112522000D02*
X186944000Y-113030000D01*
X186944000Y-113030000D02*
X162179000Y-113030000D01*
X187452000Y-97028000D02*
X187452000Y-112522000D01*
X185801000Y-95377000D02*
X187452000Y-97028000D01*
X168468000Y-105725000D02*
X164084000Y-110109000D01*
X169804500Y-105725000D02*
X168468000Y-105725000D01*
X164084000Y-110109000D02*
X159258000Y-110109000D01*
X159161000Y-57785000D02*
X159161000Y-58644000D01*
X159161000Y-58644000D02*
X158369000Y-59436000D01*
X165774000Y-54903327D02*
X165227000Y-55450327D01*
X165227000Y-55450327D02*
X165227000Y-57070000D01*
X165774000Y-45745000D02*
X165774000Y-54903327D01*
X165227000Y-57070000D02*
X166323000Y-58166000D01*
X148209000Y-56256000D02*
X148209000Y-65944300D01*
X149987000Y-54478000D02*
X148209000Y-56256000D01*
X148209000Y-65944300D02*
X152543878Y-65944300D01*
X144255122Y-65944300D02*
X148209000Y-65944300D01*
X149357000Y-73025000D02*
X143129000Y-73025000D01*
X143129000Y-73025000D02*
X135255000Y-80899000D01*
%TO.N,5V_LDO*%
X133477000Y-87757000D02*
X133477000Y-80137000D01*
X133477000Y-80137000D02*
X135255000Y-78359000D01*
X133858000Y-88138000D02*
X133477000Y-87757000D01*
X138938000Y-88138000D02*
X133858000Y-88138000D01*
X144018000Y-93218000D02*
X138938000Y-88138000D01*
%TO.N,GND*%
X153289000Y-65199178D02*
X153289000Y-65090600D01*
X152543878Y-65944300D02*
X153289000Y-65199178D01*
X143510000Y-65090600D02*
X143510000Y-65199178D01*
X143510000Y-65199178D02*
X144255122Y-65944300D01*
X158369000Y-65278000D02*
X158369000Y-59436000D01*
X153558300Y-65944300D02*
X157702700Y-65944300D01*
X157702700Y-65944300D02*
X158369000Y-65278000D01*
X153289000Y-65675000D02*
X153558300Y-65944300D01*
X153289000Y-65090600D02*
X153289000Y-65675000D01*
X166116000Y-59944000D02*
X166116000Y-58373000D01*
X166116000Y-61214000D02*
X166116000Y-59944000D01*
X166116000Y-58373000D02*
X166323000Y-58166000D01*
X166157001Y-61255001D02*
X166116000Y-61214000D01*
X167948348Y-61255001D02*
X166157001Y-61255001D01*
X159161000Y-59309000D02*
X158496000Y-59309000D01*
X158496000Y-59309000D02*
X158369000Y-59436000D01*
X159161000Y-60482000D02*
X159161000Y-59309000D01*
X159639000Y-60960000D02*
X159161000Y-60482000D01*
X181737000Y-99441000D02*
X185801000Y-95377000D01*
X181737000Y-100584000D02*
X181737000Y-99441000D01*
X165735000Y-95631000D02*
X166370000Y-96266000D01*
X164592000Y-95631000D02*
X165735000Y-95631000D01*
%TO.N,Net-(C12-Pad2)*%
X163604500Y-97945500D02*
X164592000Y-98933000D01*
X163604500Y-93547500D02*
X163604500Y-97945500D01*
X162513000Y-92456000D02*
X163604500Y-93547500D01*
%TO.N,GND*%
X170277998Y-92485002D02*
X171196000Y-91567000D01*
X169068999Y-92485002D02*
X170277998Y-92485002D01*
X172334000Y-66548000D02*
X168656000Y-70226000D01*
X172419000Y-66548000D02*
X172334000Y-66548000D01*
X168656000Y-70226000D02*
X163703000Y-70226000D01*
X168656000Y-72004000D02*
X168656000Y-70226000D01*
X170312000Y-73660000D02*
X168656000Y-72004000D01*
X168656000Y-70226000D02*
X168656000Y-68199000D01*
X171960249Y-62357000D02*
X169166249Y-65151000D01*
X172344500Y-62357000D02*
X171960249Y-62357000D01*
X169166249Y-65151000D02*
X168656000Y-65151000D01*
X173069001Y-92485002D02*
X172114002Y-92485002D01*
X172114002Y-92485002D02*
X171196000Y-91567000D01*
X173202999Y-81271999D02*
X171503000Y-81271999D01*
X173953000Y-82022000D02*
X173202999Y-81271999D01*
%TO.N,SCK*%
X178196000Y-107300000D02*
X178943000Y-106553000D01*
X170429500Y-107300000D02*
X178196000Y-107300000D01*
X169804500Y-106675000D02*
X170429500Y-107300000D01*
%TO.N,5V_LDO*%
X160333131Y-97595131D02*
X159829500Y-97091500D01*
X160576717Y-97595131D02*
X160333131Y-97595131D01*
X160237000Y-96684000D02*
X159829500Y-97091500D01*
X158114000Y-100204000D02*
X159131000Y-99187000D01*
X158114000Y-100330000D02*
X158114000Y-100204000D01*
X159829500Y-97091500D02*
X159221000Y-97700000D01*
%TO.N,Vin*%
X156846000Y-98298000D02*
X154814000Y-100330000D01*
X160401000Y-98298000D02*
X156846000Y-98298000D01*
X164973000Y-102870000D02*
X160401000Y-98298000D01*
%TO.N,5V_LDO*%
X167840500Y-81772000D02*
X171503000Y-81772000D01*
X167513000Y-81444500D02*
X167840500Y-81772000D01*
%TO.N,SCK*%
X180848000Y-106553000D02*
X178943000Y-106553000D01*
X180975000Y-106426000D02*
X180848000Y-106553000D01*
X183388000Y-104013000D02*
X180975000Y-106426000D01*
X183388000Y-100330000D02*
X183388000Y-101600000D01*
X185801000Y-97917000D02*
X183388000Y-100330000D01*
X183388000Y-101600000D02*
X183388000Y-104013000D01*
%TO.N,3V3_LDO*%
X143637000Y-67437000D02*
X135255000Y-75819000D01*
X157226000Y-67437000D02*
X143637000Y-67437000D01*
X162978100Y-65278000D02*
X162687000Y-65278000D01*
X165701099Y-62555001D02*
X162978100Y-65278000D01*
X167948348Y-62555001D02*
X165701099Y-62555001D01*
%TO.N,Vin*%
X137922000Y-58467022D02*
X139203722Y-57185300D01*
X142764878Y-57185300D02*
X143510000Y-57930422D01*
X137922000Y-70612000D02*
X137922000Y-58467022D01*
X135255000Y-73279000D02*
X137922000Y-70612000D01*
X139203722Y-57185300D02*
X142764878Y-57185300D01*
X143510000Y-57930422D02*
X143510000Y-58039000D01*
%TO.N,/ATMEGA328P_subsystem/ARD_AN2*%
X154305000Y-77851000D02*
X154305000Y-81242500D01*
X156210000Y-75946000D02*
X154305000Y-77851000D01*
%TO.N,Net-(U5-XTAL1)*%
X152781000Y-71501000D02*
X151257000Y-73025000D01*
X158496000Y-71501000D02*
X152781000Y-71501000D01*
X162433000Y-75438000D02*
X158496000Y-71501000D01*
%TO.N,/ATMEGA328P_subsystem/ARD_AN3*%
X148698500Y-83058000D02*
X151638000Y-83058000D01*
X148336000Y-82695500D02*
X148698500Y-83058000D01*
%TO.N,/ATMEGA328P_subsystem/ARD_AN0*%
X152781000Y-89535000D02*
X151638000Y-90678000D01*
X167757695Y-89535000D02*
X152781000Y-89535000D01*
X168863695Y-88429000D02*
X167757695Y-89535000D01*
X173519000Y-88429000D02*
X168863695Y-88429000D01*
X174879000Y-89281000D02*
X174371000Y-89281000D01*
X174371000Y-89281000D02*
X173519000Y-88429000D01*
X175006000Y-89154000D02*
X174879000Y-89281000D01*
%TO.N,/ATMEGA328P_subsystem/ARD_AN5{slash}SCL*%
X188087000Y-70866000D02*
X186055000Y-68834000D01*
X188087000Y-85471000D02*
X188087000Y-70866000D01*
X185801000Y-87757000D02*
X188087000Y-85471000D01*
%TO.N,/ATMEGA328P_subsystem/AREF*%
X154559000Y-95758000D02*
X151638000Y-95758000D01*
X155067000Y-95250000D02*
X154559000Y-95758000D01*
%TO.N,5V_LDO*%
X152236000Y-97700000D02*
X151638000Y-98298000D01*
X159221000Y-97700000D02*
X152236000Y-97700000D01*
X160237000Y-90768000D02*
X160237000Y-96684000D01*
X159893000Y-90424000D02*
X160237000Y-90768000D01*
X156342000Y-90424000D02*
X159893000Y-90424000D01*
X155072000Y-91694000D02*
X156342000Y-90424000D01*
%TO.N,/ATMEGA328P_subsystem/AREF*%
X156972000Y-93345000D02*
X155067000Y-95250000D01*
X159512000Y-93345000D02*
X156972000Y-93345000D01*
%TO.N,/ATMEGA328P_subsystem/328P_ICSP_MISO*%
X180213000Y-105156000D02*
X176530000Y-105156000D01*
%TO.N,Vin*%
X154814000Y-99188000D02*
X154051000Y-98425000D01*
X154814000Y-100330000D02*
X154814000Y-99188000D01*
%TO.N,Net-(U7A-(PCINT7{slash}XTAL2{slash}TOSC2)_PB7)*%
X142922000Y-100838000D02*
X144018000Y-100838000D01*
X139827000Y-103933000D02*
X142922000Y-100838000D01*
%TO.N,Net-(U7A-(PCINT6{slash}XTAL1{slash}TOSC1)_PB6)*%
X140698100Y-98298000D02*
X144018000Y-98298000D01*
X140571100Y-98425000D02*
X140698100Y-98298000D01*
X140571100Y-101363900D02*
X140571100Y-98425000D01*
X139827000Y-102108000D02*
X140571100Y-101363900D01*
%TO.N,/ATMEGA16U2/SERIAL_Rx*%
X166878000Y-86487000D02*
X168893000Y-84472000D01*
X168893000Y-84472000D02*
X172203001Y-84472000D01*
X166624000Y-86487000D02*
X166878000Y-86487000D01*
X160020000Y-85344000D02*
X160020000Y-85471000D01*
X157861000Y-83185000D02*
X160020000Y-85344000D01*
%TO.N,/ATMEGA16U2/SERIAL_Tx*%
X168704001Y-83771999D02*
X171503000Y-83771999D01*
X165735000Y-85344000D02*
X167132000Y-85344000D01*
X165608000Y-87503000D02*
X165735000Y-87376000D01*
X165735000Y-87376000D02*
X165735000Y-85344000D01*
X159229000Y-87503000D02*
X165608000Y-87503000D01*
X157861000Y-86135000D02*
X159229000Y-87503000D01*
X167132000Y-85344000D02*
X168704001Y-83771999D01*
%TO.N,/ATMEGA328P_subsystem/ARD_DIG1*%
X154412000Y-84511000D02*
X156036000Y-86135000D01*
X145471000Y-84511000D02*
X154412000Y-84511000D01*
X144018000Y-83058000D02*
X145471000Y-84511000D01*
%TO.N,/ATMEGA328P_subsystem/ARD_DIG0*%
X154822000Y-81971000D02*
X156036000Y-83185000D01*
X145471000Y-81971000D02*
X154822000Y-81971000D01*
X144018000Y-80518000D02*
X145471000Y-81971000D01*
%TO.N,/ATMEGA328P_subsystem/328P_ICSP_MOSI*%
X151638000Y-106807000D02*
X151638000Y-105918000D01*
X157893000Y-110595701D02*
X157204701Y-111284000D01*
X157893000Y-109622299D02*
X157893000Y-110595701D01*
X157204701Y-111284000D02*
X156115000Y-111284000D01*
X159258000Y-108257299D02*
X157893000Y-109622299D01*
X159258000Y-107569000D02*
X159258000Y-108257299D01*
X156115000Y-111284000D02*
X151638000Y-106807000D01*
%TO.N,Vin*%
X157893000Y-103409000D02*
X154814000Y-100330000D01*
X157893000Y-108934000D02*
X157893000Y-103409000D01*
X156718000Y-110109000D02*
X157893000Y-108934000D01*
%TO.N,/ATMEGA16U2/DTR*%
X174244000Y-84513000D02*
X174203000Y-84472000D01*
X174244000Y-85852500D02*
X174244000Y-84513000D01*
%TO.N,Net-(D5-K)*%
X173202999Y-86577000D02*
X173202999Y-84472000D01*
X181065000Y-86577000D02*
X173202999Y-86577000D01*
X182118000Y-87630000D02*
X181065000Y-86577000D01*
%TO.N,Net-(D6-K)*%
X172703000Y-86851000D02*
X172703000Y-84472000D01*
X179070000Y-87630000D02*
X173482000Y-87630000D01*
X173482000Y-87630000D02*
X172703000Y-86851000D01*
%TO.N,/ATMEGA16U2/DTR*%
X167259000Y-91059000D02*
X169164000Y-89154000D01*
X161675500Y-91562500D02*
X162179000Y-91059000D01*
X165227000Y-91059000D02*
X167259000Y-91059000D01*
X161675500Y-94539500D02*
X161675500Y-91562500D01*
X162179000Y-91059000D02*
X165227000Y-91059000D01*
X162767000Y-95631000D02*
X161675500Y-94539500D01*
X162692000Y-95706000D02*
X162767000Y-95631000D01*
X162692000Y-98933000D02*
X162692000Y-95706000D01*
%TO.N,Vin*%
X169068999Y-97186999D02*
X169068999Y-99284998D01*
X164338000Y-92456000D02*
X169068999Y-97186999D01*
X165483997Y-102870000D02*
X169068999Y-99284998D01*
X164973000Y-102870000D02*
X165483997Y-102870000D01*
%TO.N,5V_LDO*%
X160654000Y-102870000D02*
X158114000Y-100330000D01*
X163148000Y-102870000D02*
X160654000Y-102870000D01*
X163195000Y-102917000D02*
X163148000Y-102870000D01*
X163195000Y-105029000D02*
X159258000Y-105029000D01*
X163195000Y-105029000D02*
X163195000Y-102917000D01*
X165481000Y-105029000D02*
X163195000Y-105029000D01*
X166360000Y-104150000D02*
X165481000Y-105029000D01*
X171454500Y-104150000D02*
X166360000Y-104150000D01*
X172079500Y-104775000D02*
X171454500Y-104150000D01*
X149098000Y-98298000D02*
X144018000Y-93218000D01*
X151638000Y-98298000D02*
X149098000Y-98298000D01*
%TO.N,Vin*%
X173069001Y-99284998D02*
X169068999Y-99284998D01*
%TO.N,5V_LDO*%
X172974000Y-104775000D02*
X172079500Y-104775000D01*
X176403000Y-101346000D02*
X172974000Y-104775000D01*
X176403000Y-98980000D02*
X176403000Y-101346000D01*
X179197000Y-96186000D02*
X176403000Y-98980000D01*
%TO.N,Net-(D3-A)*%
X178358000Y-102459000D02*
X181737000Y-102459000D01*
X178308000Y-102409000D02*
X178358000Y-102459000D01*
%TO.N,Net-(U2--)*%
X172217000Y-106675000D02*
X178308000Y-100584000D01*
X172079500Y-106675000D02*
X172217000Y-106675000D01*
X172079500Y-106665749D02*
X170188751Y-104775000D01*
X172079500Y-106675000D02*
X172079500Y-106665749D01*
X170188751Y-104775000D02*
X169804500Y-104775000D01*
%TO.N,USBVCC*%
X172703000Y-75582000D02*
X172703000Y-79572000D01*
X173101000Y-75184000D02*
X172703000Y-75582000D01*
D49*
%TO.N,/ATMEGA16U2/USB_RD-*%
X173202999Y-76516501D02*
X173202999Y-79572000D01*
X173519500Y-76200000D02*
X173202999Y-76516501D01*
D48*
%TO.N,USBVCC*%
X166751000Y-75692000D02*
X169418000Y-75692000D01*
X161417000Y-70358000D02*
X166751000Y-75692000D01*
%TO.N,5V_LDO*%
X171323000Y-77216000D02*
X170561000Y-77978000D01*
X172203001Y-77216000D02*
X171323000Y-77216000D01*
X172203001Y-77216000D02*
X172203001Y-73668999D01*
X172203001Y-79572000D02*
X172203001Y-77216000D01*
%TO.N,Net-(D6-A)*%
X179197000Y-89632000D02*
X179070000Y-89505000D01*
X179197000Y-94361000D02*
X179197000Y-89632000D01*
%TO.N,Net-(D5-A)*%
X181864000Y-94361000D02*
X181864000Y-89759000D01*
X181864000Y-89759000D02*
X182118000Y-89505000D01*
%TO.N,5V_LDO*%
X181864000Y-96186000D02*
X179197000Y-96186000D01*
X183362000Y-94688000D02*
X181864000Y-96186000D01*
X183362000Y-66141000D02*
X183362000Y-94688000D01*
X181737000Y-64516000D02*
X183362000Y-66141000D01*
%TO.N,/ATMEGA16U2/ICSP_SCK*%
X175203000Y-85033000D02*
X175203000Y-84472000D01*
X176022000Y-85852000D02*
X175203000Y-85033000D01*
X181229000Y-78689931D02*
X181229000Y-79629000D01*
X180372000Y-77832931D02*
X181229000Y-78689931D01*
X179197000Y-67056000D02*
X180372000Y-68231000D01*
X180372000Y-68231000D02*
X180372000Y-77832931D01*
%TO.N,Net-(D4-A)*%
X176752500Y-71911500D02*
X175895000Y-72769000D01*
X176752500Y-71501000D02*
X176752500Y-71911500D01*
X178943000Y-72898000D02*
X178816000Y-72898000D01*
X179197000Y-72644000D02*
X178943000Y-72898000D01*
%TO.N,5V_LDO*%
X178134000Y-78820000D02*
X179197000Y-78820000D01*
X177477000Y-78163000D02*
X178134000Y-78820000D01*
X177477000Y-71051000D02*
X177477000Y-78163000D01*
X175895000Y-69469000D02*
X177477000Y-71051000D01*
%TO.N,/ATMEGA16U2/ICSP_MISO*%
X177595674Y-83771999D02*
X176403000Y-83771999D01*
X177595674Y-81721999D02*
X177595674Y-83771999D01*
X177835173Y-81482500D02*
X177595674Y-81721999D01*
X179885173Y-81482500D02*
X177835173Y-81482500D01*
X179187673Y-77285000D02*
X180222000Y-78319327D01*
X177927000Y-77285000D02*
X179187673Y-77285000D01*
X180222000Y-78319327D02*
X180222000Y-81145673D01*
X177038000Y-69975604D02*
X177927000Y-70864604D01*
X177927000Y-70864604D02*
X177927000Y-77285000D01*
X180222000Y-81145673D02*
X179885173Y-81482500D01*
X177038000Y-66675000D02*
X177038000Y-69975604D01*
X179197000Y-64516000D02*
X177038000Y-66675000D01*
%TO.N,Net-(D4-A)*%
X179197000Y-69596000D02*
X179197000Y-72644000D01*
%TO.N,/ATMEGA16U2/ICSP_MOSI*%
X182912000Y-79092069D02*
X177532069Y-84472000D01*
X177532069Y-84472000D02*
X175702999Y-84472000D01*
X182912000Y-68231000D02*
X182912000Y-79092069D01*
X181737000Y-67056000D02*
X182912000Y-68231000D01*
%TO.N,5V_LDO*%
X178308000Y-61849000D02*
X179070000Y-61849000D01*
X177038000Y-63119000D02*
X178308000Y-61849000D01*
X177038000Y-64390396D02*
X177038000Y-63119000D01*
X176530000Y-64898396D02*
X177038000Y-64390396D01*
X176530000Y-68834000D02*
X176530000Y-64898396D01*
X179070000Y-61849000D02*
X181737000Y-64516000D01*
X175895000Y-69469000D02*
X176530000Y-68834000D01*
%TO.N,Net-(D4-A)*%
X178824001Y-80272001D02*
X179197000Y-80645000D01*
X176403000Y-80272001D02*
X178824001Y-80272001D01*
X176403000Y-73277000D02*
X175895000Y-72769000D01*
X176403000Y-80272001D02*
X176403000Y-73277000D01*
%TO.N,5V_LDO*%
X172466000Y-72136000D02*
X172466000Y-73406000D01*
X172466000Y-73406000D02*
X172212000Y-73660000D01*
X175514000Y-69469000D02*
X175006000Y-69977000D01*
X175895000Y-69469000D02*
X175514000Y-69469000D01*
X181737000Y-60071000D02*
X181737000Y-64516000D01*
X181356000Y-59690000D02*
X181737000Y-60071000D01*
X166497000Y-68326000D02*
X167325500Y-68326000D01*
X163703000Y-68326000D02*
X166497000Y-68326000D01*
X172203001Y-73668999D02*
X172212000Y-73660000D01*
%TO.N,Net-(U5-PC0)*%
X162433000Y-83947000D02*
X163830000Y-85344000D01*
X162433000Y-80438000D02*
X162433000Y-83947000D01*
X163726500Y-79144500D02*
X162433000Y-80438000D01*
X168124500Y-79144500D02*
X163726500Y-79144500D01*
X169752000Y-80772000D02*
X168124500Y-79144500D01*
X171503000Y-80772000D02*
X169752000Y-80772000D01*
%TO.N,Net-(U5-XTAL1)*%
X168124500Y-77319500D02*
X164314500Y-77319500D01*
X164314500Y-77319500D02*
X162433000Y-75438000D01*
X168550499Y-77319500D02*
X168124500Y-77319500D01*
X171503000Y-80272001D02*
X168550499Y-77319500D01*
%TO.N,5V_LDO*%
X175387000Y-62230000D02*
X177927000Y-59690000D01*
X173332000Y-62230000D02*
X175387000Y-62230000D01*
X173332000Y-62230000D02*
X173332000Y-61953000D01*
X173332000Y-62703751D02*
X173332000Y-62230000D01*
%TO.N,Net-(U5-UCAP)*%
X174703001Y-78229200D02*
X174703001Y-79572000D01*
X175165000Y-77767201D02*
X174703001Y-78229200D01*
X175165000Y-75507500D02*
X175165000Y-77767201D01*
X174968500Y-75311000D02*
X175165000Y-75507500D01*
%TO.N,/ATMEGA16U2/USB_GND*%
X174203000Y-78092805D02*
X174203000Y-79572000D01*
X174715000Y-76980195D02*
X174715000Y-77580805D01*
X174715000Y-77580805D02*
X174203000Y-78092805D01*
X174244000Y-76555500D02*
X174290305Y-76555500D01*
X174244000Y-66548000D02*
X174244000Y-76555500D01*
X174290305Y-76555500D02*
X174715000Y-76980195D01*
%TO.N,Net-(U5-UCAP)*%
X173519500Y-71792500D02*
X173519500Y-73787000D01*
X172212000Y-70485000D02*
X173519500Y-71792500D01*
D49*
%TO.N,/ATMEGA16U2/USB_RD+*%
X173703000Y-77567500D02*
X173703000Y-79572000D01*
X173990000Y-77280500D02*
X173703000Y-77567500D01*
%TO.N,/ATMEGA16U2/USB_RD-*%
X174879000Y-58674000D02*
X176022000Y-59817000D01*
X174879000Y-56816000D02*
X174879000Y-58674000D01*
%TO.N,/ATMEGA16U2/USB_RD+*%
X183515000Y-56943000D02*
X183515000Y-57695500D01*
D48*
%TO.N,/ATMEGA16U2/USB_GND*%
X174244000Y-66553000D02*
X170312000Y-70485000D01*
X174244000Y-66548000D02*
X174244000Y-66553000D01*
X176149000Y-63111751D02*
X176149000Y-64643000D01*
X180840751Y-58420000D02*
X176149000Y-63111751D01*
X176149000Y-64643000D02*
X174244000Y-66548000D01*
X187579000Y-58420000D02*
X180840751Y-58420000D01*
X187579000Y-56007000D02*
X187579000Y-58420000D01*
X186436000Y-54864000D02*
X187579000Y-56007000D01*
%TO.N,Net-(J2-Shield)*%
X184785000Y-55499000D02*
X184785000Y-56105500D01*
X184912000Y-55372000D02*
X184785000Y-55499000D01*
X185271000Y-49105000D02*
X185271000Y-50270000D01*
X185271000Y-50270000D02*
X185801000Y-50800000D01*
%TO.N,/ATMEGA16U2/USB_GND*%
X182046000Y-50474000D02*
X186436000Y-54864000D01*
X182046000Y-45255000D02*
X182046000Y-50474000D01*
%TO.N,Net-(J2-Shield)*%
X184785000Y-56105500D02*
X185377500Y-56105500D01*
X180241500Y-56105500D02*
X184785000Y-56105500D01*
%TO.N,USBVCC*%
X160352500Y-70358000D02*
X160147000Y-70152500D01*
X161417000Y-70358000D02*
X160352500Y-70358000D01*
X172974000Y-50927000D02*
X170307000Y-53594000D01*
X172974000Y-49789000D02*
X172974000Y-50927000D01*
%TO.N,Net-(J2-Shield)*%
X179705000Y-56642000D02*
X180241500Y-56105500D01*
X185377500Y-56105500D02*
X186436000Y-57164000D01*
X179705000Y-57070000D02*
X179705000Y-56642000D01*
X179705000Y-57070000D02*
X180768000Y-57070000D01*
X178435000Y-57070000D02*
X179705000Y-57070000D01*
X180768000Y-57070000D02*
X180848000Y-56990000D01*
%TO.N,Net-(J2-D-)*%
X178054000Y-54864000D02*
X178435000Y-55245000D01*
X178054000Y-52324000D02*
X178054000Y-54864000D01*
X177546000Y-52324000D02*
X174879000Y-54991000D01*
X178054000Y-52324000D02*
X177546000Y-52324000D01*
X180746000Y-49632000D02*
X178054000Y-52324000D01*
X180746000Y-45255000D02*
X180746000Y-49632000D01*
%TO.N,Net-(J2-D+)*%
X181396000Y-52999000D02*
X181396000Y-54617000D01*
X181396000Y-54617000D02*
X180848000Y-55165000D01*
X181396000Y-52999000D02*
X183515000Y-55118000D01*
X181396000Y-45255000D02*
X181396000Y-52999000D01*
%TO.N,Net-(J2-Shield)*%
X178696000Y-44280000D02*
X177671000Y-45305000D01*
X183515000Y-44577000D02*
X183218000Y-44280000D01*
X183218000Y-44280000D02*
X178696000Y-44280000D01*
X183515000Y-45255000D02*
X183515000Y-44577000D01*
%TO.N,Net-(J2-VBUS)*%
X172974000Y-46155792D02*
X172974000Y-45339000D01*
X177893792Y-50330000D02*
X177148208Y-50330000D01*
X179217016Y-47130000D02*
X179217016Y-49006776D01*
X177148208Y-50330000D02*
X172974000Y-46155792D01*
X180096000Y-46251016D02*
X179217016Y-47130000D01*
X179217016Y-49006776D02*
X177893792Y-50330000D01*
X180096000Y-45255000D02*
X180096000Y-46251016D01*
%TO.N,Net-(J2-Shield)*%
X177521000Y-45455000D02*
X177671000Y-45305000D01*
X177521000Y-49105000D02*
X177521000Y-45455000D01*
X183515000Y-45255000D02*
X185071000Y-45255000D01*
X182696000Y-45255000D02*
X183515000Y-45255000D01*
X185121000Y-48955000D02*
X185271000Y-49105000D01*
X185121000Y-45305000D02*
X185121000Y-48955000D01*
X185071000Y-45255000D02*
X185121000Y-45305000D01*
%TO.N,5V_LDO*%
X159681250Y-68277500D02*
X159197000Y-68277500D01*
X160743750Y-69340000D02*
X159681250Y-68277500D01*
X163703000Y-68326000D02*
X162689000Y-69340000D01*
X162689000Y-69340000D02*
X160743750Y-69340000D01*
%TO.N,Net-(IC1-OUT)*%
X166169501Y-63204999D02*
X161097000Y-68277500D01*
X167948348Y-63204999D02*
X166169501Y-63204999D01*
%TO.N,5V_LDO*%
X161671000Y-65803500D02*
X159197000Y-68277500D01*
X161671000Y-62268296D02*
X161671000Y-65803500D01*
%TO.N,3V3_LDO*%
X172466000Y-57145000D02*
X172339000Y-57018000D01*
X172466000Y-60782000D02*
X172466000Y-57145000D01*
X172466000Y-60782000D02*
X170621692Y-60782000D01*
X173994500Y-60782000D02*
X172466000Y-60782000D01*
X170621692Y-60782000D02*
X168848691Y-62555001D01*
X168848691Y-62555001D02*
X167948348Y-62555001D01*
X174619500Y-61407000D02*
X173994500Y-60782000D01*
%TO.N,5V_LDO*%
X172728751Y-63307000D02*
X173332000Y-62703751D01*
X173332000Y-61953000D02*
X172786000Y-61407000D01*
X172786000Y-61407000D02*
X172344500Y-61407000D01*
X172344500Y-63307000D02*
X172728751Y-63307000D01*
X167325500Y-68326000D02*
X172344500Y-63307000D01*
%TO.N,Net-(IC1-1IN+)*%
X168862297Y-61904999D02*
X167948348Y-61904999D01*
X169164000Y-57785000D02*
X169164000Y-61603296D01*
X169164000Y-61603296D02*
X168862297Y-61904999D01*
%TO.N,5V_LDO*%
X160230704Y-62268296D02*
X159639000Y-62860000D01*
X161671000Y-62268296D02*
X160230704Y-62268296D01*
X163474000Y-58395000D02*
X161671000Y-60198000D01*
X161671000Y-60198000D02*
X161671000Y-62268296D01*
X161671000Y-62268296D02*
X162607703Y-63204999D01*
X163474000Y-52045000D02*
X163474000Y-58395000D01*
X162607703Y-63204999D02*
X163521652Y-63204999D01*
%TO.N,Net-(IC1-1IN+)*%
X169164000Y-57785000D02*
X168783000Y-58166000D01*
X169418000Y-57531000D02*
X169164000Y-57785000D01*
%TO.N,Net-(D2-A)*%
X162179000Y-57785000D02*
X161036000Y-57785000D01*
X161925000Y-55499000D02*
X162687000Y-56261000D01*
X161036000Y-55499000D02*
X161925000Y-55499000D01*
X162687000Y-56261000D02*
X162687000Y-57277000D01*
X162687000Y-57277000D02*
X162179000Y-57785000D01*
%TO.N,Net-(IC1-1IN+)*%
X169799000Y-57150000D02*
X169418000Y-57531000D01*
X168783000Y-58166000D02*
X168148000Y-58166000D01*
X169799000Y-56261000D02*
X169799000Y-57150000D01*
X168275000Y-55753000D02*
X169291000Y-55753000D01*
X169291000Y-55753000D02*
X169799000Y-56261000D01*
%TO.N,Vin*%
X167767000Y-51562000D02*
X166450000Y-52879000D01*
X167767000Y-44069000D02*
X167767000Y-51562000D01*
X167386000Y-43688000D02*
X167767000Y-44069000D01*
X161671000Y-43688000D02*
X167386000Y-43688000D01*
X166450000Y-52879000D02*
X166450000Y-55753000D01*
X161174000Y-44185000D02*
X161671000Y-43688000D01*
X161174000Y-45745000D02*
X161174000Y-44185000D01*
%TO.N,5V_LDO*%
X156076000Y-52045000D02*
X154289000Y-53832000D01*
X163474000Y-52045000D02*
X156076000Y-52045000D01*
X163474000Y-45745000D02*
X163474000Y-52045000D01*
%TO.N,Vin*%
X156693000Y-45745000D02*
X161174000Y-45745000D01*
X154051000Y-48387000D02*
X156693000Y-45745000D01*
%TO.N,5V_LDO*%
X155956000Y-55499000D02*
X159211000Y-55499000D01*
X154289000Y-53832000D02*
X155956000Y-55499000D01*
X149987000Y-52578000D02*
X151241000Y-53832000D01*
X151241000Y-53832000D02*
X154289000Y-53832000D01*
X154289000Y-53832000D02*
X153289000Y-54832000D01*
X153289000Y-54832000D02*
X153289000Y-58039000D01*
%TO.N,Vin*%
X148528396Y-50546000D02*
X143510000Y-55564396D01*
X151892000Y-50546000D02*
X148528396Y-50546000D01*
X143510000Y-55564396D02*
X143510000Y-58039000D01*
X154051000Y-48387000D02*
X151892000Y-50546000D01*
%TO.N,Net-(D1-A)*%
X145575000Y-52863000D02*
X150051000Y-48387000D01*
X140589000Y-52863000D02*
X145575000Y-52863000D01*
%TD*%
M02*
