%TF.GenerationSoftware,KiCad,Pcbnew,7.0.6*%
%TF.CreationDate,2024-03-19T20:52:53+13:00*%
%TF.ProjectId,Arduino Uno R3,41726475-696e-46f2-9055-6e6f2052332e,rev?*%
%TF.SameCoordinates,Original*%
%TF.FileFunction,Paste,Top*%
%TF.FilePolarity,Positive*%
%FSLAX46Y46*%
G04 Gerber Fmt 4.6, Leading zero omitted, Abs format (unit mm)*
G04 Created by KiCad (PCBNEW 7.0.6) date 2024-03-19 20:52:53*
%MOMM*%
%LPD*%
G01*
G04 APERTURE LIST*
G04 Aperture macros list*
%AMRoundRect*
0 Rectangle with rounded corners*
0 $1 Rounding radius*
0 $2 $3 $4 $5 $6 $7 $8 $9 X,Y pos of 4 corners*
0 Add a 4 corners polygon primitive as box body*
4,1,4,$2,$3,$4,$5,$6,$7,$8,$9,$2,$3,0*
0 Add four circle primitives for the rounded corners*
1,1,$1+$1,$2,$3*
1,1,$1+$1,$4,$5*
1,1,$1+$1,$6,$7*
1,1,$1+$1,$8,$9*
0 Add four rect primitives between the rounded corners*
20,1,$1+$1,$2,$3,$4,$5,0*
20,1,$1+$1,$4,$5,$6,$7,0*
20,1,$1+$1,$6,$7,$8,$9,0*
20,1,$1+$1,$8,$9,$2,$3,0*%
G04 Aperture macros list end*
%ADD10R,1.905000X0.406400*%
%ADD11RoundRect,0.250000X-0.450000X0.262500X-0.450000X-0.262500X0.450000X-0.262500X0.450000X0.262500X0*%
%ADD12RoundRect,0.150000X-0.150000X0.587500X-0.150000X-0.587500X0.150000X-0.587500X0.150000X0.587500X0*%
%ADD13R,0.799999X0.250000*%
%ADD14R,0.250000X0.799999*%
%ADD15R,3.250001X3.250001*%
%ADD16RoundRect,0.150000X-0.512500X-0.150000X0.512500X-0.150000X0.512500X0.150000X-0.512500X0.150000X0*%
%ADD17R,1.500000X2.000000*%
%ADD18R,3.800000X2.000000*%
%ADD19R,0.990600X3.200400*%
%ADD20RoundRect,0.250000X0.262500X0.450000X-0.262500X0.450000X-0.262500X-0.450000X0.262500X-0.450000X0*%
%ADD21RoundRect,0.250000X-0.262500X-0.450000X0.262500X-0.450000X0.262500X0.450000X-0.262500X0.450000X0*%
%ADD22RoundRect,0.250000X0.450000X-0.262500X0.450000X0.262500X-0.450000X0.262500X-0.450000X-0.262500X0*%
%ADD23R,0.450000X1.300000*%
%ADD24R,1.327899X0.431000*%
%ADD25RoundRect,0.250000X0.350000X-0.275000X0.350000X0.275000X-0.350000X0.275000X-0.350000X-0.275000X0*%
%ADD26RoundRect,0.250000X-1.450000X0.400000X-1.450000X-0.400000X1.450000X-0.400000X1.450000X0.400000X0*%
%ADD27RoundRect,0.225000X0.225000X0.375000X-0.225000X0.375000X-0.225000X-0.375000X0.225000X-0.375000X0*%
%ADD28RoundRect,0.243750X-0.456250X0.243750X-0.456250X-0.243750X0.456250X-0.243750X0.456250X0.243750X0*%
%ADD29RoundRect,0.225000X-0.375000X0.225000X-0.375000X-0.225000X0.375000X-0.225000X0.375000X0.225000X0*%
%ADD30RoundRect,0.243750X-0.243750X-0.456250X0.243750X-0.456250X0.243750X0.456250X-0.243750X0.456250X0*%
%ADD31RoundRect,0.250000X1.000000X0.650000X-1.000000X0.650000X-1.000000X-0.650000X1.000000X-0.650000X0*%
%ADD32RoundRect,0.250000X-0.250000X-0.475000X0.250000X-0.475000X0.250000X0.475000X-0.250000X0.475000X0*%
%ADD33RoundRect,0.250000X0.250000X0.475000X-0.250000X0.475000X-0.250000X-0.475000X0.250000X-0.475000X0*%
%ADD34RoundRect,0.250000X0.475000X-0.250000X0.475000X0.250000X-0.475000X0.250000X-0.475000X-0.250000X0*%
%ADD35RoundRect,0.250000X-0.475000X0.250000X-0.475000X-0.250000X0.475000X-0.250000X0.475000X0.250000X0*%
%ADD36R,1.492199X3.752799*%
G04 APERTURE END LIST*
%TO.C,U5*%
G36*
X173853000Y-81922000D02*
G01*
X172427999Y-81922000D01*
X172427999Y-80496999D01*
X173853000Y-80496999D01*
X173853000Y-81922000D01*
G37*
G36*
X173853000Y-83547001D02*
G01*
X172427999Y-83547001D01*
X172427999Y-82122000D01*
X173853000Y-82122000D01*
X173853000Y-83547001D01*
G37*
G36*
X175478001Y-81922000D02*
G01*
X174053000Y-81922000D01*
X174053000Y-80496999D01*
X175478001Y-80496999D01*
X175478001Y-81922000D01*
G37*
G36*
X175478001Y-83547001D02*
G01*
X174053000Y-83547001D01*
X174053000Y-82122000D01*
X175478001Y-82122000D01*
X175478001Y-83547001D01*
G37*
%TD*%
D10*
%TO.C,Y2*%
X140335000Y-95180000D03*
X140335000Y-93980000D03*
X140335000Y-92780000D03*
%TD*%
D11*
%TO.C,R8*%
X179197000Y-78820000D03*
X179197000Y-80645000D03*
%TD*%
D12*
%TO.C,Q1*%
X161097000Y-68277500D03*
X159197000Y-68277500D03*
X160147000Y-70152500D03*
%TD*%
D13*
%TO.C,U5*%
X171503000Y-80272001D03*
X171503000Y-80772000D03*
X171503000Y-81271999D03*
X171503000Y-81772000D03*
X171503000Y-82272000D03*
X171503000Y-82772001D03*
X171503000Y-83272000D03*
X171503000Y-83771999D03*
D14*
X172203001Y-84472000D03*
X172703000Y-84472000D03*
X173202999Y-84472000D03*
X173703000Y-84472000D03*
X174203000Y-84472000D03*
X174703001Y-84472000D03*
X175203000Y-84472000D03*
X175702999Y-84472000D03*
D13*
X176403000Y-83771999D03*
X176403000Y-83272000D03*
X176403000Y-82772001D03*
X176403000Y-82272000D03*
X176403000Y-81772000D03*
X176403000Y-81271999D03*
X176403000Y-80772000D03*
X176403000Y-80272001D03*
D14*
X175702999Y-79572000D03*
X175203000Y-79572000D03*
X174703001Y-79572000D03*
X174203000Y-79572000D03*
X173703000Y-79572000D03*
X173202999Y-79572000D03*
X172703000Y-79572000D03*
X172203001Y-79572000D03*
D15*
X173953000Y-82022000D03*
%TD*%
D16*
%TO.C,U4*%
X172344500Y-61407000D03*
X172344500Y-62357000D03*
X172344500Y-63307000D03*
X174619500Y-63307000D03*
X174619500Y-61407000D03*
%TD*%
%TO.C,U2*%
X172079500Y-104775000D03*
X172079500Y-106675000D03*
X169804500Y-106675000D03*
X169804500Y-105725000D03*
X169804500Y-104775000D03*
%TD*%
D17*
%TO.C,U1*%
X165774000Y-45745000D03*
D18*
X163474000Y-52045000D03*
D17*
X163474000Y-45745000D03*
X161174000Y-45745000D03*
%TD*%
D19*
%TO.C,S1*%
X173069001Y-92485002D03*
X169068999Y-92485002D03*
X169068999Y-99284998D03*
X173069001Y-99284998D03*
%TD*%
D11*
%TO.C,RV2*%
X180848000Y-55165000D03*
X180848000Y-56990000D03*
%TD*%
%TO.C,RV1*%
X178435000Y-55245000D03*
X178435000Y-57070000D03*
%TD*%
D20*
%TO.C,R17*%
X157861000Y-86135000D03*
X156036000Y-86135000D03*
%TD*%
%TO.C,R16*%
X157861000Y-83185000D03*
X156036000Y-83185000D03*
%TD*%
D21*
%TO.C,R15*%
X162513000Y-92456000D03*
X164338000Y-92456000D03*
%TD*%
%TO.C,R14*%
X162767000Y-95631000D03*
X164592000Y-95631000D03*
%TD*%
%TO.C,R13*%
X163148000Y-102870000D03*
X164973000Y-102870000D03*
%TD*%
D22*
%TO.C,R12*%
X139827000Y-103933000D03*
X139827000Y-102108000D03*
%TD*%
%TO.C,R11*%
X168124500Y-79144500D03*
X168124500Y-77319500D03*
%TD*%
%TO.C,R10*%
X179197000Y-96186000D03*
X179197000Y-94361000D03*
%TD*%
%TO.C,R9*%
X181864000Y-96186000D03*
X181864000Y-94361000D03*
%TD*%
D21*
%TO.C,R7*%
X172419000Y-66548000D03*
X174244000Y-66548000D03*
%TD*%
D11*
%TO.C,R6*%
X174879000Y-54991000D03*
X174879000Y-56816000D03*
%TD*%
%TO.C,R5*%
X183515000Y-55118000D03*
X183515000Y-56943000D03*
%TD*%
%TO.C,R4*%
X178308000Y-100584000D03*
X178308000Y-102409000D03*
%TD*%
D20*
%TO.C,R3*%
X168148000Y-58166000D03*
X166323000Y-58166000D03*
%TD*%
D21*
%TO.C,R2*%
X166450000Y-55753000D03*
X168275000Y-55753000D03*
%TD*%
%TO.C,R1*%
X159211000Y-55499000D03*
X161036000Y-55499000D03*
%TD*%
D23*
%TO.C,J2*%
X182696000Y-45255000D03*
X182046000Y-45255000D03*
X181396000Y-45255000D03*
X180746000Y-45255000D03*
X180096000Y-45255000D03*
%TD*%
D24*
%TO.C,IC1*%
X167948348Y-63204999D03*
X167948348Y-62555001D03*
X167948348Y-61904999D03*
X167948348Y-61255001D03*
X163521652Y-61255001D03*
X163521652Y-61904999D03*
X163521652Y-62555001D03*
X163521652Y-63204999D03*
%TD*%
D25*
%TO.C,FB1*%
X186436000Y-57164000D03*
X186436000Y-54864000D03*
%TD*%
D26*
%TO.C,F2*%
X172974000Y-45339000D03*
X172974000Y-49789000D03*
%TD*%
D27*
%TO.C,D8*%
X158114000Y-100330000D03*
X154814000Y-100330000D03*
%TD*%
D28*
%TO.C,D6*%
X179070000Y-87630000D03*
X179070000Y-89505000D03*
%TD*%
%TO.C,D5*%
X182118000Y-87630000D03*
X182118000Y-89505000D03*
%TD*%
D29*
%TO.C,D4*%
X175895000Y-69469000D03*
X175895000Y-72769000D03*
%TD*%
D28*
%TO.C,D3*%
X181737000Y-100584000D03*
X181737000Y-102459000D03*
%TD*%
D30*
%TO.C,D2*%
X159161000Y-57785000D03*
X161036000Y-57785000D03*
%TD*%
D31*
%TO.C,D1*%
X154051000Y-48387000D03*
X150051000Y-48387000D03*
%TD*%
D32*
%TO.C,C13*%
X155067000Y-95250000D03*
X156967000Y-95250000D03*
%TD*%
%TO.C,C12*%
X162692000Y-98933000D03*
X164592000Y-98933000D03*
%TD*%
%TO.C,C11*%
X155072000Y-91694000D03*
X156972000Y-91694000D03*
%TD*%
D33*
%TO.C,C10*%
X151257000Y-73025000D03*
X149357000Y-73025000D03*
%TD*%
D32*
%TO.C,C9*%
X161930000Y-85344000D03*
X163830000Y-85344000D03*
%TD*%
%TO.C,C8*%
X170312000Y-73660000D03*
X172212000Y-73660000D03*
%TD*%
%TO.C,C7*%
X170312000Y-70485000D03*
X172212000Y-70485000D03*
%TD*%
D34*
%TO.C,C6*%
X172339000Y-57018000D03*
X172339000Y-55118000D03*
%TD*%
D35*
%TO.C,C5*%
X163703000Y-70226000D03*
X163703000Y-68326000D03*
%TD*%
D34*
%TO.C,C4*%
X159639000Y-62860000D03*
X159639000Y-60960000D03*
%TD*%
D35*
%TO.C,C3*%
X149987000Y-52578000D03*
X149987000Y-54478000D03*
%TD*%
D36*
%TO.C,C2*%
X153289000Y-58039000D03*
X153289000Y-65090600D03*
%TD*%
%TO.C,C1*%
X143510000Y-58039000D03*
X143510000Y-65090600D03*
%TD*%
M02*
