%TF.GenerationSoftware,KiCad,Pcbnew,7.0.6*%
%TF.CreationDate,2024-03-19T20:52:53+13:00*%
%TF.ProjectId,Arduino Uno R3,41726475-696e-46f2-9055-6e6f2052332e,rev?*%
%TF.SameCoordinates,Original*%
%TF.FileFunction,Copper,L2,Bot*%
%TF.FilePolarity,Positive*%
%FSLAX46Y46*%
G04 Gerber Fmt 4.6, Leading zero omitted, Abs format (unit mm)*
G04 Created by KiCad (PCBNEW 7.0.6) date 2024-03-19 20:52:53*
%MOMM*%
%LPD*%
G01*
G04 APERTURE LIST*
G04 Aperture macros list*
%AMRoundRect*
0 Rectangle with rounded corners*
0 $1 Rounding radius*
0 $2 $3 $4 $5 $6 $7 $8 $9 X,Y pos of 4 corners*
0 Add a 4 corners polygon primitive as box body*
4,1,4,$2,$3,$4,$5,$6,$7,$8,$9,$2,$3,0*
0 Add four circle primitives for the rounded corners*
1,1,$1+$1,$2,$3*
1,1,$1+$1,$4,$5*
1,1,$1+$1,$6,$7*
1,1,$1+$1,$8,$9*
0 Add four rect primitives between the rounded corners*
20,1,$1+$1,$2,$3,$4,$5,0*
20,1,$1+$1,$4,$5,$6,$7,0*
20,1,$1+$1,$6,$7,$8,$9,0*
20,1,$1+$1,$8,$9,$2,$3,0*%
G04 Aperture macros list end*
%TA.AperFunction,ComponentPad*%
%ADD10C,1.500000*%
%TD*%
%TA.AperFunction,ComponentPad*%
%ADD11R,1.524000X1.524000*%
%TD*%
%TA.AperFunction,ComponentPad*%
%ADD12C,1.524000*%
%TD*%
%TA.AperFunction,ComponentPad*%
%ADD13R,1.700000X1.700000*%
%TD*%
%TA.AperFunction,ComponentPad*%
%ADD14O,1.700000X1.700000*%
%TD*%
%TA.AperFunction,ComponentPad*%
%ADD15O,1.150000X1.800000*%
%TD*%
%TA.AperFunction,ComponentPad*%
%ADD16O,1.450000X2.000000*%
%TD*%
%TA.AperFunction,ComponentPad*%
%ADD17RoundRect,0.875000X-0.875000X0.875000X-0.875000X-0.875000X0.875000X-0.875000X0.875000X0.875000X0*%
%TD*%
%TA.AperFunction,ComponentPad*%
%ADD18RoundRect,0.750000X-1.000000X0.750000X-1.000000X-0.750000X1.000000X-0.750000X1.000000X0.750000X0*%
%TD*%
%TA.AperFunction,ComponentPad*%
%ADD19R,3.500000X3.500000*%
%TD*%
%TA.AperFunction,ViaPad*%
%ADD20C,0.800000*%
%TD*%
%TA.AperFunction,Conductor*%
%ADD21C,0.250000*%
%TD*%
%TA.AperFunction,Conductor*%
%ADD22C,0.200000*%
%TD*%
G04 APERTURE END LIST*
D10*
%TO.P,Y3,1*%
%TO.N,Net-(U5-PC0)*%
X162433000Y-80438000D03*
%TO.P,Y3,2*%
%TO.N,Net-(U5-XTAL1)*%
X162433000Y-75438000D03*
%TD*%
D11*
%TO.P,U7,1,(PCINT14/RESET)PC6*%
%TO.N,Vin*%
X144018000Y-77978000D03*
D12*
%TO.P,U7,2,(PCINT16/RXD)PD0*%
%TO.N,/ATMEGA328P_subsystem/ARD_DIG0*%
X144018000Y-80518000D03*
%TO.P,U7,3,(PCINT17/TXD)PD1*%
%TO.N,/ATMEGA328P_subsystem/ARD_DIG1*%
X144018000Y-83058000D03*
%TO.P,U7,4,(PCINT18/INT0)_PD2*%
%TO.N,/ATMEGA328P_subsystem/ARD_DIG2*%
X144018000Y-85598000D03*
%TO.P,U7,5,(PCINT19/OC2B/INT1)_PD3*%
%TO.N,/ATMEGA328P_subsystem/ARD_DIG3*%
X144018000Y-88138000D03*
%TO.P,U7,6,(PCINT20/XCK/T0)_PD4*%
%TO.N,/ATMEGA328P_subsystem/ARD_DIG4*%
X144018000Y-90678000D03*
%TO.P,U7,7,VCC*%
%TO.N,5V_LDO*%
X144018000Y-93218000D03*
%TO.P,U7,8,GND*%
%TO.N,GND*%
X144018000Y-95758000D03*
%TO.P,U7,9,(PCINT6/XTAL1/TOSC1)_PB6*%
%TO.N,Net-(U7A-(PCINT6{slash}XTAL1{slash}TOSC1)_PB6)*%
X144018000Y-98298000D03*
%TO.P,U7,10,(PCINT7/XTAL2/TOSC2)_PB7*%
%TO.N,Net-(U7A-(PCINT7{slash}XTAL2{slash}TOSC2)_PB7)*%
X144018000Y-100838000D03*
%TO.P,U7,11,(PCINT21/OC0B/T1)_PD5*%
%TO.N,/ATMEGA328P_subsystem/ARD_DIG5*%
X144018000Y-103378000D03*
%TO.P,U7,12,(PCINT22/OC0A/AIN0)_PD6*%
%TO.N,/ATMEGA328P_subsystem/ARD_DIG6*%
X144018000Y-105918000D03*
%TO.P,U7,13,(PCINT23/AIN1)_PD7*%
%TO.N,/ATMEGA328P_subsystem/ARD_DIG7*%
X144018000Y-108458000D03*
%TO.P,U7,14,(PCINT0/CLKO/ICP1)_PB0*%
%TO.N,/ATMEGA328P_subsystem/ARD_DIG8*%
X144018000Y-110998000D03*
%TO.P,U7,15,PB1_(OC1A/PCINT1)*%
%TO.N,/ATMEGA328P_subsystem/ARD_DIG9*%
X151638000Y-110998000D03*
%TO.P,U7,16,PB2_(SS/OC1B/PCINT2)*%
%TO.N,/ATMEGA328P_subsystem/ARD_DIG10{slash}SPI_SS*%
X151638000Y-108458000D03*
%TO.P,U7,17,PB3_(MOSI/OC2A/PCINT3)*%
%TO.N,/ATMEGA328P_subsystem/328P_ICSP_MOSI*%
X151638000Y-105918000D03*
%TO.P,U7,18,PB4_(MISO/PCINT4)*%
%TO.N,/ATMEGA328P_subsystem/328P_ICSP_MISO*%
X151638000Y-103378000D03*
%TO.P,U7,19,PB5_(SCK/PCINT5)*%
%TO.N,SCK*%
X151638000Y-100838000D03*
%TO.P,U7,20,AVCC*%
%TO.N,5V_LDO*%
X151638000Y-98298000D03*
%TO.P,U7,21,AREF*%
%TO.N,/ATMEGA328P_subsystem/AREF*%
X151638000Y-95758000D03*
%TO.P,U7,22,GND*%
%TO.N,GND*%
X151638000Y-93218000D03*
%TO.P,U7,23,PC0_(ADC0/PCINT8)*%
%TO.N,/ATMEGA328P_subsystem/ARD_AN0*%
X151638000Y-90678000D03*
%TO.P,U7,24,PC1_(ADC1/PCINT9)*%
%TO.N,/ATMEGA328P_subsystem/ARD_AN1*%
X151638000Y-88138000D03*
%TO.P,U7,25,PC2_(ADC2/PCINT10)*%
%TO.N,/ATMEGA328P_subsystem/ARD_AN2*%
X151638000Y-85598000D03*
%TO.P,U7,26,PC3_(ADC3/PCINT11)*%
%TO.N,/ATMEGA328P_subsystem/ARD_AN3*%
X151638000Y-83058000D03*
%TO.P,U7,27,PC4_(ADC4/SDA/PCINT12)*%
%TO.N,/ATMEGA328P_subsystem/ARD_AN4{slash}SDA*%
X151638000Y-80518000D03*
%TO.P,U7,28,PC5_(ADC5/SCL/PCINT13)*%
%TO.N,/ATMEGA328P_subsystem/ARD_AN5{slash}SCL*%
X151638000Y-77978000D03*
%TD*%
D13*
%TO.P,J8,1,Pin_1*%
%TO.N,/ATMEGA328P_subsystem/ARD_DIG7*%
X135382000Y-109728000D03*
D14*
%TO.P,J8,2,Pin_2*%
%TO.N,/ATMEGA328P_subsystem/ARD_DIG6*%
X135382000Y-107188000D03*
%TO.P,J8,3,Pin_3*%
%TO.N,/ATMEGA328P_subsystem/ARD_DIG5*%
X135382000Y-104648000D03*
%TO.P,J8,4,Pin_4*%
%TO.N,/ATMEGA328P_subsystem/ARD_DIG4*%
X135382000Y-102108000D03*
%TO.P,J8,5,Pin_5*%
%TO.N,/ATMEGA328P_subsystem/ARD_DIG3*%
X135382000Y-99568000D03*
%TO.P,J8,6,Pin_6*%
%TO.N,/ATMEGA328P_subsystem/ARD_DIG2*%
X135382000Y-97028000D03*
%TO.P,J8,7,Pin_7*%
%TO.N,/ATMEGA328P_subsystem/ARD_DIG1*%
X135382000Y-94488000D03*
%TO.P,J8,8,Pin_8*%
%TO.N,/ATMEGA328P_subsystem/ARD_DIG0*%
X135382000Y-91948000D03*
%TD*%
%TO.P,J7,10,Pin_10*%
%TO.N,/ATMEGA328P_subsystem/ARD_AN5{slash}SCL*%
X185801000Y-87757000D03*
%TO.P,J7,9,Pin_9*%
%TO.N,/ATMEGA328P_subsystem/ARD_AN4{slash}SDA*%
X185801000Y-90297000D03*
%TO.P,J7,8,Pin_8*%
%TO.N,/ATMEGA328P_subsystem/AREF*%
X185801000Y-92837000D03*
%TO.P,J7,7,Pin_7*%
%TO.N,GND*%
X185801000Y-95377000D03*
%TO.P,J7,6,Pin_6*%
%TO.N,SCK*%
X185801000Y-97917000D03*
%TO.P,J7,5,Pin_5*%
%TO.N,/ATMEGA328P_subsystem/328P_ICSP_MISO*%
X185801000Y-100457000D03*
%TO.P,J7,4,Pin_4*%
%TO.N,/ATMEGA328P_subsystem/328P_ICSP_MOSI*%
X185801000Y-102997000D03*
%TO.P,J7,3,Pin_3*%
%TO.N,/ATMEGA328P_subsystem/ARD_DIG10{slash}SPI_SS*%
X185801000Y-105537000D03*
%TO.P,J7,2,Pin_2*%
%TO.N,/ATMEGA328P_subsystem/ARD_DIG9*%
X185801000Y-108077000D03*
D13*
%TO.P,J7,1,Pin_1*%
%TO.N,/ATMEGA328P_subsystem/ARD_DIG8*%
X185801000Y-110617000D03*
%TD*%
%TO.P,J6,1,Pin_1*%
%TO.N,/ATMEGA328P_subsystem/ARD_AN0*%
X186055000Y-81534000D03*
D14*
%TO.P,J6,2,Pin_2*%
%TO.N,/ATMEGA328P_subsystem/ARD_AN1*%
X186055000Y-78994000D03*
%TO.P,J6,3,Pin_3*%
%TO.N,/ATMEGA328P_subsystem/ARD_AN2*%
X186055000Y-76454000D03*
%TO.P,J6,4,Pin_4*%
%TO.N,/ATMEGA328P_subsystem/ARD_AN3*%
X186055000Y-73914000D03*
%TO.P,J6,5,Pin_5*%
%TO.N,/ATMEGA328P_subsystem/ARD_AN4{slash}SDA*%
X186055000Y-71374000D03*
%TO.P,J6,6,Pin_6*%
%TO.N,/ATMEGA328P_subsystem/ARD_AN5{slash}SCL*%
X186055000Y-68834000D03*
%TD*%
D13*
%TO.P,J5,1,Pin_1*%
%TO.N,unconnected-(J5-Pin_1-Pad1)*%
X135255000Y-68199000D03*
D14*
%TO.P,J5,2,Pin_2*%
%TO.N,5V_LDO*%
X135255000Y-70739000D03*
%TO.P,J5,3,Pin_3*%
%TO.N,Vin*%
X135255000Y-73279000D03*
%TO.P,J5,4,Pin_4*%
%TO.N,3V3_LDO*%
X135255000Y-75819000D03*
%TO.P,J5,5,Pin_5*%
%TO.N,5V_LDO*%
X135255000Y-78359000D03*
%TO.P,J5,6,Pin_6*%
%TO.N,GND*%
X135255000Y-80899000D03*
%TO.P,J5,7,Pin_7*%
X135255000Y-83439000D03*
%TO.P,J5,8,Pin_8*%
%TO.N,Vin*%
X135255000Y-85979000D03*
%TD*%
D13*
%TO.P,J4,1,1*%
%TO.N,/ATMEGA328P_subsystem/328P_ICSP_MISO*%
X156718000Y-105029000D03*
D14*
%TO.P,J4,2,2*%
%TO.N,5V_LDO*%
X159258000Y-105029000D03*
%TO.P,J4,3,3*%
%TO.N,SCK*%
X156718000Y-107569000D03*
%TO.P,J4,4,4*%
%TO.N,/ATMEGA328P_subsystem/328P_ICSP_MOSI*%
X159258000Y-107569000D03*
%TO.P,J4,5,5*%
%TO.N,Vin*%
X156718000Y-110109000D03*
%TO.P,J4,6,6*%
%TO.N,GND*%
X159258000Y-110109000D03*
%TD*%
D13*
%TO.P,J3,1,1*%
%TO.N,/ATMEGA16U2/ICSP_MISO*%
X179197000Y-64516000D03*
D14*
%TO.P,J3,2,2*%
%TO.N,5V_LDO*%
X181737000Y-64516000D03*
%TO.P,J3,3,3*%
%TO.N,/ATMEGA16U2/ICSP_SCK*%
X179197000Y-67056000D03*
%TO.P,J3,4,4*%
%TO.N,/ATMEGA16U2/ICSP_MOSI*%
X181737000Y-67056000D03*
%TO.P,J3,5,5*%
%TO.N,Net-(D4-A)*%
X179197000Y-69596000D03*
%TO.P,J3,6,6*%
%TO.N,GND*%
X181737000Y-69596000D03*
%TD*%
D15*
%TO.P,J2,6,Shield_2*%
%TO.N,Net-(J2-Shield)*%
X185271000Y-49105000D03*
X177521000Y-49105000D03*
D16*
X185121000Y-45305000D03*
X177671000Y-45305000D03*
%TD*%
D17*
%TO.P,J1,3*%
%TO.N,GND*%
X135889000Y-49863000D03*
D18*
%TO.P,J1,2*%
X140589000Y-46863000D03*
D19*
%TO.P,J1,1*%
%TO.N,Net-(D1-A)*%
X140589000Y-52863000D03*
%TD*%
D20*
%TO.N,GND*%
X186309000Y-60452000D03*
X182626000Y-60706000D03*
X166243000Y-83185000D03*
X160528000Y-88646000D03*
X163449000Y-88392000D03*
X149479000Y-95377000D03*
X158369000Y-59436000D03*
X173482000Y-53975000D03*
X166370000Y-96266000D03*
X139192000Y-98298000D03*
X168656000Y-65151000D03*
X168656000Y-68199000D03*
X171196000Y-91567000D03*
X167640000Y-59944000D03*
X165862000Y-80772000D03*
%TO.N,5V_LDO*%
X160576717Y-97595131D03*
X159131000Y-99187000D03*
%TO.N,SCK*%
X178943000Y-106553000D03*
%TO.N,3V3_LDO*%
X157226000Y-67437000D03*
X162687000Y-65278000D03*
%TO.N,/ATMEGA328P_subsystem/ARD_AN2*%
X154305000Y-81242500D03*
X156210000Y-75946000D03*
%TO.N,/ATMEGA328P_subsystem/ARD_AN3*%
X148336000Y-82695500D03*
%TO.N,/ATMEGA328P_subsystem/ARD_AN0*%
X175006000Y-89154000D03*
%TO.N,/ATMEGA328P_subsystem/AREF*%
X159512000Y-93345000D03*
%TO.N,/ATMEGA328P_subsystem/328P_ICSP_MISO*%
X176530000Y-105156000D03*
X180213000Y-105156000D03*
%TO.N,Vin*%
X154051000Y-98425000D03*
%TO.N,/ATMEGA16U2/SERIAL_Rx*%
X166624000Y-86487000D03*
X160020000Y-85471000D03*
%TO.N,/ATMEGA16U2/DTR*%
X174244000Y-85852500D03*
X169164000Y-89154000D03*
%TO.N,USBVCC*%
X173101000Y-75184000D03*
X169418000Y-75692000D03*
%TO.N,5V_LDO*%
X167513000Y-81444500D03*
X170561000Y-77978000D03*
%TO.N,/ATMEGA16U2/ICSP_SCK*%
X176022000Y-85852000D03*
X181229000Y-79629000D03*
%TO.N,Net-(D4-A)*%
X176752500Y-71501000D03*
X178816000Y-72898000D03*
%TO.N,5V_LDO*%
X172466000Y-72136000D03*
X175006000Y-69977000D03*
X181356000Y-59690000D03*
X177927000Y-59690000D03*
%TO.N,Net-(U5-UCAP)*%
X174968500Y-75311000D03*
X173519500Y-73787000D03*
%TO.N,/ATMEGA16U2/USB_RD-*%
X173519500Y-76200000D03*
X176022000Y-59817000D03*
%TO.N,/ATMEGA16U2/USB_RD+*%
X173990000Y-77280500D03*
X183515000Y-57695500D03*
%TO.N,Net-(J2-Shield)*%
X184912000Y-55372000D03*
X185801000Y-50800000D03*
%TO.N,USBVCC*%
X161417000Y-70358000D03*
X170307000Y-53594000D03*
%TD*%
D21*
%TO.N,/ATMEGA328P_subsystem/ARD_DIG2*%
X136652000Y-93854396D02*
X136652000Y-96139000D01*
X136271000Y-96139000D02*
X135382000Y-97028000D01*
X137610000Y-92896396D02*
X136652000Y-93854396D01*
X137610000Y-92006000D02*
X137610000Y-92896396D01*
X136652000Y-96139000D02*
X136271000Y-96139000D01*
X144018000Y-85598000D02*
X137610000Y-92006000D01*
%TO.N,GND*%
X168656000Y-65151000D02*
X168656000Y-68199000D01*
%TO.N,5V_LDO*%
X159131000Y-99040848D02*
X160576717Y-97595131D01*
X159131000Y-99187000D02*
X159131000Y-99040848D01*
X167513000Y-81026000D02*
X170561000Y-77978000D01*
X167513000Y-81444500D02*
X167513000Y-81026000D01*
%TO.N,/ATMEGA328P_subsystem/ARD_AN5{slash}SCL*%
X156210000Y-77978000D02*
X151638000Y-77978000D01*
X160401000Y-82169000D02*
X156210000Y-77978000D01*
X169418000Y-82169000D02*
X160401000Y-82169000D01*
X172474805Y-83058000D02*
X170307000Y-83058000D01*
X174969000Y-86152805D02*
X174969000Y-85552195D01*
X174969000Y-85552195D02*
X172474805Y-83058000D01*
X170307000Y-83058000D02*
X169418000Y-82169000D01*
X176573195Y-87757000D02*
X174969000Y-86152805D01*
X185801000Y-87757000D02*
X176573195Y-87757000D01*
%TO.N,/ATMEGA16U2/ICSP_SCK*%
X178435000Y-85852000D02*
X176022000Y-85852000D01*
X181229000Y-83058000D02*
X178435000Y-85852000D01*
X181229000Y-79629000D02*
X181229000Y-83058000D01*
%TO.N,SCK*%
X177483000Y-106553000D02*
X177324000Y-106394000D01*
X178943000Y-106553000D02*
X177483000Y-106553000D01*
%TO.N,3V3_LDO*%
X159385000Y-65278000D02*
X157226000Y-67437000D01*
X162687000Y-65278000D02*
X159385000Y-65278000D01*
%TO.N,5V_LDO*%
X134080000Y-71914000D02*
X134080000Y-77184000D01*
X134080000Y-77184000D02*
X135255000Y-78359000D01*
X135255000Y-70739000D02*
X134080000Y-71914000D01*
%TO.N,/ATMEGA328P_subsystem/ARD_AN2*%
X154305000Y-82931000D02*
X151638000Y-85598000D01*
X154305000Y-81242500D02*
X154305000Y-82931000D01*
X184240000Y-57395195D02*
X179676805Y-52832000D01*
X156210000Y-66548000D02*
X156210000Y-75946000D01*
X184240000Y-74639000D02*
X184240000Y-57395195D01*
X169926000Y-52832000D02*
X156210000Y-66548000D01*
X186055000Y-76454000D02*
X184240000Y-74639000D01*
X179676805Y-52832000D02*
X169926000Y-52832000D01*
%TO.N,/ATMEGA328P_subsystem/ARD_AN4{slash}SDA*%
X159295000Y-82460000D02*
X157353000Y-80518000D01*
X159295000Y-85771305D02*
X159295000Y-82460000D01*
X163820695Y-90297000D02*
X159295000Y-85771305D01*
X185801000Y-90297000D02*
X163820695Y-90297000D01*
X157353000Y-80518000D02*
X151638000Y-80518000D01*
%TO.N,/ATMEGA328P_subsystem/ARD_AN3*%
X146812000Y-81171500D02*
X148336000Y-82695500D01*
X185517924Y-43942000D02*
X175895000Y-43942000D01*
X146812000Y-73025000D02*
X146812000Y-81171500D01*
X175895000Y-43942000D02*
X146812000Y-73025000D01*
X186563000Y-54746305D02*
X186563000Y-44987076D01*
X186563000Y-44987076D02*
X185517924Y-43942000D01*
X184880000Y-72739000D02*
X184880000Y-56429305D01*
X184880000Y-56429305D02*
X186563000Y-54746305D01*
X186055000Y-73914000D02*
X184880000Y-72739000D01*
%TO.N,/ATMEGA328P_subsystem/ARD_AN1*%
X149733000Y-86233000D02*
X151638000Y-88138000D01*
X150439000Y-76891000D02*
X149733000Y-77597000D01*
X170824305Y-77216000D02*
X158242000Y-77216000D01*
X157917000Y-76891000D02*
X150439000Y-76891000D01*
X149733000Y-77597000D02*
X149733000Y-86233000D01*
X171752305Y-78144000D02*
X170824305Y-77216000D01*
X158242000Y-77216000D02*
X157917000Y-76891000D01*
X185205000Y-78144000D02*
X171752305Y-78144000D01*
X186055000Y-78994000D02*
X185205000Y-78144000D01*
%TO.N,/ATMEGA328P_subsystem/ARD_AN0*%
X175038000Y-89122000D02*
X175006000Y-89154000D01*
X186976000Y-88243701D02*
X186097701Y-89122000D01*
X186097701Y-89122000D02*
X175038000Y-89122000D01*
X186976000Y-82455000D02*
X186976000Y-88243701D01*
X186055000Y-81534000D02*
X186976000Y-82455000D01*
%TO.N,/ATMEGA328P_subsystem/ARD_AN4{slash}SDA*%
X187960000Y-71374000D02*
X186055000Y-71374000D01*
X188214000Y-71628000D02*
X187960000Y-71374000D01*
X188214000Y-87884000D02*
X188214000Y-71628000D01*
X185801000Y-90297000D02*
X188214000Y-87884000D01*
%TO.N,/ATMEGA328P_subsystem/AREF*%
X160020000Y-92837000D02*
X159512000Y-93345000D01*
X185801000Y-92837000D02*
X160020000Y-92837000D01*
%TO.N,/ATMEGA328P_subsystem/328P_ICSP_MISO*%
X157893000Y-103854000D02*
X156718000Y-105029000D01*
X175228000Y-103854000D02*
X157893000Y-103854000D01*
X176530000Y-105156000D02*
X175228000Y-103854000D01*
X185801000Y-100457000D02*
X181102000Y-105156000D01*
X181102000Y-105156000D02*
X180213000Y-105156000D01*
%TO.N,/ATMEGA328P_subsystem/328P_ICSP_MOSI*%
X181229000Y-107569000D02*
X159258000Y-107569000D01*
X185801000Y-102997000D02*
X181229000Y-107569000D01*
%TO.N,SCK*%
X157893000Y-106394000D02*
X177324000Y-106394000D01*
X156718000Y-107569000D02*
X157893000Y-106394000D01*
%TO.N,/ATMEGA328P_subsystem/ARD_DIG10{slash}SPI_SS*%
X152114000Y-108934000D02*
X182404000Y-108934000D01*
X182404000Y-108934000D02*
X185801000Y-105537000D01*
X151638000Y-108458000D02*
X152114000Y-108934000D01*
%TO.N,/ATMEGA328P_subsystem/ARD_DIG9*%
X182118001Y-111759999D02*
X185801000Y-108077000D01*
X152399999Y-111759999D02*
X182118001Y-111759999D01*
X151638000Y-110998000D02*
X152399999Y-111759999D01*
%TO.N,/ATMEGA328P_subsystem/ARD_DIG8*%
X182753000Y-113665000D02*
X185801000Y-110617000D01*
X146685000Y-113665000D02*
X182753000Y-113665000D01*
X144018000Y-110998000D02*
X146685000Y-113665000D01*
%TO.N,/ATMEGA328P_subsystem/ARD_DIG7*%
X136652000Y-108458000D02*
X135382000Y-109728000D01*
X144018000Y-108458000D02*
X136652000Y-108458000D01*
%TO.N,/ATMEGA328P_subsystem/ARD_DIG6*%
X136652000Y-105918000D02*
X135382000Y-107188000D01*
X144018000Y-105918000D02*
X136652000Y-105918000D01*
%TO.N,/ATMEGA328P_subsystem/ARD_DIG5*%
X136652000Y-103378000D02*
X135382000Y-104648000D01*
X144018000Y-103378000D02*
X136652000Y-103378000D01*
%TO.N,/ATMEGA328P_subsystem/ARD_DIG4*%
X137795000Y-99695000D02*
X135382000Y-102108000D01*
X137795000Y-97791396D02*
X137795000Y-99695000D01*
X144018000Y-91568396D02*
X137795000Y-97791396D01*
X144018000Y-90678000D02*
X144018000Y-91568396D01*
%TO.N,/ATMEGA328P_subsystem/ARD_DIG3*%
X141224000Y-93726000D02*
X135382000Y-99568000D01*
X141224000Y-90932000D02*
X141224000Y-93726000D01*
X144018000Y-88138000D02*
X141224000Y-90932000D01*
%TO.N,/ATMEGA328P_subsystem/ARD_DIG1*%
X137160000Y-92710000D02*
X135382000Y-94488000D01*
X137160000Y-89916000D02*
X137160000Y-92710000D01*
X144018000Y-83058000D02*
X137160000Y-89916000D01*
%TO.N,/ATMEGA328P_subsystem/ARD_DIG0*%
X135382000Y-89154000D02*
X135382000Y-91948000D01*
X144018000Y-80518000D02*
X135382000Y-89154000D01*
%TO.N,Vin*%
X139954000Y-81280000D02*
X135255000Y-85979000D01*
X139954000Y-77978000D02*
X139954000Y-81280000D01*
X139954000Y-77978000D02*
X135255000Y-73279000D01*
X144018000Y-77978000D02*
X139954000Y-77978000D01*
X146304000Y-80264000D02*
X144018000Y-77978000D01*
X146304000Y-84455000D02*
X146304000Y-80264000D01*
X151257000Y-89408000D02*
X146304000Y-84455000D01*
X151905251Y-89408000D02*
X151257000Y-89408000D01*
X154051000Y-91553749D02*
X151905251Y-89408000D01*
X154051000Y-98425000D02*
X154051000Y-91553749D01*
%TO.N,/ATMEGA16U2/SERIAL_Rx*%
X165608000Y-85471000D02*
X166624000Y-86487000D01*
X160020000Y-85471000D02*
X165608000Y-85471000D01*
%TO.N,SCK*%
X150495000Y-103772251D02*
X150495000Y-101981000D01*
X151187749Y-104465000D02*
X150495000Y-103772251D01*
X152019000Y-104465000D02*
X151187749Y-104465000D01*
X155123000Y-107569000D02*
X152019000Y-104465000D01*
X150495000Y-101981000D02*
X151638000Y-100838000D01*
X156718000Y-107569000D02*
X155123000Y-107569000D01*
%TO.N,/ATMEGA328P_subsystem/328P_ICSP_MISO*%
X153289000Y-105029000D02*
X151638000Y-103378000D01*
X156718000Y-105029000D02*
X153289000Y-105029000D01*
%TO.N,/ATMEGA16U2/DTR*%
X174244000Y-85979000D02*
X174244000Y-85852500D01*
X171069000Y-89154000D02*
X174244000Y-85979000D01*
X169164000Y-89154000D02*
X171069000Y-89154000D01*
D22*
%TO.N,/ATMEGA16U2/USB_RD-*%
X176022000Y-75565000D02*
X176022000Y-59817000D01*
X175387000Y-76200000D02*
X176022000Y-75565000D01*
X173519500Y-76200000D02*
X175387000Y-76200000D01*
D21*
%TO.N,USBVCC*%
X170561000Y-75184000D02*
X173101000Y-75184000D01*
X170053000Y-75692000D02*
X170561000Y-75184000D01*
X169418000Y-75692000D02*
X170053000Y-75692000D01*
%TO.N,Net-(D4-A)*%
X178149500Y-72898000D02*
X176752500Y-71501000D01*
X178816000Y-72898000D02*
X178149500Y-72898000D01*
%TO.N,5V_LDO*%
X172847000Y-72136000D02*
X172466000Y-72136000D01*
X175006000Y-69977000D02*
X172847000Y-72136000D01*
X177927000Y-59690000D02*
X181356000Y-59690000D01*
%TO.N,Net-(U5-UCAP)*%
X173519500Y-73862000D02*
X174968500Y-75311000D01*
D22*
%TO.N,/ATMEGA16U2/USB_RD+*%
X173990000Y-77280500D02*
X176211500Y-77280500D01*
X183515000Y-69977000D02*
X183515000Y-57695500D01*
X176211500Y-77280500D02*
X183515000Y-69977000D01*
D21*
%TO.N,Net-(J2-Shield)*%
X185801000Y-54483000D02*
X184912000Y-55372000D01*
X185801000Y-50800000D02*
X185801000Y-54483000D01*
%TO.N,USBVCC*%
X170307000Y-61468000D02*
X170307000Y-53594000D01*
X161417000Y-70358000D02*
X170307000Y-61468000D01*
%TD*%
%TA.AperFunction,Conductor*%
%TO.N,GND*%
G36*
X188348867Y-43052205D02*
G01*
X188415771Y-43072336D01*
X188461173Y-43125444D01*
X188471969Y-43172071D01*
X188595000Y-46863000D01*
X188595000Y-71249312D01*
X188575315Y-71316351D01*
X188522511Y-71362106D01*
X188453353Y-71372050D01*
X188389797Y-71343025D01*
X188383319Y-71336993D01*
X188295638Y-71249312D01*
X188202119Y-71155793D01*
X188198474Y-71151814D01*
X188172456Y-71120807D01*
X188172455Y-71120806D01*
X188161058Y-71114226D01*
X188137392Y-71100561D01*
X188132831Y-71097655D01*
X188119687Y-71088452D01*
X188099684Y-71074446D01*
X188099681Y-71074445D01*
X188094861Y-71072197D01*
X188078055Y-71065235D01*
X188073043Y-71063411D01*
X188033190Y-71056383D01*
X188027910Y-71055212D01*
X187988808Y-71044735D01*
X187953892Y-71047790D01*
X187948481Y-71048264D01*
X187943078Y-71048500D01*
X187145583Y-71048500D01*
X187078544Y-71028815D01*
X187032789Y-70976011D01*
X187031021Y-70971951D01*
X187030233Y-70970051D01*
X187030232Y-70970046D01*
X186932685Y-70787550D01*
X186880702Y-70724209D01*
X186801410Y-70627589D01*
X186663289Y-70514238D01*
X186641450Y-70496315D01*
X186458954Y-70398768D01*
X186260934Y-70338700D01*
X186260932Y-70338699D01*
X186260934Y-70338699D01*
X186055000Y-70318417D01*
X185849067Y-70338699D01*
X185651043Y-70398769D01*
X185468546Y-70496317D01*
X185408164Y-70545871D01*
X185343853Y-70573183D01*
X185274986Y-70561391D01*
X185223426Y-70514238D01*
X185205500Y-70450017D01*
X185205500Y-69757982D01*
X185225185Y-69690943D01*
X185277989Y-69645188D01*
X185347147Y-69635244D01*
X185408165Y-69662129D01*
X185458819Y-69703699D01*
X185468550Y-69711685D01*
X185651046Y-69809232D01*
X185849066Y-69869300D01*
X185849065Y-69869300D01*
X185867529Y-69871118D01*
X186055000Y-69889583D01*
X186260934Y-69869300D01*
X186458954Y-69809232D01*
X186641450Y-69711685D01*
X186801410Y-69580410D01*
X186932685Y-69420450D01*
X187030232Y-69237954D01*
X187090300Y-69039934D01*
X187110583Y-68834000D01*
X187090300Y-68628066D01*
X187030232Y-68430046D01*
X186932685Y-68247550D01*
X186880702Y-68184209D01*
X186801410Y-68087589D01*
X186663289Y-67974238D01*
X186641450Y-67956315D01*
X186458954Y-67858768D01*
X186260934Y-67798700D01*
X186260932Y-67798699D01*
X186260934Y-67798699D01*
X186055000Y-67778417D01*
X185849067Y-67798699D01*
X185651043Y-67858769D01*
X185468546Y-67956317D01*
X185408164Y-68005871D01*
X185343853Y-68033183D01*
X185274986Y-68021391D01*
X185223426Y-67974238D01*
X185205500Y-67910017D01*
X185205500Y-56615493D01*
X185225185Y-56548454D01*
X185241819Y-56527812D01*
X185582456Y-56187175D01*
X186781221Y-54988409D01*
X186785172Y-54984789D01*
X186816194Y-54958760D01*
X186836444Y-54923683D01*
X186839333Y-54919150D01*
X186862553Y-54885989D01*
X186862555Y-54885981D01*
X186864816Y-54881133D01*
X186871754Y-54864384D01*
X186873583Y-54859357D01*
X186873588Y-54859350D01*
X186880622Y-54819452D01*
X186881779Y-54814234D01*
X186892263Y-54775112D01*
X186888735Y-54734794D01*
X186888500Y-54729391D01*
X186888500Y-45003996D01*
X186888736Y-44998589D01*
X186892264Y-44958269D01*
X186883338Y-44924959D01*
X186881782Y-44919152D01*
X186880616Y-44913894D01*
X186873588Y-44874031D01*
X186873586Y-44874028D01*
X186873586Y-44874026D01*
X186871760Y-44869009D01*
X186864820Y-44852252D01*
X186862554Y-44847395D01*
X186862554Y-44847392D01*
X186839339Y-44814238D01*
X186836433Y-44809675D01*
X186816196Y-44774624D01*
X186816195Y-44774623D01*
X186816194Y-44774621D01*
X186785177Y-44748594D01*
X186781193Y-44744943D01*
X186303750Y-44267500D01*
X185760043Y-43723793D01*
X185756398Y-43719814D01*
X185730380Y-43688807D01*
X185730379Y-43688806D01*
X185718982Y-43682226D01*
X185695316Y-43668561D01*
X185690755Y-43665655D01*
X185677611Y-43656452D01*
X185657608Y-43642446D01*
X185657605Y-43642445D01*
X185652785Y-43640197D01*
X185635979Y-43633235D01*
X185630967Y-43631411D01*
X185591114Y-43624383D01*
X185585834Y-43623212D01*
X185546732Y-43612735D01*
X185511816Y-43615790D01*
X185506405Y-43616264D01*
X185501002Y-43616500D01*
X175911922Y-43616500D01*
X175906518Y-43616264D01*
X175901107Y-43615790D01*
X175866192Y-43612735D01*
X175866191Y-43612735D01*
X175827091Y-43623212D01*
X175821811Y-43624383D01*
X175781959Y-43631410D01*
X175776961Y-43633229D01*
X175760117Y-43640206D01*
X175755313Y-43642446D01*
X175722166Y-43665656D01*
X175717606Y-43668562D01*
X175682548Y-43688804D01*
X175682540Y-43688810D01*
X175656523Y-43719815D01*
X175652869Y-43723804D01*
X146593803Y-72782870D01*
X146589814Y-72786525D01*
X146558805Y-72812545D01*
X146538562Y-72847606D01*
X146535656Y-72852166D01*
X146512446Y-72885313D01*
X146510206Y-72890117D01*
X146503229Y-72906961D01*
X146501410Y-72911959D01*
X146494383Y-72951811D01*
X146493212Y-72957091D01*
X146482735Y-72996191D01*
X146485483Y-73027594D01*
X146486246Y-73036315D01*
X146486264Y-73036513D01*
X146486500Y-73041920D01*
X146486500Y-79686811D01*
X146466815Y-79753850D01*
X146414011Y-79799605D01*
X146344853Y-79809549D01*
X146281297Y-79780524D01*
X146274819Y-79774492D01*
X145016819Y-78516492D01*
X144983334Y-78455169D01*
X144980500Y-78428811D01*
X144980500Y-77196249D01*
X144980499Y-77196247D01*
X144968868Y-77137770D01*
X144968867Y-77137769D01*
X144924552Y-77071447D01*
X144858230Y-77027132D01*
X144858229Y-77027131D01*
X144799752Y-77015500D01*
X144799748Y-77015500D01*
X143236252Y-77015500D01*
X143236247Y-77015500D01*
X143177770Y-77027131D01*
X143177769Y-77027132D01*
X143111447Y-77071447D01*
X143067132Y-77137769D01*
X143067131Y-77137770D01*
X143055500Y-77196247D01*
X143055500Y-77528500D01*
X143035815Y-77595539D01*
X142983011Y-77641294D01*
X142931500Y-77652500D01*
X140140188Y-77652500D01*
X140073149Y-77632815D01*
X140052507Y-77616181D01*
X136256321Y-73819995D01*
X136222836Y-73758672D01*
X136227820Y-73688980D01*
X136229446Y-73684850D01*
X136230227Y-73682962D01*
X136230232Y-73682954D01*
X136290300Y-73484934D01*
X136310583Y-73279000D01*
X136290300Y-73073066D01*
X136230232Y-72875046D01*
X136132685Y-72692550D01*
X136039637Y-72579170D01*
X136001410Y-72532589D01*
X135854897Y-72412351D01*
X135841450Y-72401315D01*
X135658954Y-72303768D01*
X135460934Y-72243700D01*
X135460932Y-72243699D01*
X135460934Y-72243699D01*
X135255000Y-72223417D01*
X135049067Y-72243699D01*
X134851043Y-72303769D01*
X134668546Y-72401317D01*
X134608164Y-72450871D01*
X134543853Y-72478183D01*
X134474986Y-72466391D01*
X134423426Y-72419238D01*
X134405500Y-72355017D01*
X134405500Y-72100187D01*
X134425185Y-72033148D01*
X134441819Y-72012506D01*
X134569134Y-71885191D01*
X134714005Y-71740319D01*
X134775326Y-71706836D01*
X134845017Y-71711820D01*
X134849132Y-71713439D01*
X134851038Y-71714227D01*
X134851046Y-71714232D01*
X135049066Y-71774300D01*
X135049065Y-71774300D01*
X135058234Y-71775203D01*
X135255000Y-71794583D01*
X135460934Y-71774300D01*
X135658954Y-71714232D01*
X135841450Y-71616685D01*
X136001410Y-71485410D01*
X136132685Y-71325450D01*
X136230232Y-71142954D01*
X136290300Y-70944934D01*
X136310583Y-70739000D01*
X136290300Y-70533066D01*
X136230232Y-70335046D01*
X136132685Y-70152550D01*
X136052759Y-70055159D01*
X136001410Y-69992589D01*
X135874999Y-69888848D01*
X135841450Y-69861315D01*
X135658954Y-69763768D01*
X135460934Y-69703700D01*
X135460932Y-69703699D01*
X135460934Y-69703699D01*
X135273463Y-69685235D01*
X135255000Y-69683417D01*
X135254999Y-69683417D01*
X135049067Y-69703699D01*
X134851043Y-69763769D01*
X134745401Y-69820237D01*
X134668550Y-69861315D01*
X134668548Y-69861316D01*
X134668547Y-69861317D01*
X134508589Y-69992589D01*
X134377317Y-70152547D01*
X134377315Y-70152550D01*
X134351290Y-70201239D01*
X134279769Y-70335043D01*
X134219699Y-70533067D01*
X134199417Y-70739000D01*
X134219699Y-70944932D01*
X134227895Y-70971951D01*
X134279768Y-71142954D01*
X134279772Y-71142962D01*
X134280559Y-71144862D01*
X134280675Y-71145941D01*
X134281537Y-71148783D01*
X134280998Y-71148946D01*
X134288027Y-71214331D01*
X134256751Y-71276810D01*
X134253678Y-71279994D01*
X133861803Y-71671870D01*
X133857814Y-71675525D01*
X133826805Y-71701545D01*
X133806562Y-71736606D01*
X133803656Y-71741166D01*
X133780446Y-71774313D01*
X133778206Y-71779117D01*
X133771229Y-71795961D01*
X133769410Y-71800959D01*
X133762383Y-71840811D01*
X133761212Y-71846091D01*
X133750735Y-71885191D01*
X133750735Y-71885194D01*
X133754263Y-71925515D01*
X133754499Y-71930920D01*
X133754499Y-77167077D01*
X133754263Y-77172483D01*
X133750735Y-77212805D01*
X133750735Y-77212806D01*
X133761212Y-77251910D01*
X133762383Y-77257190D01*
X133769411Y-77297043D01*
X133771235Y-77302055D01*
X133778197Y-77318861D01*
X133780445Y-77323681D01*
X133780446Y-77323684D01*
X133794452Y-77343687D01*
X133803655Y-77356831D01*
X133806561Y-77361392D01*
X133826806Y-77396455D01*
X133857815Y-77422475D01*
X133861805Y-77426131D01*
X134253678Y-77818004D01*
X134287163Y-77879327D01*
X134282179Y-77949019D01*
X134280563Y-77953126D01*
X134279771Y-77955038D01*
X134279769Y-77955043D01*
X134279768Y-77955046D01*
X134260197Y-78019563D01*
X134219699Y-78153067D01*
X134199417Y-78358999D01*
X134219699Y-78564932D01*
X134233374Y-78610011D01*
X134279768Y-78762954D01*
X134377315Y-78945450D01*
X134377317Y-78945452D01*
X134508589Y-79105410D01*
X134605209Y-79184702D01*
X134668550Y-79236685D01*
X134851046Y-79334232D01*
X135049066Y-79394300D01*
X135049065Y-79394300D01*
X135069347Y-79396297D01*
X135255000Y-79414583D01*
X135460934Y-79394300D01*
X135658954Y-79334232D01*
X135841450Y-79236685D01*
X136001410Y-79105410D01*
X136132685Y-78945450D01*
X136230232Y-78762954D01*
X136290300Y-78564934D01*
X136310583Y-78359000D01*
X136290300Y-78153066D01*
X136230232Y-77955046D01*
X136132685Y-77772550D01*
X136060164Y-77684182D01*
X136001410Y-77612589D01*
X135872039Y-77506419D01*
X135841450Y-77481315D01*
X135658954Y-77383768D01*
X135460934Y-77323700D01*
X135460932Y-77323699D01*
X135460934Y-77323699D01*
X135255000Y-77303417D01*
X135049067Y-77323699D01*
X134946364Y-77354854D01*
X134851046Y-77383768D01*
X134851043Y-77383769D01*
X134851038Y-77383771D01*
X134849126Y-77384563D01*
X134848045Y-77384679D01*
X134845217Y-77385537D01*
X134845054Y-77385000D01*
X134779656Y-77392024D01*
X134717180Y-77360743D01*
X134714004Y-77357678D01*
X134441819Y-77085493D01*
X134408334Y-77024170D01*
X134405500Y-76997812D01*
X134405500Y-76742982D01*
X134425185Y-76675943D01*
X134477989Y-76630188D01*
X134547147Y-76620244D01*
X134608165Y-76647129D01*
X134666765Y-76695220D01*
X134668550Y-76696685D01*
X134851046Y-76794232D01*
X135049066Y-76854300D01*
X135049065Y-76854300D01*
X135067529Y-76856118D01*
X135255000Y-76874583D01*
X135460934Y-76854300D01*
X135658954Y-76794232D01*
X135841450Y-76696685D01*
X136001410Y-76565410D01*
X136132685Y-76405450D01*
X136230232Y-76222954D01*
X136290300Y-76024934D01*
X136310583Y-75819000D01*
X136290300Y-75613066D01*
X136230232Y-75415046D01*
X136132685Y-75232550D01*
X136079270Y-75167463D01*
X136001410Y-75072589D01*
X135863289Y-74959238D01*
X135841450Y-74941315D01*
X135658954Y-74843768D01*
X135460934Y-74783700D01*
X135460932Y-74783699D01*
X135460934Y-74783699D01*
X135273463Y-74765235D01*
X135255000Y-74763417D01*
X135254999Y-74763417D01*
X135049067Y-74783699D01*
X134851043Y-74843769D01*
X134668546Y-74941317D01*
X134608164Y-74990871D01*
X134543853Y-75018183D01*
X134474986Y-75006391D01*
X134423426Y-74959238D01*
X134405500Y-74895017D01*
X134405500Y-74202982D01*
X134425185Y-74135943D01*
X134477989Y-74090188D01*
X134547147Y-74080244D01*
X134608165Y-74107129D01*
X134668546Y-74156682D01*
X134668550Y-74156685D01*
X134851046Y-74254232D01*
X135049066Y-74314300D01*
X135049065Y-74314300D01*
X135069348Y-74316297D01*
X135255000Y-74334583D01*
X135460934Y-74314300D01*
X135658954Y-74254232D01*
X135658962Y-74254227D01*
X135660850Y-74253446D01*
X135661924Y-74253330D01*
X135664784Y-74252463D01*
X135664948Y-74253004D01*
X135730318Y-74245970D01*
X135792801Y-74277238D01*
X135795995Y-74280321D01*
X139592181Y-78076507D01*
X139625666Y-78137830D01*
X139628500Y-78164188D01*
X139628500Y-81093811D01*
X139608815Y-81160850D01*
X139592181Y-81181492D01*
X135795994Y-84977678D01*
X135734671Y-85011163D01*
X135664979Y-85006179D01*
X135660862Y-85004559D01*
X135658962Y-85003772D01*
X135658954Y-85003768D01*
X135460934Y-84943700D01*
X135460932Y-84943699D01*
X135460934Y-84943699D01*
X135273463Y-84925235D01*
X135255000Y-84923417D01*
X135254999Y-84923417D01*
X135049067Y-84943699D01*
X134851043Y-85003769D01*
X134778743Y-85042415D01*
X134668550Y-85101315D01*
X134668548Y-85101316D01*
X134668547Y-85101317D01*
X134508589Y-85232589D01*
X134388137Y-85379363D01*
X134377315Y-85392550D01*
X134353020Y-85438003D01*
X134279769Y-85575043D01*
X134219699Y-85773067D01*
X134199417Y-85979000D01*
X134219699Y-86184932D01*
X134219700Y-86184934D01*
X134279768Y-86382954D01*
X134377315Y-86565450D01*
X134377317Y-86565452D01*
X134508589Y-86725410D01*
X134577263Y-86781768D01*
X134668550Y-86856685D01*
X134851046Y-86954232D01*
X135049066Y-87014300D01*
X135049065Y-87014300D01*
X135067529Y-87016118D01*
X135255000Y-87034583D01*
X135460934Y-87014300D01*
X135658954Y-86954232D01*
X135841450Y-86856685D01*
X136001410Y-86725410D01*
X136132685Y-86565450D01*
X136230232Y-86382954D01*
X136290300Y-86184934D01*
X136310583Y-85979000D01*
X136290300Y-85773066D01*
X136230232Y-85575046D01*
X136230227Y-85575038D01*
X136229439Y-85573132D01*
X136229322Y-85572051D01*
X136228463Y-85569217D01*
X136229000Y-85569053D01*
X136221973Y-85503663D01*
X136253250Y-85441185D01*
X136256293Y-85438031D01*
X140172204Y-81522120D01*
X140176166Y-81518489D01*
X140207194Y-81492455D01*
X140227438Y-81457390D01*
X140230335Y-81452841D01*
X140253554Y-81419684D01*
X140253554Y-81419681D01*
X140255818Y-81414827D01*
X140262748Y-81398098D01*
X140264586Y-81393048D01*
X140264588Y-81393045D01*
X140271616Y-81353185D01*
X140272782Y-81347919D01*
X140283264Y-81308806D01*
X140279735Y-81268477D01*
X140279500Y-81263074D01*
X140279500Y-78427500D01*
X140299185Y-78360461D01*
X140351989Y-78314706D01*
X140403500Y-78303500D01*
X142931500Y-78303500D01*
X142998539Y-78323185D01*
X143044294Y-78375989D01*
X143055500Y-78427500D01*
X143055500Y-78759752D01*
X143067131Y-78818229D01*
X143067132Y-78818230D01*
X143111447Y-78884552D01*
X143177769Y-78928867D01*
X143177770Y-78928868D01*
X143236247Y-78940499D01*
X143236250Y-78940500D01*
X143236252Y-78940500D01*
X144468812Y-78940500D01*
X144535851Y-78960185D01*
X144556493Y-78976819D01*
X145942181Y-80362507D01*
X145975666Y-80423830D01*
X145978500Y-80450188D01*
X145978500Y-84438078D01*
X145978264Y-84443485D01*
X145974735Y-84483808D01*
X145985212Y-84522910D01*
X145986383Y-84528190D01*
X145993411Y-84568043D01*
X145995235Y-84573055D01*
X146002197Y-84589861D01*
X146004445Y-84594681D01*
X146004446Y-84594684D01*
X146018452Y-84614687D01*
X146027655Y-84627831D01*
X146030561Y-84632392D01*
X146050806Y-84667455D01*
X146081815Y-84693475D01*
X146085805Y-84697131D01*
X151014863Y-89626189D01*
X151018518Y-89630178D01*
X151044541Y-89661190D01*
X151044543Y-89661191D01*
X151044545Y-89661194D01*
X151044547Y-89661195D01*
X151044548Y-89661196D01*
X151074438Y-89678453D01*
X151122654Y-89729020D01*
X151135877Y-89797627D01*
X151109908Y-89862492D01*
X151091104Y-89881693D01*
X150954114Y-89994119D01*
X150833838Y-90140674D01*
X150833834Y-90140681D01*
X150744466Y-90307877D01*
X150744465Y-90307880D01*
X150689426Y-90489318D01*
X150670843Y-90677999D01*
X150689426Y-90866681D01*
X150700501Y-90903191D01*
X150744463Y-91048115D01*
X150744464Y-91048118D01*
X150744465Y-91048119D01*
X150744465Y-91048120D01*
X150833834Y-91215318D01*
X150833838Y-91215325D01*
X150954116Y-91361883D01*
X151100674Y-91482161D01*
X151100681Y-91482165D01*
X151267877Y-91571533D01*
X151267878Y-91571533D01*
X151267885Y-91571537D01*
X151449317Y-91626573D01*
X151449316Y-91626573D01*
X151466233Y-91628239D01*
X151638000Y-91645157D01*
X151826683Y-91626573D01*
X152008115Y-91571537D01*
X152175324Y-91482162D01*
X152321883Y-91361883D01*
X152442162Y-91215324D01*
X152529916Y-91051148D01*
X152531535Y-91048120D01*
X152531534Y-91048119D01*
X152531537Y-91048115D01*
X152586573Y-90866683D01*
X152589300Y-90838988D01*
X152615458Y-90774202D01*
X152672492Y-90733841D01*
X152742292Y-90730722D01*
X152800384Y-90763458D01*
X153689182Y-91652257D01*
X153722666Y-91713578D01*
X153725500Y-91739936D01*
X153725500Y-97856699D01*
X153705815Y-97923738D01*
X153676988Y-97955074D01*
X153622720Y-97996715D01*
X153526463Y-98122160D01*
X153465956Y-98268237D01*
X153465955Y-98268239D01*
X153445318Y-98424998D01*
X153445318Y-98425001D01*
X153465955Y-98581760D01*
X153465956Y-98581762D01*
X153499383Y-98662463D01*
X153526464Y-98727841D01*
X153622718Y-98853282D01*
X153748159Y-98949536D01*
X153894238Y-99010044D01*
X153972619Y-99020363D01*
X154050999Y-99030682D01*
X154051000Y-99030682D01*
X154051001Y-99030682D01*
X154103253Y-99023802D01*
X154207762Y-99010044D01*
X154353841Y-98949536D01*
X154479282Y-98853282D01*
X154575536Y-98727841D01*
X154636044Y-98581762D01*
X154656682Y-98425000D01*
X154636044Y-98268238D01*
X154575536Y-98122159D01*
X154479282Y-97996718D01*
X154479280Y-97996716D01*
X154479279Y-97996715D01*
X154425012Y-97955074D01*
X154383810Y-97898646D01*
X154376500Y-97856699D01*
X154376500Y-93345001D01*
X158906318Y-93345001D01*
X158926955Y-93501760D01*
X158926956Y-93501762D01*
X158932513Y-93515179D01*
X158987464Y-93647841D01*
X159083718Y-93773282D01*
X159209159Y-93869536D01*
X159355238Y-93930044D01*
X159433618Y-93940363D01*
X159511999Y-93950682D01*
X159512000Y-93950682D01*
X159512001Y-93950682D01*
X159564253Y-93943802D01*
X159668762Y-93930044D01*
X159814841Y-93869536D01*
X159940282Y-93773282D01*
X160036536Y-93647841D01*
X160097044Y-93501762D01*
X160117682Y-93345000D01*
X160112111Y-93302685D01*
X160122876Y-93233651D01*
X160169256Y-93181395D01*
X160235050Y-93162500D01*
X184710417Y-93162500D01*
X184777456Y-93182185D01*
X184823211Y-93234989D01*
X184824979Y-93239049D01*
X184825768Y-93240954D01*
X184923315Y-93423450D01*
X184923317Y-93423452D01*
X185054589Y-93583410D01*
X185087376Y-93610317D01*
X185214550Y-93714685D01*
X185397046Y-93812232D01*
X185595066Y-93872300D01*
X185595065Y-93872300D01*
X185615348Y-93874297D01*
X185801000Y-93892583D01*
X186006934Y-93872300D01*
X186204954Y-93812232D01*
X186387450Y-93714685D01*
X186547410Y-93583410D01*
X186678685Y-93423450D01*
X186776232Y-93240954D01*
X186836300Y-93042934D01*
X186856583Y-92837000D01*
X186836300Y-92631066D01*
X186776232Y-92433046D01*
X186678685Y-92250550D01*
X186588637Y-92140825D01*
X186547410Y-92090589D01*
X186387452Y-91959317D01*
X186387453Y-91959317D01*
X186387450Y-91959315D01*
X186204954Y-91861768D01*
X186006934Y-91801700D01*
X186006932Y-91801699D01*
X186006934Y-91801699D01*
X185819463Y-91783235D01*
X185801000Y-91781417D01*
X185800999Y-91781417D01*
X185595067Y-91801699D01*
X185397043Y-91861769D01*
X185286898Y-91920643D01*
X185214550Y-91959315D01*
X185214548Y-91959316D01*
X185214547Y-91959317D01*
X185054589Y-92090589D01*
X184923317Y-92250547D01*
X184923315Y-92250550D01*
X184913225Y-92269427D01*
X184825768Y-92433045D01*
X184824979Y-92434951D01*
X184824298Y-92435796D01*
X184822896Y-92438419D01*
X184822398Y-92438153D01*
X184781138Y-92489355D01*
X184714844Y-92511421D01*
X184710417Y-92511500D01*
X160036910Y-92511500D01*
X160031506Y-92511264D01*
X160025993Y-92510781D01*
X159991192Y-92507736D01*
X159952105Y-92518210D01*
X159946825Y-92519381D01*
X159906957Y-92526411D01*
X159901983Y-92528221D01*
X159885118Y-92535207D01*
X159880313Y-92537447D01*
X159847162Y-92560659D01*
X159842603Y-92563563D01*
X159807545Y-92583805D01*
X159781528Y-92614809D01*
X159777874Y-92618797D01*
X159683684Y-92712988D01*
X159622361Y-92746473D01*
X159579817Y-92748246D01*
X159512001Y-92739318D01*
X159511999Y-92739318D01*
X159355239Y-92759955D01*
X159355237Y-92759956D01*
X159209160Y-92820463D01*
X159083718Y-92916718D01*
X158987463Y-93042160D01*
X158926956Y-93188237D01*
X158926955Y-93188239D01*
X158906318Y-93344998D01*
X158906318Y-93345001D01*
X154376500Y-93345001D01*
X154376500Y-91570658D01*
X154376736Y-91565251D01*
X154378592Y-91544046D01*
X154380263Y-91524942D01*
X154380262Y-91524941D01*
X154380263Y-91524940D01*
X154369785Y-91485839D01*
X154368618Y-91480579D01*
X154361588Y-91440704D01*
X154361587Y-91440702D01*
X154359760Y-91435682D01*
X154352820Y-91418925D01*
X154350554Y-91414068D01*
X154350554Y-91414065D01*
X154327337Y-91380908D01*
X154324435Y-91376354D01*
X154304194Y-91341294D01*
X154273182Y-91315271D01*
X154269210Y-91311632D01*
X152147370Y-89189793D01*
X152143725Y-89185814D01*
X152110732Y-89146494D01*
X152113952Y-89143791D01*
X152087096Y-89103378D01*
X152086024Y-89033516D01*
X152122892Y-88974166D01*
X152147065Y-88957266D01*
X152175324Y-88942162D01*
X152321883Y-88821883D01*
X152442162Y-88675324D01*
X152499017Y-88568956D01*
X152531535Y-88508120D01*
X152531534Y-88508119D01*
X152531537Y-88508115D01*
X152586573Y-88326683D01*
X152605157Y-88138000D01*
X152586573Y-87949317D01*
X152531537Y-87767885D01*
X152531533Y-87767877D01*
X152442165Y-87600681D01*
X152442161Y-87600674D01*
X152321883Y-87454116D01*
X152175325Y-87333838D01*
X152175318Y-87333834D01*
X152008122Y-87244466D01*
X152008119Y-87244465D01*
X152008118Y-87244464D01*
X152008115Y-87244463D01*
X151826683Y-87189427D01*
X151826681Y-87189426D01*
X151826683Y-87189426D01*
X151638000Y-87170843D01*
X151449318Y-87189426D01*
X151326948Y-87226546D01*
X151290595Y-87237574D01*
X151220729Y-87238197D01*
X151166920Y-87206594D01*
X150094819Y-86134493D01*
X150061334Y-86073170D01*
X150058500Y-86046812D01*
X150058500Y-83058000D01*
X150670843Y-83058000D01*
X150689426Y-83246681D01*
X150689427Y-83246683D01*
X150744463Y-83428115D01*
X150744464Y-83428118D01*
X150744465Y-83428119D01*
X150744466Y-83428122D01*
X150833834Y-83595318D01*
X150833838Y-83595325D01*
X150954116Y-83741883D01*
X151100674Y-83862161D01*
X151100681Y-83862165D01*
X151267877Y-83951533D01*
X151267878Y-83951533D01*
X151267885Y-83951537D01*
X151449317Y-84006573D01*
X151449316Y-84006573D01*
X151466233Y-84008239D01*
X151638000Y-84025157D01*
X151826683Y-84006573D01*
X152008115Y-83951537D01*
X152175324Y-83862162D01*
X152321883Y-83741883D01*
X152442162Y-83595324D01*
X152531537Y-83428115D01*
X152586573Y-83246683D01*
X152605157Y-83058000D01*
X152586573Y-82869317D01*
X152531537Y-82687885D01*
X152509249Y-82646187D01*
X152442165Y-82520681D01*
X152442161Y-82520674D01*
X152321883Y-82374116D01*
X152175325Y-82253838D01*
X152175318Y-82253834D01*
X152008122Y-82164466D01*
X152008119Y-82164465D01*
X152008118Y-82164464D01*
X152008115Y-82164463D01*
X151826683Y-82109427D01*
X151826681Y-82109426D01*
X151826683Y-82109426D01*
X151638000Y-82090843D01*
X151449318Y-82109426D01*
X151342194Y-82141921D01*
X151267885Y-82164463D01*
X151267882Y-82164464D01*
X151267880Y-82164465D01*
X151267877Y-82164466D01*
X151100681Y-82253834D01*
X151100674Y-82253838D01*
X150954116Y-82374116D01*
X150833838Y-82520674D01*
X150833834Y-82520681D01*
X150744466Y-82687877D01*
X150744465Y-82687880D01*
X150744464Y-82687882D01*
X150744463Y-82687885D01*
X150728538Y-82740383D01*
X150689426Y-82869318D01*
X150670843Y-83058000D01*
X150058500Y-83058000D01*
X150058500Y-77783187D01*
X150078185Y-77716148D01*
X150094819Y-77695506D01*
X150537507Y-77252819D01*
X150598830Y-77219334D01*
X150625188Y-77216500D01*
X150755638Y-77216500D01*
X150822677Y-77236185D01*
X150868432Y-77288989D01*
X150878376Y-77358147D01*
X150851492Y-77419164D01*
X150833838Y-77440675D01*
X150833834Y-77440681D01*
X150744466Y-77607877D01*
X150744465Y-77607880D01*
X150744464Y-77607882D01*
X150744463Y-77607885D01*
X150728538Y-77660383D01*
X150689426Y-77789318D01*
X150670843Y-77978000D01*
X150689426Y-78166681D01*
X150689427Y-78166683D01*
X150744463Y-78348115D01*
X150744464Y-78348118D01*
X150744465Y-78348119D01*
X150744466Y-78348122D01*
X150833834Y-78515318D01*
X150833838Y-78515325D01*
X150954116Y-78661883D01*
X151100674Y-78782161D01*
X151100681Y-78782165D01*
X151267877Y-78871533D01*
X151267878Y-78871533D01*
X151267885Y-78871537D01*
X151449317Y-78926573D01*
X151449316Y-78926573D01*
X151466233Y-78928239D01*
X151638000Y-78945157D01*
X151826683Y-78926573D01*
X152008115Y-78871537D01*
X152175324Y-78782162D01*
X152321883Y-78661883D01*
X152442162Y-78515324D01*
X152470871Y-78461613D01*
X152520349Y-78369047D01*
X152569311Y-78319203D01*
X152629707Y-78303500D01*
X156023812Y-78303500D01*
X156090851Y-78323185D01*
X156111493Y-78339819D01*
X160158863Y-82387189D01*
X160162518Y-82391178D01*
X160188541Y-82422190D01*
X160188543Y-82422191D01*
X160188545Y-82422194D01*
X160188547Y-82422195D01*
X160188548Y-82422196D01*
X160223599Y-82442433D01*
X160228162Y-82445339D01*
X160261316Y-82468554D01*
X160261319Y-82468554D01*
X160266176Y-82470820D01*
X160282933Y-82477760D01*
X160287950Y-82479586D01*
X160287952Y-82479586D01*
X160287955Y-82479588D01*
X160327818Y-82486616D01*
X160333076Y-82487782D01*
X160372193Y-82498264D01*
X160412518Y-82494735D01*
X160417922Y-82494500D01*
X169231812Y-82494500D01*
X169298851Y-82514185D01*
X169319493Y-82530819D01*
X170064863Y-83276189D01*
X170068518Y-83280178D01*
X170094541Y-83311190D01*
X170094543Y-83311191D01*
X170094545Y-83311194D01*
X170094547Y-83311195D01*
X170094548Y-83311196D01*
X170129599Y-83331433D01*
X170134162Y-83334339D01*
X170167316Y-83357554D01*
X170167319Y-83357554D01*
X170172176Y-83359820D01*
X170188933Y-83366760D01*
X170193953Y-83368587D01*
X170193955Y-83368588D01*
X170229806Y-83374909D01*
X170233808Y-83375615D01*
X170239080Y-83376783D01*
X170278193Y-83387264D01*
X170318522Y-83383735D01*
X170323924Y-83383500D01*
X172288617Y-83383500D01*
X172355656Y-83403185D01*
X172376298Y-83419819D01*
X174052672Y-85096194D01*
X174086157Y-85157517D01*
X174081173Y-85227209D01*
X174039301Y-85283142D01*
X174012445Y-85298436D01*
X173941159Y-85327964D01*
X173815718Y-85424218D01*
X173719463Y-85549660D01*
X173658956Y-85695737D01*
X173658955Y-85695739D01*
X173638318Y-85852498D01*
X173638318Y-85852501D01*
X173658955Y-86009260D01*
X173660388Y-86014605D01*
X173658725Y-86084455D01*
X173628294Y-86134379D01*
X170970493Y-88792181D01*
X170909170Y-88825666D01*
X170882812Y-88828500D01*
X169732299Y-88828500D01*
X169665260Y-88808815D01*
X169633923Y-88779986D01*
X169592283Y-88725719D01*
X169526599Y-88675318D01*
X169466841Y-88629464D01*
X169417627Y-88609079D01*
X169320762Y-88568956D01*
X169320760Y-88568955D01*
X169164001Y-88548318D01*
X169163999Y-88548318D01*
X169007239Y-88568955D01*
X169007237Y-88568956D01*
X168861160Y-88629463D01*
X168735718Y-88725718D01*
X168639463Y-88851160D01*
X168578956Y-88997237D01*
X168578955Y-88997239D01*
X168558318Y-89153998D01*
X168558318Y-89154001D01*
X168578955Y-89310760D01*
X168578956Y-89310762D01*
X168627843Y-89428787D01*
X168639464Y-89456841D01*
X168735718Y-89582282D01*
X168861159Y-89678536D01*
X168992500Y-89732939D01*
X169046903Y-89776780D01*
X169068968Y-89843074D01*
X169051689Y-89910773D01*
X169000552Y-89958384D01*
X168945047Y-89971500D01*
X164006884Y-89971500D01*
X163939845Y-89951815D01*
X163919203Y-89935181D01*
X162066522Y-88082500D01*
X160211325Y-86227304D01*
X160177841Y-86165982D01*
X160182825Y-86096290D01*
X160224697Y-86040357D01*
X160251544Y-86025068D01*
X160322841Y-85995536D01*
X160448282Y-85899282D01*
X160489923Y-85845013D01*
X160546351Y-85803811D01*
X160588299Y-85796500D01*
X165421812Y-85796500D01*
X165488851Y-85816185D01*
X165509493Y-85832819D01*
X165991988Y-86315314D01*
X166025473Y-86376637D01*
X166027246Y-86419179D01*
X166018318Y-86486997D01*
X166018318Y-86487001D01*
X166038955Y-86643760D01*
X166038956Y-86643762D01*
X166062837Y-86701417D01*
X166099464Y-86789841D01*
X166195718Y-86915282D01*
X166321159Y-87011536D01*
X166467238Y-87072044D01*
X166545618Y-87082363D01*
X166623999Y-87092682D01*
X166624000Y-87092682D01*
X166624001Y-87092682D01*
X166676254Y-87085802D01*
X166780762Y-87072044D01*
X166926841Y-87011536D01*
X167052282Y-86915282D01*
X167148536Y-86789841D01*
X167209044Y-86643762D01*
X167229682Y-86487000D01*
X167228119Y-86475131D01*
X167215205Y-86377036D01*
X167209044Y-86330238D01*
X167148536Y-86184159D01*
X167052282Y-86058718D01*
X166926841Y-85962464D01*
X166882593Y-85944136D01*
X166780762Y-85901956D01*
X166780760Y-85901955D01*
X166624001Y-85881318D01*
X166623997Y-85881318D01*
X166556179Y-85890246D01*
X166487144Y-85879480D01*
X166452314Y-85854988D01*
X166163723Y-85566397D01*
X165850119Y-85252793D01*
X165846474Y-85248814D01*
X165820456Y-85217807D01*
X165820455Y-85217806D01*
X165809058Y-85211226D01*
X165785392Y-85197561D01*
X165780831Y-85194655D01*
X165760940Y-85180728D01*
X165747684Y-85171446D01*
X165747681Y-85171445D01*
X165742861Y-85169197D01*
X165726055Y-85162235D01*
X165721043Y-85160411D01*
X165681190Y-85153383D01*
X165675910Y-85152212D01*
X165636808Y-85141735D01*
X165601892Y-85144790D01*
X165596481Y-85145264D01*
X165591078Y-85145500D01*
X160588299Y-85145500D01*
X160521260Y-85125815D01*
X160489923Y-85096986D01*
X160448283Y-85042719D01*
X160447887Y-85042415D01*
X160322841Y-84946464D01*
X160316168Y-84943700D01*
X160176762Y-84885956D01*
X160176760Y-84885955D01*
X160020001Y-84865318D01*
X160019999Y-84865318D01*
X159863239Y-84885955D01*
X159863234Y-84885957D01*
X159791952Y-84915483D01*
X159722483Y-84922952D01*
X159660004Y-84891676D01*
X159624352Y-84831587D01*
X159620500Y-84800922D01*
X159620500Y-82476920D01*
X159620736Y-82471513D01*
X159621549Y-82462229D01*
X159624264Y-82431193D01*
X159613782Y-82392076D01*
X159612616Y-82386818D01*
X159605588Y-82346955D01*
X159605586Y-82346952D01*
X159605586Y-82346950D01*
X159603760Y-82341933D01*
X159596820Y-82325176D01*
X159594554Y-82320319D01*
X159594554Y-82320316D01*
X159571339Y-82287162D01*
X159568433Y-82282599D01*
X159548196Y-82247548D01*
X159548195Y-82247547D01*
X159548194Y-82247545D01*
X159517177Y-82221518D01*
X159513193Y-82217867D01*
X158558400Y-81263074D01*
X157595119Y-80299793D01*
X157591474Y-80295814D01*
X157565456Y-80264807D01*
X157565455Y-80264806D01*
X157542702Y-80251669D01*
X157530392Y-80244561D01*
X157525831Y-80241655D01*
X157512687Y-80232452D01*
X157492684Y-80218446D01*
X157492681Y-80218445D01*
X157487861Y-80216197D01*
X157471055Y-80209235D01*
X157466043Y-80207411D01*
X157426190Y-80200383D01*
X157420910Y-80199212D01*
X157381808Y-80188735D01*
X157346892Y-80191790D01*
X157341481Y-80192264D01*
X157336078Y-80192500D01*
X152629707Y-80192500D01*
X152562668Y-80172815D01*
X152520349Y-80126953D01*
X152442165Y-79980681D01*
X152442161Y-79980674D01*
X152321883Y-79834116D01*
X152175325Y-79713838D01*
X152175318Y-79713834D01*
X152008122Y-79624466D01*
X152008119Y-79624465D01*
X152008118Y-79624464D01*
X152008115Y-79624463D01*
X151826683Y-79569427D01*
X151826681Y-79569426D01*
X151826683Y-79569426D01*
X151638000Y-79550843D01*
X151449318Y-79569426D01*
X151342194Y-79601921D01*
X151267885Y-79624463D01*
X151267882Y-79624464D01*
X151267880Y-79624465D01*
X151267877Y-79624466D01*
X151100681Y-79713834D01*
X151100674Y-79713838D01*
X150954116Y-79834116D01*
X150833838Y-79980674D01*
X150833834Y-79980681D01*
X150744466Y-80147877D01*
X150744465Y-80147880D01*
X150744464Y-80147882D01*
X150744463Y-80147885D01*
X150728538Y-80200383D01*
X150689426Y-80329318D01*
X150670843Y-80517999D01*
X150689426Y-80706681D01*
X150689427Y-80706683D01*
X150744463Y-80888115D01*
X150744464Y-80888118D01*
X150744465Y-80888119D01*
X150744466Y-80888122D01*
X150833834Y-81055318D01*
X150833838Y-81055325D01*
X150954116Y-81201883D01*
X151100674Y-81322161D01*
X151100681Y-81322165D01*
X151267877Y-81411533D01*
X151267878Y-81411533D01*
X151267885Y-81411537D01*
X151449317Y-81466573D01*
X151449316Y-81466573D01*
X151466233Y-81468239D01*
X151638000Y-81485157D01*
X151826683Y-81466573D01*
X152008115Y-81411537D01*
X152175324Y-81322162D01*
X152321883Y-81201883D01*
X152442162Y-81055324D01*
X152520348Y-80909047D01*
X152569311Y-80859203D01*
X152629707Y-80843500D01*
X153634715Y-80843500D01*
X153701754Y-80863185D01*
X153747509Y-80915989D01*
X153757453Y-80985147D01*
X153749276Y-81014952D01*
X153719957Y-81085734D01*
X153719955Y-81085739D01*
X153699318Y-81242498D01*
X153699318Y-81242501D01*
X153719955Y-81399260D01*
X153719956Y-81399262D01*
X153770055Y-81520213D01*
X153780464Y-81545341D01*
X153876718Y-81670782D01*
X153930987Y-81712424D01*
X153972189Y-81768849D01*
X153979500Y-81810798D01*
X153979500Y-82744811D01*
X153959815Y-82811850D01*
X153943181Y-82832492D01*
X152109079Y-84666593D01*
X152047756Y-84700078D01*
X151985404Y-84697573D01*
X151826682Y-84649426D01*
X151826683Y-84649426D01*
X151638000Y-84630843D01*
X151449318Y-84649426D01*
X151342194Y-84681921D01*
X151267885Y-84704463D01*
X151267882Y-84704464D01*
X151267880Y-84704465D01*
X151267877Y-84704466D01*
X151100681Y-84793834D01*
X151100674Y-84793838D01*
X150954116Y-84914116D01*
X150833838Y-85060674D01*
X150833834Y-85060681D01*
X150744466Y-85227877D01*
X150744465Y-85227880D01*
X150744464Y-85227882D01*
X150744463Y-85227885D01*
X150727701Y-85283142D01*
X150689426Y-85409318D01*
X150670843Y-85597999D01*
X150689426Y-85786681D01*
X150698376Y-85816185D01*
X150744463Y-85968115D01*
X150744464Y-85968118D01*
X150744465Y-85968119D01*
X150744466Y-85968122D01*
X150833834Y-86135318D01*
X150833838Y-86135325D01*
X150954116Y-86281883D01*
X151100674Y-86402161D01*
X151100681Y-86402165D01*
X151267877Y-86491533D01*
X151267878Y-86491533D01*
X151267885Y-86491537D01*
X151449317Y-86546573D01*
X151449316Y-86546573D01*
X151466233Y-86548239D01*
X151638000Y-86565157D01*
X151826683Y-86546573D01*
X152008115Y-86491537D01*
X152175324Y-86402162D01*
X152321883Y-86281883D01*
X152442162Y-86135324D01*
X152531537Y-85968115D01*
X152586573Y-85786683D01*
X152605157Y-85598000D01*
X152586573Y-85409317D01*
X152538424Y-85250591D01*
X152537802Y-85180728D01*
X152569403Y-85126921D01*
X154523204Y-83173120D01*
X154527166Y-83169489D01*
X154558194Y-83143455D01*
X154578438Y-83108390D01*
X154581335Y-83103841D01*
X154604554Y-83070684D01*
X154604554Y-83070681D01*
X154606819Y-83065824D01*
X154613747Y-83049099D01*
X154615584Y-83044050D01*
X154615588Y-83044045D01*
X154622619Y-83004162D01*
X154623777Y-82998940D01*
X154634264Y-82959807D01*
X154630735Y-82919478D01*
X154630500Y-82914075D01*
X154630500Y-81810798D01*
X154650185Y-81743759D01*
X154679010Y-81712425D01*
X154733282Y-81670782D01*
X154829536Y-81545341D01*
X154890044Y-81399262D01*
X154910682Y-81242500D01*
X154909317Y-81232135D01*
X154890044Y-81085739D01*
X154890042Y-81085734D01*
X154860724Y-81014952D01*
X154853255Y-80945483D01*
X154884530Y-80883004D01*
X154944620Y-80847352D01*
X154975285Y-80843500D01*
X157166812Y-80843500D01*
X157233851Y-80863185D01*
X157254493Y-80879819D01*
X158933181Y-82558506D01*
X158966666Y-82619829D01*
X158969500Y-82646187D01*
X158969500Y-85754383D01*
X158969264Y-85759790D01*
X158965735Y-85800113D01*
X158976212Y-85839215D01*
X158977383Y-85844495D01*
X158984411Y-85884348D01*
X158986235Y-85889360D01*
X158993197Y-85906166D01*
X158995445Y-85910986D01*
X158995446Y-85910989D01*
X159009452Y-85930992D01*
X159018655Y-85944136D01*
X159021561Y-85948697D01*
X159041806Y-85983760D01*
X159072815Y-86009780D01*
X159076805Y-86013436D01*
X163578563Y-90515195D01*
X163582218Y-90519184D01*
X163608236Y-90550190D01*
X163608238Y-90550191D01*
X163608240Y-90550194D01*
X163643300Y-90570435D01*
X163647854Y-90573337D01*
X163681011Y-90596554D01*
X163681014Y-90596554D01*
X163685871Y-90598820D01*
X163702628Y-90605760D01*
X163707648Y-90607587D01*
X163707650Y-90607588D01*
X163747525Y-90614618D01*
X163752782Y-90615784D01*
X163791888Y-90626263D01*
X163832205Y-90622735D01*
X163837607Y-90622500D01*
X184710417Y-90622500D01*
X184777456Y-90642185D01*
X184823211Y-90694989D01*
X184824979Y-90699049D01*
X184825768Y-90700954D01*
X184923315Y-90883450D01*
X184923317Y-90883452D01*
X185054589Y-91043410D01*
X185087376Y-91070317D01*
X185214550Y-91174685D01*
X185397046Y-91272232D01*
X185595066Y-91332300D01*
X185595065Y-91332300D01*
X185613529Y-91334118D01*
X185801000Y-91352583D01*
X186006934Y-91332300D01*
X186204954Y-91272232D01*
X186387450Y-91174685D01*
X186547410Y-91043410D01*
X186678685Y-90883450D01*
X186776232Y-90700954D01*
X186836300Y-90502934D01*
X186856583Y-90297000D01*
X186836300Y-90091066D01*
X186776232Y-89893046D01*
X186776227Y-89893038D01*
X186775439Y-89891132D01*
X186775322Y-89890051D01*
X186774463Y-89887217D01*
X186775000Y-89887053D01*
X186767973Y-89821663D01*
X186799250Y-89759185D01*
X186802292Y-89756032D01*
X188383321Y-88175004D01*
X188444642Y-88141521D01*
X188514334Y-88146505D01*
X188570267Y-88188377D01*
X188594684Y-88253841D01*
X188595000Y-88262687D01*
X188595000Y-113486637D01*
X188575315Y-113553676D01*
X188558681Y-113574318D01*
X188123319Y-114009681D01*
X188061996Y-114043166D01*
X188035638Y-114046000D01*
X183131687Y-114046000D01*
X183064648Y-114026315D01*
X183018893Y-113973511D01*
X183008949Y-113904353D01*
X183037974Y-113840797D01*
X183044006Y-113834319D01*
X185174507Y-111703819D01*
X185235830Y-111670334D01*
X185262188Y-111667500D01*
X186670750Y-111667500D01*
X186670751Y-111667499D01*
X186685568Y-111664552D01*
X186729229Y-111655868D01*
X186729229Y-111655867D01*
X186729231Y-111655867D01*
X186795552Y-111611552D01*
X186839867Y-111545231D01*
X186839867Y-111545229D01*
X186839868Y-111545229D01*
X186851499Y-111486752D01*
X186851500Y-111486750D01*
X186851500Y-109747249D01*
X186851499Y-109747247D01*
X186839868Y-109688770D01*
X186839867Y-109688769D01*
X186795552Y-109622447D01*
X186729230Y-109578132D01*
X186729229Y-109578131D01*
X186670752Y-109566500D01*
X186670748Y-109566500D01*
X185071187Y-109566500D01*
X185004148Y-109546815D01*
X184958393Y-109494011D01*
X184948449Y-109424853D01*
X184977474Y-109361297D01*
X184983506Y-109354819D01*
X185104771Y-109233554D01*
X185260005Y-109078319D01*
X185321326Y-109044836D01*
X185391017Y-109049820D01*
X185395132Y-109051439D01*
X185397038Y-109052227D01*
X185397046Y-109052232D01*
X185595066Y-109112300D01*
X185595065Y-109112300D01*
X185613529Y-109114118D01*
X185801000Y-109132583D01*
X186006934Y-109112300D01*
X186204954Y-109052232D01*
X186387450Y-108954685D01*
X186547410Y-108823410D01*
X186678685Y-108663450D01*
X186776232Y-108480954D01*
X186836300Y-108282934D01*
X186856583Y-108077000D01*
X186836300Y-107871066D01*
X186776232Y-107673046D01*
X186678685Y-107490550D01*
X186599393Y-107393932D01*
X186547410Y-107330589D01*
X186429677Y-107233969D01*
X186387450Y-107199315D01*
X186204954Y-107101768D01*
X186006934Y-107041700D01*
X186006932Y-107041699D01*
X186006934Y-107041699D01*
X185819463Y-107023235D01*
X185801000Y-107021417D01*
X185800999Y-107021417D01*
X185595067Y-107041699D01*
X185397043Y-107101769D01*
X185329179Y-107138044D01*
X185214550Y-107199315D01*
X185214548Y-107199316D01*
X185214547Y-107199317D01*
X185054589Y-107330589D01*
X184923317Y-107490547D01*
X184923315Y-107490550D01*
X184913225Y-107509427D01*
X184825769Y-107673043D01*
X184765699Y-107871067D01*
X184745417Y-108076999D01*
X184765699Y-108282932D01*
X184765700Y-108282934D01*
X184825768Y-108480954D01*
X184825772Y-108480962D01*
X184826559Y-108482862D01*
X184826675Y-108483941D01*
X184827537Y-108486783D01*
X184826998Y-108486946D01*
X184834027Y-108552331D01*
X184802751Y-108614810D01*
X184799678Y-108617994D01*
X182019494Y-111398180D01*
X181958171Y-111431665D01*
X181931813Y-111434499D01*
X152678594Y-111434499D01*
X152611555Y-111414814D01*
X152565800Y-111362010D01*
X152555856Y-111292852D01*
X152559933Y-111274504D01*
X152569340Y-111243493D01*
X152586573Y-111186683D01*
X152605157Y-110998000D01*
X152586573Y-110809317D01*
X152531537Y-110627885D01*
X152515430Y-110597750D01*
X152442165Y-110460681D01*
X152442161Y-110460674D01*
X152321883Y-110314116D01*
X152175325Y-110193838D01*
X152175318Y-110193834D01*
X152008122Y-110104466D01*
X152008119Y-110104465D01*
X152008118Y-110104464D01*
X152008115Y-110104463D01*
X151826683Y-110049427D01*
X151826681Y-110049426D01*
X151826683Y-110049426D01*
X151654916Y-110032509D01*
X151638000Y-110030843D01*
X151637999Y-110030843D01*
X151449318Y-110049426D01*
X151342194Y-110081921D01*
X151267885Y-110104463D01*
X151267882Y-110104464D01*
X151267880Y-110104465D01*
X151267877Y-110104466D01*
X151100681Y-110193834D01*
X151100674Y-110193838D01*
X150954116Y-110314116D01*
X150833838Y-110460674D01*
X150833834Y-110460681D01*
X150744466Y-110627877D01*
X150744465Y-110627880D01*
X150744464Y-110627882D01*
X150744463Y-110627885D01*
X150723968Y-110695450D01*
X150689426Y-110809318D01*
X150670843Y-110997999D01*
X150689426Y-111186681D01*
X150695643Y-111207174D01*
X150744463Y-111368115D01*
X150744464Y-111368118D01*
X150744465Y-111368119D01*
X150744466Y-111368122D01*
X150833834Y-111535318D01*
X150833838Y-111535325D01*
X150954116Y-111681883D01*
X151100674Y-111802161D01*
X151100681Y-111802165D01*
X151267877Y-111891533D01*
X151267878Y-111891533D01*
X151267885Y-111891537D01*
X151449317Y-111946573D01*
X151449316Y-111946573D01*
X151466233Y-111948239D01*
X151638000Y-111965157D01*
X151826683Y-111946573D01*
X151985404Y-111898425D01*
X152055270Y-111897803D01*
X152109079Y-111929406D01*
X152157867Y-111978194D01*
X152161522Y-111982183D01*
X152187540Y-112013189D01*
X152187542Y-112013190D01*
X152187544Y-112013193D01*
X152222598Y-112033431D01*
X152227158Y-112036336D01*
X152260315Y-112059553D01*
X152260318Y-112059553D01*
X152265175Y-112061819D01*
X152281932Y-112068759D01*
X152286952Y-112070586D01*
X152286954Y-112070587D01*
X152326829Y-112077617D01*
X152332086Y-112078783D01*
X152371192Y-112089262D01*
X152411509Y-112085734D01*
X152416911Y-112085499D01*
X182101079Y-112085499D01*
X182106482Y-112085734D01*
X182146808Y-112089263D01*
X182185941Y-112078776D01*
X182191163Y-112077618D01*
X182231046Y-112070587D01*
X182231051Y-112070583D01*
X182236100Y-112068746D01*
X182252825Y-112061818D01*
X182257682Y-112059553D01*
X182257685Y-112059553D01*
X182290842Y-112036334D01*
X182295391Y-112033437D01*
X182330456Y-112013193D01*
X182330460Y-112013189D01*
X182341538Y-111999985D01*
X182356482Y-111982175D01*
X182360123Y-111978201D01*
X184538821Y-109799503D01*
X184600142Y-109766020D01*
X184669834Y-109771004D01*
X184725767Y-109812876D01*
X184750184Y-109878340D01*
X184750500Y-109887186D01*
X184750500Y-111155812D01*
X184730815Y-111222851D01*
X184714181Y-111243493D01*
X182654493Y-113303181D01*
X182593170Y-113336666D01*
X182566812Y-113339500D01*
X146871188Y-113339500D01*
X146804149Y-113319815D01*
X146783507Y-113303181D01*
X144949405Y-111469079D01*
X144915920Y-111407756D01*
X144918425Y-111345405D01*
X144966573Y-111186683D01*
X144985157Y-110998000D01*
X144966573Y-110809317D01*
X144911537Y-110627885D01*
X144895430Y-110597750D01*
X144822165Y-110460681D01*
X144822161Y-110460674D01*
X144701883Y-110314116D01*
X144555325Y-110193838D01*
X144555318Y-110193834D01*
X144388122Y-110104466D01*
X144388119Y-110104465D01*
X144388118Y-110104464D01*
X144388115Y-110104463D01*
X144206683Y-110049427D01*
X144206681Y-110049426D01*
X144206683Y-110049426D01*
X144018000Y-110030843D01*
X143829318Y-110049426D01*
X143722194Y-110081921D01*
X143647885Y-110104463D01*
X143647882Y-110104464D01*
X143647880Y-110104465D01*
X143647877Y-110104466D01*
X143480681Y-110193834D01*
X143480674Y-110193838D01*
X143334116Y-110314116D01*
X143213838Y-110460674D01*
X143213834Y-110460681D01*
X143124466Y-110627877D01*
X143124465Y-110627880D01*
X143124464Y-110627882D01*
X143124463Y-110627885D01*
X143103968Y-110695450D01*
X143069426Y-110809318D01*
X143050843Y-110997999D01*
X143069426Y-111186681D01*
X143075643Y-111207174D01*
X143124463Y-111368115D01*
X143124464Y-111368118D01*
X143124465Y-111368119D01*
X143124466Y-111368122D01*
X143213834Y-111535318D01*
X143213838Y-111535325D01*
X143334116Y-111681883D01*
X143480674Y-111802161D01*
X143480681Y-111802165D01*
X143647877Y-111891533D01*
X143647878Y-111891533D01*
X143647885Y-111891537D01*
X143829317Y-111946573D01*
X143829316Y-111946573D01*
X143846233Y-111948239D01*
X144018000Y-111965157D01*
X144206683Y-111946573D01*
X144365404Y-111898425D01*
X144435269Y-111897802D01*
X144489079Y-111929405D01*
X146393993Y-113834319D01*
X146427478Y-113895642D01*
X146422494Y-113965334D01*
X146380622Y-114021267D01*
X146315158Y-114045684D01*
X146306312Y-114046000D01*
X133768544Y-114046000D01*
X133701505Y-114026315D01*
X133699761Y-114025174D01*
X133693900Y-114021267D01*
X133024335Y-113574890D01*
X132979475Y-113521326D01*
X132969119Y-113471497D01*
X132974297Y-110597752D01*
X134331500Y-110597752D01*
X134343131Y-110656229D01*
X134343132Y-110656230D01*
X134387447Y-110722552D01*
X134453769Y-110766867D01*
X134453770Y-110766868D01*
X134512247Y-110778499D01*
X134512250Y-110778500D01*
X134512252Y-110778500D01*
X136251750Y-110778500D01*
X136251751Y-110778499D01*
X136266568Y-110775552D01*
X136310229Y-110766868D01*
X136310229Y-110766867D01*
X136310231Y-110766867D01*
X136376552Y-110722552D01*
X136420867Y-110656231D01*
X136420867Y-110656229D01*
X136420868Y-110656229D01*
X136432499Y-110597752D01*
X136432500Y-110597750D01*
X136432500Y-109189188D01*
X136452185Y-109122149D01*
X136468819Y-109101507D01*
X136750508Y-108819819D01*
X136811831Y-108786334D01*
X136838189Y-108783500D01*
X143026293Y-108783500D01*
X143093332Y-108803185D01*
X143135651Y-108849047D01*
X143213834Y-108995318D01*
X143213838Y-108995325D01*
X143334116Y-109141883D01*
X143480674Y-109262161D01*
X143480681Y-109262165D01*
X143647877Y-109351533D01*
X143647878Y-109351533D01*
X143647885Y-109351537D01*
X143829317Y-109406573D01*
X143829316Y-109406573D01*
X143846233Y-109408239D01*
X144018000Y-109425157D01*
X144206683Y-109406573D01*
X144388115Y-109351537D01*
X144555324Y-109262162D01*
X144701883Y-109141883D01*
X144822162Y-108995324D01*
X144843886Y-108954682D01*
X144911535Y-108828120D01*
X144911534Y-108828119D01*
X144911537Y-108828115D01*
X144966573Y-108646683D01*
X144985157Y-108458000D01*
X144966573Y-108269317D01*
X144911537Y-108087885D01*
X144905719Y-108077000D01*
X144822165Y-107920681D01*
X144822161Y-107920674D01*
X144701883Y-107774116D01*
X144555325Y-107653838D01*
X144555318Y-107653834D01*
X144388122Y-107564466D01*
X144388119Y-107564465D01*
X144388118Y-107564464D01*
X144388115Y-107564463D01*
X144206683Y-107509427D01*
X144206681Y-107509426D01*
X144206683Y-107509426D01*
X144018000Y-107490843D01*
X143829318Y-107509426D01*
X143722194Y-107541921D01*
X143647885Y-107564463D01*
X143647882Y-107564464D01*
X143647880Y-107564465D01*
X143647877Y-107564466D01*
X143480681Y-107653834D01*
X143480674Y-107653838D01*
X143334116Y-107774116D01*
X143213838Y-107920674D01*
X143213834Y-107920681D01*
X143135651Y-108066953D01*
X143086689Y-108116797D01*
X143026293Y-108132500D01*
X136668913Y-108132500D01*
X136663511Y-108132264D01*
X136656126Y-108131618D01*
X136623192Y-108128736D01*
X136623191Y-108128736D01*
X136584099Y-108139211D01*
X136578819Y-108140382D01*
X136538954Y-108147412D01*
X136533962Y-108149229D01*
X136517117Y-108156206D01*
X136512313Y-108158446D01*
X136479163Y-108181658D01*
X136474602Y-108184564D01*
X136439548Y-108204804D01*
X136439545Y-108204806D01*
X136439543Y-108204807D01*
X136439542Y-108204809D01*
X136413523Y-108235815D01*
X136409868Y-108239803D01*
X136202988Y-108446685D01*
X136008492Y-108641181D01*
X135947169Y-108674666D01*
X135920811Y-108677500D01*
X134512247Y-108677500D01*
X134453770Y-108689131D01*
X134453769Y-108689132D01*
X134387447Y-108733447D01*
X134343132Y-108799769D01*
X134343131Y-108799770D01*
X134331500Y-108858247D01*
X134331500Y-110597752D01*
X132974297Y-110597752D01*
X132980440Y-107187999D01*
X134326417Y-107187999D01*
X134346699Y-107393932D01*
X134346700Y-107393934D01*
X134406768Y-107591954D01*
X134504315Y-107774450D01*
X134514770Y-107787189D01*
X134635589Y-107934410D01*
X134732209Y-108013702D01*
X134795550Y-108065685D01*
X134978046Y-108163232D01*
X135176066Y-108223300D01*
X135176065Y-108223300D01*
X135194529Y-108225118D01*
X135382000Y-108243583D01*
X135587934Y-108223300D01*
X135785954Y-108163232D01*
X135968450Y-108065685D01*
X136128410Y-107934410D01*
X136259685Y-107774450D01*
X136357232Y-107591954D01*
X136417300Y-107393934D01*
X136437583Y-107188000D01*
X136417300Y-106982066D01*
X136357232Y-106784046D01*
X136357230Y-106784043D01*
X136357230Y-106784041D01*
X136356444Y-106782144D01*
X136356328Y-106781068D01*
X136355463Y-106778216D01*
X136356003Y-106778051D01*
X136348971Y-106712675D01*
X136380242Y-106650194D01*
X136383289Y-106647036D01*
X136750507Y-106279819D01*
X136811831Y-106246334D01*
X136838189Y-106243500D01*
X143026293Y-106243500D01*
X143093332Y-106263185D01*
X143135651Y-106309047D01*
X143213834Y-106455318D01*
X143213838Y-106455325D01*
X143334116Y-106601883D01*
X143480674Y-106722161D01*
X143480681Y-106722165D01*
X143647877Y-106811533D01*
X143647878Y-106811533D01*
X143647885Y-106811537D01*
X143829317Y-106866573D01*
X143829316Y-106866573D01*
X143846233Y-106868239D01*
X144018000Y-106885157D01*
X144206683Y-106866573D01*
X144388115Y-106811537D01*
X144555324Y-106722162D01*
X144701883Y-106601883D01*
X144822162Y-106455324D01*
X144900349Y-106309047D01*
X144911535Y-106288120D01*
X144911534Y-106288119D01*
X144911537Y-106288115D01*
X144966573Y-106106683D01*
X144985157Y-105918000D01*
X144966573Y-105729317D01*
X144911537Y-105547885D01*
X144905719Y-105537000D01*
X144822165Y-105380681D01*
X144822161Y-105380674D01*
X144701883Y-105234116D01*
X144555325Y-105113838D01*
X144555318Y-105113834D01*
X144388122Y-105024466D01*
X144388119Y-105024465D01*
X144388118Y-105024464D01*
X144388115Y-105024463D01*
X144206683Y-104969427D01*
X144206681Y-104969426D01*
X144206683Y-104969426D01*
X144018000Y-104950843D01*
X143829318Y-104969426D01*
X143722194Y-105001921D01*
X143647885Y-105024463D01*
X143647882Y-105024464D01*
X143647880Y-105024465D01*
X143647877Y-105024466D01*
X143480681Y-105113834D01*
X143480674Y-105113838D01*
X143334116Y-105234116D01*
X143213838Y-105380674D01*
X143213834Y-105380681D01*
X143135651Y-105526953D01*
X143086689Y-105576797D01*
X143026293Y-105592500D01*
X136668913Y-105592500D01*
X136663511Y-105592264D01*
X136656126Y-105591618D01*
X136623192Y-105588736D01*
X136623191Y-105588736D01*
X136584099Y-105599211D01*
X136578819Y-105600382D01*
X136538954Y-105607412D01*
X136533962Y-105609229D01*
X136517117Y-105616206D01*
X136512313Y-105618446D01*
X136479163Y-105641658D01*
X136474602Y-105644564D01*
X136439548Y-105664804D01*
X136439545Y-105664806D01*
X136439543Y-105664807D01*
X136439542Y-105664809D01*
X136413523Y-105695815D01*
X136409869Y-105699803D01*
X135922994Y-106186677D01*
X135861671Y-106220162D01*
X135791979Y-106215178D01*
X135787869Y-106213561D01*
X135785958Y-106212769D01*
X135664102Y-106175805D01*
X135587934Y-106152700D01*
X135587932Y-106152699D01*
X135587934Y-106152699D01*
X135382000Y-106132417D01*
X135176067Y-106152699D01*
X134978043Y-106212769D01*
X134908093Y-106250159D01*
X134795550Y-106310315D01*
X134795548Y-106310316D01*
X134795547Y-106310317D01*
X134635589Y-106441589D01*
X134504317Y-106601547D01*
X134406769Y-106784043D01*
X134346699Y-106982067D01*
X134326417Y-107187999D01*
X132980440Y-107187999D01*
X132985017Y-104648000D01*
X134326417Y-104648000D01*
X134346699Y-104853932D01*
X134370425Y-104932147D01*
X134406768Y-105051954D01*
X134504315Y-105234450D01*
X134538969Y-105276677D01*
X134635589Y-105394410D01*
X134714097Y-105458839D01*
X134795550Y-105525685D01*
X134978046Y-105623232D01*
X135176066Y-105683300D01*
X135176065Y-105683300D01*
X135196348Y-105685297D01*
X135382000Y-105703583D01*
X135587934Y-105683300D01*
X135785954Y-105623232D01*
X135968450Y-105525685D01*
X136128410Y-105394410D01*
X136259685Y-105234450D01*
X136357232Y-105051954D01*
X136417300Y-104853934D01*
X136437583Y-104648000D01*
X136417300Y-104442066D01*
X136357232Y-104244046D01*
X136357230Y-104244043D01*
X136357230Y-104244041D01*
X136356444Y-104242144D01*
X136356328Y-104241068D01*
X136355463Y-104238216D01*
X136356003Y-104238051D01*
X136348971Y-104172675D01*
X136380242Y-104110194D01*
X136383289Y-104107036D01*
X136750507Y-103739819D01*
X136811831Y-103706334D01*
X136838189Y-103703500D01*
X143026293Y-103703500D01*
X143093332Y-103723185D01*
X143135651Y-103769047D01*
X143213834Y-103915318D01*
X143213838Y-103915325D01*
X143334116Y-104061883D01*
X143480674Y-104182161D01*
X143480681Y-104182165D01*
X143647877Y-104271533D01*
X143647878Y-104271533D01*
X143647885Y-104271537D01*
X143829317Y-104326573D01*
X143829316Y-104326573D01*
X143846233Y-104328239D01*
X144018000Y-104345157D01*
X144206683Y-104326573D01*
X144388115Y-104271537D01*
X144555324Y-104182162D01*
X144701883Y-104061883D01*
X144822162Y-103915324D01*
X144860940Y-103842776D01*
X144883238Y-103801059D01*
X150165735Y-103801059D01*
X150176212Y-103840161D01*
X150177383Y-103845441D01*
X150184411Y-103885294D01*
X150186235Y-103890306D01*
X150193197Y-103907112D01*
X150195445Y-103911932D01*
X150195446Y-103911935D01*
X150197820Y-103915325D01*
X150218655Y-103945082D01*
X150221561Y-103949643D01*
X150241806Y-103984706D01*
X150272815Y-104010726D01*
X150276805Y-104014382D01*
X150945612Y-104683189D01*
X150949267Y-104687178D01*
X150975290Y-104718190D01*
X150975292Y-104718191D01*
X150975294Y-104718194D01*
X150975296Y-104718195D01*
X150975297Y-104718196D01*
X151010348Y-104738433D01*
X151014911Y-104741339D01*
X151048065Y-104764554D01*
X151048068Y-104764554D01*
X151052925Y-104766820D01*
X151069682Y-104773760D01*
X151074699Y-104775586D01*
X151074701Y-104775586D01*
X151074704Y-104775588D01*
X151114567Y-104782616D01*
X151119825Y-104783782D01*
X151158942Y-104794264D01*
X151199267Y-104790735D01*
X151204671Y-104790500D01*
X151210563Y-104790500D01*
X151277602Y-104810185D01*
X151323357Y-104862989D01*
X151333301Y-104932147D01*
X151304276Y-104995703D01*
X151269016Y-105023858D01*
X151100681Y-105113834D01*
X151100674Y-105113838D01*
X150954116Y-105234116D01*
X150833838Y-105380674D01*
X150833834Y-105380681D01*
X150744466Y-105547877D01*
X150744465Y-105547880D01*
X150744464Y-105547882D01*
X150744463Y-105547885D01*
X150726406Y-105607412D01*
X150689426Y-105729318D01*
X150670843Y-105917999D01*
X150689426Y-106106681D01*
X150694898Y-106124718D01*
X150744463Y-106288115D01*
X150744464Y-106288118D01*
X150744465Y-106288119D01*
X150744465Y-106288120D01*
X150833834Y-106455318D01*
X150833838Y-106455325D01*
X150954116Y-106601883D01*
X151100674Y-106722161D01*
X151100681Y-106722165D01*
X151267877Y-106811533D01*
X151267878Y-106811533D01*
X151267885Y-106811537D01*
X151449317Y-106866573D01*
X151449316Y-106866573D01*
X151466233Y-106868239D01*
X151638000Y-106885157D01*
X151826683Y-106866573D01*
X152008115Y-106811537D01*
X152175324Y-106722162D01*
X152321883Y-106601883D01*
X152442162Y-106455324D01*
X152520349Y-106309047D01*
X152531535Y-106288120D01*
X152531534Y-106288119D01*
X152531537Y-106288115D01*
X152586573Y-106106683D01*
X152605157Y-105918000D01*
X152594712Y-105811955D01*
X152607731Y-105743312D01*
X152655795Y-105692601D01*
X152723646Y-105675926D01*
X152789741Y-105698582D01*
X152805796Y-105712122D01*
X154880863Y-107787189D01*
X154884518Y-107791178D01*
X154910541Y-107822190D01*
X154910543Y-107822191D01*
X154910545Y-107822194D01*
X154910547Y-107822195D01*
X154910548Y-107822196D01*
X154945599Y-107842433D01*
X154950162Y-107845339D01*
X154983316Y-107868554D01*
X154983319Y-107868554D01*
X154988176Y-107870820D01*
X155004933Y-107877760D01*
X155009950Y-107879586D01*
X155009952Y-107879586D01*
X155009955Y-107879588D01*
X155049818Y-107886616D01*
X155055076Y-107887782D01*
X155094193Y-107898264D01*
X155134518Y-107894735D01*
X155139922Y-107894500D01*
X155627417Y-107894500D01*
X155694456Y-107914185D01*
X155740211Y-107966989D01*
X155741979Y-107971049D01*
X155742768Y-107972954D01*
X155840315Y-108155450D01*
X155944936Y-108282932D01*
X155971590Y-108315410D01*
X156060829Y-108388647D01*
X156100163Y-108446392D01*
X156102034Y-108516237D01*
X156065847Y-108576005D01*
X156003091Y-108606721D01*
X155982164Y-108608500D01*
X152727147Y-108608500D01*
X152660108Y-108588815D01*
X152614353Y-108536011D01*
X152603744Y-108472346D01*
X152604285Y-108466853D01*
X152605157Y-108458000D01*
X152586573Y-108269317D01*
X152531537Y-108087885D01*
X152525719Y-108077000D01*
X152442165Y-107920681D01*
X152442161Y-107920674D01*
X152321883Y-107774116D01*
X152175325Y-107653838D01*
X152175318Y-107653834D01*
X152008122Y-107564466D01*
X152008119Y-107564465D01*
X152008118Y-107564464D01*
X152008115Y-107564463D01*
X151826683Y-107509427D01*
X151826681Y-107509426D01*
X151826683Y-107509426D01*
X151654916Y-107492509D01*
X151638000Y-107490843D01*
X151637999Y-107490843D01*
X151449318Y-107509426D01*
X151342194Y-107541921D01*
X151267885Y-107564463D01*
X151267882Y-107564464D01*
X151267880Y-107564465D01*
X151267877Y-107564466D01*
X151100681Y-107653834D01*
X151100674Y-107653838D01*
X150954116Y-107774116D01*
X150833838Y-107920674D01*
X150833834Y-107920681D01*
X150744466Y-108087877D01*
X150744465Y-108087880D01*
X150744464Y-108087882D01*
X150744463Y-108087885D01*
X150726406Y-108147412D01*
X150689426Y-108269318D01*
X150670843Y-108458000D01*
X150689426Y-108646681D01*
X150702304Y-108689133D01*
X150744463Y-108828115D01*
X150744464Y-108828118D01*
X150744465Y-108828119D01*
X150744465Y-108828120D01*
X150833834Y-108995318D01*
X150833838Y-108995325D01*
X150954116Y-109141883D01*
X151100674Y-109262161D01*
X151100681Y-109262165D01*
X151267877Y-109351533D01*
X151267878Y-109351533D01*
X151267885Y-109351537D01*
X151449317Y-109406573D01*
X151449316Y-109406573D01*
X151466233Y-109408239D01*
X151638000Y-109425157D01*
X151826683Y-109406573D01*
X152008115Y-109351537D01*
X152152910Y-109274142D01*
X152211364Y-109259500D01*
X155794018Y-109259500D01*
X155861057Y-109279185D01*
X155906812Y-109331989D01*
X155916756Y-109401147D01*
X155889871Y-109462165D01*
X155840317Y-109522546D01*
X155742769Y-109705043D01*
X155682699Y-109903067D01*
X155662417Y-110108999D01*
X155682699Y-110314932D01*
X155682700Y-110314934D01*
X155742768Y-110512954D01*
X155840315Y-110695450D01*
X155840317Y-110695452D01*
X155971589Y-110855410D01*
X156068209Y-110934702D01*
X156131550Y-110986685D01*
X156314046Y-111084232D01*
X156512066Y-111144300D01*
X156512065Y-111144300D01*
X156530529Y-111146118D01*
X156718000Y-111164583D01*
X156923934Y-111144300D01*
X157121954Y-111084232D01*
X157304450Y-110986685D01*
X157464410Y-110855410D01*
X157595685Y-110695450D01*
X157693232Y-110512954D01*
X157753300Y-110314934D01*
X157773583Y-110109000D01*
X157753300Y-109903066D01*
X157693232Y-109705046D01*
X157595685Y-109522550D01*
X157546129Y-109462165D01*
X157518816Y-109397855D01*
X157530607Y-109328987D01*
X157577760Y-109277427D01*
X157641982Y-109259500D01*
X182387078Y-109259500D01*
X182392481Y-109259735D01*
X182432807Y-109263264D01*
X182471940Y-109252777D01*
X182477162Y-109251619D01*
X182517045Y-109244588D01*
X182517050Y-109244584D01*
X182522099Y-109242747D01*
X182538824Y-109235819D01*
X182543681Y-109233554D01*
X182543684Y-109233554D01*
X182576841Y-109210335D01*
X182581390Y-109207438D01*
X182616455Y-109187194D01*
X182642481Y-109156176D01*
X182646122Y-109152202D01*
X185260006Y-106538319D01*
X185321327Y-106504836D01*
X185391019Y-106509820D01*
X185395144Y-106511444D01*
X185397041Y-106512230D01*
X185397043Y-106512230D01*
X185397046Y-106512232D01*
X185595066Y-106572300D01*
X185595065Y-106572300D01*
X185613529Y-106574118D01*
X185801000Y-106592583D01*
X186006934Y-106572300D01*
X186204954Y-106512232D01*
X186387450Y-106414685D01*
X186547410Y-106283410D01*
X186678685Y-106123450D01*
X186776232Y-105940954D01*
X186836300Y-105742934D01*
X186856583Y-105537000D01*
X186836300Y-105331066D01*
X186776232Y-105133046D01*
X186678685Y-104950550D01*
X186598759Y-104853159D01*
X186547410Y-104790589D01*
X186418884Y-104685112D01*
X186387450Y-104659315D01*
X186204954Y-104561768D01*
X186006934Y-104501700D01*
X186006932Y-104501699D01*
X186006934Y-104501699D01*
X185801000Y-104481417D01*
X185595067Y-104501699D01*
X185397043Y-104561769D01*
X185286898Y-104620643D01*
X185214550Y-104659315D01*
X185214548Y-104659316D01*
X185214547Y-104659317D01*
X185054589Y-104790589D01*
X184923317Y-104950547D01*
X184923315Y-104950550D01*
X184897290Y-104999239D01*
X184825769Y-105133043D01*
X184765699Y-105331067D01*
X184745417Y-105537000D01*
X184765699Y-105742932D01*
X184825769Y-105940958D01*
X184826561Y-105942869D01*
X184826677Y-105943949D01*
X184827537Y-105946784D01*
X184826999Y-105946947D01*
X184834024Y-106012339D01*
X184802744Y-106074816D01*
X184799677Y-106077994D01*
X182305493Y-108572181D01*
X182244170Y-108605666D01*
X182217812Y-108608500D01*
X159993836Y-108608500D01*
X159926797Y-108588815D01*
X159881042Y-108536011D01*
X159871098Y-108466853D01*
X159900123Y-108403297D01*
X159915171Y-108388647D01*
X159961351Y-108350747D01*
X160004410Y-108315410D01*
X160135685Y-108155450D01*
X160233232Y-107972954D01*
X160233234Y-107972945D01*
X160234021Y-107971049D01*
X160234701Y-107970203D01*
X160236104Y-107967581D01*
X160236601Y-107967846D01*
X160277862Y-107916645D01*
X160344156Y-107894579D01*
X160348583Y-107894500D01*
X181212078Y-107894500D01*
X181217481Y-107894735D01*
X181257807Y-107898264D01*
X181296940Y-107887777D01*
X181302162Y-107886619D01*
X181342045Y-107879588D01*
X181342050Y-107879584D01*
X181347099Y-107877747D01*
X181363824Y-107870819D01*
X181368681Y-107868554D01*
X181368684Y-107868554D01*
X181401841Y-107845335D01*
X181406390Y-107842438D01*
X181441455Y-107822194D01*
X181441459Y-107822190D01*
X181467476Y-107791182D01*
X181471122Y-107787202D01*
X185260006Y-103998319D01*
X185321327Y-103964836D01*
X185391019Y-103969820D01*
X185395144Y-103971444D01*
X185397041Y-103972230D01*
X185397043Y-103972230D01*
X185397046Y-103972232D01*
X185595066Y-104032300D01*
X185595065Y-104032300D01*
X185615348Y-104034297D01*
X185801000Y-104052583D01*
X186006934Y-104032300D01*
X186204954Y-103972232D01*
X186387450Y-103874685D01*
X186547410Y-103743410D01*
X186678685Y-103583450D01*
X186776232Y-103400954D01*
X186836300Y-103202934D01*
X186856583Y-102997000D01*
X186836300Y-102791066D01*
X186776232Y-102593046D01*
X186678685Y-102410550D01*
X186599393Y-102313932D01*
X186547410Y-102250589D01*
X186387452Y-102119317D01*
X186387453Y-102119317D01*
X186387450Y-102119315D01*
X186204954Y-102021768D01*
X186006934Y-101961700D01*
X186006932Y-101961699D01*
X186006934Y-101961699D01*
X185801000Y-101941417D01*
X185595067Y-101961699D01*
X185397043Y-102021769D01*
X185289027Y-102079506D01*
X185214550Y-102119315D01*
X185214548Y-102119316D01*
X185214547Y-102119317D01*
X185054589Y-102250589D01*
X184923317Y-102410547D01*
X184923315Y-102410550D01*
X184913225Y-102429427D01*
X184825769Y-102593043D01*
X184765699Y-102791067D01*
X184745417Y-102996999D01*
X184765699Y-103202932D01*
X184825769Y-103400958D01*
X184826561Y-103402869D01*
X184826677Y-103403949D01*
X184827537Y-103406784D01*
X184826999Y-103406947D01*
X184834024Y-103472339D01*
X184802744Y-103534816D01*
X184799677Y-103537994D01*
X181130493Y-107207181D01*
X181069170Y-107240666D01*
X181042812Y-107243500D01*
X179394845Y-107243500D01*
X179327806Y-107223815D01*
X179282051Y-107171011D01*
X179272107Y-107101853D01*
X179301132Y-107038297D01*
X179319354Y-107021127D01*
X179371282Y-106981282D01*
X179467536Y-106855841D01*
X179528044Y-106709762D01*
X179548682Y-106553000D01*
X179546749Y-106538321D01*
X179534015Y-106441589D01*
X179528044Y-106396238D01*
X179467536Y-106250159D01*
X179371282Y-106124718D01*
X179245841Y-106028464D01*
X179233982Y-106023552D01*
X179099762Y-105967956D01*
X179099760Y-105967955D01*
X178943001Y-105947318D01*
X178942999Y-105947318D01*
X178786239Y-105967955D01*
X178786237Y-105967956D01*
X178640160Y-106028463D01*
X178514716Y-106124719D01*
X178473077Y-106178986D01*
X178416649Y-106220189D01*
X178374701Y-106227500D01*
X177669188Y-106227500D01*
X177602149Y-106207815D01*
X177581507Y-106191181D01*
X177577003Y-106186677D01*
X177566119Y-106175793D01*
X177562474Y-106171814D01*
X177536456Y-106140807D01*
X177536455Y-106140806D01*
X177521925Y-106132417D01*
X177501392Y-106120561D01*
X177496831Y-106117655D01*
X177481158Y-106106681D01*
X177463684Y-106094446D01*
X177463681Y-106094445D01*
X177458861Y-106092197D01*
X177442055Y-106085235D01*
X177437043Y-106083411D01*
X177397190Y-106076383D01*
X177391910Y-106075212D01*
X177352808Y-106064735D01*
X177317892Y-106067790D01*
X177312481Y-106068264D01*
X177307078Y-106068500D01*
X159993836Y-106068500D01*
X159926797Y-106048815D01*
X159881042Y-105996011D01*
X159871098Y-105926853D01*
X159900123Y-105863297D01*
X159915171Y-105848647D01*
X159961351Y-105810747D01*
X160004410Y-105775410D01*
X160135685Y-105615450D01*
X160233232Y-105432954D01*
X160293300Y-105234934D01*
X160313583Y-105029000D01*
X160293300Y-104823066D01*
X160233232Y-104625046D01*
X160135685Y-104442550D01*
X160132629Y-104438826D01*
X160086129Y-104382165D01*
X160058816Y-104317855D01*
X160070607Y-104248987D01*
X160117760Y-104197427D01*
X160181982Y-104179500D01*
X175041812Y-104179500D01*
X175108851Y-104199185D01*
X175129493Y-104215819D01*
X175897988Y-104984314D01*
X175931473Y-105045637D01*
X175933246Y-105088179D01*
X175924318Y-105155997D01*
X175924318Y-105156001D01*
X175944955Y-105312760D01*
X175944956Y-105312762D01*
X175993843Y-105430787D01*
X176005464Y-105458841D01*
X176101718Y-105584282D01*
X176227159Y-105680536D01*
X176373238Y-105741044D01*
X176451618Y-105751363D01*
X176529999Y-105761682D01*
X176530000Y-105761682D01*
X176530001Y-105761682D01*
X176582253Y-105754802D01*
X176686762Y-105741044D01*
X176832841Y-105680536D01*
X176958282Y-105584282D01*
X177054536Y-105458841D01*
X177115044Y-105312762D01*
X177135682Y-105156001D01*
X179607318Y-105156001D01*
X179627955Y-105312760D01*
X179627956Y-105312762D01*
X179676843Y-105430787D01*
X179688464Y-105458841D01*
X179784718Y-105584282D01*
X179910159Y-105680536D01*
X180056238Y-105741044D01*
X180134618Y-105751363D01*
X180212999Y-105761682D01*
X180213000Y-105761682D01*
X180213001Y-105761682D01*
X180265253Y-105754802D01*
X180369762Y-105741044D01*
X180515841Y-105680536D01*
X180641282Y-105584282D01*
X180682923Y-105530013D01*
X180739351Y-105488811D01*
X180781299Y-105481500D01*
X181085078Y-105481500D01*
X181090481Y-105481735D01*
X181130807Y-105485264D01*
X181169940Y-105474777D01*
X181175162Y-105473619D01*
X181215045Y-105466588D01*
X181215050Y-105466584D01*
X181220099Y-105464747D01*
X181236824Y-105457819D01*
X181241681Y-105455554D01*
X181241684Y-105455554D01*
X181274841Y-105432335D01*
X181279390Y-105429438D01*
X181314455Y-105409194D01*
X181340481Y-105378176D01*
X181344122Y-105374202D01*
X185260005Y-101458319D01*
X185321326Y-101424836D01*
X185391018Y-101429820D01*
X185395132Y-101431439D01*
X185397038Y-101432227D01*
X185397046Y-101432232D01*
X185595066Y-101492300D01*
X185595065Y-101492300D01*
X185615348Y-101494297D01*
X185801000Y-101512583D01*
X186006934Y-101492300D01*
X186204954Y-101432232D01*
X186387450Y-101334685D01*
X186547410Y-101203410D01*
X186678685Y-101043450D01*
X186776232Y-100860954D01*
X186836300Y-100662934D01*
X186856583Y-100457000D01*
X186836300Y-100251066D01*
X186776232Y-100053046D01*
X186678685Y-99870550D01*
X186590339Y-99762899D01*
X186547410Y-99710589D01*
X186387452Y-99579317D01*
X186387453Y-99579317D01*
X186387450Y-99579315D01*
X186204954Y-99481768D01*
X186006934Y-99421700D01*
X186006932Y-99421699D01*
X186006934Y-99421699D01*
X185819463Y-99403235D01*
X185801000Y-99401417D01*
X185800999Y-99401417D01*
X185595067Y-99421699D01*
X185397043Y-99481769D01*
X185286898Y-99540643D01*
X185214550Y-99579315D01*
X185214548Y-99579316D01*
X185214547Y-99579317D01*
X185054589Y-99710589D01*
X184923317Y-99870547D01*
X184923315Y-99870550D01*
X184913225Y-99889427D01*
X184825769Y-100053043D01*
X184765699Y-100251067D01*
X184745417Y-100457000D01*
X184765699Y-100662932D01*
X184765700Y-100662934D01*
X184825768Y-100860954D01*
X184825772Y-100860962D01*
X184826559Y-100862862D01*
X184826675Y-100863941D01*
X184827537Y-100866783D01*
X184826998Y-100866946D01*
X184834027Y-100932331D01*
X184802751Y-100994810D01*
X184799678Y-100997994D01*
X181003493Y-104794181D01*
X180942170Y-104827666D01*
X180915812Y-104830500D01*
X180781299Y-104830500D01*
X180714260Y-104810815D01*
X180682923Y-104781986D01*
X180641283Y-104727719D01*
X180641282Y-104727718D01*
X180515841Y-104631464D01*
X180500339Y-104625043D01*
X180369762Y-104570956D01*
X180369760Y-104570955D01*
X180213001Y-104550318D01*
X180212999Y-104550318D01*
X180056239Y-104570955D01*
X180056237Y-104570956D01*
X179910160Y-104631463D01*
X179784718Y-104727718D01*
X179688463Y-104853160D01*
X179627956Y-104999237D01*
X179627955Y-104999239D01*
X179607318Y-105155998D01*
X179607318Y-105156001D01*
X177135682Y-105156001D01*
X177135682Y-105156000D01*
X177115044Y-104999238D01*
X177054536Y-104853159D01*
X176958282Y-104727718D01*
X176832841Y-104631464D01*
X176817339Y-104625043D01*
X176686762Y-104570956D01*
X176686760Y-104570955D01*
X176530001Y-104550318D01*
X176529997Y-104550318D01*
X176462179Y-104559246D01*
X176393144Y-104548480D01*
X176358314Y-104523988D01*
X175935095Y-104100769D01*
X175470119Y-103635793D01*
X175466474Y-103631814D01*
X175440456Y-103600807D01*
X175440455Y-103600806D01*
X175425925Y-103592417D01*
X175405392Y-103580561D01*
X175400831Y-103577655D01*
X175385158Y-103566681D01*
X175367684Y-103554446D01*
X175367681Y-103554445D01*
X175362861Y-103552197D01*
X175346055Y-103545235D01*
X175341043Y-103543411D01*
X175301190Y-103536383D01*
X175295910Y-103535212D01*
X175256808Y-103524735D01*
X175221892Y-103527790D01*
X175216481Y-103528264D01*
X175211078Y-103528500D01*
X157909922Y-103528500D01*
X157904518Y-103528264D01*
X157899107Y-103527790D01*
X157864192Y-103524735D01*
X157864191Y-103524735D01*
X157825091Y-103535212D01*
X157819811Y-103536383D01*
X157779959Y-103543410D01*
X157774961Y-103545229D01*
X157758117Y-103552206D01*
X157753313Y-103554446D01*
X157720166Y-103577656D01*
X157715606Y-103580562D01*
X157710601Y-103583452D01*
X157680545Y-103600806D01*
X157680543Y-103600808D01*
X157680541Y-103600810D01*
X157654524Y-103631815D01*
X157650869Y-103635803D01*
X157583173Y-103703500D01*
X157344491Y-103942182D01*
X157283170Y-103975666D01*
X157256812Y-103978500D01*
X155848247Y-103978500D01*
X155789770Y-103990131D01*
X155789769Y-103990132D01*
X155723447Y-104034447D01*
X155679132Y-104100769D01*
X155679131Y-104100770D01*
X155667500Y-104159247D01*
X155667500Y-104579500D01*
X155647815Y-104646539D01*
X155595011Y-104692294D01*
X155543500Y-104703500D01*
X153475188Y-104703500D01*
X153408149Y-104683815D01*
X153387507Y-104667181D01*
X152569405Y-103849079D01*
X152535920Y-103787756D01*
X152538425Y-103725405D01*
X152586573Y-103566683D01*
X152605157Y-103378000D01*
X152586573Y-103189317D01*
X152531537Y-103007885D01*
X152525719Y-102997000D01*
X152442165Y-102840681D01*
X152442161Y-102840674D01*
X152321883Y-102694116D01*
X152175325Y-102573838D01*
X152175318Y-102573834D01*
X152008122Y-102484466D01*
X152008119Y-102484465D01*
X152008118Y-102484464D01*
X152008115Y-102484463D01*
X151826683Y-102429427D01*
X151826681Y-102429426D01*
X151826683Y-102429426D01*
X151654916Y-102412509D01*
X151638000Y-102410843D01*
X151637999Y-102410843D01*
X151449318Y-102429426D01*
X151342194Y-102461921D01*
X151267885Y-102484463D01*
X151267882Y-102484464D01*
X151267880Y-102484465D01*
X151267877Y-102484466D01*
X151100681Y-102573834D01*
X151100674Y-102573839D01*
X151023165Y-102637449D01*
X150958855Y-102664762D01*
X150889987Y-102652971D01*
X150838427Y-102605819D01*
X150820500Y-102541596D01*
X150820500Y-102167187D01*
X150840185Y-102100148D01*
X150856815Y-102079510D01*
X151166921Y-101769403D01*
X151228242Y-101735920D01*
X151290591Y-101738424D01*
X151449317Y-101786573D01*
X151449316Y-101786573D01*
X151466233Y-101788239D01*
X151638000Y-101805157D01*
X151826683Y-101786573D01*
X152008115Y-101731537D01*
X152175324Y-101642162D01*
X152321883Y-101521883D01*
X152442162Y-101375324D01*
X152519671Y-101230315D01*
X152531535Y-101208120D01*
X152531534Y-101208119D01*
X152531537Y-101208115D01*
X152586573Y-101026683D01*
X152605157Y-100838000D01*
X152586573Y-100649317D01*
X152531537Y-100467885D01*
X152525719Y-100457000D01*
X152442165Y-100300681D01*
X152442161Y-100300674D01*
X152321883Y-100154116D01*
X152175325Y-100033838D01*
X152175318Y-100033834D01*
X152008122Y-99944466D01*
X152008119Y-99944465D01*
X152008118Y-99944464D01*
X152008115Y-99944463D01*
X151826683Y-99889427D01*
X151826681Y-99889426D01*
X151826683Y-99889426D01*
X151653889Y-99872408D01*
X151638000Y-99870843D01*
X151637999Y-99870843D01*
X151449318Y-99889426D01*
X151342194Y-99921921D01*
X151267885Y-99944463D01*
X151267882Y-99944464D01*
X151267880Y-99944465D01*
X151267877Y-99944466D01*
X151100681Y-100033834D01*
X151100674Y-100033838D01*
X150954116Y-100154116D01*
X150833838Y-100300674D01*
X150833834Y-100300681D01*
X150744466Y-100467877D01*
X150744465Y-100467880D01*
X150689426Y-100649318D01*
X150670843Y-100837999D01*
X150689426Y-101026682D01*
X150737573Y-101185404D01*
X150738196Y-101255271D01*
X150706593Y-101309079D01*
X150276803Y-101738870D01*
X150272814Y-101742525D01*
X150241805Y-101768545D01*
X150221562Y-101803606D01*
X150218656Y-101808166D01*
X150195446Y-101841313D01*
X150193206Y-101846117D01*
X150186229Y-101862961D01*
X150184410Y-101867959D01*
X150177383Y-101907811D01*
X150176212Y-101913091D01*
X150165735Y-101952191D01*
X150169264Y-101992513D01*
X150169500Y-101997920D01*
X150169500Y-103755329D01*
X150169264Y-103760736D01*
X150165735Y-103801059D01*
X144883238Y-103801059D01*
X144911535Y-103748120D01*
X144911534Y-103748119D01*
X144911537Y-103748115D01*
X144966573Y-103566683D01*
X144985157Y-103378000D01*
X144966573Y-103189317D01*
X144911537Y-103007885D01*
X144905719Y-102997000D01*
X144822165Y-102840681D01*
X144822161Y-102840674D01*
X144701883Y-102694116D01*
X144555325Y-102573838D01*
X144555318Y-102573834D01*
X144388122Y-102484466D01*
X144388119Y-102484465D01*
X144388118Y-102484464D01*
X144388115Y-102484463D01*
X144206683Y-102429427D01*
X144206681Y-102429426D01*
X144206683Y-102429426D01*
X144018000Y-102410843D01*
X143829318Y-102429426D01*
X143722194Y-102461921D01*
X143647885Y-102484463D01*
X143647882Y-102484464D01*
X143647880Y-102484465D01*
X143647877Y-102484466D01*
X143480681Y-102573834D01*
X143480674Y-102573838D01*
X143334116Y-102694116D01*
X143213838Y-102840674D01*
X143213834Y-102840681D01*
X143135651Y-102986953D01*
X143086689Y-103036797D01*
X143026293Y-103052500D01*
X136668913Y-103052500D01*
X136663511Y-103052264D01*
X136656126Y-103051618D01*
X136623192Y-103048736D01*
X136623191Y-103048736D01*
X136584099Y-103059211D01*
X136578819Y-103060382D01*
X136538954Y-103067412D01*
X136533962Y-103069229D01*
X136517117Y-103076206D01*
X136512313Y-103078446D01*
X136479163Y-103101658D01*
X136474602Y-103104564D01*
X136439548Y-103124804D01*
X136439545Y-103124806D01*
X136439543Y-103124807D01*
X136439542Y-103124809D01*
X136413523Y-103155815D01*
X136409869Y-103159803D01*
X135922994Y-103646677D01*
X135861671Y-103680162D01*
X135791979Y-103675178D01*
X135787869Y-103673561D01*
X135785958Y-103672769D01*
X135664095Y-103635803D01*
X135587934Y-103612700D01*
X135587932Y-103612699D01*
X135587934Y-103612699D01*
X135382000Y-103592417D01*
X135176067Y-103612699D01*
X134978043Y-103672769D01*
X134867898Y-103731643D01*
X134795550Y-103770315D01*
X134795548Y-103770316D01*
X134795547Y-103770317D01*
X134635589Y-103901589D01*
X134504317Y-104061547D01*
X134406769Y-104244043D01*
X134346699Y-104442067D01*
X134326417Y-104648000D01*
X132985017Y-104648000D01*
X132989594Y-102108000D01*
X134326417Y-102108000D01*
X134346699Y-102313932D01*
X134346700Y-102313934D01*
X134406768Y-102511954D01*
X134504315Y-102694450D01*
X134504317Y-102694452D01*
X134635589Y-102854410D01*
X134649260Y-102865629D01*
X134795550Y-102985685D01*
X134978046Y-103083232D01*
X135176066Y-103143300D01*
X135176065Y-103143300D01*
X135196347Y-103145297D01*
X135382000Y-103163583D01*
X135587934Y-103143300D01*
X135785954Y-103083232D01*
X135968450Y-102985685D01*
X136128410Y-102854410D01*
X136259685Y-102694450D01*
X136357232Y-102511954D01*
X136417300Y-102313934D01*
X136437583Y-102108000D01*
X136417300Y-101902066D01*
X136357232Y-101704046D01*
X136357227Y-101704038D01*
X136356439Y-101702132D01*
X136356322Y-101701051D01*
X136355463Y-101698217D01*
X136356000Y-101698053D01*
X136348973Y-101632663D01*
X136380250Y-101570185D01*
X136383292Y-101567032D01*
X137112325Y-100837999D01*
X143050843Y-100837999D01*
X143069426Y-101026681D01*
X143077233Y-101052417D01*
X143124463Y-101208115D01*
X143124464Y-101208118D01*
X143124465Y-101208119D01*
X143124465Y-101208120D01*
X143213834Y-101375318D01*
X143213838Y-101375325D01*
X143334116Y-101521883D01*
X143480674Y-101642161D01*
X143480681Y-101642165D01*
X143647877Y-101731533D01*
X143647878Y-101731533D01*
X143647885Y-101731537D01*
X143829317Y-101786573D01*
X143829316Y-101786573D01*
X143846233Y-101788239D01*
X144018000Y-101805157D01*
X144206683Y-101786573D01*
X144388115Y-101731537D01*
X144555324Y-101642162D01*
X144701883Y-101521883D01*
X144822162Y-101375324D01*
X144899671Y-101230315D01*
X144911535Y-101208120D01*
X144911534Y-101208119D01*
X144911537Y-101208115D01*
X144966573Y-101026683D01*
X144985157Y-100838000D01*
X144966573Y-100649317D01*
X144911537Y-100467885D01*
X144905719Y-100457000D01*
X144822165Y-100300681D01*
X144822161Y-100300674D01*
X144701883Y-100154116D01*
X144555325Y-100033838D01*
X144555318Y-100033834D01*
X144388122Y-99944466D01*
X144388119Y-99944465D01*
X144388118Y-99944464D01*
X144388115Y-99944463D01*
X144206683Y-99889427D01*
X144206681Y-99889426D01*
X144206683Y-99889426D01*
X144018000Y-99870843D01*
X143829318Y-99889426D01*
X143722194Y-99921921D01*
X143647885Y-99944463D01*
X143647882Y-99944464D01*
X143647880Y-99944465D01*
X143647877Y-99944466D01*
X143480681Y-100033834D01*
X143480674Y-100033838D01*
X143334116Y-100154116D01*
X143213838Y-100300674D01*
X143213834Y-100300681D01*
X143124466Y-100467877D01*
X143124465Y-100467880D01*
X143069426Y-100649318D01*
X143050843Y-100837999D01*
X137112325Y-100837999D01*
X138013210Y-99937115D01*
X138017172Y-99933484D01*
X138048194Y-99907455D01*
X138068444Y-99872379D01*
X138071328Y-99867852D01*
X138094554Y-99834684D01*
X138094554Y-99834681D01*
X138096819Y-99829824D01*
X138103747Y-99813099D01*
X138105587Y-99808046D01*
X138105588Y-99808045D01*
X138112621Y-99768150D01*
X138113777Y-99762937D01*
X138124263Y-99723807D01*
X138120735Y-99683489D01*
X138120500Y-99678086D01*
X138120500Y-98298000D01*
X143050843Y-98298000D01*
X143069426Y-98486681D01*
X143077233Y-98512417D01*
X143124463Y-98668115D01*
X143124464Y-98668118D01*
X143124465Y-98668119D01*
X143124465Y-98668120D01*
X143213834Y-98835318D01*
X143213838Y-98835325D01*
X143334116Y-98981883D01*
X143480674Y-99102161D01*
X143480681Y-99102165D01*
X143647877Y-99191533D01*
X143647878Y-99191533D01*
X143647885Y-99191537D01*
X143829317Y-99246573D01*
X143829316Y-99246573D01*
X143846233Y-99248239D01*
X144018000Y-99265157D01*
X144206683Y-99246573D01*
X144388115Y-99191537D01*
X144555324Y-99102162D01*
X144701883Y-98981883D01*
X144822162Y-98835324D01*
X144899671Y-98690315D01*
X144911535Y-98668120D01*
X144911534Y-98668119D01*
X144911537Y-98668115D01*
X144966573Y-98486683D01*
X144985157Y-98298000D01*
X150670843Y-98298000D01*
X150689426Y-98486681D01*
X150697233Y-98512417D01*
X150744463Y-98668115D01*
X150744464Y-98668118D01*
X150744465Y-98668119D01*
X150744465Y-98668120D01*
X150833834Y-98835318D01*
X150833838Y-98835325D01*
X150954116Y-98981883D01*
X151100674Y-99102161D01*
X151100681Y-99102165D01*
X151267877Y-99191533D01*
X151267878Y-99191533D01*
X151267885Y-99191537D01*
X151449317Y-99246573D01*
X151449316Y-99246573D01*
X151466233Y-99248239D01*
X151638000Y-99265157D01*
X151826683Y-99246573D01*
X152008115Y-99191537D01*
X152016601Y-99187001D01*
X158525318Y-99187001D01*
X158545955Y-99343760D01*
X158545956Y-99343762D01*
X158569837Y-99401417D01*
X158606464Y-99489841D01*
X158702718Y-99615282D01*
X158828159Y-99711536D01*
X158974238Y-99772044D01*
X159052619Y-99782363D01*
X159130999Y-99792682D01*
X159131000Y-99792682D01*
X159131001Y-99792682D01*
X159183254Y-99785802D01*
X159287762Y-99772044D01*
X159433841Y-99711536D01*
X159559282Y-99615282D01*
X159655536Y-99489841D01*
X159716044Y-99343762D01*
X159736682Y-99187000D01*
X159733659Y-99164041D01*
X159716044Y-99030240D01*
X159716044Y-99030239D01*
X159716044Y-99030238D01*
X159714330Y-99026101D01*
X159706858Y-98956636D01*
X159738129Y-98894155D01*
X159741180Y-98890992D01*
X160405032Y-98227140D01*
X160466353Y-98193657D01*
X160508897Y-98191884D01*
X160576716Y-98200813D01*
X160576717Y-98200813D01*
X160576718Y-98200813D01*
X160628971Y-98193933D01*
X160733479Y-98180175D01*
X160879558Y-98119667D01*
X161004999Y-98023413D01*
X161086653Y-97916999D01*
X184745417Y-97916999D01*
X184765699Y-98122932D01*
X184787153Y-98193657D01*
X184825768Y-98320954D01*
X184923315Y-98503450D01*
X184923317Y-98503452D01*
X185054589Y-98663410D01*
X185087376Y-98690317D01*
X185214550Y-98794685D01*
X185397046Y-98892232D01*
X185595066Y-98952300D01*
X185595065Y-98952300D01*
X185613529Y-98954118D01*
X185801000Y-98972583D01*
X186006934Y-98952300D01*
X186204954Y-98892232D01*
X186387450Y-98794685D01*
X186547410Y-98663410D01*
X186678685Y-98503450D01*
X186776232Y-98320954D01*
X186836300Y-98122934D01*
X186856583Y-97917000D01*
X186836300Y-97711066D01*
X186776232Y-97513046D01*
X186678685Y-97330550D01*
X186599393Y-97233932D01*
X186547410Y-97170589D01*
X186387452Y-97039317D01*
X186387453Y-97039317D01*
X186387450Y-97039315D01*
X186204954Y-96941768D01*
X186006934Y-96881700D01*
X186006932Y-96881699D01*
X186006934Y-96881699D01*
X185801000Y-96861417D01*
X185595067Y-96881699D01*
X185397043Y-96941769D01*
X185307842Y-96989449D01*
X185214550Y-97039315D01*
X185214548Y-97039316D01*
X185214547Y-97039317D01*
X185054589Y-97170589D01*
X184923317Y-97330547D01*
X184923315Y-97330550D01*
X184913225Y-97349427D01*
X184825769Y-97513043D01*
X184765699Y-97711067D01*
X184745417Y-97916999D01*
X161086653Y-97916999D01*
X161101253Y-97897972D01*
X161161761Y-97751893D01*
X161179856Y-97614450D01*
X161182399Y-97595132D01*
X161182399Y-97595129D01*
X161161761Y-97438370D01*
X161161761Y-97438369D01*
X161101253Y-97292290D01*
X161004999Y-97166849D01*
X160879558Y-97070595D01*
X160804046Y-97039317D01*
X160733479Y-97010087D01*
X160733477Y-97010086D01*
X160576718Y-96989449D01*
X160576716Y-96989449D01*
X160419956Y-97010086D01*
X160419954Y-97010087D01*
X160273877Y-97070594D01*
X160148435Y-97166849D01*
X160052180Y-97292291D01*
X159991673Y-97438368D01*
X159991672Y-97438370D01*
X159971035Y-97595129D01*
X159971035Y-97595132D01*
X159979963Y-97662949D01*
X159969197Y-97731984D01*
X159944705Y-97766815D01*
X159159846Y-98551674D01*
X159098523Y-98585159D01*
X159088351Y-98586932D01*
X159010114Y-98597232D01*
X158974238Y-98601956D01*
X158974237Y-98601956D01*
X158828160Y-98662463D01*
X158702718Y-98758718D01*
X158606463Y-98884160D01*
X158545956Y-99030237D01*
X158545955Y-99030239D01*
X158525318Y-99186998D01*
X158525318Y-99187001D01*
X152016601Y-99187001D01*
X152175324Y-99102162D01*
X152321883Y-98981883D01*
X152442162Y-98835324D01*
X152519671Y-98690315D01*
X152531535Y-98668120D01*
X152531534Y-98668119D01*
X152531537Y-98668115D01*
X152586573Y-98486683D01*
X152605157Y-98298000D01*
X152586573Y-98109317D01*
X152531537Y-97927885D01*
X152530648Y-97926222D01*
X152442165Y-97760681D01*
X152442161Y-97760674D01*
X152321883Y-97614116D01*
X152175325Y-97493838D01*
X152175318Y-97493834D01*
X152008122Y-97404466D01*
X152008119Y-97404465D01*
X152008118Y-97404464D01*
X152008115Y-97404463D01*
X151826683Y-97349427D01*
X151826681Y-97349426D01*
X151826683Y-97349426D01*
X151638000Y-97330843D01*
X151449318Y-97349426D01*
X151342194Y-97381921D01*
X151267885Y-97404463D01*
X151267882Y-97404464D01*
X151267880Y-97404465D01*
X151267877Y-97404466D01*
X151100681Y-97493834D01*
X151100674Y-97493838D01*
X150954116Y-97614116D01*
X150833838Y-97760674D01*
X150833834Y-97760681D01*
X150744466Y-97927877D01*
X150744465Y-97927880D01*
X150744464Y-97927882D01*
X150744463Y-97927885D01*
X150723584Y-97996715D01*
X150689426Y-98109318D01*
X150670843Y-98298000D01*
X144985157Y-98298000D01*
X144966573Y-98109317D01*
X144911537Y-97927885D01*
X144910648Y-97926222D01*
X144822165Y-97760681D01*
X144822161Y-97760674D01*
X144701883Y-97614116D01*
X144555325Y-97493838D01*
X144555318Y-97493834D01*
X144388122Y-97404466D01*
X144388119Y-97404465D01*
X144388118Y-97404464D01*
X144388115Y-97404463D01*
X144206683Y-97349427D01*
X144206681Y-97349426D01*
X144206683Y-97349426D01*
X144018000Y-97330843D01*
X143829318Y-97349426D01*
X143722194Y-97381921D01*
X143647885Y-97404463D01*
X143647882Y-97404464D01*
X143647880Y-97404465D01*
X143647877Y-97404466D01*
X143480681Y-97493834D01*
X143480674Y-97493838D01*
X143334116Y-97614116D01*
X143213838Y-97760674D01*
X143213834Y-97760681D01*
X143124466Y-97927877D01*
X143124465Y-97927880D01*
X143124464Y-97927882D01*
X143124463Y-97927885D01*
X143103584Y-97996715D01*
X143069426Y-98109318D01*
X143050843Y-98298000D01*
X138120500Y-98298000D01*
X138120500Y-97977583D01*
X138140185Y-97910544D01*
X138156814Y-97889907D01*
X140288722Y-95757999D01*
X150670843Y-95757999D01*
X150689426Y-95946681D01*
X150689427Y-95946683D01*
X150744463Y-96128115D01*
X150744464Y-96128118D01*
X150744465Y-96128119D01*
X150744466Y-96128122D01*
X150833834Y-96295318D01*
X150833838Y-96295325D01*
X150954116Y-96441883D01*
X151100674Y-96562161D01*
X151100681Y-96562165D01*
X151267877Y-96651533D01*
X151267878Y-96651533D01*
X151267885Y-96651537D01*
X151449317Y-96706573D01*
X151449316Y-96706573D01*
X151466233Y-96708239D01*
X151638000Y-96725157D01*
X151826683Y-96706573D01*
X152008115Y-96651537D01*
X152175324Y-96562162D01*
X152321883Y-96441883D01*
X152442162Y-96295324D01*
X152531537Y-96128115D01*
X152586573Y-95946683D01*
X152605157Y-95758000D01*
X152586573Y-95569317D01*
X152531537Y-95387885D01*
X152519671Y-95365685D01*
X152442165Y-95220681D01*
X152442161Y-95220674D01*
X152321883Y-95074116D01*
X152175325Y-94953838D01*
X152175318Y-94953834D01*
X152008122Y-94864466D01*
X152008119Y-94864465D01*
X152008118Y-94864464D01*
X152008115Y-94864463D01*
X151826683Y-94809427D01*
X151826681Y-94809426D01*
X151826683Y-94809426D01*
X151638000Y-94790843D01*
X151449318Y-94809426D01*
X151342194Y-94841921D01*
X151267885Y-94864463D01*
X151267882Y-94864464D01*
X151267880Y-94864465D01*
X151267877Y-94864466D01*
X151100681Y-94953834D01*
X151100674Y-94953838D01*
X150954116Y-95074116D01*
X150833838Y-95220674D01*
X150833834Y-95220681D01*
X150744466Y-95387877D01*
X150744465Y-95387880D01*
X150689426Y-95569318D01*
X150670843Y-95757999D01*
X140288722Y-95757999D01*
X142845543Y-93201177D01*
X142906864Y-93167694D01*
X142976556Y-93172678D01*
X143032489Y-93214550D01*
X143056625Y-93276706D01*
X143069426Y-93406681D01*
X143077233Y-93432417D01*
X143124463Y-93588115D01*
X143124464Y-93588118D01*
X143124465Y-93588119D01*
X143124465Y-93588120D01*
X143213834Y-93755318D01*
X143213838Y-93755325D01*
X143334116Y-93901883D01*
X143480674Y-94022161D01*
X143480681Y-94022165D01*
X143647877Y-94111533D01*
X143647878Y-94111533D01*
X143647885Y-94111537D01*
X143829317Y-94166573D01*
X143829316Y-94166573D01*
X143846233Y-94168239D01*
X144018000Y-94185157D01*
X144206683Y-94166573D01*
X144388115Y-94111537D01*
X144555324Y-94022162D01*
X144701883Y-93901883D01*
X144822162Y-93755324D01*
X144899671Y-93610315D01*
X144911535Y-93588120D01*
X144911534Y-93588119D01*
X144911537Y-93588115D01*
X144966573Y-93406683D01*
X144985157Y-93218000D01*
X144966573Y-93029317D01*
X144911537Y-92847885D01*
X144905719Y-92837000D01*
X144822165Y-92680681D01*
X144822161Y-92680674D01*
X144701883Y-92534116D01*
X144555325Y-92413838D01*
X144555318Y-92413834D01*
X144388122Y-92324466D01*
X144388119Y-92324465D01*
X144388118Y-92324464D01*
X144388115Y-92324463D01*
X144206683Y-92269427D01*
X144206681Y-92269426D01*
X144206683Y-92269426D01*
X144076706Y-92256625D01*
X144011918Y-92230464D01*
X143971560Y-92173429D01*
X143968443Y-92103629D01*
X144001177Y-92045543D01*
X144236204Y-91810516D01*
X144240166Y-91806885D01*
X144271194Y-91780851D01*
X144291438Y-91745786D01*
X144294335Y-91741237D01*
X144317554Y-91708080D01*
X144317554Y-91708077D01*
X144319819Y-91703220D01*
X144326747Y-91686495D01*
X144328587Y-91681442D01*
X144328588Y-91681441D01*
X144333316Y-91654624D01*
X144364338Y-91592025D01*
X144396974Y-91566801D01*
X144555324Y-91482162D01*
X144701883Y-91361883D01*
X144822162Y-91215324D01*
X144909916Y-91051148D01*
X144911535Y-91048120D01*
X144911534Y-91048119D01*
X144911537Y-91048115D01*
X144966573Y-90866683D01*
X144985157Y-90678000D01*
X144966573Y-90489317D01*
X144911537Y-90307885D01*
X144822162Y-90140676D01*
X144822161Y-90140674D01*
X144701883Y-89994116D01*
X144555325Y-89873838D01*
X144555318Y-89873834D01*
X144388122Y-89784466D01*
X144388119Y-89784465D01*
X144388118Y-89784464D01*
X144388115Y-89784463D01*
X144206683Y-89729427D01*
X144206681Y-89729426D01*
X144206683Y-89729426D01*
X144018000Y-89710843D01*
X143829318Y-89729426D01*
X143729578Y-89759682D01*
X143647885Y-89784463D01*
X143647882Y-89784464D01*
X143647880Y-89784465D01*
X143647877Y-89784466D01*
X143480681Y-89873834D01*
X143480674Y-89873838D01*
X143334116Y-89994116D01*
X143213838Y-90140674D01*
X143213834Y-90140681D01*
X143124466Y-90307877D01*
X143124465Y-90307880D01*
X143069426Y-90489318D01*
X143050843Y-90677999D01*
X143069426Y-90866681D01*
X143080501Y-90903191D01*
X143124463Y-91048115D01*
X143124464Y-91048118D01*
X143124465Y-91048119D01*
X143124465Y-91048120D01*
X143213834Y-91215318D01*
X143213838Y-91215325D01*
X143334116Y-91361883D01*
X143464572Y-91468946D01*
X143503906Y-91526692D01*
X143505777Y-91596536D01*
X143473588Y-91652480D01*
X141761181Y-93364888D01*
X141699858Y-93398373D01*
X141630166Y-93393389D01*
X141574233Y-93351517D01*
X141549816Y-93286053D01*
X141549500Y-93277207D01*
X141549500Y-91118187D01*
X141569185Y-91051148D01*
X141585814Y-91030511D01*
X143546921Y-89069403D01*
X143608242Y-89035920D01*
X143670591Y-89038424D01*
X143829317Y-89086573D01*
X143829316Y-89086573D01*
X143846233Y-89088239D01*
X144018000Y-89105157D01*
X144206683Y-89086573D01*
X144388115Y-89031537D01*
X144555324Y-88942162D01*
X144701883Y-88821883D01*
X144822162Y-88675324D01*
X144879017Y-88568956D01*
X144911535Y-88508120D01*
X144911534Y-88508119D01*
X144911537Y-88508115D01*
X144966573Y-88326683D01*
X144985157Y-88138000D01*
X144966573Y-87949317D01*
X144911537Y-87767885D01*
X144911533Y-87767877D01*
X144822165Y-87600681D01*
X144822161Y-87600674D01*
X144701883Y-87454116D01*
X144555325Y-87333838D01*
X144555318Y-87333834D01*
X144388122Y-87244466D01*
X144388119Y-87244465D01*
X144388118Y-87244464D01*
X144388115Y-87244463D01*
X144206683Y-87189427D01*
X144206681Y-87189426D01*
X144206683Y-87189426D01*
X144018000Y-87170843D01*
X143829318Y-87189426D01*
X143722194Y-87221921D01*
X143647885Y-87244463D01*
X143647882Y-87244464D01*
X143647880Y-87244465D01*
X143647877Y-87244466D01*
X143480681Y-87333834D01*
X143480674Y-87333838D01*
X143334116Y-87454116D01*
X143213838Y-87600674D01*
X143213834Y-87600681D01*
X143124466Y-87767877D01*
X143124465Y-87767880D01*
X143124464Y-87767882D01*
X143124463Y-87767885D01*
X143117574Y-87790596D01*
X143069426Y-87949318D01*
X143050843Y-88138000D01*
X143069426Y-88326682D01*
X143117573Y-88485404D01*
X143118196Y-88555271D01*
X143086593Y-88609079D01*
X141005803Y-90689870D01*
X141001814Y-90693525D01*
X140970805Y-90719545D01*
X140950562Y-90754606D01*
X140947656Y-90759166D01*
X140924446Y-90792313D01*
X140922206Y-90797117D01*
X140915229Y-90813961D01*
X140913410Y-90818959D01*
X140906383Y-90858811D01*
X140905212Y-90864091D01*
X140894735Y-90903191D01*
X140898264Y-90943513D01*
X140898500Y-90948920D01*
X140898500Y-93539811D01*
X140878815Y-93606850D01*
X140862181Y-93627492D01*
X135922994Y-98566678D01*
X135861671Y-98600163D01*
X135791979Y-98595179D01*
X135787862Y-98593559D01*
X135785962Y-98592772D01*
X135785954Y-98592768D01*
X135587934Y-98532700D01*
X135587932Y-98532699D01*
X135587934Y-98532699D01*
X135400463Y-98514235D01*
X135382000Y-98512417D01*
X135381999Y-98512417D01*
X135176067Y-98532699D01*
X134978043Y-98592769D01*
X134905743Y-98631415D01*
X134795550Y-98690315D01*
X134795548Y-98690316D01*
X134795547Y-98690317D01*
X134635589Y-98821589D01*
X134504317Y-98981547D01*
X134504315Y-98981550D01*
X134478053Y-99030682D01*
X134406769Y-99164043D01*
X134346699Y-99362067D01*
X134326417Y-99567999D01*
X134346699Y-99773932D01*
X134358580Y-99813099D01*
X134406768Y-99971954D01*
X134504315Y-100154450D01*
X134504317Y-100154452D01*
X134635589Y-100314410D01*
X134732209Y-100393702D01*
X134795550Y-100445685D01*
X134978046Y-100543232D01*
X135176066Y-100603300D01*
X135176065Y-100603300D01*
X135194529Y-100605118D01*
X135382000Y-100623583D01*
X135587934Y-100603300D01*
X135785954Y-100543232D01*
X135968450Y-100445685D01*
X136128410Y-100314410D01*
X136259685Y-100154450D01*
X136357232Y-99971954D01*
X136417300Y-99773934D01*
X136437583Y-99568000D01*
X136417300Y-99362066D01*
X136357232Y-99164046D01*
X136357227Y-99164038D01*
X136356439Y-99162132D01*
X136356322Y-99161051D01*
X136355463Y-99158217D01*
X136356000Y-99158053D01*
X136348973Y-99092663D01*
X136380250Y-99030185D01*
X136383293Y-99027031D01*
X137257818Y-98152506D01*
X137319142Y-98119021D01*
X137388834Y-98124005D01*
X137444767Y-98165877D01*
X137469184Y-98231341D01*
X137469500Y-98240187D01*
X137469500Y-99508811D01*
X137449815Y-99575850D01*
X137433181Y-99596492D01*
X135922994Y-101106678D01*
X135861671Y-101140163D01*
X135791979Y-101135179D01*
X135787862Y-101133559D01*
X135785962Y-101132772D01*
X135785954Y-101132768D01*
X135587934Y-101072700D01*
X135587932Y-101072699D01*
X135587934Y-101072699D01*
X135400463Y-101054235D01*
X135382000Y-101052417D01*
X135381999Y-101052417D01*
X135176067Y-101072699D01*
X134978043Y-101132769D01*
X134905743Y-101171415D01*
X134795550Y-101230315D01*
X134795548Y-101230316D01*
X134795547Y-101230317D01*
X134635589Y-101361589D01*
X134504317Y-101521547D01*
X134406769Y-101704043D01*
X134346699Y-101902067D01*
X134326417Y-102108000D01*
X132989594Y-102108000D01*
X132998747Y-97027999D01*
X134326417Y-97027999D01*
X134346699Y-97233932D01*
X134346700Y-97233934D01*
X134406768Y-97431954D01*
X134504315Y-97614450D01*
X134504317Y-97614452D01*
X134635589Y-97774410D01*
X134732209Y-97853702D01*
X134795550Y-97905685D01*
X134978046Y-98003232D01*
X135176066Y-98063300D01*
X135176065Y-98063300D01*
X135194529Y-98065118D01*
X135382000Y-98083583D01*
X135587934Y-98063300D01*
X135785954Y-98003232D01*
X135968450Y-97905685D01*
X136128410Y-97774410D01*
X136259685Y-97614450D01*
X136357232Y-97431954D01*
X136417300Y-97233934D01*
X136437583Y-97028000D01*
X136417300Y-96822066D01*
X136357366Y-96624490D01*
X136356744Y-96554629D01*
X136393992Y-96495516D01*
X136457286Y-96465925D01*
X136476028Y-96464500D01*
X136709392Y-96464500D01*
X136709394Y-96464500D01*
X136726378Y-96458318D01*
X136747244Y-96452726D01*
X136765045Y-96449588D01*
X136780696Y-96440551D01*
X136800270Y-96431423D01*
X136817260Y-96425240D01*
X136831100Y-96413625D01*
X136848803Y-96401229D01*
X136864455Y-96392194D01*
X136876071Y-96378349D01*
X136891344Y-96363075D01*
X136905194Y-96351455D01*
X136914229Y-96335803D01*
X136926618Y-96318110D01*
X136938240Y-96304261D01*
X136944421Y-96287275D01*
X136953556Y-96267688D01*
X136962588Y-96252045D01*
X136965724Y-96234253D01*
X136971319Y-96213371D01*
X136977500Y-96196394D01*
X136977500Y-96081606D01*
X136977500Y-96081605D01*
X136977500Y-94040583D01*
X136997185Y-93973544D01*
X137013815Y-93952906D01*
X137828215Y-93138505D01*
X137832166Y-93134885D01*
X137863194Y-93108851D01*
X137883438Y-93073786D01*
X137886335Y-93069237D01*
X137909554Y-93036080D01*
X137909554Y-93036077D01*
X137911819Y-93031220D01*
X137918747Y-93014495D01*
X137920584Y-93009446D01*
X137920588Y-93009441D01*
X137927619Y-92969558D01*
X137928777Y-92964336D01*
X137939264Y-92925203D01*
X137935735Y-92884874D01*
X137935500Y-92879471D01*
X137935500Y-92192186D01*
X137955185Y-92125147D01*
X137971814Y-92104510D01*
X143546921Y-86529403D01*
X143608242Y-86495920D01*
X143670591Y-86498424D01*
X143829317Y-86546573D01*
X143829316Y-86546573D01*
X143846233Y-86548239D01*
X144018000Y-86565157D01*
X144206683Y-86546573D01*
X144388115Y-86491537D01*
X144555324Y-86402162D01*
X144701883Y-86281883D01*
X144822162Y-86135324D01*
X144911537Y-85968115D01*
X144966573Y-85786683D01*
X144985157Y-85598000D01*
X144966573Y-85409317D01*
X144911537Y-85227885D01*
X144906150Y-85217806D01*
X144822165Y-85060681D01*
X144822161Y-85060674D01*
X144701883Y-84914116D01*
X144555325Y-84793838D01*
X144555318Y-84793834D01*
X144388122Y-84704466D01*
X144388119Y-84704465D01*
X144388118Y-84704464D01*
X144388115Y-84704463D01*
X144206683Y-84649427D01*
X144206681Y-84649426D01*
X144206683Y-84649426D01*
X144018000Y-84630843D01*
X143829318Y-84649426D01*
X143722194Y-84681921D01*
X143647885Y-84704463D01*
X143647882Y-84704464D01*
X143647880Y-84704465D01*
X143647877Y-84704466D01*
X143480681Y-84793834D01*
X143480674Y-84793838D01*
X143334116Y-84914116D01*
X143213838Y-85060674D01*
X143213834Y-85060681D01*
X143124466Y-85227877D01*
X143124465Y-85227880D01*
X143124464Y-85227882D01*
X143124463Y-85227885D01*
X143107701Y-85283142D01*
X143069426Y-85409318D01*
X143050843Y-85597999D01*
X143069426Y-85786682D01*
X143117573Y-85945404D01*
X143118196Y-86015271D01*
X143086593Y-86069079D01*
X137697181Y-91458492D01*
X137635858Y-91491977D01*
X137566166Y-91486993D01*
X137510233Y-91445121D01*
X137485816Y-91379657D01*
X137485500Y-91370811D01*
X137485500Y-90102187D01*
X137505185Y-90035148D01*
X137521814Y-90014511D01*
X143546921Y-83989403D01*
X143608242Y-83955920D01*
X143670591Y-83958424D01*
X143829317Y-84006573D01*
X143829316Y-84006573D01*
X143846233Y-84008239D01*
X144018000Y-84025157D01*
X144206683Y-84006573D01*
X144388115Y-83951537D01*
X144555324Y-83862162D01*
X144701883Y-83741883D01*
X144822162Y-83595324D01*
X144911537Y-83428115D01*
X144966573Y-83246683D01*
X144985157Y-83058000D01*
X144966573Y-82869317D01*
X144911537Y-82687885D01*
X144889249Y-82646187D01*
X144822165Y-82520681D01*
X144822161Y-82520674D01*
X144701883Y-82374116D01*
X144555325Y-82253838D01*
X144555318Y-82253834D01*
X144388122Y-82164466D01*
X144388119Y-82164465D01*
X144388118Y-82164464D01*
X144388115Y-82164463D01*
X144206683Y-82109427D01*
X144206681Y-82109426D01*
X144206683Y-82109426D01*
X144018000Y-82090843D01*
X143829318Y-82109426D01*
X143722194Y-82141921D01*
X143647885Y-82164463D01*
X143647882Y-82164464D01*
X143647880Y-82164465D01*
X143647877Y-82164466D01*
X143480681Y-82253834D01*
X143480674Y-82253838D01*
X143334116Y-82374116D01*
X143213838Y-82520674D01*
X143213834Y-82520681D01*
X143124466Y-82687877D01*
X143124465Y-82687880D01*
X143124464Y-82687882D01*
X143124463Y-82687885D01*
X143108538Y-82740383D01*
X143069426Y-82869318D01*
X143050843Y-83058000D01*
X143069426Y-83246682D01*
X143117573Y-83405404D01*
X143118196Y-83475271D01*
X143086593Y-83529079D01*
X136941803Y-89673870D01*
X136937814Y-89677525D01*
X136906805Y-89703545D01*
X136886562Y-89738606D01*
X136883656Y-89743166D01*
X136860446Y-89776313D01*
X136858206Y-89781117D01*
X136851229Y-89797961D01*
X136849410Y-89802959D01*
X136842383Y-89842811D01*
X136841212Y-89848091D01*
X136830735Y-89887191D01*
X136834264Y-89927513D01*
X136834500Y-89932920D01*
X136834500Y-92523811D01*
X136814815Y-92590850D01*
X136798181Y-92611492D01*
X135922994Y-93486678D01*
X135861671Y-93520163D01*
X135791979Y-93515179D01*
X135787862Y-93513559D01*
X135785962Y-93512772D01*
X135785954Y-93512768D01*
X135587934Y-93452700D01*
X135587932Y-93452699D01*
X135587934Y-93452699D01*
X135382000Y-93432417D01*
X135176067Y-93452699D01*
X134978043Y-93512769D01*
X134905743Y-93551415D01*
X134795550Y-93610315D01*
X134795548Y-93610316D01*
X134795547Y-93610317D01*
X134635589Y-93741589D01*
X134504317Y-93901547D01*
X134406769Y-94084043D01*
X134346699Y-94282067D01*
X134326417Y-94488000D01*
X134346699Y-94693932D01*
X134346700Y-94693934D01*
X134406768Y-94891954D01*
X134504315Y-95074450D01*
X134504317Y-95074452D01*
X134635589Y-95234410D01*
X134678708Y-95269796D01*
X134795550Y-95365685D01*
X134978046Y-95463232D01*
X135176066Y-95523300D01*
X135176065Y-95523300D01*
X135196348Y-95525297D01*
X135382000Y-95543583D01*
X135587934Y-95523300D01*
X135785954Y-95463232D01*
X135968450Y-95365685D01*
X136123835Y-95238164D01*
X136188146Y-95210852D01*
X136257013Y-95222643D01*
X136308573Y-95269796D01*
X136326500Y-95334018D01*
X136326500Y-95691997D01*
X136306815Y-95759036D01*
X136254011Y-95804791D01*
X136234592Y-95811772D01*
X136203091Y-95820212D01*
X136197811Y-95821383D01*
X136157959Y-95828410D01*
X136152961Y-95830229D01*
X136136117Y-95837206D01*
X136131313Y-95839446D01*
X136098166Y-95862656D01*
X136093606Y-95865562D01*
X136058548Y-95885804D01*
X136058540Y-95885810D01*
X136032523Y-95916815D01*
X136028869Y-95920804D01*
X135922994Y-96026678D01*
X135861671Y-96060163D01*
X135791979Y-96055179D01*
X135787862Y-96053559D01*
X135785962Y-96052772D01*
X135785954Y-96052768D01*
X135587934Y-95992700D01*
X135587932Y-95992699D01*
X135587934Y-95992699D01*
X135382000Y-95972417D01*
X135176067Y-95992699D01*
X134978043Y-96052769D01*
X134924096Y-96081605D01*
X134795550Y-96150315D01*
X134795548Y-96150316D01*
X134795547Y-96150317D01*
X134635589Y-96281589D01*
X134505129Y-96440558D01*
X134504315Y-96441550D01*
X134492048Y-96464500D01*
X134406769Y-96624043D01*
X134346699Y-96822067D01*
X134326417Y-97027999D01*
X132998747Y-97027999D01*
X133007900Y-91948000D01*
X134326417Y-91948000D01*
X134346699Y-92153932D01*
X134358303Y-92192186D01*
X134406768Y-92351954D01*
X134504315Y-92534450D01*
X134506775Y-92537447D01*
X134635589Y-92694410D01*
X134732209Y-92773702D01*
X134795550Y-92825685D01*
X134978046Y-92923232D01*
X135176066Y-92983300D01*
X135176065Y-92983300D01*
X135196347Y-92985297D01*
X135382000Y-93003583D01*
X135587934Y-92983300D01*
X135785954Y-92923232D01*
X135968450Y-92825685D01*
X136128410Y-92694410D01*
X136259685Y-92534450D01*
X136357232Y-92351954D01*
X136417300Y-92153934D01*
X136437583Y-91948000D01*
X136417300Y-91742066D01*
X136357232Y-91544046D01*
X136259685Y-91361550D01*
X136186384Y-91272232D01*
X136128410Y-91201589D01*
X135968452Y-91070317D01*
X135968453Y-91070317D01*
X135968450Y-91070315D01*
X135785954Y-90972768D01*
X135784049Y-90971979D01*
X135783203Y-90971298D01*
X135780581Y-90969896D01*
X135780846Y-90969398D01*
X135729645Y-90928138D01*
X135707579Y-90861844D01*
X135707500Y-90857417D01*
X135707500Y-89340187D01*
X135727185Y-89273148D01*
X135743814Y-89252511D01*
X143546922Y-81449403D01*
X143608243Y-81415920D01*
X143670591Y-81418424D01*
X143829317Y-81466573D01*
X144018000Y-81485157D01*
X144206683Y-81466573D01*
X144388115Y-81411537D01*
X144555324Y-81322162D01*
X144701883Y-81201883D01*
X144822162Y-81055324D01*
X144911537Y-80888115D01*
X144966573Y-80706683D01*
X144985157Y-80518000D01*
X144966573Y-80329317D01*
X144911537Y-80147885D01*
X144905264Y-80136149D01*
X144822165Y-79980681D01*
X144822161Y-79980674D01*
X144701883Y-79834116D01*
X144555325Y-79713838D01*
X144555318Y-79713834D01*
X144388122Y-79624466D01*
X144388119Y-79624465D01*
X144388118Y-79624464D01*
X144388115Y-79624463D01*
X144206683Y-79569427D01*
X144206681Y-79569426D01*
X144206683Y-79569426D01*
X144018000Y-79550843D01*
X143829318Y-79569426D01*
X143722194Y-79601921D01*
X143647885Y-79624463D01*
X143647882Y-79624464D01*
X143647880Y-79624465D01*
X143647877Y-79624466D01*
X143480681Y-79713834D01*
X143480674Y-79713838D01*
X143334116Y-79834116D01*
X143213838Y-79980674D01*
X143213834Y-79980681D01*
X143124466Y-80147877D01*
X143124465Y-80147880D01*
X143124464Y-80147882D01*
X143124463Y-80147885D01*
X143108538Y-80200383D01*
X143069426Y-80329318D01*
X143050843Y-80517999D01*
X143069426Y-80706681D01*
X143117573Y-80865402D01*
X143118196Y-80935269D01*
X143086593Y-80989078D01*
X135163803Y-88911870D01*
X135159814Y-88915525D01*
X135128805Y-88941545D01*
X135108562Y-88976606D01*
X135105656Y-88981166D01*
X135082446Y-89014313D01*
X135080206Y-89019117D01*
X135073229Y-89035961D01*
X135071410Y-89040959D01*
X135064383Y-89080811D01*
X135063212Y-89086091D01*
X135052735Y-89125191D01*
X135056264Y-89165513D01*
X135056500Y-89170920D01*
X135056500Y-90857417D01*
X135036815Y-90924456D01*
X134984011Y-90970211D01*
X134979951Y-90971979D01*
X134978045Y-90972768D01*
X134873263Y-91028775D01*
X134795550Y-91070315D01*
X134795548Y-91070316D01*
X134795547Y-91070317D01*
X134635589Y-91201589D01*
X134504317Y-91361547D01*
X134504315Y-91361550D01*
X134476247Y-91414062D01*
X134406769Y-91544043D01*
X134346699Y-91742067D01*
X134326417Y-91948000D01*
X133007900Y-91948000D01*
X133049124Y-69068752D01*
X134204500Y-69068752D01*
X134216131Y-69127229D01*
X134216132Y-69127230D01*
X134260447Y-69193552D01*
X134326769Y-69237867D01*
X134326770Y-69237868D01*
X134385247Y-69249499D01*
X134385250Y-69249500D01*
X134385252Y-69249500D01*
X136124750Y-69249500D01*
X136124751Y-69249499D01*
X136139568Y-69246552D01*
X136183229Y-69237868D01*
X136183229Y-69237867D01*
X136183231Y-69237867D01*
X136249552Y-69193552D01*
X136293867Y-69127231D01*
X136293867Y-69127229D01*
X136293868Y-69127229D01*
X136305499Y-69068752D01*
X136305500Y-69068750D01*
X136305500Y-67329249D01*
X136305499Y-67329247D01*
X136293868Y-67270770D01*
X136293867Y-67270769D01*
X136249552Y-67204447D01*
X136183230Y-67160132D01*
X136183229Y-67160131D01*
X136124752Y-67148500D01*
X136124748Y-67148500D01*
X134385252Y-67148500D01*
X134385247Y-67148500D01*
X134326770Y-67160131D01*
X134326769Y-67160132D01*
X134260447Y-67204447D01*
X134216132Y-67270769D01*
X134216131Y-67270770D01*
X134204500Y-67329247D01*
X134204500Y-69068752D01*
X133049124Y-69068752D01*
X133075135Y-54632752D01*
X138638500Y-54632752D01*
X138650131Y-54691229D01*
X138650132Y-54691230D01*
X138694447Y-54757552D01*
X138760769Y-54801867D01*
X138760770Y-54801868D01*
X138819247Y-54813499D01*
X138819250Y-54813500D01*
X138819252Y-54813500D01*
X142358750Y-54813500D01*
X142358751Y-54813499D01*
X142373568Y-54810552D01*
X142417229Y-54801868D01*
X142417229Y-54801867D01*
X142417231Y-54801867D01*
X142483552Y-54757552D01*
X142527867Y-54691231D01*
X142527867Y-54691229D01*
X142527868Y-54691229D01*
X142539499Y-54632752D01*
X142539500Y-54632750D01*
X142539500Y-51093249D01*
X142539499Y-51093247D01*
X142527868Y-51034770D01*
X142527867Y-51034769D01*
X142483552Y-50968447D01*
X142417230Y-50924132D01*
X142417229Y-50924131D01*
X142358752Y-50912500D01*
X142358748Y-50912500D01*
X138819252Y-50912500D01*
X138819247Y-50912500D01*
X138760770Y-50924131D01*
X138760769Y-50924132D01*
X138694447Y-50968447D01*
X138650132Y-51034769D01*
X138650131Y-51034770D01*
X138638500Y-51093247D01*
X138638500Y-54632752D01*
X133075135Y-54632752D01*
X133095777Y-43176341D01*
X133115583Y-43109340D01*
X133168469Y-43063680D01*
X133219339Y-43052568D01*
X169418000Y-42926000D01*
X188348867Y-43052205D01*
G37*
%TD.AperFunction*%
%TA.AperFunction,Conductor*%
G36*
X157797851Y-77236185D02*
G01*
X157818492Y-77252818D01*
X157920527Y-77354854D01*
X157999868Y-77434195D01*
X158003523Y-77438184D01*
X158029541Y-77469190D01*
X158029542Y-77469191D01*
X158029545Y-77469194D01*
X158050540Y-77481315D01*
X158064604Y-77489435D01*
X158069154Y-77492333D01*
X158102316Y-77515553D01*
X158102318Y-77515553D01*
X158102319Y-77515554D01*
X158107168Y-77517815D01*
X158123947Y-77524765D01*
X158128952Y-77526587D01*
X158128953Y-77526587D01*
X158128955Y-77526588D01*
X158168829Y-77533618D01*
X158174092Y-77534786D01*
X158185907Y-77537951D01*
X158213193Y-77545263D01*
X158253510Y-77541735D01*
X158258912Y-77541500D01*
X169906248Y-77541500D01*
X169973287Y-77561185D01*
X170019042Y-77613989D01*
X170028986Y-77683147D01*
X170020809Y-77712952D01*
X169975957Y-77821234D01*
X169975955Y-77821239D01*
X169955318Y-77977998D01*
X169955318Y-77978001D01*
X169964246Y-78045818D01*
X169953480Y-78114853D01*
X169928988Y-78149684D01*
X167294803Y-80783870D01*
X167290814Y-80787525D01*
X167259805Y-80813545D01*
X167239562Y-80848606D01*
X167236656Y-80853166D01*
X167213446Y-80886313D01*
X167211267Y-80890987D01*
X167201642Y-80914287D01*
X167201442Y-80914635D01*
X167169419Y-80951223D01*
X167084721Y-81016214D01*
X166988463Y-81141660D01*
X166927956Y-81287737D01*
X166927955Y-81287739D01*
X166907318Y-81444498D01*
X166907318Y-81444501D01*
X166927955Y-81601260D01*
X166927957Y-81601265D01*
X166957276Y-81672048D01*
X166964745Y-81741517D01*
X166933470Y-81803996D01*
X166873380Y-81839648D01*
X166842715Y-81843500D01*
X160587188Y-81843500D01*
X160520149Y-81823815D01*
X160499507Y-81807181D01*
X159130325Y-80437999D01*
X161477901Y-80437999D01*
X161496252Y-80624331D01*
X161496253Y-80624333D01*
X161550604Y-80803502D01*
X161638862Y-80968623D01*
X161638864Y-80968626D01*
X161757642Y-81113357D01*
X161902373Y-81232135D01*
X161902376Y-81232137D01*
X162045808Y-81308802D01*
X162067499Y-81320396D01*
X162246666Y-81374746D01*
X162246668Y-81374747D01*
X162263374Y-81376392D01*
X162433000Y-81393099D01*
X162619331Y-81374747D01*
X162798501Y-81320396D01*
X162963625Y-81232136D01*
X163108357Y-81113357D01*
X163227136Y-80968625D01*
X163315396Y-80803501D01*
X163369747Y-80624331D01*
X163388099Y-80438000D01*
X163369747Y-80251669D01*
X163315396Y-80072499D01*
X163315395Y-80072497D01*
X163227137Y-79907376D01*
X163227135Y-79907373D01*
X163108357Y-79762642D01*
X162963626Y-79643864D01*
X162963623Y-79643862D01*
X162798502Y-79555604D01*
X162619333Y-79501253D01*
X162619331Y-79501252D01*
X162433000Y-79482901D01*
X162246668Y-79501252D01*
X162246666Y-79501253D01*
X162067497Y-79555604D01*
X161902376Y-79643862D01*
X161902373Y-79643864D01*
X161757642Y-79762642D01*
X161638864Y-79907373D01*
X161638862Y-79907376D01*
X161550604Y-80072497D01*
X161496253Y-80251666D01*
X161496252Y-80251668D01*
X161477901Y-80437999D01*
X159130325Y-80437999D01*
X158478086Y-79785760D01*
X156452119Y-77759793D01*
X156448474Y-77755814D01*
X156422456Y-77724807D01*
X156422455Y-77724806D01*
X156401924Y-77712952D01*
X156387392Y-77704561D01*
X156382831Y-77701655D01*
X156369687Y-77692452D01*
X156349684Y-77678446D01*
X156349681Y-77678445D01*
X156344861Y-77676197D01*
X156328055Y-77669235D01*
X156323043Y-77667411D01*
X156283190Y-77660383D01*
X156277910Y-77659212D01*
X156238808Y-77648735D01*
X156203892Y-77651790D01*
X156198481Y-77652264D01*
X156193078Y-77652500D01*
X152629707Y-77652500D01*
X152562668Y-77632815D01*
X152520349Y-77586953D01*
X152442165Y-77440681D01*
X152442161Y-77440675D01*
X152439358Y-77437260D01*
X152432770Y-77429232D01*
X152424508Y-77419164D01*
X152397196Y-77354854D01*
X152408987Y-77285987D01*
X152456140Y-77234427D01*
X152520362Y-77216500D01*
X157730812Y-77216500D01*
X157797851Y-77236185D01*
G37*
%TD.AperFunction*%
%TA.AperFunction,Conductor*%
G36*
X179557656Y-53177185D02*
G01*
X179578298Y-53193819D01*
X183323672Y-56939194D01*
X183357157Y-57000517D01*
X183352173Y-57070209D01*
X183310301Y-57126142D01*
X183283445Y-57141436D01*
X183212159Y-57170964D01*
X183086718Y-57267218D01*
X182990463Y-57392660D01*
X182929956Y-57538737D01*
X182929955Y-57538739D01*
X182909318Y-57695498D01*
X182909318Y-57695501D01*
X182929955Y-57852260D01*
X182929956Y-57852262D01*
X182990464Y-57998341D01*
X183086718Y-58123782D01*
X183086719Y-58123783D01*
X183165986Y-58184606D01*
X183207189Y-58241034D01*
X183214500Y-58282982D01*
X183214500Y-69801167D01*
X183194815Y-69868206D01*
X183178181Y-69888848D01*
X176123348Y-76943681D01*
X176062025Y-76977166D01*
X176035667Y-76980000D01*
X174577482Y-76980000D01*
X174510443Y-76960315D01*
X174479106Y-76931486D01*
X174464677Y-76912682D01*
X174435443Y-76874583D01*
X174418283Y-76852219D01*
X174342710Y-76794230D01*
X174292841Y-76755964D01*
X174292840Y-76755963D01*
X174292838Y-76755962D01*
X174252034Y-76739061D01*
X174197630Y-76695220D01*
X174175565Y-76628926D01*
X174192844Y-76561227D01*
X174243981Y-76513616D01*
X174299486Y-76500500D01*
X175324159Y-76500500D01*
X175332733Y-76501095D01*
X175344761Y-76502772D01*
X175344761Y-76502771D01*
X175344765Y-76502773D01*
X175387920Y-76500778D01*
X175392510Y-76500566D01*
X175395373Y-76500500D01*
X175414843Y-76500500D01*
X175414844Y-76500500D01*
X175417468Y-76500009D01*
X175426021Y-76499016D01*
X175427245Y-76498959D01*
X175456992Y-76497585D01*
X175463322Y-76494789D01*
X175490629Y-76486332D01*
X175497433Y-76485061D01*
X175523797Y-76468736D01*
X175531392Y-76464733D01*
X175559765Y-76452206D01*
X175564661Y-76447309D01*
X175587069Y-76429561D01*
X175592952Y-76425919D01*
X175611649Y-76401158D01*
X175617266Y-76394703D01*
X176190063Y-75821907D01*
X176196536Y-75816276D01*
X176206224Y-75808959D01*
X176206228Y-75808958D01*
X176238449Y-75773611D01*
X176240357Y-75771613D01*
X176254175Y-75757797D01*
X176255692Y-75755581D01*
X176261017Y-75748856D01*
X176281916Y-75725933D01*
X176284415Y-75719480D01*
X176297749Y-75694184D01*
X176301657Y-75688480D01*
X176308757Y-75658291D01*
X176311291Y-75650106D01*
X176322500Y-75621173D01*
X176322500Y-75614247D01*
X176325795Y-75585855D01*
X176327378Y-75579123D01*
X176327379Y-75579119D01*
X176323095Y-75548408D01*
X176322500Y-75539833D01*
X176322500Y-72158444D01*
X176342185Y-72091405D01*
X176394989Y-72045650D01*
X176464147Y-72035706D01*
X176493951Y-72043882D01*
X176595738Y-72086044D01*
X176674119Y-72096362D01*
X176752499Y-72106682D01*
X176752500Y-72106682D01*
X176752501Y-72106682D01*
X176788208Y-72101980D01*
X176820318Y-72097753D01*
X176889353Y-72108518D01*
X176924184Y-72133010D01*
X177431666Y-72640493D01*
X177907368Y-73116195D01*
X177911023Y-73120184D01*
X177937041Y-73151190D01*
X177937043Y-73151191D01*
X177937045Y-73151194D01*
X177972105Y-73171435D01*
X177976659Y-73174337D01*
X178009816Y-73197554D01*
X178009819Y-73197554D01*
X178014676Y-73199820D01*
X178031433Y-73206760D01*
X178036453Y-73208587D01*
X178036455Y-73208588D01*
X178076330Y-73215618D01*
X178081587Y-73216784D01*
X178120693Y-73227263D01*
X178161010Y-73223735D01*
X178166412Y-73223500D01*
X178247701Y-73223500D01*
X178314740Y-73243185D01*
X178346076Y-73272013D01*
X178387718Y-73326282D01*
X178513159Y-73422536D01*
X178659238Y-73483044D01*
X178737619Y-73493363D01*
X178815999Y-73503682D01*
X178816000Y-73503682D01*
X178816001Y-73503682D01*
X178868254Y-73496802D01*
X178972762Y-73483044D01*
X179118841Y-73422536D01*
X179244282Y-73326282D01*
X179340536Y-73200841D01*
X179401044Y-73054762D01*
X179419346Y-72915743D01*
X179421682Y-72898001D01*
X179421682Y-72897998D01*
X179401044Y-72741239D01*
X179401044Y-72741238D01*
X179340536Y-72595159D01*
X179244282Y-72469718D01*
X179118841Y-72373464D01*
X178972762Y-72312956D01*
X178972760Y-72312955D01*
X178816001Y-72292318D01*
X178815999Y-72292318D01*
X178659239Y-72312955D01*
X178659237Y-72312956D01*
X178513160Y-72373463D01*
X178513158Y-72373464D01*
X178513159Y-72373464D01*
X178387718Y-72469718D01*
X178387717Y-72469719D01*
X178387716Y-72469720D01*
X178384278Y-72474201D01*
X178327850Y-72515403D01*
X178258104Y-72519558D01*
X178198222Y-72486395D01*
X177384511Y-71672685D01*
X177351026Y-71611362D01*
X177349253Y-71568818D01*
X177358182Y-71501000D01*
X177358182Y-71500998D01*
X177337544Y-71344239D01*
X177337544Y-71344238D01*
X177277036Y-71198159D01*
X177180782Y-71072718D01*
X177055341Y-70976464D01*
X177054247Y-70976011D01*
X176909262Y-70915956D01*
X176909260Y-70915955D01*
X176752501Y-70895318D01*
X176752499Y-70895318D01*
X176595739Y-70915955D01*
X176595734Y-70915957D01*
X176493952Y-70958116D01*
X176424482Y-70965585D01*
X176362003Y-70934309D01*
X176326352Y-70874220D01*
X176322500Y-70843555D01*
X176322500Y-69596000D01*
X178141417Y-69596000D01*
X178161699Y-69801932D01*
X178179713Y-69861315D01*
X178221768Y-69999954D01*
X178319315Y-70182450D01*
X178322914Y-70186835D01*
X178450589Y-70342410D01*
X178519263Y-70398768D01*
X178610550Y-70473685D01*
X178793046Y-70571232D01*
X178991066Y-70631300D01*
X178991065Y-70631300D01*
X179009529Y-70633118D01*
X179197000Y-70651583D01*
X179402934Y-70631300D01*
X179600954Y-70571232D01*
X179783450Y-70473685D01*
X179943410Y-70342410D01*
X180074685Y-70182450D01*
X180172232Y-69999954D01*
X180232300Y-69801934D01*
X180252583Y-69596000D01*
X180232300Y-69390066D01*
X180172232Y-69192046D01*
X180074685Y-69009550D01*
X180022702Y-68946209D01*
X179943410Y-68849589D01*
X179783452Y-68718317D01*
X179783453Y-68718317D01*
X179783450Y-68718315D01*
X179600954Y-68620768D01*
X179402934Y-68560700D01*
X179402932Y-68560699D01*
X179402934Y-68560699D01*
X179215463Y-68542235D01*
X179197000Y-68540417D01*
X179196999Y-68540417D01*
X178991067Y-68560699D01*
X178793043Y-68620769D01*
X178682898Y-68679643D01*
X178610550Y-68718315D01*
X178610548Y-68718316D01*
X178610547Y-68718317D01*
X178450589Y-68849589D01*
X178319317Y-69009547D01*
X178319315Y-69009550D01*
X178287673Y-69068748D01*
X178221769Y-69192043D01*
X178161699Y-69390067D01*
X178141417Y-69596000D01*
X176322500Y-69596000D01*
X176322500Y-67056000D01*
X178141417Y-67056000D01*
X178161699Y-67261932D01*
X178182120Y-67329252D01*
X178221768Y-67459954D01*
X178319315Y-67642450D01*
X178319317Y-67642452D01*
X178450589Y-67802410D01*
X178519263Y-67858768D01*
X178610550Y-67933685D01*
X178793046Y-68031232D01*
X178991066Y-68091300D01*
X178991065Y-68091300D01*
X179011348Y-68093297D01*
X179197000Y-68111583D01*
X179402934Y-68091300D01*
X179600954Y-68031232D01*
X179783450Y-67933685D01*
X179943410Y-67802410D01*
X180074685Y-67642450D01*
X180172232Y-67459954D01*
X180232300Y-67261934D01*
X180252583Y-67056000D01*
X180252583Y-67055999D01*
X180681417Y-67055999D01*
X180701699Y-67261932D01*
X180722120Y-67329252D01*
X180761768Y-67459954D01*
X180859315Y-67642450D01*
X180859317Y-67642452D01*
X180990589Y-67802410D01*
X181059263Y-67858768D01*
X181150550Y-67933685D01*
X181333046Y-68031232D01*
X181531066Y-68091300D01*
X181531065Y-68091300D01*
X181549529Y-68093118D01*
X181737000Y-68111583D01*
X181942934Y-68091300D01*
X182140954Y-68031232D01*
X182323450Y-67933685D01*
X182483410Y-67802410D01*
X182614685Y-67642450D01*
X182712232Y-67459954D01*
X182772300Y-67261934D01*
X182792583Y-67056000D01*
X182772300Y-66850066D01*
X182712232Y-66652046D01*
X182614685Y-66469550D01*
X182535404Y-66372945D01*
X182483410Y-66309589D01*
X182323452Y-66178317D01*
X182323453Y-66178317D01*
X182323450Y-66178315D01*
X182140954Y-66080768D01*
X181942934Y-66020700D01*
X181942932Y-66020699D01*
X181942934Y-66020699D01*
X181737000Y-66000417D01*
X181531067Y-66020699D01*
X181333043Y-66080769D01*
X181222898Y-66139643D01*
X181150550Y-66178315D01*
X181150548Y-66178316D01*
X181150547Y-66178317D01*
X180990589Y-66309589D01*
X180859317Y-66469547D01*
X180859315Y-66469550D01*
X180853681Y-66480091D01*
X180761769Y-66652043D01*
X180701699Y-66850067D01*
X180681417Y-67055999D01*
X180252583Y-67055999D01*
X180232300Y-66850066D01*
X180172232Y-66652046D01*
X180074685Y-66469550D01*
X179995404Y-66372945D01*
X179943410Y-66309589D01*
X179783452Y-66178317D01*
X179783453Y-66178317D01*
X179783450Y-66178315D01*
X179600954Y-66080768D01*
X179402934Y-66020700D01*
X179402932Y-66020699D01*
X179402934Y-66020699D01*
X179197000Y-66000417D01*
X178991067Y-66020699D01*
X178793043Y-66080769D01*
X178682898Y-66139643D01*
X178610550Y-66178315D01*
X178610548Y-66178316D01*
X178610547Y-66178317D01*
X178450589Y-66309589D01*
X178319317Y-66469547D01*
X178319315Y-66469550D01*
X178313681Y-66480091D01*
X178221769Y-66652043D01*
X178161699Y-66850067D01*
X178141417Y-67056000D01*
X176322500Y-67056000D01*
X176322500Y-65385752D01*
X178146500Y-65385752D01*
X178158131Y-65444229D01*
X178158132Y-65444230D01*
X178202447Y-65510552D01*
X178268769Y-65554867D01*
X178268770Y-65554868D01*
X178327247Y-65566499D01*
X178327250Y-65566500D01*
X178327252Y-65566500D01*
X180066750Y-65566500D01*
X180066751Y-65566499D01*
X180081568Y-65563552D01*
X180125229Y-65554868D01*
X180125229Y-65554867D01*
X180125231Y-65554867D01*
X180191552Y-65510552D01*
X180235867Y-65444231D01*
X180235867Y-65444229D01*
X180235868Y-65444229D01*
X180247499Y-65385752D01*
X180247500Y-65385750D01*
X180247500Y-64515999D01*
X180681417Y-64515999D01*
X180701699Y-64721932D01*
X180701700Y-64721934D01*
X180761768Y-64919954D01*
X180859315Y-65102450D01*
X180859317Y-65102452D01*
X180990589Y-65262410D01*
X181087209Y-65341702D01*
X181150550Y-65393685D01*
X181333046Y-65491232D01*
X181531066Y-65551300D01*
X181531065Y-65551300D01*
X181549529Y-65553118D01*
X181737000Y-65571583D01*
X181942934Y-65551300D01*
X182140954Y-65491232D01*
X182323450Y-65393685D01*
X182483410Y-65262410D01*
X182614685Y-65102450D01*
X182712232Y-64919954D01*
X182772300Y-64721934D01*
X182792583Y-64516000D01*
X182772300Y-64310066D01*
X182712232Y-64112046D01*
X182614685Y-63929550D01*
X182562702Y-63866209D01*
X182483410Y-63769589D01*
X182333121Y-63646252D01*
X182323450Y-63638315D01*
X182140954Y-63540768D01*
X181942934Y-63480700D01*
X181942932Y-63480699D01*
X181942934Y-63480699D01*
X181737000Y-63460417D01*
X181531067Y-63480699D01*
X181333043Y-63540769D01*
X181245114Y-63587769D01*
X181150550Y-63638315D01*
X181150548Y-63638316D01*
X181150547Y-63638317D01*
X180990589Y-63769589D01*
X180859317Y-63929547D01*
X180761769Y-64112043D01*
X180701699Y-64310067D01*
X180681417Y-64515999D01*
X180247500Y-64515999D01*
X180247500Y-63646249D01*
X180247499Y-63646247D01*
X180235868Y-63587770D01*
X180235867Y-63587769D01*
X180191552Y-63521447D01*
X180125230Y-63477132D01*
X180125229Y-63477131D01*
X180066752Y-63465500D01*
X180066748Y-63465500D01*
X178327252Y-63465500D01*
X178327247Y-63465500D01*
X178268770Y-63477131D01*
X178268769Y-63477132D01*
X178202447Y-63521447D01*
X178158132Y-63587769D01*
X178158131Y-63587770D01*
X178146500Y-63646247D01*
X178146500Y-65385752D01*
X176322500Y-65385752D01*
X176322500Y-60404482D01*
X176342185Y-60337443D01*
X176371014Y-60306106D01*
X176411495Y-60275044D01*
X176450282Y-60245282D01*
X176546536Y-60119841D01*
X176607044Y-59973762D01*
X176627682Y-59817000D01*
X176610962Y-59690001D01*
X177321318Y-59690001D01*
X177341955Y-59846760D01*
X177341956Y-59846762D01*
X177402464Y-59992841D01*
X177498718Y-60118282D01*
X177624159Y-60214536D01*
X177770238Y-60275044D01*
X177848618Y-60285363D01*
X177926999Y-60295682D01*
X177927000Y-60295682D01*
X177927001Y-60295682D01*
X177979254Y-60288802D01*
X178083762Y-60275044D01*
X178229841Y-60214536D01*
X178355282Y-60118282D01*
X178396923Y-60064013D01*
X178453351Y-60022811D01*
X178495299Y-60015500D01*
X180787701Y-60015500D01*
X180854740Y-60035185D01*
X180886076Y-60064013D01*
X180927718Y-60118282D01*
X181053159Y-60214536D01*
X181199238Y-60275044D01*
X181277619Y-60285363D01*
X181355999Y-60295682D01*
X181356000Y-60295682D01*
X181356001Y-60295682D01*
X181408253Y-60288802D01*
X181512762Y-60275044D01*
X181658841Y-60214536D01*
X181784282Y-60118282D01*
X181880536Y-59992841D01*
X181941044Y-59846762D01*
X181961682Y-59690000D01*
X181941044Y-59533238D01*
X181880536Y-59387159D01*
X181784282Y-59261718D01*
X181658841Y-59165464D01*
X181512762Y-59104956D01*
X181512760Y-59104955D01*
X181356001Y-59084318D01*
X181355999Y-59084318D01*
X181199239Y-59104955D01*
X181199237Y-59104956D01*
X181053160Y-59165463D01*
X180927716Y-59261719D01*
X180886077Y-59315986D01*
X180829649Y-59357189D01*
X180787701Y-59364500D01*
X178495299Y-59364500D01*
X178428260Y-59344815D01*
X178396923Y-59315986D01*
X178355283Y-59261719D01*
X178289599Y-59211318D01*
X178229841Y-59165464D01*
X178083762Y-59104956D01*
X178083760Y-59104955D01*
X177927001Y-59084318D01*
X177926999Y-59084318D01*
X177770239Y-59104955D01*
X177770237Y-59104956D01*
X177624160Y-59165463D01*
X177498718Y-59261718D01*
X177402463Y-59387160D01*
X177341956Y-59533237D01*
X177341955Y-59533239D01*
X177321318Y-59689998D01*
X177321318Y-59690001D01*
X176610962Y-59690001D01*
X176607044Y-59660238D01*
X176546536Y-59514159D01*
X176450282Y-59388718D01*
X176324841Y-59292464D01*
X176178762Y-59231956D01*
X176178760Y-59231955D01*
X176022001Y-59211318D01*
X176021999Y-59211318D01*
X175865239Y-59231955D01*
X175865237Y-59231956D01*
X175719160Y-59292463D01*
X175593718Y-59388718D01*
X175497463Y-59514160D01*
X175436956Y-59660237D01*
X175436955Y-59660239D01*
X175416318Y-59816998D01*
X175416318Y-59817001D01*
X175436955Y-59973760D01*
X175436956Y-59973762D01*
X175497464Y-60119841D01*
X175570126Y-60214536D01*
X175593719Y-60245283D01*
X175672986Y-60306106D01*
X175714189Y-60362534D01*
X175721500Y-60404482D01*
X175721500Y-69557735D01*
X175701815Y-69624774D01*
X175649011Y-69670529D01*
X175579853Y-69680473D01*
X175516297Y-69651448D01*
X175499125Y-69633222D01*
X175441201Y-69557735D01*
X175434282Y-69548718D01*
X175308841Y-69452464D01*
X175231557Y-69420452D01*
X175162762Y-69391956D01*
X175162760Y-69391955D01*
X175006001Y-69371318D01*
X175005999Y-69371318D01*
X174849239Y-69391955D01*
X174849237Y-69391956D01*
X174703160Y-69452463D01*
X174577718Y-69548718D01*
X174481463Y-69674160D01*
X174420956Y-69820237D01*
X174420955Y-69820239D01*
X174400318Y-69976998D01*
X174400318Y-69977001D01*
X174409246Y-70044818D01*
X174398480Y-70113853D01*
X174373988Y-70148684D01*
X172926291Y-71596381D01*
X172864968Y-71629866D01*
X172795276Y-71624882D01*
X172776483Y-71614484D01*
X172775881Y-71615528D01*
X172768843Y-71611465D01*
X172768838Y-71611463D01*
X172622762Y-71550956D01*
X172622760Y-71550955D01*
X172466001Y-71530318D01*
X172465999Y-71530318D01*
X172309239Y-71550955D01*
X172309237Y-71550956D01*
X172163160Y-71611463D01*
X172037718Y-71707718D01*
X171941463Y-71833160D01*
X171880956Y-71979237D01*
X171880955Y-71979239D01*
X171860318Y-72135998D01*
X171860318Y-72136001D01*
X171880955Y-72292760D01*
X171880956Y-72292762D01*
X171937972Y-72430412D01*
X171941464Y-72438841D01*
X172037718Y-72564282D01*
X172163159Y-72660536D01*
X172309238Y-72721044D01*
X172387618Y-72731363D01*
X172465999Y-72741682D01*
X172466000Y-72741682D01*
X172466001Y-72741682D01*
X172518254Y-72734802D01*
X172622762Y-72721044D01*
X172768841Y-72660536D01*
X172894282Y-72564282D01*
X172988846Y-72441042D01*
X173016068Y-72414978D01*
X173019864Y-72412319D01*
X173024367Y-72409451D01*
X173059455Y-72389194D01*
X173085481Y-72358176D01*
X173089122Y-72354202D01*
X174834315Y-70609009D01*
X174895636Y-70575526D01*
X174938180Y-70573753D01*
X175005999Y-70582682D01*
X175006000Y-70582682D01*
X175006001Y-70582682D01*
X175058253Y-70575802D01*
X175162762Y-70562044D01*
X175308841Y-70501536D01*
X175434282Y-70405282D01*
X175499124Y-70320777D01*
X175555552Y-70279575D01*
X175625298Y-70275420D01*
X175686218Y-70309632D01*
X175718971Y-70371350D01*
X175721500Y-70396264D01*
X175721500Y-74941095D01*
X175701815Y-75008134D01*
X175649011Y-75053889D01*
X175579853Y-75063833D01*
X175516297Y-75034808D01*
X175498983Y-75013841D01*
X175497984Y-75014608D01*
X175493036Y-75008160D01*
X175493036Y-75008159D01*
X175396782Y-74882718D01*
X175271341Y-74786464D01*
X175264668Y-74783700D01*
X175125262Y-74725956D01*
X175125260Y-74725955D01*
X174968501Y-74705318D01*
X174968497Y-74705318D01*
X174900679Y-74714246D01*
X174831644Y-74703480D01*
X174796814Y-74678988D01*
X174142786Y-74024960D01*
X174109301Y-73963637D01*
X174107528Y-73921093D01*
X174110333Y-73899793D01*
X174125182Y-73787000D01*
X174112277Y-73688980D01*
X174104544Y-73630239D01*
X174104544Y-73630238D01*
X174044036Y-73484159D01*
X173947782Y-73358718D01*
X173822341Y-73262464D01*
X173775797Y-73243185D01*
X173676262Y-73201956D01*
X173676260Y-73201955D01*
X173519501Y-73181318D01*
X173519499Y-73181318D01*
X173362739Y-73201955D01*
X173362737Y-73201956D01*
X173216660Y-73262463D01*
X173091218Y-73358718D01*
X172994963Y-73484160D01*
X172934456Y-73630237D01*
X172934455Y-73630239D01*
X172913818Y-73786998D01*
X172913818Y-73787001D01*
X172934455Y-73943760D01*
X172934456Y-73943762D01*
X172942688Y-73963637D01*
X172994964Y-74089841D01*
X173091218Y-74215282D01*
X173216659Y-74311536D01*
X173362738Y-74372044D01*
X173519500Y-74392682D01*
X173521032Y-74392480D01*
X173522327Y-74392682D01*
X173527628Y-74392682D01*
X173527628Y-74393508D01*
X173590067Y-74403238D01*
X173624906Y-74427733D01*
X173980873Y-74783699D01*
X174336488Y-75139314D01*
X174369973Y-75200637D01*
X174371746Y-75243179D01*
X174362818Y-75310997D01*
X174362818Y-75311001D01*
X174383455Y-75467760D01*
X174383456Y-75467762D01*
X174430721Y-75581871D01*
X174443964Y-75613841D01*
X174510088Y-75700015D01*
X174535281Y-75765182D01*
X174521243Y-75833627D01*
X174472429Y-75883617D01*
X174411711Y-75899500D01*
X174106982Y-75899500D01*
X174039943Y-75879815D01*
X174008606Y-75850986D01*
X174006899Y-75848762D01*
X173947782Y-75771718D01*
X173822341Y-75675464D01*
X173822339Y-75675463D01*
X173702230Y-75625712D01*
X173647827Y-75581871D01*
X173625762Y-75515576D01*
X173635122Y-75463698D01*
X173639687Y-75452678D01*
X173686044Y-75340762D01*
X173706682Y-75184000D01*
X173686044Y-75027238D01*
X173625536Y-74881159D01*
X173529282Y-74755718D01*
X173403841Y-74659464D01*
X173366179Y-74643864D01*
X173257762Y-74598956D01*
X173257760Y-74598955D01*
X173101001Y-74578318D01*
X173100999Y-74578318D01*
X172944239Y-74598955D01*
X172944237Y-74598956D01*
X172798160Y-74659463D01*
X172672716Y-74755719D01*
X172631077Y-74809986D01*
X172574649Y-74851189D01*
X172532701Y-74858500D01*
X170577910Y-74858500D01*
X170572506Y-74858264D01*
X170566993Y-74857781D01*
X170532192Y-74854736D01*
X170493105Y-74865210D01*
X170487825Y-74866381D01*
X170447957Y-74873411D01*
X170442983Y-74875221D01*
X170426118Y-74882207D01*
X170421313Y-74884447D01*
X170388162Y-74907659D01*
X170383603Y-74910563D01*
X170348545Y-74930805D01*
X170322523Y-74961815D01*
X170318869Y-74965803D01*
X170021299Y-75263373D01*
X169959976Y-75296858D01*
X169890285Y-75291874D01*
X169853205Y-75268044D01*
X169852729Y-75268666D01*
X169846283Y-75263720D01*
X169846282Y-75263718D01*
X169720841Y-75167464D01*
X169574762Y-75106956D01*
X169574760Y-75106955D01*
X169418001Y-75086318D01*
X169417999Y-75086318D01*
X169261239Y-75106955D01*
X169261237Y-75106956D01*
X169115160Y-75167463D01*
X168989718Y-75263718D01*
X168893463Y-75389160D01*
X168832956Y-75535237D01*
X168832955Y-75535239D01*
X168812318Y-75691998D01*
X168812318Y-75692001D01*
X168832955Y-75848760D01*
X168832956Y-75848762D01*
X168881843Y-75966787D01*
X168893464Y-75994841D01*
X168989718Y-76120282D01*
X169115159Y-76216536D01*
X169261238Y-76277044D01*
X169339618Y-76287363D01*
X169417999Y-76297682D01*
X169418000Y-76297682D01*
X169418001Y-76297682D01*
X169470254Y-76290802D01*
X169574762Y-76277044D01*
X169720841Y-76216536D01*
X169846282Y-76120282D01*
X169887923Y-76066013D01*
X169944351Y-76024811D01*
X169986299Y-76017500D01*
X170036078Y-76017500D01*
X170041481Y-76017735D01*
X170081807Y-76021264D01*
X170120940Y-76010777D01*
X170126162Y-76009619D01*
X170166045Y-76002588D01*
X170166050Y-76002584D01*
X170171099Y-76000747D01*
X170187824Y-75993819D01*
X170192681Y-75991554D01*
X170192684Y-75991554D01*
X170225841Y-75968335D01*
X170230390Y-75965438D01*
X170265455Y-75945194D01*
X170291481Y-75914176D01*
X170295111Y-75910213D01*
X170659509Y-75545817D01*
X170720831Y-75512334D01*
X170747189Y-75509500D01*
X172532701Y-75509500D01*
X172599740Y-75529185D01*
X172631076Y-75558013D01*
X172672718Y-75612282D01*
X172798159Y-75708536D01*
X172798160Y-75708536D01*
X172798161Y-75708537D01*
X172840159Y-75725933D01*
X172918269Y-75758287D01*
X172972673Y-75802128D01*
X172994738Y-75868422D01*
X172985378Y-75920300D01*
X172934457Y-76043234D01*
X172934455Y-76043239D01*
X172913818Y-76199998D01*
X172913818Y-76200001D01*
X172934455Y-76356760D01*
X172934456Y-76356762D01*
X172994021Y-76500566D01*
X172994964Y-76502841D01*
X173091218Y-76628282D01*
X173216659Y-76724536D01*
X173362738Y-76785044D01*
X173377566Y-76786996D01*
X173441463Y-76815262D01*
X173479934Y-76873587D01*
X173480765Y-76943452D01*
X173468771Y-76971930D01*
X173465465Y-76977656D01*
X173404956Y-77123737D01*
X173404955Y-77123739D01*
X173384318Y-77280498D01*
X173384318Y-77280501D01*
X173404955Y-77437260D01*
X173404956Y-77437262D01*
X173465464Y-77583342D01*
X173492836Y-77619013D01*
X173518031Y-77684182D01*
X173503993Y-77752627D01*
X173455179Y-77802617D01*
X173394461Y-77818500D01*
X171938494Y-77818500D01*
X171871455Y-77798815D01*
X171850813Y-77782181D01*
X171655585Y-77586953D01*
X171066424Y-76997793D01*
X171062779Y-76993814D01*
X171036761Y-76962807D01*
X171036760Y-76962806D01*
X171025363Y-76956226D01*
X171001697Y-76942561D01*
X170997136Y-76939655D01*
X170983992Y-76930452D01*
X170963989Y-76916446D01*
X170963986Y-76916445D01*
X170959166Y-76914197D01*
X170942360Y-76907235D01*
X170937348Y-76905411D01*
X170897495Y-76898383D01*
X170892215Y-76897212D01*
X170853113Y-76886735D01*
X170818197Y-76889790D01*
X170812786Y-76890264D01*
X170807383Y-76890500D01*
X158428189Y-76890500D01*
X158361150Y-76870815D01*
X158340508Y-76854181D01*
X158301589Y-76815262D01*
X158159118Y-76672792D01*
X158155474Y-76668814D01*
X158129456Y-76637807D01*
X158129455Y-76637806D01*
X158114075Y-76628926D01*
X158094392Y-76617561D01*
X158089831Y-76614655D01*
X158076687Y-76605452D01*
X158056684Y-76591446D01*
X158056681Y-76591445D01*
X158051861Y-76589197D01*
X158035055Y-76582235D01*
X158030043Y-76580411D01*
X157990190Y-76573383D01*
X157984910Y-76572212D01*
X157945808Y-76561735D01*
X157910892Y-76564790D01*
X157905481Y-76565264D01*
X157900078Y-76565500D01*
X156743002Y-76565500D01*
X156675963Y-76545815D01*
X156630208Y-76493011D01*
X156620264Y-76423853D01*
X156644624Y-76366015D01*
X156734536Y-76248841D01*
X156795044Y-76102762D01*
X156815682Y-75946000D01*
X156795044Y-75789238D01*
X156734536Y-75643159D01*
X156638282Y-75517718D01*
X156638280Y-75517716D01*
X156638279Y-75517715D01*
X156584012Y-75476074D01*
X156556211Y-75437999D01*
X161477901Y-75437999D01*
X161496252Y-75624331D01*
X161496253Y-75624333D01*
X161550604Y-75803502D01*
X161638862Y-75968623D01*
X161638864Y-75968626D01*
X161757642Y-76113357D01*
X161902373Y-76232135D01*
X161902376Y-76232137D01*
X162067497Y-76320395D01*
X162067499Y-76320396D01*
X162245136Y-76374282D01*
X162246666Y-76374746D01*
X162246668Y-76374747D01*
X162263374Y-76376392D01*
X162433000Y-76393099D01*
X162619331Y-76374747D01*
X162798501Y-76320396D01*
X162963625Y-76232136D01*
X163108357Y-76113357D01*
X163227136Y-75968625D01*
X163315396Y-75803501D01*
X163369747Y-75624331D01*
X163388099Y-75438000D01*
X163369747Y-75251669D01*
X163315396Y-75072499D01*
X163281006Y-75008159D01*
X163227137Y-74907376D01*
X163227135Y-74907373D01*
X163108357Y-74762642D01*
X162963626Y-74643864D01*
X162963623Y-74643862D01*
X162798502Y-74555604D01*
X162619333Y-74501253D01*
X162619331Y-74501252D01*
X162433000Y-74482901D01*
X162246668Y-74501252D01*
X162246666Y-74501253D01*
X162067497Y-74555604D01*
X161902376Y-74643862D01*
X161902373Y-74643864D01*
X161757642Y-74762642D01*
X161638864Y-74907373D01*
X161638862Y-74907376D01*
X161550604Y-75072497D01*
X161496253Y-75251666D01*
X161496252Y-75251668D01*
X161477901Y-75437999D01*
X156556211Y-75437999D01*
X156542810Y-75419646D01*
X156535500Y-75377699D01*
X156535500Y-67888844D01*
X156555185Y-67821805D01*
X156607989Y-67776050D01*
X156677147Y-67766106D01*
X156740703Y-67795131D01*
X156757872Y-67813354D01*
X156764357Y-67821805D01*
X156792719Y-67858768D01*
X156797718Y-67865282D01*
X156923159Y-67961536D01*
X157069238Y-68022044D01*
X157139013Y-68031230D01*
X157225999Y-68042682D01*
X157226000Y-68042682D01*
X157226001Y-68042682D01*
X157298152Y-68033183D01*
X157382762Y-68022044D01*
X157528841Y-67961536D01*
X157654282Y-67865282D01*
X157750536Y-67739841D01*
X157811044Y-67593762D01*
X157831682Y-67437000D01*
X157822752Y-67369180D01*
X157833518Y-67300145D01*
X157858008Y-67265316D01*
X159483506Y-65639819D01*
X159544830Y-65606334D01*
X159571188Y-65603500D01*
X162118701Y-65603500D01*
X162185740Y-65623185D01*
X162217076Y-65652013D01*
X162258718Y-65706282D01*
X162384159Y-65802536D01*
X162530238Y-65863044D01*
X162608618Y-65873363D01*
X162686999Y-65883682D01*
X162687000Y-65883682D01*
X162687001Y-65883682D01*
X162739254Y-65876802D01*
X162843762Y-65863044D01*
X162989841Y-65802536D01*
X163115282Y-65706282D01*
X163211536Y-65580841D01*
X163272044Y-65434762D01*
X163292682Y-65278000D01*
X163272044Y-65121238D01*
X163211536Y-64975159D01*
X163115282Y-64849718D01*
X162989841Y-64753464D01*
X162843762Y-64692956D01*
X162843760Y-64692955D01*
X162687001Y-64672318D01*
X162686999Y-64672318D01*
X162530239Y-64692955D01*
X162530237Y-64692956D01*
X162384160Y-64753463D01*
X162258716Y-64849719D01*
X162217077Y-64903986D01*
X162160649Y-64945189D01*
X162118701Y-64952500D01*
X159401922Y-64952500D01*
X159396518Y-64952264D01*
X159391107Y-64951790D01*
X159356192Y-64948735D01*
X159356191Y-64948735D01*
X159317091Y-64959212D01*
X159311811Y-64960383D01*
X159271959Y-64967410D01*
X159266961Y-64969229D01*
X159250117Y-64976206D01*
X159245313Y-64978446D01*
X159212166Y-65001656D01*
X159207606Y-65004562D01*
X159172548Y-65024804D01*
X159172540Y-65024810D01*
X159146523Y-65055815D01*
X159142869Y-65059804D01*
X157397684Y-66804988D01*
X157336361Y-66838473D01*
X157293818Y-66840246D01*
X157226001Y-66831318D01*
X157225999Y-66831318D01*
X157069239Y-66851955D01*
X157069237Y-66851956D01*
X156923160Y-66912463D01*
X156923158Y-66912464D01*
X156923159Y-66912464D01*
X156797718Y-67008718D01*
X156757874Y-67060642D01*
X156701448Y-67101844D01*
X156631701Y-67105999D01*
X156570781Y-67071786D01*
X156538029Y-67010069D01*
X156535500Y-66985155D01*
X156535500Y-66734188D01*
X156555185Y-66667149D01*
X156571819Y-66646507D01*
X163003790Y-60214536D01*
X169516330Y-53701995D01*
X169577651Y-53668512D01*
X169647343Y-53673496D01*
X169703276Y-53715368D01*
X169717168Y-53743947D01*
X169718846Y-53743253D01*
X169721955Y-53750760D01*
X169721956Y-53750762D01*
X169782464Y-53896841D01*
X169878718Y-54022282D01*
X169932987Y-54063924D01*
X169974189Y-54120349D01*
X169981500Y-54162298D01*
X169981499Y-61281811D01*
X169961814Y-61348850D01*
X169945180Y-61369492D01*
X161588684Y-69725988D01*
X161527361Y-69759473D01*
X161484818Y-69761246D01*
X161417001Y-69752318D01*
X161416999Y-69752318D01*
X161260239Y-69772955D01*
X161260237Y-69772956D01*
X161114160Y-69833463D01*
X160988718Y-69929718D01*
X160892463Y-70055160D01*
X160831956Y-70201237D01*
X160831955Y-70201239D01*
X160811318Y-70357998D01*
X160811318Y-70358001D01*
X160831955Y-70514760D01*
X160831956Y-70514762D01*
X160878690Y-70627589D01*
X160892464Y-70660841D01*
X160988718Y-70786282D01*
X161114159Y-70882536D01*
X161260238Y-70943044D01*
X161338618Y-70953363D01*
X161416999Y-70963682D01*
X161417000Y-70963682D01*
X161417001Y-70963682D01*
X161469254Y-70956802D01*
X161573762Y-70943044D01*
X161719841Y-70882536D01*
X161845282Y-70786282D01*
X161941536Y-70660841D01*
X162002044Y-70514762D01*
X162017315Y-70398768D01*
X162022682Y-70358001D01*
X162022682Y-70357999D01*
X162013753Y-70290180D01*
X162024518Y-70221145D01*
X162049008Y-70186316D01*
X170525204Y-61710120D01*
X170529166Y-61706489D01*
X170560194Y-61680455D01*
X170580438Y-61645390D01*
X170583335Y-61640841D01*
X170606554Y-61607684D01*
X170606554Y-61607681D01*
X170608819Y-61602824D01*
X170615747Y-61586099D01*
X170617584Y-61581050D01*
X170617588Y-61581045D01*
X170624619Y-61541162D01*
X170625777Y-61535940D01*
X170636264Y-61496807D01*
X170632735Y-61456478D01*
X170632500Y-61451075D01*
X170632500Y-54162298D01*
X170652185Y-54095259D01*
X170681010Y-54063925D01*
X170735282Y-54022282D01*
X170831536Y-53896841D01*
X170892044Y-53750762D01*
X170912682Y-53594000D01*
X170892044Y-53437238D01*
X170875753Y-53397910D01*
X170847191Y-53328952D01*
X170839722Y-53259483D01*
X170870997Y-53197004D01*
X170931086Y-53161352D01*
X170961752Y-53157500D01*
X179490617Y-53157500D01*
X179557656Y-53177185D01*
G37*
%TD.AperFunction*%
%TD*%
M02*
