M48
; DRILL file {KiCad 7.0.6} date Tue Mar 19 20:53:43 2024
; FORMAT={-:-/ absolute / inch / decimal}
; #@! TF.CreationDate,2024-03-19T20:53:43+13:00
; #@! TF.GenerationSoftware,Kicad,Pcbnew,7.0.6
; #@! TF.FileFunction,Plated,1,2,PTH
FMAT,2
INCH
; #@! TA.AperFunction,Plated,PTH,ViaDrill
T1C0.0157
; #@! TA.AperFunction,Plated,PTH,ComponentDrill
T2C0.0217
; #@! TA.AperFunction,Plated,PTH,ComponentDrill
T3C0.0315
; #@! TA.AperFunction,Plated,PTH,ComponentDrill
T4C0.0320
; #@! TA.AperFunction,Plated,PTH,ComponentDrill
T5C0.0335
; #@! TA.AperFunction,Plated,PTH,ComponentDrill
T6C0.0394
%
G90
G05
T1
X5.48Y-3.87
X5.84Y-3.2557
X5.885Y-3.755
X6.065Y-3.875
X6.075Y-3.1985
X6.15Y-2.99
X6.19Y-2.655
X6.235Y-2.34
X6.265Y-3.905
X6.28Y-3.675
X6.3Y-3.365
X6.32Y-3.49
X6.3219Y-3.8423
X6.355Y-2.77
X6.405Y-2.57
X6.435Y-3.48
X6.53Y-3.18
X6.545Y-3.275
X6.55Y-3.79
X6.56Y-3.405
X6.595Y-3.2065
X6.6Y-2.36
X6.64Y-2.565
X6.64Y-2.685
X6.66Y-3.51
X6.67Y-2.98
X6.705Y-2.11
X6.715Y-3.07
X6.74Y-3.605
X6.79Y-2.84
X6.815Y-2.96
X6.83Y-2.125
X6.8315Y-2.905
X6.8315Y-3.0
X6.85Y-3.0425
X6.86Y-3.38
X6.8885Y-2.965
X6.89Y-2.755
X6.89Y-3.51
X6.93Y-2.355
X6.93Y-3.38
X6.95Y-4.14
X6.9588Y-2.815
X7.005Y-2.35
X7.04Y-2.87
X7.045Y-4.195
X7.095Y-4.14
X7.135Y-3.135
X7.14Y-2.35
X7.19Y-2.39
X7.225Y-2.2715
X7.28Y-2.18
X7.315Y-2.0
X7.335Y-2.38
T3
X6.395Y-2.97
X6.395Y-3.1669
T4
X5.67Y-3.07
X5.67Y-3.17
X5.67Y-3.27
X5.67Y-3.37
X5.67Y-3.47
X5.67Y-3.57
X5.67Y-3.67
X5.67Y-3.77
X5.67Y-3.87
X5.67Y-3.97
X5.67Y-4.07
X5.67Y-4.17
X5.67Y-4.27
X5.67Y-4.37
X5.97Y-3.07
X5.97Y-3.17
X5.97Y-3.27
X5.97Y-3.37
X5.97Y-3.47
X5.97Y-3.57
X5.97Y-3.67
X5.97Y-3.77
X5.97Y-3.87
X5.97Y-3.97
X5.97Y-4.07
X5.97Y-4.17
X5.97Y-4.27
X5.97Y-4.37
T6
X5.325Y-2.685
X5.325Y-2.785
X5.325Y-2.885
X5.325Y-2.985
X5.325Y-3.085
X5.325Y-3.185
X5.325Y-3.285
X5.325Y-3.385
X5.33Y-3.62
X5.33Y-3.72
X5.33Y-3.82
X5.33Y-3.92
X5.33Y-4.02
X5.33Y-4.12
X5.33Y-4.22
X5.33Y-4.32
X6.17Y-4.135
X6.17Y-4.235
X6.17Y-4.335
X6.27Y-4.135
X6.27Y-4.235
X6.27Y-4.335
X7.055Y-2.54
X7.055Y-2.64
X7.055Y-2.74
X7.155Y-2.54
X7.155Y-2.64
X7.155Y-2.74
X7.315Y-3.455
X7.315Y-3.555
X7.315Y-3.655
X7.315Y-3.755
X7.315Y-3.855
X7.315Y-3.955
X7.315Y-4.055
X7.315Y-4.155
X7.315Y-4.255
X7.315Y-4.355
X7.325Y-2.71
X7.325Y-2.81
X7.325Y-2.91
X7.325Y-3.01
X7.325Y-3.11
X7.325Y-3.21
T2
G00X6.989Y-1.9205
M15
G01X6.989Y-1.9461
M16
G05
G00X7.2941Y-1.9205
M15
G01X7.2941Y-1.9461
M16
G05
T5
G00X6.9949Y-1.7728
M15
G01X6.9949Y-1.7945
M16
G05
G00X7.2882Y-1.7728
M15
G01X7.2882Y-1.7945
M16
G05
T6
G00X5.35Y-1.9237
M15
G01X5.35Y-2.0025
M16
G05
G00X5.5744Y-1.845
M15
G01X5.4956Y-1.845
M16
G05
G00X5.5744Y-2.0812
M15
G01X5.4956Y-2.0812
M16
G05
T0
M30
