%TF.GenerationSoftware,KiCad,Pcbnew,7.0.6*%
%TF.CreationDate,2024-03-19T20:52:53+13:00*%
%TF.ProjectId,Arduino Uno R3,41726475-696e-46f2-9055-6e6f2052332e,rev?*%
%TF.SameCoordinates,Original*%
%TF.FileFunction,Legend,Bot*%
%TF.FilePolarity,Positive*%
%FSLAX46Y46*%
G04 Gerber Fmt 4.6, Leading zero omitted, Abs format (unit mm)*
G04 Created by KiCad (PCBNEW 7.0.6) date 2024-03-19 20:52:53*
%MOMM*%
%LPD*%
G01*
G04 APERTURE LIST*
%ADD10C,0.500000*%
%ADD11C,0.010000*%
G04 APERTURE END LIST*
D10*
X176328100Y-63075809D02*
X175375719Y-63075809D01*
X176518576Y-63647238D02*
X175851910Y-61647238D01*
X175851910Y-61647238D02*
X175185243Y-63647238D01*
X174518576Y-63647238D02*
X174518576Y-62313904D01*
X174518576Y-62694857D02*
X174423338Y-62504380D01*
X174423338Y-62504380D02*
X174328100Y-62409142D01*
X174328100Y-62409142D02*
X174137624Y-62313904D01*
X174137624Y-62313904D02*
X173947147Y-62313904D01*
X172423338Y-63647238D02*
X172423338Y-61647238D01*
X172423338Y-63552000D02*
X172613814Y-63647238D01*
X172613814Y-63647238D02*
X172994767Y-63647238D01*
X172994767Y-63647238D02*
X173185243Y-63552000D01*
X173185243Y-63552000D02*
X173280481Y-63456761D01*
X173280481Y-63456761D02*
X173375719Y-63266285D01*
X173375719Y-63266285D02*
X173375719Y-62694857D01*
X173375719Y-62694857D02*
X173280481Y-62504380D01*
X173280481Y-62504380D02*
X173185243Y-62409142D01*
X173185243Y-62409142D02*
X172994767Y-62313904D01*
X172994767Y-62313904D02*
X172613814Y-62313904D01*
X172613814Y-62313904D02*
X172423338Y-62409142D01*
X170613814Y-62313904D02*
X170613814Y-63647238D01*
X171470957Y-62313904D02*
X171470957Y-63361523D01*
X171470957Y-63361523D02*
X171375719Y-63552000D01*
X171375719Y-63552000D02*
X171185243Y-63647238D01*
X171185243Y-63647238D02*
X170899528Y-63647238D01*
X170899528Y-63647238D02*
X170709052Y-63552000D01*
X170709052Y-63552000D02*
X170613814Y-63456761D01*
X169661433Y-63647238D02*
X169661433Y-62313904D01*
X169661433Y-61647238D02*
X169756671Y-61742476D01*
X169756671Y-61742476D02*
X169661433Y-61837714D01*
X169661433Y-61837714D02*
X169566195Y-61742476D01*
X169566195Y-61742476D02*
X169661433Y-61647238D01*
X169661433Y-61647238D02*
X169661433Y-61837714D01*
X168709052Y-62313904D02*
X168709052Y-63647238D01*
X168709052Y-62504380D02*
X168613814Y-62409142D01*
X168613814Y-62409142D02*
X168423338Y-62313904D01*
X168423338Y-62313904D02*
X168137623Y-62313904D01*
X168137623Y-62313904D02*
X167947147Y-62409142D01*
X167947147Y-62409142D02*
X167851909Y-62599619D01*
X167851909Y-62599619D02*
X167851909Y-63647238D01*
X166613814Y-63647238D02*
X166804290Y-63552000D01*
X166804290Y-63552000D02*
X166899528Y-63456761D01*
X166899528Y-63456761D02*
X166994766Y-63266285D01*
X166994766Y-63266285D02*
X166994766Y-62694857D01*
X166994766Y-62694857D02*
X166899528Y-62504380D01*
X166899528Y-62504380D02*
X166804290Y-62409142D01*
X166804290Y-62409142D02*
X166613814Y-62313904D01*
X166613814Y-62313904D02*
X166328099Y-62313904D01*
X166328099Y-62313904D02*
X166137623Y-62409142D01*
X166137623Y-62409142D02*
X166042385Y-62504380D01*
X166042385Y-62504380D02*
X165947147Y-62694857D01*
X165947147Y-62694857D02*
X165947147Y-63266285D01*
X165947147Y-63266285D02*
X166042385Y-63456761D01*
X166042385Y-63456761D02*
X166137623Y-63552000D01*
X166137623Y-63552000D02*
X166328099Y-63647238D01*
X166328099Y-63647238D02*
X166613814Y-63647238D01*
X163566194Y-61647238D02*
X163566194Y-63266285D01*
X163566194Y-63266285D02*
X163470956Y-63456761D01*
X163470956Y-63456761D02*
X163375718Y-63552000D01*
X163375718Y-63552000D02*
X163185242Y-63647238D01*
X163185242Y-63647238D02*
X162804289Y-63647238D01*
X162804289Y-63647238D02*
X162613813Y-63552000D01*
X162613813Y-63552000D02*
X162518575Y-63456761D01*
X162518575Y-63456761D02*
X162423337Y-63266285D01*
X162423337Y-63266285D02*
X162423337Y-61647238D01*
X161470956Y-62313904D02*
X161470956Y-63647238D01*
X161470956Y-62504380D02*
X161375718Y-62409142D01*
X161375718Y-62409142D02*
X161185242Y-62313904D01*
X161185242Y-62313904D02*
X160899527Y-62313904D01*
X160899527Y-62313904D02*
X160709051Y-62409142D01*
X160709051Y-62409142D02*
X160613813Y-62599619D01*
X160613813Y-62599619D02*
X160613813Y-63647238D01*
X159375718Y-63647238D02*
X159566194Y-63552000D01*
X159566194Y-63552000D02*
X159661432Y-63456761D01*
X159661432Y-63456761D02*
X159756670Y-63266285D01*
X159756670Y-63266285D02*
X159756670Y-62694857D01*
X159756670Y-62694857D02*
X159661432Y-62504380D01*
X159661432Y-62504380D02*
X159566194Y-62409142D01*
X159566194Y-62409142D02*
X159375718Y-62313904D01*
X159375718Y-62313904D02*
X159090003Y-62313904D01*
X159090003Y-62313904D02*
X158899527Y-62409142D01*
X158899527Y-62409142D02*
X158804289Y-62504380D01*
X158804289Y-62504380D02*
X158709051Y-62694857D01*
X158709051Y-62694857D02*
X158709051Y-63266285D01*
X158709051Y-63266285D02*
X158804289Y-63456761D01*
X158804289Y-63456761D02*
X158899527Y-63552000D01*
X158899527Y-63552000D02*
X159090003Y-63647238D01*
X159090003Y-63647238D02*
X159375718Y-63647238D01*
X155185241Y-63647238D02*
X155851908Y-62694857D01*
X156328098Y-63647238D02*
X156328098Y-61647238D01*
X156328098Y-61647238D02*
X155566193Y-61647238D01*
X155566193Y-61647238D02*
X155375717Y-61742476D01*
X155375717Y-61742476D02*
X155280479Y-61837714D01*
X155280479Y-61837714D02*
X155185241Y-62028190D01*
X155185241Y-62028190D02*
X155185241Y-62313904D01*
X155185241Y-62313904D02*
X155280479Y-62504380D01*
X155280479Y-62504380D02*
X155375717Y-62599619D01*
X155375717Y-62599619D02*
X155566193Y-62694857D01*
X155566193Y-62694857D02*
X156328098Y-62694857D01*
X154518574Y-61647238D02*
X153280479Y-61647238D01*
X153280479Y-61647238D02*
X153947146Y-62409142D01*
X153947146Y-62409142D02*
X153661431Y-62409142D01*
X153661431Y-62409142D02*
X153470955Y-62504380D01*
X153470955Y-62504380D02*
X153375717Y-62599619D01*
X153375717Y-62599619D02*
X153280479Y-62790095D01*
X153280479Y-62790095D02*
X153280479Y-63266285D01*
X153280479Y-63266285D02*
X153375717Y-63456761D01*
X153375717Y-63456761D02*
X153470955Y-63552000D01*
X153470955Y-63552000D02*
X153661431Y-63647238D01*
X153661431Y-63647238D02*
X154232860Y-63647238D01*
X154232860Y-63647238D02*
X154423336Y-63552000D01*
X154423336Y-63552000D02*
X154518574Y-63456761D01*
X175090005Y-66867238D02*
X175756672Y-65914857D01*
X176232862Y-66867238D02*
X176232862Y-64867238D01*
X176232862Y-64867238D02*
X175470957Y-64867238D01*
X175470957Y-64867238D02*
X175280481Y-64962476D01*
X175280481Y-64962476D02*
X175185243Y-65057714D01*
X175185243Y-65057714D02*
X175090005Y-65248190D01*
X175090005Y-65248190D02*
X175090005Y-65533904D01*
X175090005Y-65533904D02*
X175185243Y-65724380D01*
X175185243Y-65724380D02*
X175280481Y-65819619D01*
X175280481Y-65819619D02*
X175470957Y-65914857D01*
X175470957Y-65914857D02*
X176232862Y-65914857D01*
X173470957Y-66772000D02*
X173661433Y-66867238D01*
X173661433Y-66867238D02*
X174042386Y-66867238D01*
X174042386Y-66867238D02*
X174232862Y-66772000D01*
X174232862Y-66772000D02*
X174328100Y-66581523D01*
X174328100Y-66581523D02*
X174328100Y-65819619D01*
X174328100Y-65819619D02*
X174232862Y-65629142D01*
X174232862Y-65629142D02*
X174042386Y-65533904D01*
X174042386Y-65533904D02*
X173661433Y-65533904D01*
X173661433Y-65533904D02*
X173470957Y-65629142D01*
X173470957Y-65629142D02*
X173375719Y-65819619D01*
X173375719Y-65819619D02*
X173375719Y-66010095D01*
X173375719Y-66010095D02*
X174328100Y-66200571D01*
X172518576Y-65533904D02*
X172518576Y-67533904D01*
X172518576Y-65629142D02*
X172328100Y-65533904D01*
X172328100Y-65533904D02*
X171947147Y-65533904D01*
X171947147Y-65533904D02*
X171756671Y-65629142D01*
X171756671Y-65629142D02*
X171661433Y-65724380D01*
X171661433Y-65724380D02*
X171566195Y-65914857D01*
X171566195Y-65914857D02*
X171566195Y-66486285D01*
X171566195Y-66486285D02*
X171661433Y-66676761D01*
X171661433Y-66676761D02*
X171756671Y-66772000D01*
X171756671Y-66772000D02*
X171947147Y-66867238D01*
X171947147Y-66867238D02*
X172328100Y-66867238D01*
X172328100Y-66867238D02*
X172518576Y-66772000D01*
X170423338Y-66867238D02*
X170613814Y-66772000D01*
X170613814Y-66772000D02*
X170709052Y-66581523D01*
X170709052Y-66581523D02*
X170709052Y-64867238D01*
X169661433Y-66867238D02*
X169661433Y-65533904D01*
X169661433Y-64867238D02*
X169756671Y-64962476D01*
X169756671Y-64962476D02*
X169661433Y-65057714D01*
X169661433Y-65057714D02*
X169566195Y-64962476D01*
X169566195Y-64962476D02*
X169661433Y-64867238D01*
X169661433Y-64867238D02*
X169661433Y-65057714D01*
X167851909Y-66772000D02*
X168042385Y-66867238D01*
X168042385Y-66867238D02*
X168423338Y-66867238D01*
X168423338Y-66867238D02*
X168613814Y-66772000D01*
X168613814Y-66772000D02*
X168709052Y-66676761D01*
X168709052Y-66676761D02*
X168804290Y-66486285D01*
X168804290Y-66486285D02*
X168804290Y-65914857D01*
X168804290Y-65914857D02*
X168709052Y-65724380D01*
X168709052Y-65724380D02*
X168613814Y-65629142D01*
X168613814Y-65629142D02*
X168423338Y-65533904D01*
X168423338Y-65533904D02*
X168042385Y-65533904D01*
X168042385Y-65533904D02*
X167851909Y-65629142D01*
X166137623Y-66867238D02*
X166137623Y-65819619D01*
X166137623Y-65819619D02*
X166232861Y-65629142D01*
X166232861Y-65629142D02*
X166423337Y-65533904D01*
X166423337Y-65533904D02*
X166804290Y-65533904D01*
X166804290Y-65533904D02*
X166994766Y-65629142D01*
X166137623Y-66772000D02*
X166328099Y-66867238D01*
X166328099Y-66867238D02*
X166804290Y-66867238D01*
X166804290Y-66867238D02*
X166994766Y-66772000D01*
X166994766Y-66772000D02*
X167090004Y-66581523D01*
X167090004Y-66581523D02*
X167090004Y-66391047D01*
X167090004Y-66391047D02*
X166994766Y-66200571D01*
X166994766Y-66200571D02*
X166804290Y-66105333D01*
X166804290Y-66105333D02*
X166328099Y-66105333D01*
X166328099Y-66105333D02*
X166137623Y-66010095D01*
X165470956Y-65533904D02*
X164709052Y-65533904D01*
X165185242Y-64867238D02*
X165185242Y-66581523D01*
X165185242Y-66581523D02*
X165090004Y-66772000D01*
X165090004Y-66772000D02*
X164899528Y-66867238D01*
X164899528Y-66867238D02*
X164709052Y-66867238D01*
X163280480Y-66772000D02*
X163470956Y-66867238D01*
X163470956Y-66867238D02*
X163851909Y-66867238D01*
X163851909Y-66867238D02*
X164042385Y-66772000D01*
X164042385Y-66772000D02*
X164137623Y-66581523D01*
X164137623Y-66581523D02*
X164137623Y-65819619D01*
X164137623Y-65819619D02*
X164042385Y-65629142D01*
X164042385Y-65629142D02*
X163851909Y-65533904D01*
X163851909Y-65533904D02*
X163470956Y-65533904D01*
X163470956Y-65533904D02*
X163280480Y-65629142D01*
X163280480Y-65629142D02*
X163185242Y-65819619D01*
X163185242Y-65819619D02*
X163185242Y-66010095D01*
X163185242Y-66010095D02*
X164137623Y-66200571D01*
X161470956Y-66867238D02*
X161470956Y-64867238D01*
X161470956Y-66772000D02*
X161661432Y-66867238D01*
X161661432Y-66867238D02*
X162042385Y-66867238D01*
X162042385Y-66867238D02*
X162232861Y-66772000D01*
X162232861Y-66772000D02*
X162328099Y-66676761D01*
X162328099Y-66676761D02*
X162423337Y-66486285D01*
X162423337Y-66486285D02*
X162423337Y-65914857D01*
X162423337Y-65914857D02*
X162328099Y-65724380D01*
X162328099Y-65724380D02*
X162232861Y-65629142D01*
X162232861Y-65629142D02*
X162042385Y-65533904D01*
X162042385Y-65533904D02*
X161661432Y-65533904D01*
X161661432Y-65533904D02*
X161470956Y-65629142D01*
X158994765Y-66867238D02*
X158994765Y-64867238D01*
X158994765Y-65629142D02*
X158804289Y-65533904D01*
X158804289Y-65533904D02*
X158423336Y-65533904D01*
X158423336Y-65533904D02*
X158232860Y-65629142D01*
X158232860Y-65629142D02*
X158137622Y-65724380D01*
X158137622Y-65724380D02*
X158042384Y-65914857D01*
X158042384Y-65914857D02*
X158042384Y-66486285D01*
X158042384Y-66486285D02*
X158137622Y-66676761D01*
X158137622Y-66676761D02*
X158232860Y-66772000D01*
X158232860Y-66772000D02*
X158423336Y-66867238D01*
X158423336Y-66867238D02*
X158804289Y-66867238D01*
X158804289Y-66867238D02*
X158994765Y-66772000D01*
X157375717Y-65533904D02*
X156899527Y-66867238D01*
X156423336Y-65533904D02*
X156899527Y-66867238D01*
X156899527Y-66867238D02*
X157090003Y-67343428D01*
X157090003Y-67343428D02*
X157185241Y-67438666D01*
X157185241Y-67438666D02*
X157375717Y-67533904D01*
X154137621Y-66867238D02*
X154137621Y-64867238D01*
X154137621Y-65819619D02*
X152994764Y-65819619D01*
X152994764Y-66867238D02*
X152994764Y-64867238D01*
X151185240Y-66867238D02*
X151185240Y-65819619D01*
X151185240Y-65819619D02*
X151280478Y-65629142D01*
X151280478Y-65629142D02*
X151470954Y-65533904D01*
X151470954Y-65533904D02*
X151851907Y-65533904D01*
X151851907Y-65533904D02*
X152042383Y-65629142D01*
X151185240Y-66772000D02*
X151375716Y-66867238D01*
X151375716Y-66867238D02*
X151851907Y-66867238D01*
X151851907Y-66867238D02*
X152042383Y-66772000D01*
X152042383Y-66772000D02*
X152137621Y-66581523D01*
X152137621Y-66581523D02*
X152137621Y-66391047D01*
X152137621Y-66391047D02*
X152042383Y-66200571D01*
X152042383Y-66200571D02*
X151851907Y-66105333D01*
X151851907Y-66105333D02*
X151375716Y-66105333D01*
X151375716Y-66105333D02*
X151185240Y-66010095D01*
X150232859Y-65533904D02*
X150232859Y-66867238D01*
X150232859Y-65724380D02*
X150137621Y-65629142D01*
X150137621Y-65629142D02*
X149947145Y-65533904D01*
X149947145Y-65533904D02*
X149661430Y-65533904D01*
X149661430Y-65533904D02*
X149470954Y-65629142D01*
X149470954Y-65629142D02*
X149375716Y-65819619D01*
X149375716Y-65819619D02*
X149375716Y-66867238D01*
X147566192Y-65533904D02*
X147566192Y-67152952D01*
X147566192Y-67152952D02*
X147661430Y-67343428D01*
X147661430Y-67343428D02*
X147756668Y-67438666D01*
X147756668Y-67438666D02*
X147947145Y-67533904D01*
X147947145Y-67533904D02*
X148232859Y-67533904D01*
X148232859Y-67533904D02*
X148423335Y-67438666D01*
X147566192Y-66772000D02*
X147756668Y-66867238D01*
X147756668Y-66867238D02*
X148137621Y-66867238D01*
X148137621Y-66867238D02*
X148328097Y-66772000D01*
X148328097Y-66772000D02*
X148423335Y-66676761D01*
X148423335Y-66676761D02*
X148518573Y-66486285D01*
X148518573Y-66486285D02*
X148518573Y-65914857D01*
X148518573Y-65914857D02*
X148423335Y-65724380D01*
X148423335Y-65724380D02*
X148328097Y-65629142D01*
X148328097Y-65629142D02*
X148137621Y-65533904D01*
X148137621Y-65533904D02*
X147756668Y-65533904D01*
X147756668Y-65533904D02*
X147566192Y-65629142D01*
X145185239Y-66772000D02*
X144899525Y-66867238D01*
X144899525Y-66867238D02*
X144423334Y-66867238D01*
X144423334Y-66867238D02*
X144232858Y-66772000D01*
X144232858Y-66772000D02*
X144137620Y-66676761D01*
X144137620Y-66676761D02*
X144042382Y-66486285D01*
X144042382Y-66486285D02*
X144042382Y-66295809D01*
X144042382Y-66295809D02*
X144137620Y-66105333D01*
X144137620Y-66105333D02*
X144232858Y-66010095D01*
X144232858Y-66010095D02*
X144423334Y-65914857D01*
X144423334Y-65914857D02*
X144804287Y-65819619D01*
X144804287Y-65819619D02*
X144994763Y-65724380D01*
X144994763Y-65724380D02*
X145090001Y-65629142D01*
X145090001Y-65629142D02*
X145185239Y-65438666D01*
X145185239Y-65438666D02*
X145185239Y-65248190D01*
X145185239Y-65248190D02*
X145090001Y-65057714D01*
X145090001Y-65057714D02*
X144994763Y-64962476D01*
X144994763Y-64962476D02*
X144804287Y-64867238D01*
X144804287Y-64867238D02*
X144328096Y-64867238D01*
X144328096Y-64867238D02*
X144042382Y-64962476D01*
X142328096Y-65533904D02*
X142328096Y-66867238D01*
X143185239Y-65533904D02*
X143185239Y-66581523D01*
X143185239Y-66581523D02*
X143090001Y-66772000D01*
X143090001Y-66772000D02*
X142899525Y-66867238D01*
X142899525Y-66867238D02*
X142613810Y-66867238D01*
X142613810Y-66867238D02*
X142423334Y-66772000D01*
X142423334Y-66772000D02*
X142328096Y-66676761D01*
X141375715Y-65533904D02*
X141375715Y-66867238D01*
X141375715Y-65724380D02*
X141280477Y-65629142D01*
X141280477Y-65629142D02*
X141090001Y-65533904D01*
X141090001Y-65533904D02*
X140804286Y-65533904D01*
X140804286Y-65533904D02*
X140613810Y-65629142D01*
X140613810Y-65629142D02*
X140518572Y-65819619D01*
X140518572Y-65819619D02*
X140518572Y-66867238D01*
X175185243Y-70087238D02*
X176328100Y-70087238D01*
X175756672Y-70087238D02*
X175756672Y-68087238D01*
X175756672Y-68087238D02*
X175947148Y-68372952D01*
X175947148Y-68372952D02*
X176137624Y-68563428D01*
X176137624Y-68563428D02*
X176328100Y-68658666D01*
X174232862Y-70087238D02*
X173851910Y-70087238D01*
X173851910Y-70087238D02*
X173661433Y-69992000D01*
X173661433Y-69992000D02*
X173566195Y-69896761D01*
X173566195Y-69896761D02*
X173375719Y-69611047D01*
X173375719Y-69611047D02*
X173280481Y-69230095D01*
X173280481Y-69230095D02*
X173280481Y-68468190D01*
X173280481Y-68468190D02*
X173375719Y-68277714D01*
X173375719Y-68277714D02*
X173470957Y-68182476D01*
X173470957Y-68182476D02*
X173661433Y-68087238D01*
X173661433Y-68087238D02*
X174042386Y-68087238D01*
X174042386Y-68087238D02*
X174232862Y-68182476D01*
X174232862Y-68182476D02*
X174328100Y-68277714D01*
X174328100Y-68277714D02*
X174423338Y-68468190D01*
X174423338Y-68468190D02*
X174423338Y-68944380D01*
X174423338Y-68944380D02*
X174328100Y-69134857D01*
X174328100Y-69134857D02*
X174232862Y-69230095D01*
X174232862Y-69230095D02*
X174042386Y-69325333D01*
X174042386Y-69325333D02*
X173661433Y-69325333D01*
X173661433Y-69325333D02*
X173470957Y-69230095D01*
X173470957Y-69230095D02*
X173375719Y-69134857D01*
X173375719Y-69134857D02*
X173280481Y-68944380D01*
X170899528Y-70087238D02*
X170899528Y-68087238D01*
X170899528Y-68087238D02*
X170232861Y-69515809D01*
X170232861Y-69515809D02*
X169566195Y-68087238D01*
X169566195Y-68087238D02*
X169566195Y-70087238D01*
X167756671Y-70087238D02*
X167756671Y-69039619D01*
X167756671Y-69039619D02*
X167851909Y-68849142D01*
X167851909Y-68849142D02*
X168042385Y-68753904D01*
X168042385Y-68753904D02*
X168423338Y-68753904D01*
X168423338Y-68753904D02*
X168613814Y-68849142D01*
X167756671Y-69992000D02*
X167947147Y-70087238D01*
X167947147Y-70087238D02*
X168423338Y-70087238D01*
X168423338Y-70087238D02*
X168613814Y-69992000D01*
X168613814Y-69992000D02*
X168709052Y-69801523D01*
X168709052Y-69801523D02*
X168709052Y-69611047D01*
X168709052Y-69611047D02*
X168613814Y-69420571D01*
X168613814Y-69420571D02*
X168423338Y-69325333D01*
X168423338Y-69325333D02*
X167947147Y-69325333D01*
X167947147Y-69325333D02*
X167756671Y-69230095D01*
X166804290Y-70087238D02*
X166804290Y-68753904D01*
X166804290Y-69134857D02*
X166709052Y-68944380D01*
X166709052Y-68944380D02*
X166613814Y-68849142D01*
X166613814Y-68849142D02*
X166423338Y-68753904D01*
X166423338Y-68753904D02*
X166232861Y-68753904D01*
X164709052Y-69992000D02*
X164899528Y-70087238D01*
X164899528Y-70087238D02*
X165280481Y-70087238D01*
X165280481Y-70087238D02*
X165470957Y-69992000D01*
X165470957Y-69992000D02*
X165566195Y-69896761D01*
X165566195Y-69896761D02*
X165661433Y-69706285D01*
X165661433Y-69706285D02*
X165661433Y-69134857D01*
X165661433Y-69134857D02*
X165566195Y-68944380D01*
X165566195Y-68944380D02*
X165470957Y-68849142D01*
X165470957Y-68849142D02*
X165280481Y-68753904D01*
X165280481Y-68753904D02*
X164899528Y-68753904D01*
X164899528Y-68753904D02*
X164709052Y-68849142D01*
X163851909Y-70087238D02*
X163851909Y-68087238D01*
X162994766Y-70087238D02*
X162994766Y-69039619D01*
X162994766Y-69039619D02*
X163090004Y-68849142D01*
X163090004Y-68849142D02*
X163280480Y-68753904D01*
X163280480Y-68753904D02*
X163566195Y-68753904D01*
X163566195Y-68753904D02*
X163756671Y-68849142D01*
X163756671Y-68849142D02*
X163851909Y-68944380D01*
X160613813Y-68277714D02*
X160518575Y-68182476D01*
X160518575Y-68182476D02*
X160328099Y-68087238D01*
X160328099Y-68087238D02*
X159851908Y-68087238D01*
X159851908Y-68087238D02*
X159661432Y-68182476D01*
X159661432Y-68182476D02*
X159566194Y-68277714D01*
X159566194Y-68277714D02*
X159470956Y-68468190D01*
X159470956Y-68468190D02*
X159470956Y-68658666D01*
X159470956Y-68658666D02*
X159566194Y-68944380D01*
X159566194Y-68944380D02*
X160709051Y-70087238D01*
X160709051Y-70087238D02*
X159470956Y-70087238D01*
X158232861Y-68087238D02*
X158042384Y-68087238D01*
X158042384Y-68087238D02*
X157851908Y-68182476D01*
X157851908Y-68182476D02*
X157756670Y-68277714D01*
X157756670Y-68277714D02*
X157661432Y-68468190D01*
X157661432Y-68468190D02*
X157566194Y-68849142D01*
X157566194Y-68849142D02*
X157566194Y-69325333D01*
X157566194Y-69325333D02*
X157661432Y-69706285D01*
X157661432Y-69706285D02*
X157756670Y-69896761D01*
X157756670Y-69896761D02*
X157851908Y-69992000D01*
X157851908Y-69992000D02*
X158042384Y-70087238D01*
X158042384Y-70087238D02*
X158232861Y-70087238D01*
X158232861Y-70087238D02*
X158423337Y-69992000D01*
X158423337Y-69992000D02*
X158518575Y-69896761D01*
X158518575Y-69896761D02*
X158613813Y-69706285D01*
X158613813Y-69706285D02*
X158709051Y-69325333D01*
X158709051Y-69325333D02*
X158709051Y-68849142D01*
X158709051Y-68849142D02*
X158613813Y-68468190D01*
X158613813Y-68468190D02*
X158518575Y-68277714D01*
X158518575Y-68277714D02*
X158423337Y-68182476D01*
X158423337Y-68182476D02*
X158232861Y-68087238D01*
X156804289Y-68277714D02*
X156709051Y-68182476D01*
X156709051Y-68182476D02*
X156518575Y-68087238D01*
X156518575Y-68087238D02*
X156042384Y-68087238D01*
X156042384Y-68087238D02*
X155851908Y-68182476D01*
X155851908Y-68182476D02*
X155756670Y-68277714D01*
X155756670Y-68277714D02*
X155661432Y-68468190D01*
X155661432Y-68468190D02*
X155661432Y-68658666D01*
X155661432Y-68658666D02*
X155756670Y-68944380D01*
X155756670Y-68944380D02*
X156899527Y-70087238D01*
X156899527Y-70087238D02*
X155661432Y-70087238D01*
X153947146Y-68753904D02*
X153947146Y-70087238D01*
X154423337Y-67992000D02*
X154899527Y-69420571D01*
X154899527Y-69420571D02*
X153661432Y-69420571D01*
%TO.C,REF\u002A\u002A*%
D11*
X166900002Y-103801242D02*
X166934247Y-103822142D01*
X166969729Y-103850873D01*
X166969729Y-104712871D01*
X166934247Y-104741602D01*
X166892495Y-104764867D01*
X166844832Y-104765980D01*
X166802976Y-104738696D01*
X166797815Y-104732486D01*
X166790538Y-104719881D01*
X166784937Y-104701666D01*
X166780794Y-104674347D01*
X166777892Y-104634433D01*
X166776014Y-104578430D01*
X166774941Y-104502847D01*
X166774457Y-104404190D01*
X166774344Y-104278966D01*
X166774344Y-103850873D01*
X166809826Y-103822142D01*
X166841396Y-103802477D01*
X166872037Y-103793410D01*
X166900002Y-103801242D01*
G36*
X166900002Y-103801242D02*
G01*
X166934247Y-103822142D01*
X166969729Y-103850873D01*
X166969729Y-104712871D01*
X166934247Y-104741602D01*
X166892495Y-104764867D01*
X166844832Y-104765980D01*
X166802976Y-104738696D01*
X166797815Y-104732486D01*
X166790538Y-104719881D01*
X166784937Y-104701666D01*
X166780794Y-104674347D01*
X166777892Y-104634433D01*
X166776014Y-104578430D01*
X166774941Y-104502847D01*
X166774457Y-104404190D01*
X166774344Y-104278966D01*
X166774344Y-103850873D01*
X166809826Y-103822142D01*
X166841396Y-103802477D01*
X166872037Y-103793410D01*
X166900002Y-103801242D01*
G37*
X174191184Y-103791846D02*
X174206372Y-103800017D01*
X174220416Y-103814212D01*
X174235443Y-103833011D01*
X174241371Y-103840948D01*
X174249357Y-103854920D01*
X174255454Y-103873327D01*
X174259916Y-103899827D01*
X174262997Y-103938083D01*
X174264951Y-103991755D01*
X174266033Y-104064503D01*
X174266495Y-104159988D01*
X174266593Y-104281872D01*
X174266562Y-104359797D01*
X174266272Y-104465091D01*
X174265461Y-104546227D01*
X174263875Y-104606866D01*
X174261262Y-104650669D01*
X174257366Y-104681296D01*
X174251933Y-104702409D01*
X174244710Y-104717667D01*
X174235443Y-104730733D01*
X174194931Y-104763209D01*
X174148410Y-104767042D01*
X174099175Y-104741626D01*
X174093605Y-104737000D01*
X174082720Y-104725646D01*
X174074651Y-104710268D01*
X174068816Y-104686526D01*
X174064633Y-104650084D01*
X174061521Y-104596604D01*
X174058897Y-104521747D01*
X174056179Y-104421177D01*
X174048664Y-104129435D01*
X173695469Y-104449814D01*
X173597169Y-104538718D01*
X173510391Y-104616091D01*
X173440902Y-104675946D01*
X173386217Y-104719777D01*
X173343854Y-104749077D01*
X173311332Y-104765340D01*
X173286166Y-104770060D01*
X173265875Y-104764731D01*
X173247976Y-104750846D01*
X173229987Y-104729899D01*
X173221672Y-104718605D01*
X173214174Y-104704523D01*
X173208568Y-104685673D01*
X173204638Y-104658443D01*
X173202168Y-104619221D01*
X173200944Y-104564394D01*
X173200751Y-104490348D01*
X173201373Y-104393471D01*
X173202594Y-104270150D01*
X173207007Y-103850835D01*
X173242489Y-103822123D01*
X173277191Y-103800566D01*
X173320937Y-103796877D01*
X173366910Y-103822110D01*
X173372651Y-103826882D01*
X173383478Y-103838238D01*
X173391505Y-103853671D01*
X173397310Y-103877510D01*
X173401474Y-103914084D01*
X173404576Y-103967722D01*
X173407193Y-104042754D01*
X173409906Y-104143508D01*
X173417421Y-104436207D01*
X173657895Y-104218138D01*
X173773374Y-104113448D01*
X173874253Y-104022392D01*
X173956979Y-103948702D01*
X174023678Y-103890960D01*
X174076476Y-103847749D01*
X174117499Y-103817649D01*
X174148874Y-103799244D01*
X174172727Y-103791116D01*
X174191184Y-103791846D01*
G36*
X174191184Y-103791846D02*
G01*
X174206372Y-103800017D01*
X174220416Y-103814212D01*
X174235443Y-103833011D01*
X174241371Y-103840948D01*
X174249357Y-103854920D01*
X174255454Y-103873327D01*
X174259916Y-103899827D01*
X174262997Y-103938083D01*
X174264951Y-103991755D01*
X174266033Y-104064503D01*
X174266495Y-104159988D01*
X174266593Y-104281872D01*
X174266562Y-104359797D01*
X174266272Y-104465091D01*
X174265461Y-104546227D01*
X174263875Y-104606866D01*
X174261262Y-104650669D01*
X174257366Y-104681296D01*
X174251933Y-104702409D01*
X174244710Y-104717667D01*
X174235443Y-104730733D01*
X174194931Y-104763209D01*
X174148410Y-104767042D01*
X174099175Y-104741626D01*
X174093605Y-104737000D01*
X174082720Y-104725646D01*
X174074651Y-104710268D01*
X174068816Y-104686526D01*
X174064633Y-104650084D01*
X174061521Y-104596604D01*
X174058897Y-104521747D01*
X174056179Y-104421177D01*
X174048664Y-104129435D01*
X173695469Y-104449814D01*
X173597169Y-104538718D01*
X173510391Y-104616091D01*
X173440902Y-104675946D01*
X173386217Y-104719777D01*
X173343854Y-104749077D01*
X173311332Y-104765340D01*
X173286166Y-104770060D01*
X173265875Y-104764731D01*
X173247976Y-104750846D01*
X173229987Y-104729899D01*
X173221672Y-104718605D01*
X173214174Y-104704523D01*
X173208568Y-104685673D01*
X173204638Y-104658443D01*
X173202168Y-104619221D01*
X173200944Y-104564394D01*
X173200751Y-104490348D01*
X173201373Y-104393471D01*
X173202594Y-104270150D01*
X173207007Y-103850835D01*
X173242489Y-103822123D01*
X173277191Y-103800566D01*
X173320937Y-103796877D01*
X173366910Y-103822110D01*
X173372651Y-103826882D01*
X173383478Y-103838238D01*
X173391505Y-103853671D01*
X173397310Y-103877510D01*
X173401474Y-103914084D01*
X173404576Y-103967722D01*
X173407193Y-104042754D01*
X173409906Y-104143508D01*
X173417421Y-104436207D01*
X173657895Y-104218138D01*
X173773374Y-104113448D01*
X173874253Y-104022392D01*
X173956979Y-103948702D01*
X174023678Y-103890960D01*
X174076476Y-103847749D01*
X174117499Y-103817649D01*
X174148874Y-103799244D01*
X174172727Y-103791116D01*
X174191184Y-103791846D01*
G37*
X167478208Y-103805940D02*
X167502119Y-103830585D01*
X167529546Y-103871966D01*
X167562607Y-103932790D01*
X167603420Y-104015763D01*
X167654104Y-104123594D01*
X167673587Y-104165376D01*
X167713193Y-104249496D01*
X167747935Y-104322196D01*
X167775886Y-104379507D01*
X167795120Y-104417455D01*
X167803711Y-104432069D01*
X167805520Y-104431296D01*
X167818823Y-104412727D01*
X167841844Y-104373401D01*
X167871928Y-104317994D01*
X167906422Y-104251180D01*
X167927687Y-104209258D01*
X167966230Y-104135562D01*
X167996170Y-104083617D01*
X168020422Y-104049697D01*
X168041898Y-104030079D01*
X168063512Y-104021040D01*
X168088177Y-104018854D01*
X168102160Y-104019487D01*
X168123616Y-104025088D01*
X168144005Y-104039552D01*
X168166103Y-104066542D01*
X168192689Y-104109725D01*
X168226540Y-104172765D01*
X168270434Y-104259328D01*
X168283392Y-104284963D01*
X168315954Y-104347096D01*
X168342895Y-104395241D01*
X168361710Y-104425049D01*
X168369897Y-104432168D01*
X168371717Y-104427813D01*
X168384198Y-104399975D01*
X168406646Y-104350796D01*
X168437156Y-104284426D01*
X168473823Y-104205014D01*
X168514742Y-104116707D01*
X168550309Y-104040525D01*
X168589749Y-103957995D01*
X168620465Y-103897100D01*
X168644401Y-103854442D01*
X168663502Y-103826625D01*
X168679713Y-103810253D01*
X168694978Y-103801931D01*
X168707506Y-103798080D01*
X168740930Y-103797882D01*
X168777067Y-103818308D01*
X168778798Y-103819620D01*
X168808200Y-103849756D01*
X168822909Y-103879345D01*
X168822971Y-103880197D01*
X168816926Y-103903711D01*
X168799799Y-103949731D01*
X168773493Y-104014096D01*
X168739910Y-104092645D01*
X168700952Y-104181221D01*
X168658522Y-104275661D01*
X168614522Y-104371807D01*
X168570854Y-104465499D01*
X168529420Y-104552576D01*
X168492123Y-104628880D01*
X168460864Y-104690249D01*
X168437546Y-104732525D01*
X168424071Y-104751547D01*
X168378262Y-104769345D01*
X168322748Y-104760876D01*
X168315606Y-104754622D01*
X168294532Y-104725131D01*
X168264973Y-104676190D01*
X168229803Y-104612661D01*
X168191894Y-104539407D01*
X168085686Y-104327397D01*
X167988248Y-104522563D01*
X167975340Y-104548246D01*
X167939421Y-104617940D01*
X167907431Y-104677571D01*
X167882449Y-104721486D01*
X167867556Y-104744032D01*
X167866030Y-104745687D01*
X167828591Y-104766039D01*
X167781911Y-104768280D01*
X167740584Y-104751547D01*
X167737354Y-104747754D01*
X167721031Y-104720294D01*
X167694754Y-104670300D01*
X167660266Y-104601298D01*
X167619310Y-104516814D01*
X167573630Y-104420373D01*
X167524969Y-104315503D01*
X167498022Y-104256759D01*
X167449064Y-104149281D01*
X167411178Y-104064502D01*
X167383187Y-103999353D01*
X167363912Y-103950764D01*
X167352178Y-103915667D01*
X167346805Y-103890992D01*
X167346616Y-103873672D01*
X167350434Y-103860636D01*
X167369948Y-103832834D01*
X167405366Y-103805806D01*
X167406372Y-103805350D01*
X167432453Y-103796030D01*
X167455692Y-103795324D01*
X167478208Y-103805940D01*
G36*
X167478208Y-103805940D02*
G01*
X167502119Y-103830585D01*
X167529546Y-103871966D01*
X167562607Y-103932790D01*
X167603420Y-104015763D01*
X167654104Y-104123594D01*
X167673587Y-104165376D01*
X167713193Y-104249496D01*
X167747935Y-104322196D01*
X167775886Y-104379507D01*
X167795120Y-104417455D01*
X167803711Y-104432069D01*
X167805520Y-104431296D01*
X167818823Y-104412727D01*
X167841844Y-104373401D01*
X167871928Y-104317994D01*
X167906422Y-104251180D01*
X167927687Y-104209258D01*
X167966230Y-104135562D01*
X167996170Y-104083617D01*
X168020422Y-104049697D01*
X168041898Y-104030079D01*
X168063512Y-104021040D01*
X168088177Y-104018854D01*
X168102160Y-104019487D01*
X168123616Y-104025088D01*
X168144005Y-104039552D01*
X168166103Y-104066542D01*
X168192689Y-104109725D01*
X168226540Y-104172765D01*
X168270434Y-104259328D01*
X168283392Y-104284963D01*
X168315954Y-104347096D01*
X168342895Y-104395241D01*
X168361710Y-104425049D01*
X168369897Y-104432168D01*
X168371717Y-104427813D01*
X168384198Y-104399975D01*
X168406646Y-104350796D01*
X168437156Y-104284426D01*
X168473823Y-104205014D01*
X168514742Y-104116707D01*
X168550309Y-104040525D01*
X168589749Y-103957995D01*
X168620465Y-103897100D01*
X168644401Y-103854442D01*
X168663502Y-103826625D01*
X168679713Y-103810253D01*
X168694978Y-103801931D01*
X168707506Y-103798080D01*
X168740930Y-103797882D01*
X168777067Y-103818308D01*
X168778798Y-103819620D01*
X168808200Y-103849756D01*
X168822909Y-103879345D01*
X168822971Y-103880197D01*
X168816926Y-103903711D01*
X168799799Y-103949731D01*
X168773493Y-104014096D01*
X168739910Y-104092645D01*
X168700952Y-104181221D01*
X168658522Y-104275661D01*
X168614522Y-104371807D01*
X168570854Y-104465499D01*
X168529420Y-104552576D01*
X168492123Y-104628880D01*
X168460864Y-104690249D01*
X168437546Y-104732525D01*
X168424071Y-104751547D01*
X168378262Y-104769345D01*
X168322748Y-104760876D01*
X168315606Y-104754622D01*
X168294532Y-104725131D01*
X168264973Y-104676190D01*
X168229803Y-104612661D01*
X168191894Y-104539407D01*
X168085686Y-104327397D01*
X167988248Y-104522563D01*
X167975340Y-104548246D01*
X167939421Y-104617940D01*
X167907431Y-104677571D01*
X167882449Y-104721486D01*
X167867556Y-104744032D01*
X167866030Y-104745687D01*
X167828591Y-104766039D01*
X167781911Y-104768280D01*
X167740584Y-104751547D01*
X167737354Y-104747754D01*
X167721031Y-104720294D01*
X167694754Y-104670300D01*
X167660266Y-104601298D01*
X167619310Y-104516814D01*
X167573630Y-104420373D01*
X167524969Y-104315503D01*
X167498022Y-104256759D01*
X167449064Y-104149281D01*
X167411178Y-104064502D01*
X167383187Y-103999353D01*
X167363912Y-103950764D01*
X167352178Y-103915667D01*
X167346805Y-103890992D01*
X167346616Y-103873672D01*
X167350434Y-103860636D01*
X167369948Y-103832834D01*
X167405366Y-103805806D01*
X167406372Y-103805350D01*
X167432453Y-103796030D01*
X167455692Y-103795324D01*
X167478208Y-103805940D01*
G37*
X165968531Y-103793412D02*
X166093843Y-103793532D01*
X166193048Y-103793984D01*
X166269478Y-103794972D01*
X166326459Y-103796697D01*
X166367323Y-103799361D01*
X166395397Y-103803169D01*
X166414012Y-103808321D01*
X166426496Y-103815020D01*
X166436179Y-103823470D01*
X166461216Y-103867029D01*
X166463142Y-103917057D01*
X166441364Y-103961310D01*
X166439553Y-103963245D01*
X166424638Y-103974376D01*
X166401868Y-103981771D01*
X166365696Y-103986157D01*
X166310573Y-103988256D01*
X166230950Y-103988795D01*
X166045409Y-103988795D01*
X166045409Y-104339963D01*
X166045309Y-104440918D01*
X166044766Y-104529674D01*
X166043458Y-104595955D01*
X166041067Y-104643773D01*
X166037271Y-104677146D01*
X166031752Y-104700086D01*
X166024188Y-104716610D01*
X166014259Y-104730733D01*
X166011210Y-104734469D01*
X165969700Y-104764614D01*
X165923929Y-104766696D01*
X165880084Y-104740274D01*
X165870793Y-104729523D01*
X165863508Y-104715412D01*
X165858156Y-104694319D01*
X165854440Y-104662398D01*
X165852064Y-104615802D01*
X165850734Y-104550685D01*
X165850153Y-104463201D01*
X165850025Y-104349505D01*
X165850025Y-103988795D01*
X165655731Y-103988795D01*
X165640953Y-103988794D01*
X165565708Y-103988494D01*
X165513992Y-103986977D01*
X165480185Y-103983250D01*
X165458668Y-103976318D01*
X165443821Y-103965186D01*
X165430024Y-103948860D01*
X165408926Y-103908003D01*
X165413056Y-103863029D01*
X165447197Y-103819712D01*
X165453775Y-103814763D01*
X165467369Y-103808325D01*
X165487906Y-103803314D01*
X165518689Y-103799557D01*
X165563020Y-103796876D01*
X165624201Y-103795096D01*
X165705535Y-103794043D01*
X165810323Y-103793539D01*
X165941867Y-103793410D01*
X165968531Y-103793412D01*
G36*
X165968531Y-103793412D02*
G01*
X166093843Y-103793532D01*
X166193048Y-103793984D01*
X166269478Y-103794972D01*
X166326459Y-103796697D01*
X166367323Y-103799361D01*
X166395397Y-103803169D01*
X166414012Y-103808321D01*
X166426496Y-103815020D01*
X166436179Y-103823470D01*
X166461216Y-103867029D01*
X166463142Y-103917057D01*
X166441364Y-103961310D01*
X166439553Y-103963245D01*
X166424638Y-103974376D01*
X166401868Y-103981771D01*
X166365696Y-103986157D01*
X166310573Y-103988256D01*
X166230950Y-103988795D01*
X166045409Y-103988795D01*
X166045409Y-104339963D01*
X166045309Y-104440918D01*
X166044766Y-104529674D01*
X166043458Y-104595955D01*
X166041067Y-104643773D01*
X166037271Y-104677146D01*
X166031752Y-104700086D01*
X166024188Y-104716610D01*
X166014259Y-104730733D01*
X166011210Y-104734469D01*
X165969700Y-104764614D01*
X165923929Y-104766696D01*
X165880084Y-104740274D01*
X165870793Y-104729523D01*
X165863508Y-104715412D01*
X165858156Y-104694319D01*
X165854440Y-104662398D01*
X165852064Y-104615802D01*
X165850734Y-104550685D01*
X165850153Y-104463201D01*
X165850025Y-104349505D01*
X165850025Y-103988795D01*
X165655731Y-103988795D01*
X165640953Y-103988794D01*
X165565708Y-103988494D01*
X165513992Y-103986977D01*
X165480185Y-103983250D01*
X165458668Y-103976318D01*
X165443821Y-103965186D01*
X165430024Y-103948860D01*
X165408926Y-103908003D01*
X165413056Y-103863029D01*
X165447197Y-103819712D01*
X165453775Y-103814763D01*
X165467369Y-103808325D01*
X165487906Y-103803314D01*
X165518689Y-103799557D01*
X165563020Y-103796876D01*
X165624201Y-103795096D01*
X165705535Y-103794043D01*
X165810323Y-103793539D01*
X165941867Y-103793410D01*
X165968531Y-103793412D01*
G37*
X175252621Y-103800217D02*
X175393754Y-103821938D01*
X175518652Y-103859285D01*
X175623557Y-103911083D01*
X175704709Y-103976162D01*
X175739418Y-104019913D01*
X175778703Y-104085414D01*
X175812349Y-104157119D01*
X175835847Y-104225241D01*
X175844688Y-104279993D01*
X175842611Y-104306241D01*
X175825381Y-104374583D01*
X175794543Y-104449840D01*
X175754746Y-104521622D01*
X175710640Y-104579542D01*
X175697065Y-104593319D01*
X175607750Y-104662250D01*
X175501074Y-104715362D01*
X175386297Y-104747849D01*
X175313120Y-104758649D01*
X175188700Y-104767442D01*
X175069170Y-104764663D01*
X174959346Y-104751023D01*
X174864044Y-104727232D01*
X174788079Y-104693998D01*
X174736267Y-104652033D01*
X174734436Y-104649403D01*
X174725000Y-104615818D01*
X174719356Y-104552910D01*
X174717480Y-104460428D01*
X174718625Y-104377574D01*
X174724909Y-104314491D01*
X174740472Y-104271750D01*
X174769455Y-104245719D01*
X174815998Y-104232764D01*
X174884241Y-104229253D01*
X174978324Y-104231554D01*
X175043055Y-104235564D01*
X175109884Y-104246471D01*
X175153145Y-104265181D01*
X175176389Y-104293453D01*
X175183167Y-104333048D01*
X175183026Y-104339094D01*
X175171440Y-104385417D01*
X175139475Y-104416594D01*
X175084536Y-104434168D01*
X175004031Y-104439683D01*
X174912865Y-104439683D01*
X174912865Y-104490743D01*
X174912932Y-104502906D01*
X174915888Y-104525873D01*
X174928226Y-104539578D01*
X174956692Y-104548814D01*
X175008031Y-104558376D01*
X175015319Y-104559620D01*
X175144395Y-104572805D01*
X175264206Y-104568918D01*
X175371924Y-104549307D01*
X175464718Y-104515317D01*
X175539760Y-104468293D01*
X175594220Y-104409581D01*
X175625270Y-104340527D01*
X175630079Y-104262478D01*
X175622732Y-104224008D01*
X175587207Y-104149599D01*
X175525713Y-104088810D01*
X175439199Y-104042431D01*
X175328614Y-104011252D01*
X175295763Y-104005329D01*
X175176834Y-103991351D01*
X175070582Y-103992987D01*
X174966613Y-104010209D01*
X174919824Y-104019248D01*
X174859330Y-104020603D01*
X174817639Y-104003919D01*
X174790807Y-103968256D01*
X174782308Y-103930649D01*
X174794938Y-103889078D01*
X174807358Y-103871204D01*
X174852936Y-103839875D01*
X174922995Y-103816082D01*
X175014216Y-103800776D01*
X175123279Y-103794909D01*
X175252621Y-103800217D01*
G36*
X175252621Y-103800217D02*
G01*
X175393754Y-103821938D01*
X175518652Y-103859285D01*
X175623557Y-103911083D01*
X175704709Y-103976162D01*
X175739418Y-104019913D01*
X175778703Y-104085414D01*
X175812349Y-104157119D01*
X175835847Y-104225241D01*
X175844688Y-104279993D01*
X175842611Y-104306241D01*
X175825381Y-104374583D01*
X175794543Y-104449840D01*
X175754746Y-104521622D01*
X175710640Y-104579542D01*
X175697065Y-104593319D01*
X175607750Y-104662250D01*
X175501074Y-104715362D01*
X175386297Y-104747849D01*
X175313120Y-104758649D01*
X175188700Y-104767442D01*
X175069170Y-104764663D01*
X174959346Y-104751023D01*
X174864044Y-104727232D01*
X174788079Y-104693998D01*
X174736267Y-104652033D01*
X174734436Y-104649403D01*
X174725000Y-104615818D01*
X174719356Y-104552910D01*
X174717480Y-104460428D01*
X174718625Y-104377574D01*
X174724909Y-104314491D01*
X174740472Y-104271750D01*
X174769455Y-104245719D01*
X174815998Y-104232764D01*
X174884241Y-104229253D01*
X174978324Y-104231554D01*
X175043055Y-104235564D01*
X175109884Y-104246471D01*
X175153145Y-104265181D01*
X175176389Y-104293453D01*
X175183167Y-104333048D01*
X175183026Y-104339094D01*
X175171440Y-104385417D01*
X175139475Y-104416594D01*
X175084536Y-104434168D01*
X175004031Y-104439683D01*
X174912865Y-104439683D01*
X174912865Y-104490743D01*
X174912932Y-104502906D01*
X174915888Y-104525873D01*
X174928226Y-104539578D01*
X174956692Y-104548814D01*
X175008031Y-104558376D01*
X175015319Y-104559620D01*
X175144395Y-104572805D01*
X175264206Y-104568918D01*
X175371924Y-104549307D01*
X175464718Y-104515317D01*
X175539760Y-104468293D01*
X175594220Y-104409581D01*
X175625270Y-104340527D01*
X175630079Y-104262478D01*
X175622732Y-104224008D01*
X175587207Y-104149599D01*
X175525713Y-104088810D01*
X175439199Y-104042431D01*
X175328614Y-104011252D01*
X175295763Y-104005329D01*
X175176834Y-103991351D01*
X175070582Y-103992987D01*
X174966613Y-104010209D01*
X174919824Y-104019248D01*
X174859330Y-104020603D01*
X174817639Y-104003919D01*
X174790807Y-103968256D01*
X174782308Y-103930649D01*
X174794938Y-103889078D01*
X174807358Y-103871204D01*
X174852936Y-103839875D01*
X174922995Y-103816082D01*
X175014216Y-103800776D01*
X175123279Y-103794909D01*
X175252621Y-103800217D01*
G37*
X177531515Y-103794568D02*
X177619713Y-103801797D01*
X177693338Y-103814576D01*
X177761081Y-103834361D01*
X177856024Y-103878472D01*
X177924132Y-103935298D01*
X177965169Y-104004615D01*
X177978901Y-104086199D01*
X177977653Y-104127802D01*
X177969941Y-104160816D01*
X177950227Y-104189666D01*
X177912986Y-104226080D01*
X177902364Y-104235837D01*
X177870798Y-104263666D01*
X177840984Y-104286260D01*
X177808986Y-104304837D01*
X177770872Y-104320615D01*
X177722708Y-104334812D01*
X177660560Y-104348647D01*
X177580494Y-104363338D01*
X177478576Y-104380103D01*
X177350874Y-104400161D01*
X177326425Y-104404200D01*
X177243442Y-104422334D01*
X177183241Y-104443281D01*
X177148247Y-104466009D01*
X177140886Y-104489487D01*
X177144375Y-104495172D01*
X177168250Y-104515229D01*
X177205695Y-104537375D01*
X177222736Y-104545351D01*
X177251092Y-104554927D01*
X177286221Y-104561287D01*
X177333943Y-104565040D01*
X177400076Y-104566794D01*
X177490439Y-104567158D01*
X177514117Y-104567061D01*
X177604145Y-104565582D01*
X177690602Y-104562619D01*
X177764659Y-104558537D01*
X177817489Y-104553698D01*
X177864767Y-104548282D01*
X177903712Y-104547240D01*
X177928876Y-104553363D01*
X177948998Y-104567576D01*
X177953866Y-104572359D01*
X177975623Y-104614662D01*
X177973865Y-104662130D01*
X177948627Y-104702895D01*
X177921506Y-104718346D01*
X177873599Y-104735248D01*
X177817118Y-104748628D01*
X177812524Y-104749425D01*
X177755716Y-104756370D01*
X177679313Y-104762193D01*
X177592752Y-104766304D01*
X177505469Y-104768113D01*
X177483857Y-104768169D01*
X177352968Y-104764870D01*
X177246390Y-104754211D01*
X177159612Y-104734864D01*
X177088124Y-104705502D01*
X177027413Y-104664798D01*
X176972969Y-104611424D01*
X176946181Y-104576507D01*
X176930702Y-104537169D01*
X176926830Y-104484292D01*
X176927017Y-104468357D01*
X176932173Y-104424846D01*
X176948662Y-104389531D01*
X176982165Y-104348460D01*
X177010406Y-104318984D01*
X177045549Y-104288967D01*
X177085113Y-104264513D01*
X177133347Y-104244202D01*
X177194500Y-104226612D01*
X177272819Y-104210323D01*
X177372554Y-104193913D01*
X177497954Y-104175962D01*
X177558280Y-104166630D01*
X177648752Y-104147246D01*
X177714169Y-104125280D01*
X177753534Y-104101451D01*
X177765850Y-104076482D01*
X177750118Y-104051093D01*
X177705342Y-104026005D01*
X177701287Y-104024389D01*
X177639566Y-104008309D01*
X177556156Y-103997391D01*
X177458389Y-103991852D01*
X177353598Y-103991909D01*
X177249115Y-103997778D01*
X177152273Y-104009675D01*
X177147045Y-104010539D01*
X177082053Y-104020800D01*
X177039114Y-104025608D01*
X177011159Y-104024813D01*
X176991117Y-104018261D01*
X176971918Y-104005801D01*
X176970361Y-104004642D01*
X176937720Y-103964204D01*
X176931338Y-103916939D01*
X176952383Y-103870899D01*
X176958435Y-103864966D01*
X176997862Y-103844810D01*
X177060412Y-103827338D01*
X177140698Y-103812959D01*
X177233337Y-103802084D01*
X177332942Y-103795121D01*
X177434130Y-103792479D01*
X177531515Y-103794568D01*
G36*
X177531515Y-103794568D02*
G01*
X177619713Y-103801797D01*
X177693338Y-103814576D01*
X177761081Y-103834361D01*
X177856024Y-103878472D01*
X177924132Y-103935298D01*
X177965169Y-104004615D01*
X177978901Y-104086199D01*
X177977653Y-104127802D01*
X177969941Y-104160816D01*
X177950227Y-104189666D01*
X177912986Y-104226080D01*
X177902364Y-104235837D01*
X177870798Y-104263666D01*
X177840984Y-104286260D01*
X177808986Y-104304837D01*
X177770872Y-104320615D01*
X177722708Y-104334812D01*
X177660560Y-104348647D01*
X177580494Y-104363338D01*
X177478576Y-104380103D01*
X177350874Y-104400161D01*
X177326425Y-104404200D01*
X177243442Y-104422334D01*
X177183241Y-104443281D01*
X177148247Y-104466009D01*
X177140886Y-104489487D01*
X177144375Y-104495172D01*
X177168250Y-104515229D01*
X177205695Y-104537375D01*
X177222736Y-104545351D01*
X177251092Y-104554927D01*
X177286221Y-104561287D01*
X177333943Y-104565040D01*
X177400076Y-104566794D01*
X177490439Y-104567158D01*
X177514117Y-104567061D01*
X177604145Y-104565582D01*
X177690602Y-104562619D01*
X177764659Y-104558537D01*
X177817489Y-104553698D01*
X177864767Y-104548282D01*
X177903712Y-104547240D01*
X177928876Y-104553363D01*
X177948998Y-104567576D01*
X177953866Y-104572359D01*
X177975623Y-104614662D01*
X177973865Y-104662130D01*
X177948627Y-104702895D01*
X177921506Y-104718346D01*
X177873599Y-104735248D01*
X177817118Y-104748628D01*
X177812524Y-104749425D01*
X177755716Y-104756370D01*
X177679313Y-104762193D01*
X177592752Y-104766304D01*
X177505469Y-104768113D01*
X177483857Y-104768169D01*
X177352968Y-104764870D01*
X177246390Y-104754211D01*
X177159612Y-104734864D01*
X177088124Y-104705502D01*
X177027413Y-104664798D01*
X176972969Y-104611424D01*
X176946181Y-104576507D01*
X176930702Y-104537169D01*
X176926830Y-104484292D01*
X176927017Y-104468357D01*
X176932173Y-104424846D01*
X176948662Y-104389531D01*
X176982165Y-104348460D01*
X177010406Y-104318984D01*
X177045549Y-104288967D01*
X177085113Y-104264513D01*
X177133347Y-104244202D01*
X177194500Y-104226612D01*
X177272819Y-104210323D01*
X177372554Y-104193913D01*
X177497954Y-104175962D01*
X177558280Y-104166630D01*
X177648752Y-104147246D01*
X177714169Y-104125280D01*
X177753534Y-104101451D01*
X177765850Y-104076482D01*
X177750118Y-104051093D01*
X177705342Y-104026005D01*
X177701287Y-104024389D01*
X177639566Y-104008309D01*
X177556156Y-103997391D01*
X177458389Y-103991852D01*
X177353598Y-103991909D01*
X177249115Y-103997778D01*
X177152273Y-104009675D01*
X177147045Y-104010539D01*
X177082053Y-104020800D01*
X177039114Y-104025608D01*
X177011159Y-104024813D01*
X176991117Y-104018261D01*
X176971918Y-104005801D01*
X176970361Y-104004642D01*
X176937720Y-103964204D01*
X176931338Y-103916939D01*
X176952383Y-103870899D01*
X176958435Y-103864966D01*
X176997862Y-103844810D01*
X177060412Y-103827338D01*
X177140698Y-103812959D01*
X177233337Y-103802084D01*
X177332942Y-103795121D01*
X177434130Y-103792479D01*
X177531515Y-103794568D01*
G37*
X176479337Y-95257839D02*
X176618779Y-95292005D01*
X176750955Y-95353325D01*
X176871699Y-95441810D01*
X176976846Y-95557470D01*
X177062230Y-95700313D01*
X177085121Y-95750633D01*
X177103666Y-95801636D01*
X177114072Y-95852624D01*
X177118633Y-95915691D01*
X177119643Y-96002929D01*
X177119032Y-96075539D01*
X177115350Y-96142270D01*
X177106322Y-96194334D01*
X177089694Y-96243686D01*
X177063212Y-96302286D01*
X177055552Y-96317902D01*
X176965006Y-96460893D01*
X176851125Y-96578543D01*
X176717141Y-96668089D01*
X176566286Y-96726772D01*
X176488881Y-96743147D01*
X176331849Y-96750810D01*
X176179753Y-96726016D01*
X176037054Y-96671306D01*
X175908212Y-96589223D01*
X175797686Y-96482309D01*
X175709936Y-96353107D01*
X175649423Y-96204158D01*
X175627283Y-96082265D01*
X175625288Y-95947751D01*
X175643295Y-95816908D01*
X175680446Y-95703572D01*
X175723372Y-95622543D01*
X175818933Y-95493987D01*
X175932221Y-95392527D01*
X176059071Y-95318172D01*
X176195318Y-95270933D01*
X176336795Y-95250818D01*
X176479337Y-95257839D01*
G36*
X176479337Y-95257839D02*
G01*
X176618779Y-95292005D01*
X176750955Y-95353325D01*
X176871699Y-95441810D01*
X176976846Y-95557470D01*
X177062230Y-95700313D01*
X177085121Y-95750633D01*
X177103666Y-95801636D01*
X177114072Y-95852624D01*
X177118633Y-95915691D01*
X177119643Y-96002929D01*
X177119032Y-96075539D01*
X177115350Y-96142270D01*
X177106322Y-96194334D01*
X177089694Y-96243686D01*
X177063212Y-96302286D01*
X177055552Y-96317902D01*
X176965006Y-96460893D01*
X176851125Y-96578543D01*
X176717141Y-96668089D01*
X176566286Y-96726772D01*
X176488881Y-96743147D01*
X176331849Y-96750810D01*
X176179753Y-96726016D01*
X176037054Y-96671306D01*
X175908212Y-96589223D01*
X175797686Y-96482309D01*
X175709936Y-96353107D01*
X175649423Y-96204158D01*
X175627283Y-96082265D01*
X175625288Y-95947751D01*
X175643295Y-95816908D01*
X175680446Y-95703572D01*
X175723372Y-95622543D01*
X175818933Y-95493987D01*
X175932221Y-95392527D01*
X176059071Y-95318172D01*
X176195318Y-95270933D01*
X176336795Y-95250818D01*
X176479337Y-95257839D01*
G37*
X165068486Y-103823470D02*
X165075985Y-103831711D01*
X165082762Y-103842636D01*
X165088202Y-103858315D01*
X165092434Y-103881559D01*
X165095584Y-103915181D01*
X165097782Y-103961992D01*
X165099155Y-104024803D01*
X165099832Y-104106427D01*
X165099940Y-104209674D01*
X165099608Y-104337357D01*
X165098964Y-104492286D01*
X165098872Y-104511158D01*
X165098092Y-104593386D01*
X165096331Y-104651544D01*
X165092942Y-104690660D01*
X165087277Y-104715761D01*
X165078688Y-104731876D01*
X165066527Y-104744032D01*
X165021983Y-104767220D01*
X164975454Y-104763357D01*
X164934311Y-104730733D01*
X164922316Y-104713155D01*
X164912396Y-104688477D01*
X164906581Y-104653824D01*
X164903845Y-104602505D01*
X164903161Y-104527833D01*
X164903161Y-104364535D01*
X164241859Y-104364535D01*
X164241859Y-104544038D01*
X164241762Y-104591688D01*
X164240747Y-104653370D01*
X164237849Y-104694022D01*
X164232128Y-104719358D01*
X164222644Y-104735092D01*
X164208456Y-104746937D01*
X164165518Y-104767000D01*
X164118539Y-104763449D01*
X164077625Y-104730733D01*
X164071426Y-104722405D01*
X164063524Y-104708394D01*
X164057491Y-104689848D01*
X164053077Y-104663123D01*
X164050029Y-104624570D01*
X164048097Y-104570544D01*
X164047028Y-104497398D01*
X164046571Y-104401486D01*
X164046475Y-104279162D01*
X164046475Y-103867192D01*
X164083365Y-103830301D01*
X164125141Y-103800688D01*
X164169381Y-103797107D01*
X164211800Y-103823470D01*
X164222831Y-103836478D01*
X164232699Y-103857636D01*
X164238474Y-103889545D01*
X164241184Y-103938636D01*
X164241859Y-104011339D01*
X164241859Y-104169150D01*
X164903161Y-104169150D01*
X164903161Y-104015360D01*
X164903744Y-103946533D01*
X164906359Y-103900568D01*
X164912371Y-103870511D01*
X164923147Y-103849407D01*
X164940052Y-103830301D01*
X164981828Y-103800688D01*
X165026067Y-103797107D01*
X165068486Y-103823470D01*
G36*
X165068486Y-103823470D02*
G01*
X165075985Y-103831711D01*
X165082762Y-103842636D01*
X165088202Y-103858315D01*
X165092434Y-103881559D01*
X165095584Y-103915181D01*
X165097782Y-103961992D01*
X165099155Y-104024803D01*
X165099832Y-104106427D01*
X165099940Y-104209674D01*
X165099608Y-104337357D01*
X165098964Y-104492286D01*
X165098872Y-104511158D01*
X165098092Y-104593386D01*
X165096331Y-104651544D01*
X165092942Y-104690660D01*
X165087277Y-104715761D01*
X165078688Y-104731876D01*
X165066527Y-104744032D01*
X165021983Y-104767220D01*
X164975454Y-104763357D01*
X164934311Y-104730733D01*
X164922316Y-104713155D01*
X164912396Y-104688477D01*
X164906581Y-104653824D01*
X164903845Y-104602505D01*
X164903161Y-104527833D01*
X164903161Y-104364535D01*
X164241859Y-104364535D01*
X164241859Y-104544038D01*
X164241762Y-104591688D01*
X164240747Y-104653370D01*
X164237849Y-104694022D01*
X164232128Y-104719358D01*
X164222644Y-104735092D01*
X164208456Y-104746937D01*
X164165518Y-104767000D01*
X164118539Y-104763449D01*
X164077625Y-104730733D01*
X164071426Y-104722405D01*
X164063524Y-104708394D01*
X164057491Y-104689848D01*
X164053077Y-104663123D01*
X164050029Y-104624570D01*
X164048097Y-104570544D01*
X164047028Y-104497398D01*
X164046571Y-104401486D01*
X164046475Y-104279162D01*
X164046475Y-103867192D01*
X164083365Y-103830301D01*
X164125141Y-103800688D01*
X164169381Y-103797107D01*
X164211800Y-103823470D01*
X164222831Y-103836478D01*
X164232699Y-103857636D01*
X164238474Y-103889545D01*
X164241184Y-103938636D01*
X164241859Y-104011339D01*
X164241859Y-104169150D01*
X164903161Y-104169150D01*
X164903161Y-104015360D01*
X164903744Y-103946533D01*
X164906359Y-103900568D01*
X164912371Y-103870511D01*
X164923147Y-103849407D01*
X164940052Y-103830301D01*
X164981828Y-103800688D01*
X165026067Y-103797107D01*
X165068486Y-103823470D01*
G37*
X178884020Y-103793432D02*
X178986663Y-103793688D01*
X179065142Y-103794466D01*
X179123172Y-103796052D01*
X179164469Y-103798732D01*
X179192750Y-103802790D01*
X179211732Y-103808512D01*
X179225129Y-103816183D01*
X179236660Y-103826090D01*
X179239036Y-103828327D01*
X179248680Y-103838364D01*
X179256191Y-103850370D01*
X179261837Y-103867857D01*
X179265883Y-103894334D01*
X179268596Y-103933315D01*
X179270242Y-103988310D01*
X179271088Y-104062830D01*
X179271400Y-104160387D01*
X179271445Y-104284492D01*
X179271396Y-104381401D01*
X179271065Y-104485481D01*
X179270218Y-104565648D01*
X179268624Y-104625398D01*
X179266053Y-104668228D01*
X179262275Y-104697634D01*
X179257058Y-104717112D01*
X179250171Y-104730160D01*
X179241386Y-104740274D01*
X179236947Y-104744504D01*
X179225601Y-104752640D01*
X179209622Y-104758863D01*
X179185377Y-104763430D01*
X179149235Y-104766595D01*
X179097563Y-104768613D01*
X179026728Y-104769739D01*
X178933098Y-104770227D01*
X178813043Y-104770334D01*
X178756981Y-104770318D01*
X178648945Y-104770075D01*
X178565745Y-104769339D01*
X178503749Y-104767854D01*
X178459325Y-104765365D01*
X178428840Y-104761618D01*
X178408662Y-104756357D01*
X178395159Y-104749327D01*
X178384699Y-104740274D01*
X178365093Y-104711518D01*
X178354640Y-104672641D01*
X178361961Y-104640813D01*
X178384699Y-104605008D01*
X178391328Y-104598873D01*
X178404342Y-104590503D01*
X178423135Y-104584345D01*
X178451753Y-104580063D01*
X178494243Y-104577320D01*
X178554651Y-104575778D01*
X178637024Y-104575100D01*
X178745409Y-104574949D01*
X179076060Y-104574949D01*
X179076060Y-104364535D01*
X178861475Y-104364535D01*
X178813789Y-104364341D01*
X178726420Y-104362048D01*
X178663525Y-104356143D01*
X178621274Y-104345353D01*
X178595837Y-104328404D01*
X178583384Y-104304021D01*
X178580084Y-104270931D01*
X178581146Y-104243963D01*
X178588138Y-104214905D01*
X178605171Y-104194467D01*
X178636245Y-104181159D01*
X178685357Y-104173496D01*
X178756508Y-104169989D01*
X178853696Y-104169150D01*
X179077560Y-104169150D01*
X179068546Y-103996310D01*
X178738745Y-103992251D01*
X178655414Y-103991081D01*
X178564268Y-103989158D01*
X178496496Y-103986588D01*
X178448230Y-103983059D01*
X178415602Y-103978261D01*
X178394746Y-103971885D01*
X178381793Y-103963620D01*
X178373784Y-103955095D01*
X178356465Y-103912916D01*
X178361205Y-103865404D01*
X178387533Y-103824055D01*
X178391863Y-103820163D01*
X178403818Y-103811707D01*
X178419932Y-103805247D01*
X178443905Y-103800515D01*
X178479437Y-103797244D01*
X178530227Y-103795165D01*
X178599976Y-103794012D01*
X178692384Y-103793516D01*
X178811150Y-103793410D01*
X178884020Y-103793432D01*
G36*
X178884020Y-103793432D02*
G01*
X178986663Y-103793688D01*
X179065142Y-103794466D01*
X179123172Y-103796052D01*
X179164469Y-103798732D01*
X179192750Y-103802790D01*
X179211732Y-103808512D01*
X179225129Y-103816183D01*
X179236660Y-103826090D01*
X179239036Y-103828327D01*
X179248680Y-103838364D01*
X179256191Y-103850370D01*
X179261837Y-103867857D01*
X179265883Y-103894334D01*
X179268596Y-103933315D01*
X179270242Y-103988310D01*
X179271088Y-104062830D01*
X179271400Y-104160387D01*
X179271445Y-104284492D01*
X179271396Y-104381401D01*
X179271065Y-104485481D01*
X179270218Y-104565648D01*
X179268624Y-104625398D01*
X179266053Y-104668228D01*
X179262275Y-104697634D01*
X179257058Y-104717112D01*
X179250171Y-104730160D01*
X179241386Y-104740274D01*
X179236947Y-104744504D01*
X179225601Y-104752640D01*
X179209622Y-104758863D01*
X179185377Y-104763430D01*
X179149235Y-104766595D01*
X179097563Y-104768613D01*
X179026728Y-104769739D01*
X178933098Y-104770227D01*
X178813043Y-104770334D01*
X178756981Y-104770318D01*
X178648945Y-104770075D01*
X178565745Y-104769339D01*
X178503749Y-104767854D01*
X178459325Y-104765365D01*
X178428840Y-104761618D01*
X178408662Y-104756357D01*
X178395159Y-104749327D01*
X178384699Y-104740274D01*
X178365093Y-104711518D01*
X178354640Y-104672641D01*
X178361961Y-104640813D01*
X178384699Y-104605008D01*
X178391328Y-104598873D01*
X178404342Y-104590503D01*
X178423135Y-104584345D01*
X178451753Y-104580063D01*
X178494243Y-104577320D01*
X178554651Y-104575778D01*
X178637024Y-104575100D01*
X178745409Y-104574949D01*
X179076060Y-104574949D01*
X179076060Y-104364535D01*
X178861475Y-104364535D01*
X178813789Y-104364341D01*
X178726420Y-104362048D01*
X178663525Y-104356143D01*
X178621274Y-104345353D01*
X178595837Y-104328404D01*
X178583384Y-104304021D01*
X178580084Y-104270931D01*
X178581146Y-104243963D01*
X178588138Y-104214905D01*
X178605171Y-104194467D01*
X178636245Y-104181159D01*
X178685357Y-104173496D01*
X178756508Y-104169989D01*
X178853696Y-104169150D01*
X179077560Y-104169150D01*
X179068546Y-103996310D01*
X178738745Y-103992251D01*
X178655414Y-103991081D01*
X178564268Y-103989158D01*
X178496496Y-103986588D01*
X178448230Y-103983059D01*
X178415602Y-103978261D01*
X178394746Y-103971885D01*
X178381793Y-103963620D01*
X178373784Y-103955095D01*
X178356465Y-103912916D01*
X178361205Y-103865404D01*
X178387533Y-103824055D01*
X178391863Y-103820163D01*
X178403818Y-103811707D01*
X178419932Y-103805247D01*
X178443905Y-103800515D01*
X178479437Y-103797244D01*
X178530227Y-103795165D01*
X178599976Y-103794012D01*
X178692384Y-103793516D01*
X178811150Y-103793410D01*
X178884020Y-103793432D01*
G37*
X182712428Y-102397860D02*
X182710560Y-102538553D01*
X182708241Y-102659746D01*
X182705425Y-102762940D01*
X182702064Y-102849635D01*
X182698110Y-102921332D01*
X182693517Y-102979530D01*
X182688238Y-103025730D01*
X182682225Y-103061433D01*
X182675430Y-103088137D01*
X182667808Y-103107345D01*
X182659309Y-103120555D01*
X182649889Y-103129268D01*
X182639498Y-103134985D01*
X182628090Y-103139206D01*
X182615618Y-103143430D01*
X182602034Y-103149159D01*
X182594391Y-103152030D01*
X182580371Y-103155165D01*
X182559538Y-103158037D01*
X182530421Y-103160659D01*
X182491544Y-103163040D01*
X182441434Y-103165194D01*
X182378617Y-103167130D01*
X182301620Y-103168862D01*
X182208969Y-103170400D01*
X182099190Y-103171756D01*
X181970810Y-103172941D01*
X181822354Y-103173968D01*
X181652350Y-103174846D01*
X181459323Y-103175589D01*
X181241800Y-103176207D01*
X180998308Y-103176713D01*
X180727371Y-103177116D01*
X180427517Y-103177430D01*
X180097273Y-103177665D01*
X179735164Y-103177834D01*
X179339716Y-103177947D01*
X178909456Y-103178016D01*
X178773108Y-103178029D01*
X178352186Y-103178038D01*
X177965647Y-103177985D01*
X177612034Y-103177860D01*
X177289890Y-103177652D01*
X176997761Y-103177351D01*
X176734188Y-103176946D01*
X176497716Y-103176426D01*
X176286890Y-103175782D01*
X176100251Y-103175002D01*
X175936345Y-103174076D01*
X175793715Y-103172993D01*
X175670905Y-103171743D01*
X175566458Y-103170315D01*
X175478919Y-103168698D01*
X175406830Y-103166883D01*
X175348736Y-103164858D01*
X175303180Y-103162613D01*
X175268707Y-103160137D01*
X175243859Y-103157420D01*
X175227181Y-103154451D01*
X175217217Y-103151220D01*
X175214046Y-103149782D01*
X175201067Y-103145058D01*
X175189165Y-103141608D01*
X175178292Y-103137930D01*
X175168398Y-103132521D01*
X175159437Y-103123879D01*
X175151359Y-103110502D01*
X175144116Y-103090886D01*
X175137661Y-103063531D01*
X175131945Y-103026933D01*
X175126919Y-102979590D01*
X175122536Y-102920000D01*
X175118747Y-102846659D01*
X175115504Y-102758067D01*
X175112759Y-102652720D01*
X175110463Y-102529117D01*
X175108568Y-102385754D01*
X175107946Y-102319367D01*
X175586373Y-102319367D01*
X175586898Y-102325725D01*
X175596521Y-102330877D01*
X175618264Y-102334950D01*
X175655148Y-102338070D01*
X175710193Y-102340365D01*
X175786419Y-102341959D01*
X175886848Y-102342979D01*
X176014501Y-102343551D01*
X176172398Y-102343802D01*
X176363559Y-102343857D01*
X177164314Y-102343857D01*
X177096621Y-102221393D01*
X177028929Y-102098929D01*
X177028929Y-98542929D01*
X177096621Y-98420465D01*
X177164314Y-98298000D01*
X175732993Y-98298000D01*
X175727818Y-100180322D01*
X175722643Y-102062643D01*
X175671903Y-102171008D01*
X175645151Y-102224719D01*
X175614860Y-102278524D01*
X175591984Y-102311615D01*
X175591926Y-102311679D01*
X175586373Y-102319367D01*
X175107946Y-102319367D01*
X175107026Y-102221129D01*
X175105789Y-102033740D01*
X175104808Y-101822085D01*
X175104035Y-101584661D01*
X175103422Y-101319966D01*
X175102921Y-101026498D01*
X175102484Y-100702753D01*
X175102061Y-100347230D01*
X175101605Y-99958426D01*
X175101068Y-99534840D01*
X175100999Y-99483560D01*
X175100400Y-99062657D01*
X175099827Y-98676362D01*
X175099323Y-98323172D01*
X175098930Y-98001584D01*
X175098690Y-97710094D01*
X175098646Y-97447200D01*
X175098840Y-97211398D01*
X175099314Y-97001186D01*
X175100112Y-96815060D01*
X175101274Y-96651517D01*
X175102844Y-96509055D01*
X175104864Y-96386170D01*
X175107377Y-96281359D01*
X175110424Y-96193119D01*
X175114049Y-96119947D01*
X175118293Y-96060340D01*
X175123198Y-96012795D01*
X175128808Y-95975808D01*
X175135165Y-95947878D01*
X175142311Y-95927500D01*
X175150288Y-95913171D01*
X175159139Y-95903390D01*
X175168906Y-95896651D01*
X175179632Y-95891454D01*
X175191358Y-95886293D01*
X175204128Y-95879667D01*
X175207865Y-95877556D01*
X175264405Y-95857118D01*
X175326300Y-95848717D01*
X175396072Y-95848720D01*
X175397234Y-96007467D01*
X175397529Y-96025735D01*
X175419706Y-96211427D01*
X175476188Y-96386147D01*
X175566192Y-96548043D01*
X175688932Y-96695265D01*
X175754798Y-96755311D01*
X175901454Y-96854838D01*
X176061470Y-96924242D01*
X176230185Y-96963487D01*
X176402939Y-96972537D01*
X176575072Y-96951353D01*
X176741922Y-96899899D01*
X176879080Y-96828429D01*
X177486127Y-96828429D01*
X177565957Y-96885862D01*
X177633470Y-96939841D01*
X177728603Y-97027886D01*
X177836507Y-97138230D01*
X177953097Y-97266670D01*
X178074285Y-97409000D01*
X178105494Y-97447062D01*
X178158629Y-97512343D01*
X178228083Y-97597988D01*
X178311556Y-97701140D01*
X178406746Y-97818939D01*
X178511354Y-97948528D01*
X178623077Y-98087047D01*
X178739615Y-98231639D01*
X178793067Y-98298000D01*
X178858667Y-98379444D01*
X178977932Y-98527603D01*
X179095109Y-98673260D01*
X179207896Y-98813554D01*
X179313994Y-98945627D01*
X179411101Y-99066621D01*
X179496916Y-99173678D01*
X179569138Y-99263938D01*
X179625466Y-99334543D01*
X179663599Y-99382635D01*
X179681237Y-99405355D01*
X179682692Y-99413893D01*
X179677850Y-99430132D01*
X179665302Y-99455679D01*
X179643797Y-99492347D01*
X179612080Y-99541949D01*
X179568900Y-99606295D01*
X179513005Y-99687198D01*
X179443141Y-99786471D01*
X179358057Y-99905926D01*
X179256499Y-100047374D01*
X179137216Y-100212629D01*
X178998954Y-100403501D01*
X178840462Y-100621804D01*
X178714177Y-100795571D01*
X178560105Y-101007407D01*
X178424580Y-101193440D01*
X178306024Y-101355734D01*
X178202861Y-101496354D01*
X178113515Y-101617365D01*
X178036411Y-101720832D01*
X177969972Y-101808818D01*
X177912623Y-101883390D01*
X177862786Y-101946610D01*
X177818886Y-102000545D01*
X177779347Y-102047258D01*
X177742593Y-102088814D01*
X177707047Y-102127279D01*
X177671135Y-102164715D01*
X177633278Y-102203189D01*
X177493771Y-102343857D01*
X179369357Y-102343933D01*
X179363464Y-102230275D01*
X179363179Y-102224564D01*
X179362060Y-102179127D01*
X179364181Y-102135593D01*
X179370958Y-102091576D01*
X179383812Y-102044693D01*
X179404160Y-101992558D01*
X179433420Y-101932786D01*
X179473012Y-101862994D01*
X179524353Y-101780797D01*
X179588862Y-101683809D01*
X179667957Y-101569647D01*
X179763057Y-101435925D01*
X179875581Y-101280260D01*
X180006946Y-101100265D01*
X180158572Y-100893557D01*
X180693786Y-100164911D01*
X180698501Y-101009755D01*
X180698919Y-101088562D01*
X180699656Y-101300832D01*
X180699321Y-101481381D01*
X180697519Y-101633628D01*
X180693856Y-101760988D01*
X180687936Y-101866878D01*
X180679367Y-101954715D01*
X180667751Y-102027916D01*
X180652697Y-102089898D01*
X180633807Y-102144076D01*
X180610689Y-102193869D01*
X180582947Y-102242693D01*
X180550187Y-102293964D01*
X180517256Y-102343857D01*
X182228704Y-102343857D01*
X182184496Y-102284893D01*
X182177572Y-102275565D01*
X182122221Y-102190070D01*
X182084064Y-102103644D01*
X182059008Y-102004613D01*
X182042959Y-101881304D01*
X182042518Y-101875929D01*
X182040189Y-101825067D01*
X182038087Y-101740206D01*
X182036219Y-101623286D01*
X182034596Y-101476246D01*
X182033227Y-101301026D01*
X182032120Y-101099563D01*
X182031285Y-100873798D01*
X182030732Y-100625669D01*
X182030468Y-100357115D01*
X182030503Y-100070077D01*
X182030847Y-99766492D01*
X182031508Y-99448300D01*
X182032209Y-99162881D01*
X182032958Y-98852196D01*
X182033696Y-98574226D01*
X182034515Y-98327022D01*
X182035507Y-98108637D01*
X182036766Y-97917125D01*
X182038383Y-97750537D01*
X182040452Y-97606925D01*
X182043065Y-97484344D01*
X182046315Y-97380844D01*
X182050293Y-97294479D01*
X182055094Y-97223301D01*
X182060809Y-97165363D01*
X182067532Y-97118717D01*
X182075354Y-97081416D01*
X182084368Y-97051512D01*
X182094667Y-97027058D01*
X182106344Y-97006106D01*
X182119492Y-96986709D01*
X182134202Y-96966920D01*
X182150567Y-96944791D01*
X182166396Y-96922615D01*
X182196991Y-96878769D01*
X182215317Y-96851107D01*
X182215759Y-96849949D01*
X182209360Y-96844718D01*
X182186779Y-96840353D01*
X182145502Y-96836788D01*
X182083017Y-96833954D01*
X181996812Y-96831787D01*
X181884373Y-96830217D01*
X181743188Y-96829179D01*
X181570745Y-96828605D01*
X181364530Y-96828429D01*
X180500060Y-96828429D01*
X180545621Y-96882574D01*
X180572026Y-96919763D01*
X180615978Y-97007446D01*
X180654495Y-97116499D01*
X180683893Y-97237468D01*
X180685766Y-97248952D01*
X180691341Y-97309492D01*
X180695563Y-97403056D01*
X180698443Y-97530292D01*
X180699992Y-97691846D01*
X180700221Y-97888368D01*
X180699143Y-98120504D01*
X180693786Y-98895508D01*
X180140429Y-98195742D01*
X180124579Y-98175698D01*
X179984253Y-97998052D01*
X179864453Y-97845914D01*
X179763270Y-97716698D01*
X179678800Y-97607817D01*
X179609135Y-97516685D01*
X179552368Y-97440714D01*
X179506594Y-97377317D01*
X179469906Y-97323908D01*
X179440396Y-97277901D01*
X179416159Y-97236707D01*
X179395288Y-97197741D01*
X179375877Y-97158415D01*
X179346015Y-97088805D01*
X179326724Y-97015372D01*
X179321592Y-96936165D01*
X179322108Y-96828429D01*
X177486127Y-96828429D01*
X176879080Y-96828429D01*
X176898830Y-96818138D01*
X177041136Y-96706032D01*
X177080695Y-96666510D01*
X177197620Y-96520175D01*
X177280588Y-96361367D01*
X177330043Y-96189063D01*
X177346429Y-96002238D01*
X177346429Y-95848715D01*
X179950830Y-95848714D01*
X180113540Y-95848707D01*
X180463089Y-95848660D01*
X180778856Y-95848626D01*
X181062588Y-95848673D01*
X181316031Y-95848872D01*
X181540931Y-95849291D01*
X181739034Y-95849998D01*
X181912087Y-95851065D01*
X182061835Y-95852558D01*
X182190025Y-95854547D01*
X182298403Y-95857102D01*
X182388715Y-95860291D01*
X182462707Y-95864183D01*
X182522125Y-95868848D01*
X182568716Y-95874354D01*
X182604226Y-95880771D01*
X182630400Y-95888167D01*
X182648986Y-95896611D01*
X182661728Y-95906173D01*
X182670374Y-95916922D01*
X182676670Y-95928926D01*
X182682360Y-95942255D01*
X182689193Y-95956978D01*
X182689316Y-95957218D01*
X182692633Y-95966856D01*
X182695676Y-95982993D01*
X182698456Y-96007121D01*
X182700985Y-96040727D01*
X182703274Y-96085301D01*
X182705334Y-96142333D01*
X182707179Y-96213311D01*
X182708817Y-96299725D01*
X182710263Y-96403064D01*
X182711526Y-96524818D01*
X182712619Y-96666475D01*
X182713553Y-96829526D01*
X182714340Y-97015458D01*
X182714991Y-97225762D01*
X182715517Y-97461927D01*
X182715931Y-97725442D01*
X182716244Y-98017797D01*
X182716467Y-98340480D01*
X182716612Y-98694981D01*
X182716691Y-99082789D01*
X182716714Y-99505393D01*
X182716715Y-99588414D01*
X182716755Y-100006614D01*
X182716817Y-100390313D01*
X182716854Y-100741009D01*
X182716817Y-101060204D01*
X182716662Y-101349398D01*
X182716339Y-101610091D01*
X182715801Y-101843784D01*
X182715001Y-102051976D01*
X182713892Y-102236168D01*
X182712916Y-102343857D01*
X182712428Y-102397860D01*
G36*
X182712428Y-102397860D02*
G01*
X182710560Y-102538553D01*
X182708241Y-102659746D01*
X182705425Y-102762940D01*
X182702064Y-102849635D01*
X182698110Y-102921332D01*
X182693517Y-102979530D01*
X182688238Y-103025730D01*
X182682225Y-103061433D01*
X182675430Y-103088137D01*
X182667808Y-103107345D01*
X182659309Y-103120555D01*
X182649889Y-103129268D01*
X182639498Y-103134985D01*
X182628090Y-103139206D01*
X182615618Y-103143430D01*
X182602034Y-103149159D01*
X182594391Y-103152030D01*
X182580371Y-103155165D01*
X182559538Y-103158037D01*
X182530421Y-103160659D01*
X182491544Y-103163040D01*
X182441434Y-103165194D01*
X182378617Y-103167130D01*
X182301620Y-103168862D01*
X182208969Y-103170400D01*
X182099190Y-103171756D01*
X181970810Y-103172941D01*
X181822354Y-103173968D01*
X181652350Y-103174846D01*
X181459323Y-103175589D01*
X181241800Y-103176207D01*
X180998308Y-103176713D01*
X180727371Y-103177116D01*
X180427517Y-103177430D01*
X180097273Y-103177665D01*
X179735164Y-103177834D01*
X179339716Y-103177947D01*
X178909456Y-103178016D01*
X178773108Y-103178029D01*
X178352186Y-103178038D01*
X177965647Y-103177985D01*
X177612034Y-103177860D01*
X177289890Y-103177652D01*
X176997761Y-103177351D01*
X176734188Y-103176946D01*
X176497716Y-103176426D01*
X176286890Y-103175782D01*
X176100251Y-103175002D01*
X175936345Y-103174076D01*
X175793715Y-103172993D01*
X175670905Y-103171743D01*
X175566458Y-103170315D01*
X175478919Y-103168698D01*
X175406830Y-103166883D01*
X175348736Y-103164858D01*
X175303180Y-103162613D01*
X175268707Y-103160137D01*
X175243859Y-103157420D01*
X175227181Y-103154451D01*
X175217217Y-103151220D01*
X175214046Y-103149782D01*
X175201067Y-103145058D01*
X175189165Y-103141608D01*
X175178292Y-103137930D01*
X175168398Y-103132521D01*
X175159437Y-103123879D01*
X175151359Y-103110502D01*
X175144116Y-103090886D01*
X175137661Y-103063531D01*
X175131945Y-103026933D01*
X175126919Y-102979590D01*
X175122536Y-102920000D01*
X175118747Y-102846659D01*
X175115504Y-102758067D01*
X175112759Y-102652720D01*
X175110463Y-102529117D01*
X175108568Y-102385754D01*
X175107946Y-102319367D01*
X175586373Y-102319367D01*
X175586898Y-102325725D01*
X175596521Y-102330877D01*
X175618264Y-102334950D01*
X175655148Y-102338070D01*
X175710193Y-102340365D01*
X175786419Y-102341959D01*
X175886848Y-102342979D01*
X176014501Y-102343551D01*
X176172398Y-102343802D01*
X176363559Y-102343857D01*
X177164314Y-102343857D01*
X177096621Y-102221393D01*
X177028929Y-102098929D01*
X177028929Y-98542929D01*
X177096621Y-98420465D01*
X177164314Y-98298000D01*
X175732993Y-98298000D01*
X175727818Y-100180322D01*
X175722643Y-102062643D01*
X175671903Y-102171008D01*
X175645151Y-102224719D01*
X175614860Y-102278524D01*
X175591984Y-102311615D01*
X175591926Y-102311679D01*
X175586373Y-102319367D01*
X175107946Y-102319367D01*
X175107026Y-102221129D01*
X175105789Y-102033740D01*
X175104808Y-101822085D01*
X175104035Y-101584661D01*
X175103422Y-101319966D01*
X175102921Y-101026498D01*
X175102484Y-100702753D01*
X175102061Y-100347230D01*
X175101605Y-99958426D01*
X175101068Y-99534840D01*
X175100999Y-99483560D01*
X175100400Y-99062657D01*
X175099827Y-98676362D01*
X175099323Y-98323172D01*
X175098930Y-98001584D01*
X175098690Y-97710094D01*
X175098646Y-97447200D01*
X175098840Y-97211398D01*
X175099314Y-97001186D01*
X175100112Y-96815060D01*
X175101274Y-96651517D01*
X175102844Y-96509055D01*
X175104864Y-96386170D01*
X175107377Y-96281359D01*
X175110424Y-96193119D01*
X175114049Y-96119947D01*
X175118293Y-96060340D01*
X175123198Y-96012795D01*
X175128808Y-95975808D01*
X175135165Y-95947878D01*
X175142311Y-95927500D01*
X175150288Y-95913171D01*
X175159139Y-95903390D01*
X175168906Y-95896651D01*
X175179632Y-95891454D01*
X175191358Y-95886293D01*
X175204128Y-95879667D01*
X175207865Y-95877556D01*
X175264405Y-95857118D01*
X175326300Y-95848717D01*
X175396072Y-95848720D01*
X175397234Y-96007467D01*
X175397529Y-96025735D01*
X175419706Y-96211427D01*
X175476188Y-96386147D01*
X175566192Y-96548043D01*
X175688932Y-96695265D01*
X175754798Y-96755311D01*
X175901454Y-96854838D01*
X176061470Y-96924242D01*
X176230185Y-96963487D01*
X176402939Y-96972537D01*
X176575072Y-96951353D01*
X176741922Y-96899899D01*
X176879080Y-96828429D01*
X177486127Y-96828429D01*
X177565957Y-96885862D01*
X177633470Y-96939841D01*
X177728603Y-97027886D01*
X177836507Y-97138230D01*
X177953097Y-97266670D01*
X178074285Y-97409000D01*
X178105494Y-97447062D01*
X178158629Y-97512343D01*
X178228083Y-97597988D01*
X178311556Y-97701140D01*
X178406746Y-97818939D01*
X178511354Y-97948528D01*
X178623077Y-98087047D01*
X178739615Y-98231639D01*
X178793067Y-98298000D01*
X178858667Y-98379444D01*
X178977932Y-98527603D01*
X179095109Y-98673260D01*
X179207896Y-98813554D01*
X179313994Y-98945627D01*
X179411101Y-99066621D01*
X179496916Y-99173678D01*
X179569138Y-99263938D01*
X179625466Y-99334543D01*
X179663599Y-99382635D01*
X179681237Y-99405355D01*
X179682692Y-99413893D01*
X179677850Y-99430132D01*
X179665302Y-99455679D01*
X179643797Y-99492347D01*
X179612080Y-99541949D01*
X179568900Y-99606295D01*
X179513005Y-99687198D01*
X179443141Y-99786471D01*
X179358057Y-99905926D01*
X179256499Y-100047374D01*
X179137216Y-100212629D01*
X178998954Y-100403501D01*
X178840462Y-100621804D01*
X178714177Y-100795571D01*
X178560105Y-101007407D01*
X178424580Y-101193440D01*
X178306024Y-101355734D01*
X178202861Y-101496354D01*
X178113515Y-101617365D01*
X178036411Y-101720832D01*
X177969972Y-101808818D01*
X177912623Y-101883390D01*
X177862786Y-101946610D01*
X177818886Y-102000545D01*
X177779347Y-102047258D01*
X177742593Y-102088814D01*
X177707047Y-102127279D01*
X177671135Y-102164715D01*
X177633278Y-102203189D01*
X177493771Y-102343857D01*
X179369357Y-102343933D01*
X179363464Y-102230275D01*
X179363179Y-102224564D01*
X179362060Y-102179127D01*
X179364181Y-102135593D01*
X179370958Y-102091576D01*
X179383812Y-102044693D01*
X179404160Y-101992558D01*
X179433420Y-101932786D01*
X179473012Y-101862994D01*
X179524353Y-101780797D01*
X179588862Y-101683809D01*
X179667957Y-101569647D01*
X179763057Y-101435925D01*
X179875581Y-101280260D01*
X180006946Y-101100265D01*
X180158572Y-100893557D01*
X180693786Y-100164911D01*
X180698501Y-101009755D01*
X180698919Y-101088562D01*
X180699656Y-101300832D01*
X180699321Y-101481381D01*
X180697519Y-101633628D01*
X180693856Y-101760988D01*
X180687936Y-101866878D01*
X180679367Y-101954715D01*
X180667751Y-102027916D01*
X180652697Y-102089898D01*
X180633807Y-102144076D01*
X180610689Y-102193869D01*
X180582947Y-102242693D01*
X180550187Y-102293964D01*
X180517256Y-102343857D01*
X182228704Y-102343857D01*
X182184496Y-102284893D01*
X182177572Y-102275565D01*
X182122221Y-102190070D01*
X182084064Y-102103644D01*
X182059008Y-102004613D01*
X182042959Y-101881304D01*
X182042518Y-101875929D01*
X182040189Y-101825067D01*
X182038087Y-101740206D01*
X182036219Y-101623286D01*
X182034596Y-101476246D01*
X182033227Y-101301026D01*
X182032120Y-101099563D01*
X182031285Y-100873798D01*
X182030732Y-100625669D01*
X182030468Y-100357115D01*
X182030503Y-100070077D01*
X182030847Y-99766492D01*
X182031508Y-99448300D01*
X182032209Y-99162881D01*
X182032958Y-98852196D01*
X182033696Y-98574226D01*
X182034515Y-98327022D01*
X182035507Y-98108637D01*
X182036766Y-97917125D01*
X182038383Y-97750537D01*
X182040452Y-97606925D01*
X182043065Y-97484344D01*
X182046315Y-97380844D01*
X182050293Y-97294479D01*
X182055094Y-97223301D01*
X182060809Y-97165363D01*
X182067532Y-97118717D01*
X182075354Y-97081416D01*
X182084368Y-97051512D01*
X182094667Y-97027058D01*
X182106344Y-97006106D01*
X182119492Y-96986709D01*
X182134202Y-96966920D01*
X182150567Y-96944791D01*
X182166396Y-96922615D01*
X182196991Y-96878769D01*
X182215317Y-96851107D01*
X182215759Y-96849949D01*
X182209360Y-96844718D01*
X182186779Y-96840353D01*
X182145502Y-96836788D01*
X182083017Y-96833954D01*
X181996812Y-96831787D01*
X181884373Y-96830217D01*
X181743188Y-96829179D01*
X181570745Y-96828605D01*
X181364530Y-96828429D01*
X180500060Y-96828429D01*
X180545621Y-96882574D01*
X180572026Y-96919763D01*
X180615978Y-97007446D01*
X180654495Y-97116499D01*
X180683893Y-97237468D01*
X180685766Y-97248952D01*
X180691341Y-97309492D01*
X180695563Y-97403056D01*
X180698443Y-97530292D01*
X180699992Y-97691846D01*
X180700221Y-97888368D01*
X180699143Y-98120504D01*
X180693786Y-98895508D01*
X180140429Y-98195742D01*
X180124579Y-98175698D01*
X179984253Y-97998052D01*
X179864453Y-97845914D01*
X179763270Y-97716698D01*
X179678800Y-97607817D01*
X179609135Y-97516685D01*
X179552368Y-97440714D01*
X179506594Y-97377317D01*
X179469906Y-97323908D01*
X179440396Y-97277901D01*
X179416159Y-97236707D01*
X179395288Y-97197741D01*
X179375877Y-97158415D01*
X179346015Y-97088805D01*
X179326724Y-97015372D01*
X179321592Y-96936165D01*
X179322108Y-96828429D01*
X177486127Y-96828429D01*
X176879080Y-96828429D01*
X176898830Y-96818138D01*
X177041136Y-96706032D01*
X177080695Y-96666510D01*
X177197620Y-96520175D01*
X177280588Y-96361367D01*
X177330043Y-96189063D01*
X177346429Y-96002238D01*
X177346429Y-95848715D01*
X179950830Y-95848714D01*
X180113540Y-95848707D01*
X180463089Y-95848660D01*
X180778856Y-95848626D01*
X181062588Y-95848673D01*
X181316031Y-95848872D01*
X181540931Y-95849291D01*
X181739034Y-95849998D01*
X181912087Y-95851065D01*
X182061835Y-95852558D01*
X182190025Y-95854547D01*
X182298403Y-95857102D01*
X182388715Y-95860291D01*
X182462707Y-95864183D01*
X182522125Y-95868848D01*
X182568716Y-95874354D01*
X182604226Y-95880771D01*
X182630400Y-95888167D01*
X182648986Y-95896611D01*
X182661728Y-95906173D01*
X182670374Y-95916922D01*
X182676670Y-95928926D01*
X182682360Y-95942255D01*
X182689193Y-95956978D01*
X182689316Y-95957218D01*
X182692633Y-95966856D01*
X182695676Y-95982993D01*
X182698456Y-96007121D01*
X182700985Y-96040727D01*
X182703274Y-96085301D01*
X182705334Y-96142333D01*
X182707179Y-96213311D01*
X182708817Y-96299725D01*
X182710263Y-96403064D01*
X182711526Y-96524818D01*
X182712619Y-96666475D01*
X182713553Y-96829526D01*
X182714340Y-97015458D01*
X182714991Y-97225762D01*
X182715517Y-97461927D01*
X182715931Y-97725442D01*
X182716244Y-98017797D01*
X182716467Y-98340480D01*
X182716612Y-98694981D01*
X182716691Y-99082789D01*
X182716714Y-99505393D01*
X182716715Y-99588414D01*
X182716755Y-100006614D01*
X182716817Y-100390313D01*
X182716854Y-100741009D01*
X182716817Y-101060204D01*
X182716662Y-101349398D01*
X182716339Y-101610091D01*
X182715801Y-101843784D01*
X182715001Y-102051976D01*
X182713892Y-102236168D01*
X182712916Y-102343857D01*
X182712428Y-102397860D01*
G37*
X176393579Y-103799264D02*
X176439051Y-103830301D01*
X176475942Y-103867192D01*
X176475942Y-104283978D01*
X176475887Y-104395852D01*
X176475543Y-104494668D01*
X176474650Y-104570226D01*
X176472949Y-104626104D01*
X176470181Y-104665882D01*
X176466088Y-104693136D01*
X176460409Y-104711447D01*
X176452888Y-104724391D01*
X176443263Y-104735548D01*
X176401374Y-104764125D01*
X176354556Y-104766476D01*
X176310617Y-104740274D01*
X176303551Y-104732461D01*
X176296296Y-104720367D01*
X176290750Y-104702605D01*
X176286683Y-104675690D01*
X176283869Y-104636138D01*
X176282077Y-104580465D01*
X176281081Y-104505185D01*
X176280650Y-104406816D01*
X176280557Y-104281872D01*
X176280610Y-104181140D01*
X176280949Y-104077414D01*
X176281807Y-103997519D01*
X176283410Y-103937971D01*
X176285988Y-103895284D01*
X176289769Y-103865975D01*
X176294982Y-103846559D01*
X176301855Y-103833552D01*
X176310617Y-103823470D01*
X176349470Y-103798145D01*
X176393579Y-103799264D01*
G36*
X176393579Y-103799264D02*
G01*
X176439051Y-103830301D01*
X176475942Y-103867192D01*
X176475942Y-104283978D01*
X176475887Y-104395852D01*
X176475543Y-104494668D01*
X176474650Y-104570226D01*
X176472949Y-104626104D01*
X176470181Y-104665882D01*
X176466088Y-104693136D01*
X176460409Y-104711447D01*
X176452888Y-104724391D01*
X176443263Y-104735548D01*
X176401374Y-104764125D01*
X176354556Y-104766476D01*
X176310617Y-104740274D01*
X176303551Y-104732461D01*
X176296296Y-104720367D01*
X176290750Y-104702605D01*
X176286683Y-104675690D01*
X176283869Y-104636138D01*
X176282077Y-104580465D01*
X176281081Y-104505185D01*
X176280650Y-104406816D01*
X176280557Y-104281872D01*
X176280610Y-104181140D01*
X176280949Y-104077414D01*
X176281807Y-103997519D01*
X176283410Y-103937971D01*
X176285988Y-103895284D01*
X176289769Y-103865975D01*
X176294982Y-103846559D01*
X176301855Y-103833552D01*
X176310617Y-103823470D01*
X176349470Y-103798145D01*
X176393579Y-103799264D01*
G37*
X171333071Y-104607311D02*
X171330449Y-104650950D01*
X171326550Y-104681466D01*
X171321122Y-104702504D01*
X171313914Y-104717711D01*
X171304674Y-104730733D01*
X171273524Y-104770334D01*
X171052928Y-104769543D01*
X171006602Y-104769146D01*
X170875485Y-104764579D01*
X170767696Y-104754351D01*
X170678369Y-104737632D01*
X170602637Y-104713595D01*
X170535634Y-104681409D01*
X170531162Y-104678857D01*
X170454194Y-104629972D01*
X170397805Y-104580757D01*
X170354115Y-104522862D01*
X170315239Y-104447937D01*
X170309539Y-104435135D01*
X170279480Y-104351012D01*
X170271845Y-104290362D01*
X170470544Y-104290362D01*
X170478017Y-104323284D01*
X170485640Y-104344424D01*
X170529482Y-104424183D01*
X170592506Y-104485097D01*
X170677401Y-104529212D01*
X170786851Y-104558575D01*
X170790570Y-104559243D01*
X170852193Y-104567181D01*
X170927277Y-104572810D01*
X171000418Y-104574949D01*
X171125409Y-104574949D01*
X171125409Y-103988795D01*
X171008930Y-103989392D01*
X170919836Y-103992688D01*
X170796821Y-104007668D01*
X170691224Y-104033682D01*
X170608713Y-104069594D01*
X170567521Y-104097191D01*
X170530083Y-104136820D01*
X170499010Y-104193307D01*
X170489521Y-104214564D01*
X170473779Y-104257836D01*
X170470544Y-104290362D01*
X170271845Y-104290362D01*
X170270199Y-104277284D01*
X170281651Y-104204024D01*
X170313792Y-104121304D01*
X170314851Y-104119050D01*
X170368707Y-104026624D01*
X170436186Y-103951271D01*
X170519697Y-103891935D01*
X170621647Y-103847563D01*
X170744445Y-103817101D01*
X170890499Y-103799493D01*
X171062217Y-103793687D01*
X171066972Y-103793681D01*
X171146881Y-103793867D01*
X171202706Y-103795247D01*
X171240135Y-103798701D01*
X171264857Y-103805108D01*
X171282560Y-103815348D01*
X171298933Y-103830301D01*
X171335824Y-103867192D01*
X171335824Y-104279162D01*
X171335790Y-104361181D01*
X171335490Y-104466072D01*
X171334668Y-104546900D01*
X171333926Y-104574949D01*
X171333071Y-104607311D01*
G36*
X171333071Y-104607311D02*
G01*
X171330449Y-104650950D01*
X171326550Y-104681466D01*
X171321122Y-104702504D01*
X171313914Y-104717711D01*
X171304674Y-104730733D01*
X171273524Y-104770334D01*
X171052928Y-104769543D01*
X171006602Y-104769146D01*
X170875485Y-104764579D01*
X170767696Y-104754351D01*
X170678369Y-104737632D01*
X170602637Y-104713595D01*
X170535634Y-104681409D01*
X170531162Y-104678857D01*
X170454194Y-104629972D01*
X170397805Y-104580757D01*
X170354115Y-104522862D01*
X170315239Y-104447937D01*
X170309539Y-104435135D01*
X170279480Y-104351012D01*
X170271845Y-104290362D01*
X170470544Y-104290362D01*
X170478017Y-104323284D01*
X170485640Y-104344424D01*
X170529482Y-104424183D01*
X170592506Y-104485097D01*
X170677401Y-104529212D01*
X170786851Y-104558575D01*
X170790570Y-104559243D01*
X170852193Y-104567181D01*
X170927277Y-104572810D01*
X171000418Y-104574949D01*
X171125409Y-104574949D01*
X171125409Y-103988795D01*
X171008930Y-103989392D01*
X170919836Y-103992688D01*
X170796821Y-104007668D01*
X170691224Y-104033682D01*
X170608713Y-104069594D01*
X170567521Y-104097191D01*
X170530083Y-104136820D01*
X170499010Y-104193307D01*
X170489521Y-104214564D01*
X170473779Y-104257836D01*
X170470544Y-104290362D01*
X170271845Y-104290362D01*
X170270199Y-104277284D01*
X170281651Y-104204024D01*
X170313792Y-104121304D01*
X170314851Y-104119050D01*
X170368707Y-104026624D01*
X170436186Y-103951271D01*
X170519697Y-103891935D01*
X170621647Y-103847563D01*
X170744445Y-103817101D01*
X170890499Y-103799493D01*
X171062217Y-103793687D01*
X171066972Y-103793681D01*
X171146881Y-103793867D01*
X171202706Y-103795247D01*
X171240135Y-103798701D01*
X171264857Y-103805108D01*
X171282560Y-103815348D01*
X171298933Y-103830301D01*
X171335824Y-103867192D01*
X171335824Y-104279162D01*
X171335790Y-104361181D01*
X171335490Y-104466072D01*
X171334668Y-104546900D01*
X171333926Y-104574949D01*
X171333071Y-104607311D01*
G37*
X172657336Y-103833011D02*
X172663925Y-103841910D01*
X172671706Y-103855984D01*
X172677645Y-103874739D01*
X172681991Y-103901799D01*
X172684990Y-103940790D01*
X172686892Y-103995339D01*
X172687943Y-104069069D01*
X172688392Y-104165608D01*
X172688486Y-104288580D01*
X172688448Y-104376339D01*
X172688139Y-104480607D01*
X172687313Y-104560845D01*
X172685725Y-104620621D01*
X172683132Y-104663502D01*
X172679291Y-104693056D01*
X172673958Y-104712852D01*
X172666890Y-104726457D01*
X172657842Y-104737440D01*
X172651831Y-104743641D01*
X172640874Y-104752277D01*
X172625750Y-104758816D01*
X172602760Y-104763550D01*
X172568204Y-104766769D01*
X172518386Y-104768766D01*
X172449604Y-104769831D01*
X172358161Y-104770256D01*
X172240357Y-104770334D01*
X172214163Y-104770325D01*
X172098302Y-104769970D01*
X172008232Y-104768951D01*
X171940393Y-104767068D01*
X171891224Y-104764123D01*
X171857162Y-104759919D01*
X171834646Y-104754256D01*
X171820115Y-104746937D01*
X171806145Y-104733642D01*
X171788490Y-104692214D01*
X171790064Y-104644434D01*
X171811585Y-104602434D01*
X171814500Y-104599404D01*
X171826066Y-104591059D01*
X171843829Y-104584847D01*
X171871765Y-104580458D01*
X171913851Y-104577584D01*
X171974065Y-104575914D01*
X172056382Y-104575139D01*
X172164780Y-104574949D01*
X172493102Y-104574949D01*
X172493102Y-104364535D01*
X172276838Y-104364535D01*
X172229350Y-104364428D01*
X172155100Y-104363366D01*
X172102993Y-104360697D01*
X172067774Y-104355849D01*
X172044185Y-104348249D01*
X172026971Y-104337325D01*
X172022121Y-104333086D01*
X171997614Y-104291847D01*
X171996770Y-104243471D01*
X172020120Y-104198711D01*
X172020203Y-104198620D01*
X172033078Y-104187135D01*
X172050777Y-104179073D01*
X172078346Y-104173839D01*
X172120831Y-104170837D01*
X172183279Y-104169473D01*
X172270737Y-104169150D01*
X172494602Y-104169150D01*
X172490094Y-104082730D01*
X172485587Y-103996310D01*
X172163295Y-103992245D01*
X172129989Y-103991809D01*
X172021324Y-103989839D01*
X171938354Y-103986665D01*
X171877626Y-103981345D01*
X171835685Y-103972940D01*
X171809078Y-103960506D01*
X171794349Y-103943103D01*
X171788045Y-103919790D01*
X171786711Y-103889626D01*
X171786719Y-103886476D01*
X171788255Y-103859808D01*
X171794643Y-103838782D01*
X171809032Y-103822731D01*
X171834573Y-103810984D01*
X171874419Y-103802874D01*
X171931718Y-103797730D01*
X172009623Y-103794884D01*
X172111284Y-103793667D01*
X172239852Y-103793410D01*
X172626186Y-103793410D01*
X172657336Y-103833011D01*
G36*
X172657336Y-103833011D02*
G01*
X172663925Y-103841910D01*
X172671706Y-103855984D01*
X172677645Y-103874739D01*
X172681991Y-103901799D01*
X172684990Y-103940790D01*
X172686892Y-103995339D01*
X172687943Y-104069069D01*
X172688392Y-104165608D01*
X172688486Y-104288580D01*
X172688448Y-104376339D01*
X172688139Y-104480607D01*
X172687313Y-104560845D01*
X172685725Y-104620621D01*
X172683132Y-104663502D01*
X172679291Y-104693056D01*
X172673958Y-104712852D01*
X172666890Y-104726457D01*
X172657842Y-104737440D01*
X172651831Y-104743641D01*
X172640874Y-104752277D01*
X172625750Y-104758816D01*
X172602760Y-104763550D01*
X172568204Y-104766769D01*
X172518386Y-104768766D01*
X172449604Y-104769831D01*
X172358161Y-104770256D01*
X172240357Y-104770334D01*
X172214163Y-104770325D01*
X172098302Y-104769970D01*
X172008232Y-104768951D01*
X171940393Y-104767068D01*
X171891224Y-104764123D01*
X171857162Y-104759919D01*
X171834646Y-104754256D01*
X171820115Y-104746937D01*
X171806145Y-104733642D01*
X171788490Y-104692214D01*
X171790064Y-104644434D01*
X171811585Y-104602434D01*
X171814500Y-104599404D01*
X171826066Y-104591059D01*
X171843829Y-104584847D01*
X171871765Y-104580458D01*
X171913851Y-104577584D01*
X171974065Y-104575914D01*
X172056382Y-104575139D01*
X172164780Y-104574949D01*
X172493102Y-104574949D01*
X172493102Y-104364535D01*
X172276838Y-104364535D01*
X172229350Y-104364428D01*
X172155100Y-104363366D01*
X172102993Y-104360697D01*
X172067774Y-104355849D01*
X172044185Y-104348249D01*
X172026971Y-104337325D01*
X172022121Y-104333086D01*
X171997614Y-104291847D01*
X171996770Y-104243471D01*
X172020120Y-104198711D01*
X172020203Y-104198620D01*
X172033078Y-104187135D01*
X172050777Y-104179073D01*
X172078346Y-104173839D01*
X172120831Y-104170837D01*
X172183279Y-104169473D01*
X172270737Y-104169150D01*
X172494602Y-104169150D01*
X172490094Y-104082730D01*
X172485587Y-103996310D01*
X172163295Y-103992245D01*
X172129989Y-103991809D01*
X172021324Y-103989839D01*
X171938354Y-103986665D01*
X171877626Y-103981345D01*
X171835685Y-103972940D01*
X171809078Y-103960506D01*
X171794349Y-103943103D01*
X171788045Y-103919790D01*
X171786711Y-103889626D01*
X171786719Y-103886476D01*
X171788255Y-103859808D01*
X171794643Y-103838782D01*
X171809032Y-103822731D01*
X171834573Y-103810984D01*
X171874419Y-103802874D01*
X171931718Y-103797730D01*
X172009623Y-103794884D01*
X172111284Y-103793667D01*
X172239852Y-103793410D01*
X172626186Y-103793410D01*
X172657336Y-103833011D01*
G37*
X166440105Y-100533537D02*
X166436255Y-100701433D01*
X166425247Y-100849502D01*
X166406229Y-100985798D01*
X166378349Y-101118375D01*
X166340754Y-101255286D01*
X166283743Y-101418936D01*
X166179036Y-101639857D01*
X166050598Y-101837734D01*
X165900393Y-102010697D01*
X165730387Y-102156876D01*
X165542545Y-102274401D01*
X165338832Y-102361402D01*
X165121212Y-102416009D01*
X165118593Y-102416447D01*
X164959553Y-102431750D01*
X164784809Y-102429707D01*
X164606820Y-102411579D01*
X164438046Y-102378624D01*
X164290948Y-102332101D01*
X164228161Y-102303791D01*
X164146387Y-102260761D01*
X164062359Y-102211546D01*
X163984845Y-102161563D01*
X163922612Y-102116229D01*
X163884429Y-102080960D01*
X163875663Y-102071277D01*
X163865214Y-102067892D01*
X163858229Y-102084696D01*
X163853082Y-102127045D01*
X163848143Y-102200295D01*
X163839072Y-102352929D01*
X162449360Y-102362433D01*
X162497439Y-102280393D01*
X162500305Y-102275543D01*
X162514285Y-102252772D01*
X162526969Y-102232487D01*
X162538423Y-102212925D01*
X162548715Y-102192324D01*
X162557915Y-102168920D01*
X162566090Y-102140953D01*
X162573309Y-102106660D01*
X162579640Y-102064278D01*
X162585151Y-102012046D01*
X162589910Y-101948200D01*
X162593985Y-101870979D01*
X162597446Y-101778620D01*
X162600359Y-101669361D01*
X162602794Y-101541440D01*
X162604818Y-101393094D01*
X162606452Y-101227556D01*
X163929786Y-101227556D01*
X164020500Y-101287057D01*
X164055386Y-101308491D01*
X164135265Y-101351311D01*
X164211000Y-101385410D01*
X164244168Y-101396955D01*
X164349705Y-101420004D01*
X164483143Y-101431773D01*
X164550996Y-101434222D01*
X164613980Y-101433666D01*
X164660866Y-101427375D01*
X164702920Y-101413626D01*
X164751409Y-101390692D01*
X164844595Y-101329259D01*
X164925324Y-101242358D01*
X164989945Y-101130369D01*
X165039073Y-100991539D01*
X165073321Y-100824111D01*
X165093306Y-100626329D01*
X165099641Y-100396440D01*
X165099333Y-100344175D01*
X165090225Y-100102015D01*
X165068109Y-99891302D01*
X165032447Y-99709814D01*
X164982701Y-99555327D01*
X164918333Y-99425619D01*
X164838805Y-99318466D01*
X164805812Y-99285763D01*
X164703560Y-99217632D01*
X164583526Y-99176173D01*
X164450910Y-99161622D01*
X164310913Y-99174214D01*
X164168733Y-99214185D01*
X164029572Y-99281771D01*
X163929786Y-99341584D01*
X163929786Y-101227556D01*
X162606452Y-101227556D01*
X162606501Y-101222562D01*
X162607909Y-101028081D01*
X162609112Y-100807888D01*
X162610177Y-100560221D01*
X162611173Y-100283318D01*
X162612168Y-99975417D01*
X162613231Y-99634756D01*
X162614429Y-99259572D01*
X162623500Y-96492786D01*
X163344679Y-96488042D01*
X163397124Y-96487723D01*
X163551429Y-96487089D01*
X163692564Y-96486961D01*
X163816677Y-96487311D01*
X163919915Y-96488112D01*
X163998426Y-96489340D01*
X164048357Y-96490967D01*
X164065857Y-96492967D01*
X164063618Y-96499305D01*
X164046917Y-96529356D01*
X164019255Y-96573057D01*
X164016495Y-96577235D01*
X163995048Y-96610977D01*
X163977065Y-96643806D01*
X163962242Y-96679105D01*
X163950274Y-96720255D01*
X163940856Y-96770638D01*
X163933683Y-96833634D01*
X163928450Y-96912627D01*
X163924852Y-97010997D01*
X163922584Y-97132126D01*
X163921342Y-97279396D01*
X163920821Y-97456188D01*
X163920714Y-97665884D01*
X163920905Y-97829603D01*
X163921487Y-97990339D01*
X163922419Y-98136083D01*
X163923659Y-98263286D01*
X163925164Y-98368400D01*
X163926893Y-98447875D01*
X163928802Y-98498163D01*
X163930850Y-98515714D01*
X163937455Y-98512990D01*
X163966490Y-98493807D01*
X164007957Y-98462303D01*
X164068072Y-98419936D01*
X164181021Y-98357511D01*
X164310116Y-98301828D01*
X164443309Y-98258525D01*
X164555215Y-98236444D01*
X164694587Y-98222368D01*
X164845426Y-98217492D01*
X164996093Y-98221820D01*
X165134946Y-98235359D01*
X165250345Y-98258115D01*
X165367847Y-98296447D01*
X165563869Y-98389371D01*
X165745371Y-98512908D01*
X165909004Y-98664212D01*
X166051419Y-98840440D01*
X166169270Y-99038746D01*
X166198528Y-99099556D01*
X166280518Y-99304670D01*
X166344619Y-99527285D01*
X166391642Y-99771325D01*
X166422395Y-100040713D01*
X166437690Y-100339374D01*
X166438400Y-100396440D01*
X166440105Y-100533537D01*
G36*
X166440105Y-100533537D02*
G01*
X166436255Y-100701433D01*
X166425247Y-100849502D01*
X166406229Y-100985798D01*
X166378349Y-101118375D01*
X166340754Y-101255286D01*
X166283743Y-101418936D01*
X166179036Y-101639857D01*
X166050598Y-101837734D01*
X165900393Y-102010697D01*
X165730387Y-102156876D01*
X165542545Y-102274401D01*
X165338832Y-102361402D01*
X165121212Y-102416009D01*
X165118593Y-102416447D01*
X164959553Y-102431750D01*
X164784809Y-102429707D01*
X164606820Y-102411579D01*
X164438046Y-102378624D01*
X164290948Y-102332101D01*
X164228161Y-102303791D01*
X164146387Y-102260761D01*
X164062359Y-102211546D01*
X163984845Y-102161563D01*
X163922612Y-102116229D01*
X163884429Y-102080960D01*
X163875663Y-102071277D01*
X163865214Y-102067892D01*
X163858229Y-102084696D01*
X163853082Y-102127045D01*
X163848143Y-102200295D01*
X163839072Y-102352929D01*
X162449360Y-102362433D01*
X162497439Y-102280393D01*
X162500305Y-102275543D01*
X162514285Y-102252772D01*
X162526969Y-102232487D01*
X162538423Y-102212925D01*
X162548715Y-102192324D01*
X162557915Y-102168920D01*
X162566090Y-102140953D01*
X162573309Y-102106660D01*
X162579640Y-102064278D01*
X162585151Y-102012046D01*
X162589910Y-101948200D01*
X162593985Y-101870979D01*
X162597446Y-101778620D01*
X162600359Y-101669361D01*
X162602794Y-101541440D01*
X162604818Y-101393094D01*
X162606452Y-101227556D01*
X163929786Y-101227556D01*
X164020500Y-101287057D01*
X164055386Y-101308491D01*
X164135265Y-101351311D01*
X164211000Y-101385410D01*
X164244168Y-101396955D01*
X164349705Y-101420004D01*
X164483143Y-101431773D01*
X164550996Y-101434222D01*
X164613980Y-101433666D01*
X164660866Y-101427375D01*
X164702920Y-101413626D01*
X164751409Y-101390692D01*
X164844595Y-101329259D01*
X164925324Y-101242358D01*
X164989945Y-101130369D01*
X165039073Y-100991539D01*
X165073321Y-100824111D01*
X165093306Y-100626329D01*
X165099641Y-100396440D01*
X165099333Y-100344175D01*
X165090225Y-100102015D01*
X165068109Y-99891302D01*
X165032447Y-99709814D01*
X164982701Y-99555327D01*
X164918333Y-99425619D01*
X164838805Y-99318466D01*
X164805812Y-99285763D01*
X164703560Y-99217632D01*
X164583526Y-99176173D01*
X164450910Y-99161622D01*
X164310913Y-99174214D01*
X164168733Y-99214185D01*
X164029572Y-99281771D01*
X163929786Y-99341584D01*
X163929786Y-101227556D01*
X162606452Y-101227556D01*
X162606501Y-101222562D01*
X162607909Y-101028081D01*
X162609112Y-100807888D01*
X162610177Y-100560221D01*
X162611173Y-100283318D01*
X162612168Y-99975417D01*
X162613231Y-99634756D01*
X162614429Y-99259572D01*
X162623500Y-96492786D01*
X163344679Y-96488042D01*
X163397124Y-96487723D01*
X163551429Y-96487089D01*
X163692564Y-96486961D01*
X163816677Y-96487311D01*
X163919915Y-96488112D01*
X163998426Y-96489340D01*
X164048357Y-96490967D01*
X164065857Y-96492967D01*
X164063618Y-96499305D01*
X164046917Y-96529356D01*
X164019255Y-96573057D01*
X164016495Y-96577235D01*
X163995048Y-96610977D01*
X163977065Y-96643806D01*
X163962242Y-96679105D01*
X163950274Y-96720255D01*
X163940856Y-96770638D01*
X163933683Y-96833634D01*
X163928450Y-96912627D01*
X163924852Y-97010997D01*
X163922584Y-97132126D01*
X163921342Y-97279396D01*
X163920821Y-97456188D01*
X163920714Y-97665884D01*
X163920905Y-97829603D01*
X163921487Y-97990339D01*
X163922419Y-98136083D01*
X163923659Y-98263286D01*
X163925164Y-98368400D01*
X163926893Y-98447875D01*
X163928802Y-98498163D01*
X163930850Y-98515714D01*
X163937455Y-98512990D01*
X163966490Y-98493807D01*
X164007957Y-98462303D01*
X164068072Y-98419936D01*
X164181021Y-98357511D01*
X164310116Y-98301828D01*
X164443309Y-98258525D01*
X164555215Y-98236444D01*
X164694587Y-98222368D01*
X164845426Y-98217492D01*
X164996093Y-98221820D01*
X165134946Y-98235359D01*
X165250345Y-98258115D01*
X165367847Y-98296447D01*
X165563869Y-98389371D01*
X165745371Y-98512908D01*
X165909004Y-98664212D01*
X166051419Y-98840440D01*
X166169270Y-99038746D01*
X166198528Y-99099556D01*
X166280518Y-99304670D01*
X166344619Y-99527285D01*
X166391642Y-99771325D01*
X166422395Y-100040713D01*
X166437690Y-100339374D01*
X166438400Y-100396440D01*
X166440105Y-100533537D01*
G37*
X170540990Y-101104437D02*
X170532842Y-101250722D01*
X170515232Y-101386833D01*
X170488659Y-101500214D01*
X170446259Y-101616867D01*
X170347976Y-101809110D01*
X170222350Y-101978247D01*
X170070681Y-102123126D01*
X169894271Y-102242594D01*
X169694420Y-102335499D01*
X169472429Y-102400689D01*
X169381907Y-102415392D01*
X169252552Y-102425611D01*
X169111675Y-102427909D01*
X168971050Y-102422472D01*
X168842449Y-102409485D01*
X168737643Y-102389133D01*
X168684979Y-102373109D01*
X168565369Y-102326219D01*
X168443783Y-102266688D01*
X168332765Y-102200971D01*
X168244859Y-102135524D01*
X168243778Y-102134579D01*
X168195607Y-102093736D01*
X168158545Y-102064653D01*
X168140537Y-102053572D01*
X168138568Y-102056217D01*
X168134113Y-102084794D01*
X168131018Y-102138094D01*
X168129857Y-102207786D01*
X168129857Y-102362000D01*
X167449500Y-102362000D01*
X167431389Y-102361997D01*
X167279490Y-102361731D01*
X167140078Y-102361070D01*
X167017118Y-102360062D01*
X166914579Y-102358758D01*
X166836426Y-102357205D01*
X166786625Y-102355454D01*
X166769143Y-102353553D01*
X166769550Y-102351893D01*
X166780988Y-102327377D01*
X166804962Y-102281317D01*
X166837179Y-102222018D01*
X166905215Y-102098929D01*
X166915190Y-100883689D01*
X168202429Y-100883689D01*
X168202935Y-100979703D01*
X168205387Y-101080587D01*
X168210190Y-101153507D01*
X168217695Y-101203212D01*
X168228250Y-101234449D01*
X168241828Y-101256755D01*
X168292962Y-101317561D01*
X168361475Y-101380863D01*
X168436568Y-101437265D01*
X168507440Y-101477370D01*
X168546761Y-101492085D01*
X168637302Y-101511677D01*
X168755555Y-101521694D01*
X168880232Y-101520177D01*
X168998627Y-101499574D01*
X169097449Y-101457011D01*
X169182948Y-101390571D01*
X169207000Y-101365995D01*
X169269622Y-101282185D01*
X169303504Y-101191850D01*
X169313679Y-101083151D01*
X169310922Y-101025725D01*
X169283661Y-100907507D01*
X169226390Y-100806039D01*
X169138068Y-100720179D01*
X169017651Y-100648784D01*
X168864097Y-100590714D01*
X168802193Y-100575475D01*
X168727251Y-100565041D01*
X168632937Y-100559246D01*
X168510857Y-100557298D01*
X168491026Y-100557299D01*
X168399696Y-100558414D01*
X168321244Y-100561108D01*
X168263471Y-100565029D01*
X168234179Y-100569824D01*
X168230808Y-100571380D01*
X168219910Y-100581154D01*
X168212192Y-100600794D01*
X168207119Y-100635585D01*
X168204157Y-100690809D01*
X168202772Y-100771750D01*
X168202429Y-100883689D01*
X166915190Y-100883689D01*
X166915714Y-100819857D01*
X166917275Y-100633561D01*
X166919458Y-100395965D01*
X166921750Y-100189698D01*
X166924335Y-100011842D01*
X166927400Y-99859481D01*
X166931128Y-99729696D01*
X166935705Y-99619572D01*
X166941316Y-99526190D01*
X166948147Y-99446635D01*
X166956383Y-99377988D01*
X166966208Y-99317333D01*
X166977808Y-99261752D01*
X166991368Y-99208329D01*
X167007073Y-99154146D01*
X167025109Y-99096286D01*
X167096161Y-98914898D01*
X167193464Y-98747258D01*
X167314641Y-98603732D01*
X167460803Y-98483570D01*
X167633057Y-98386020D01*
X167832515Y-98310331D01*
X168060285Y-98255753D01*
X168317477Y-98221535D01*
X168407368Y-98214730D01*
X168558760Y-98209755D01*
X168708814Y-98214235D01*
X168864554Y-98228927D01*
X169033005Y-98254584D01*
X169221193Y-98291962D01*
X169436143Y-98341818D01*
X169485828Y-98353881D01*
X169610601Y-98383565D01*
X169728861Y-98410898D01*
X169833436Y-98434263D01*
X169917154Y-98452047D01*
X169972845Y-98462636D01*
X170101333Y-98483740D01*
X169920695Y-98921549D01*
X169875512Y-99030859D01*
X169831061Y-99137969D01*
X169792923Y-99229418D01*
X169762969Y-99300733D01*
X169743071Y-99347437D01*
X169735103Y-99365058D01*
X169733850Y-99365310D01*
X169710758Y-99357443D01*
X169665353Y-99337283D01*
X169605824Y-99308417D01*
X169482096Y-99252203D01*
X169311837Y-99190740D01*
X169137578Y-99143670D01*
X168966133Y-99112177D01*
X168804317Y-99097443D01*
X168658944Y-99100650D01*
X168536829Y-99122979D01*
X168451601Y-99158409D01*
X168354809Y-99231017D01*
X168280297Y-99329518D01*
X168230199Y-99450883D01*
X168206649Y-99592080D01*
X168198355Y-99722215D01*
X168631285Y-99723400D01*
X168777285Y-99724624D01*
X168938771Y-99728972D01*
X169076725Y-99737178D01*
X169198281Y-99750039D01*
X169310577Y-99768354D01*
X169420747Y-99792919D01*
X169535929Y-99824533D01*
X169708268Y-99884709D01*
X169910975Y-99983806D01*
X170088876Y-100105190D01*
X170240217Y-100247155D01*
X170363243Y-100407993D01*
X170456199Y-100585997D01*
X170517330Y-100779460D01*
X170526904Y-100831565D01*
X170539177Y-100960533D01*
X170540722Y-101083151D01*
X170540990Y-101104437D01*
G36*
X170540990Y-101104437D02*
G01*
X170532842Y-101250722D01*
X170515232Y-101386833D01*
X170488659Y-101500214D01*
X170446259Y-101616867D01*
X170347976Y-101809110D01*
X170222350Y-101978247D01*
X170070681Y-102123126D01*
X169894271Y-102242594D01*
X169694420Y-102335499D01*
X169472429Y-102400689D01*
X169381907Y-102415392D01*
X169252552Y-102425611D01*
X169111675Y-102427909D01*
X168971050Y-102422472D01*
X168842449Y-102409485D01*
X168737643Y-102389133D01*
X168684979Y-102373109D01*
X168565369Y-102326219D01*
X168443783Y-102266688D01*
X168332765Y-102200971D01*
X168244859Y-102135524D01*
X168243778Y-102134579D01*
X168195607Y-102093736D01*
X168158545Y-102064653D01*
X168140537Y-102053572D01*
X168138568Y-102056217D01*
X168134113Y-102084794D01*
X168131018Y-102138094D01*
X168129857Y-102207786D01*
X168129857Y-102362000D01*
X167449500Y-102362000D01*
X167431389Y-102361997D01*
X167279490Y-102361731D01*
X167140078Y-102361070D01*
X167017118Y-102360062D01*
X166914579Y-102358758D01*
X166836426Y-102357205D01*
X166786625Y-102355454D01*
X166769143Y-102353553D01*
X166769550Y-102351893D01*
X166780988Y-102327377D01*
X166804962Y-102281317D01*
X166837179Y-102222018D01*
X166905215Y-102098929D01*
X166915190Y-100883689D01*
X168202429Y-100883689D01*
X168202935Y-100979703D01*
X168205387Y-101080587D01*
X168210190Y-101153507D01*
X168217695Y-101203212D01*
X168228250Y-101234449D01*
X168241828Y-101256755D01*
X168292962Y-101317561D01*
X168361475Y-101380863D01*
X168436568Y-101437265D01*
X168507440Y-101477370D01*
X168546761Y-101492085D01*
X168637302Y-101511677D01*
X168755555Y-101521694D01*
X168880232Y-101520177D01*
X168998627Y-101499574D01*
X169097449Y-101457011D01*
X169182948Y-101390571D01*
X169207000Y-101365995D01*
X169269622Y-101282185D01*
X169303504Y-101191850D01*
X169313679Y-101083151D01*
X169310922Y-101025725D01*
X169283661Y-100907507D01*
X169226390Y-100806039D01*
X169138068Y-100720179D01*
X169017651Y-100648784D01*
X168864097Y-100590714D01*
X168802193Y-100575475D01*
X168727251Y-100565041D01*
X168632937Y-100559246D01*
X168510857Y-100557298D01*
X168491026Y-100557299D01*
X168399696Y-100558414D01*
X168321244Y-100561108D01*
X168263471Y-100565029D01*
X168234179Y-100569824D01*
X168230808Y-100571380D01*
X168219910Y-100581154D01*
X168212192Y-100600794D01*
X168207119Y-100635585D01*
X168204157Y-100690809D01*
X168202772Y-100771750D01*
X168202429Y-100883689D01*
X166915190Y-100883689D01*
X166915714Y-100819857D01*
X166917275Y-100633561D01*
X166919458Y-100395965D01*
X166921750Y-100189698D01*
X166924335Y-100011842D01*
X166927400Y-99859481D01*
X166931128Y-99729696D01*
X166935705Y-99619572D01*
X166941316Y-99526190D01*
X166948147Y-99446635D01*
X166956383Y-99377988D01*
X166966208Y-99317333D01*
X166977808Y-99261752D01*
X166991368Y-99208329D01*
X167007073Y-99154146D01*
X167025109Y-99096286D01*
X167096161Y-98914898D01*
X167193464Y-98747258D01*
X167314641Y-98603732D01*
X167460803Y-98483570D01*
X167633057Y-98386020D01*
X167832515Y-98310331D01*
X168060285Y-98255753D01*
X168317477Y-98221535D01*
X168407368Y-98214730D01*
X168558760Y-98209755D01*
X168708814Y-98214235D01*
X168864554Y-98228927D01*
X169033005Y-98254584D01*
X169221193Y-98291962D01*
X169436143Y-98341818D01*
X169485828Y-98353881D01*
X169610601Y-98383565D01*
X169728861Y-98410898D01*
X169833436Y-98434263D01*
X169917154Y-98452047D01*
X169972845Y-98462636D01*
X170101333Y-98483740D01*
X169920695Y-98921549D01*
X169875512Y-99030859D01*
X169831061Y-99137969D01*
X169792923Y-99229418D01*
X169762969Y-99300733D01*
X169743071Y-99347437D01*
X169735103Y-99365058D01*
X169733850Y-99365310D01*
X169710758Y-99357443D01*
X169665353Y-99337283D01*
X169605824Y-99308417D01*
X169482096Y-99252203D01*
X169311837Y-99190740D01*
X169137578Y-99143670D01*
X168966133Y-99112177D01*
X168804317Y-99097443D01*
X168658944Y-99100650D01*
X168536829Y-99122979D01*
X168451601Y-99158409D01*
X168354809Y-99231017D01*
X168280297Y-99329518D01*
X168230199Y-99450883D01*
X168206649Y-99592080D01*
X168198355Y-99722215D01*
X168631285Y-99723400D01*
X168777285Y-99724624D01*
X168938771Y-99728972D01*
X169076725Y-99737178D01*
X169198281Y-99750039D01*
X169310577Y-99768354D01*
X169420747Y-99792919D01*
X169535929Y-99824533D01*
X169708268Y-99884709D01*
X169910975Y-99983806D01*
X170088876Y-100105190D01*
X170240217Y-100247155D01*
X170363243Y-100407993D01*
X170456199Y-100585997D01*
X170517330Y-100779460D01*
X170526904Y-100831565D01*
X170539177Y-100960533D01*
X170540722Y-101083151D01*
X170540990Y-101104437D01*
G37*
X172366834Y-96753031D02*
X172610638Y-96775413D01*
X172837132Y-96820551D01*
X173054742Y-96890345D01*
X173271891Y-96986696D01*
X173486845Y-97109715D01*
X173717534Y-97277422D01*
X173931459Y-97471323D01*
X174123911Y-97686618D01*
X174290180Y-97918507D01*
X174425553Y-98162190D01*
X174437841Y-98188258D01*
X174540750Y-98439881D01*
X174618946Y-98701345D01*
X174673439Y-98977646D01*
X174705241Y-99273779D01*
X174715360Y-99594739D01*
X174703056Y-99926528D01*
X174664001Y-100253276D01*
X174597590Y-100559149D01*
X174503227Y-100846317D01*
X174380320Y-101116949D01*
X174228273Y-101373214D01*
X174085450Y-101569000D01*
X173888243Y-101789289D01*
X173673296Y-101977974D01*
X173440703Y-102134993D01*
X173190558Y-102260285D01*
X172922957Y-102353786D01*
X172637992Y-102415437D01*
X172634740Y-102415917D01*
X172579862Y-102420732D01*
X172497049Y-102424304D01*
X172393958Y-102426465D01*
X172278246Y-102427050D01*
X172157572Y-102425891D01*
X172072997Y-102424192D01*
X171947512Y-102420258D01*
X171846958Y-102414626D01*
X171764083Y-102406694D01*
X171691634Y-102395863D01*
X171622357Y-102381530D01*
X171544416Y-102363007D01*
X171463099Y-102341914D01*
X171389556Y-102319787D01*
X171317112Y-102294033D01*
X171239093Y-102262060D01*
X171148825Y-102221278D01*
X171039631Y-102169093D01*
X170904839Y-102102915D01*
X170532036Y-101918677D01*
X170830628Y-101428231D01*
X170869719Y-101364041D01*
X170939950Y-101248810D01*
X171002811Y-101145794D01*
X171056004Y-101058748D01*
X171097233Y-100991432D01*
X171124200Y-100947601D01*
X171134607Y-100931015D01*
X171137502Y-100931510D01*
X171160820Y-100947742D01*
X171201786Y-100981429D01*
X171253927Y-101027345D01*
X171346787Y-101106678D01*
X171512562Y-101223990D01*
X171673403Y-101305771D01*
X171789631Y-101346611D01*
X171986222Y-101388348D01*
X172179378Y-101395746D01*
X172366299Y-101369309D01*
X172544183Y-101309540D01*
X172710230Y-101216943D01*
X172861637Y-101092022D01*
X172945886Y-101000014D01*
X173064574Y-100829831D01*
X173161964Y-100632342D01*
X173238519Y-100406536D01*
X173294707Y-100151401D01*
X173297256Y-100135562D01*
X173309033Y-100032903D01*
X173317800Y-99905351D01*
X173323486Y-99761622D01*
X173326021Y-99610431D01*
X173325333Y-99460493D01*
X173321352Y-99320524D01*
X173314006Y-99199241D01*
X173303225Y-99105357D01*
X173261900Y-98892692D01*
X173192365Y-98644270D01*
X173104915Y-98426781D01*
X172999665Y-98240393D01*
X172876732Y-98085273D01*
X172736235Y-97961590D01*
X172578288Y-97869512D01*
X172403010Y-97809209D01*
X172364121Y-97801724D01*
X172266666Y-97791951D01*
X172152773Y-97788761D01*
X172035204Y-97791979D01*
X171926717Y-97801429D01*
X171840072Y-97816936D01*
X171695732Y-97866313D01*
X171528228Y-97956456D01*
X171379080Y-98075084D01*
X171352756Y-98100073D01*
X171305057Y-98144285D01*
X171271345Y-98174042D01*
X171257649Y-98183941D01*
X171254277Y-98179207D01*
X171233523Y-98149313D01*
X171196028Y-98095033D01*
X171144270Y-98019962D01*
X171080728Y-97927694D01*
X171007877Y-97821823D01*
X170928197Y-97705944D01*
X170602286Y-97231817D01*
X170675092Y-97210004D01*
X170682690Y-97207532D01*
X170732145Y-97187898D01*
X170803447Y-97156239D01*
X170888228Y-97116362D01*
X170978120Y-97072076D01*
X171017292Y-97052496D01*
X171234804Y-96951409D01*
X171435283Y-96873238D01*
X171626438Y-96815985D01*
X171815981Y-96777649D01*
X172011622Y-96756231D01*
X172221072Y-96749731D01*
X172366834Y-96753031D01*
G36*
X172366834Y-96753031D02*
G01*
X172610638Y-96775413D01*
X172837132Y-96820551D01*
X173054742Y-96890345D01*
X173271891Y-96986696D01*
X173486845Y-97109715D01*
X173717534Y-97277422D01*
X173931459Y-97471323D01*
X174123911Y-97686618D01*
X174290180Y-97918507D01*
X174425553Y-98162190D01*
X174437841Y-98188258D01*
X174540750Y-98439881D01*
X174618946Y-98701345D01*
X174673439Y-98977646D01*
X174705241Y-99273779D01*
X174715360Y-99594739D01*
X174703056Y-99926528D01*
X174664001Y-100253276D01*
X174597590Y-100559149D01*
X174503227Y-100846317D01*
X174380320Y-101116949D01*
X174228273Y-101373214D01*
X174085450Y-101569000D01*
X173888243Y-101789289D01*
X173673296Y-101977974D01*
X173440703Y-102134993D01*
X173190558Y-102260285D01*
X172922957Y-102353786D01*
X172637992Y-102415437D01*
X172634740Y-102415917D01*
X172579862Y-102420732D01*
X172497049Y-102424304D01*
X172393958Y-102426465D01*
X172278246Y-102427050D01*
X172157572Y-102425891D01*
X172072997Y-102424192D01*
X171947512Y-102420258D01*
X171846958Y-102414626D01*
X171764083Y-102406694D01*
X171691634Y-102395863D01*
X171622357Y-102381530D01*
X171544416Y-102363007D01*
X171463099Y-102341914D01*
X171389556Y-102319787D01*
X171317112Y-102294033D01*
X171239093Y-102262060D01*
X171148825Y-102221278D01*
X171039631Y-102169093D01*
X170904839Y-102102915D01*
X170532036Y-101918677D01*
X170830628Y-101428231D01*
X170869719Y-101364041D01*
X170939950Y-101248810D01*
X171002811Y-101145794D01*
X171056004Y-101058748D01*
X171097233Y-100991432D01*
X171124200Y-100947601D01*
X171134607Y-100931015D01*
X171137502Y-100931510D01*
X171160820Y-100947742D01*
X171201786Y-100981429D01*
X171253927Y-101027345D01*
X171346787Y-101106678D01*
X171512562Y-101223990D01*
X171673403Y-101305771D01*
X171789631Y-101346611D01*
X171986222Y-101388348D01*
X172179378Y-101395746D01*
X172366299Y-101369309D01*
X172544183Y-101309540D01*
X172710230Y-101216943D01*
X172861637Y-101092022D01*
X172945886Y-101000014D01*
X173064574Y-100829831D01*
X173161964Y-100632342D01*
X173238519Y-100406536D01*
X173294707Y-100151401D01*
X173297256Y-100135562D01*
X173309033Y-100032903D01*
X173317800Y-99905351D01*
X173323486Y-99761622D01*
X173326021Y-99610431D01*
X173325333Y-99460493D01*
X173321352Y-99320524D01*
X173314006Y-99199241D01*
X173303225Y-99105357D01*
X173261900Y-98892692D01*
X173192365Y-98644270D01*
X173104915Y-98426781D01*
X172999665Y-98240393D01*
X172876732Y-98085273D01*
X172736235Y-97961590D01*
X172578288Y-97869512D01*
X172403010Y-97809209D01*
X172364121Y-97801724D01*
X172266666Y-97791951D01*
X172152773Y-97788761D01*
X172035204Y-97791979D01*
X171926717Y-97801429D01*
X171840072Y-97816936D01*
X171695732Y-97866313D01*
X171528228Y-97956456D01*
X171379080Y-98075084D01*
X171352756Y-98100073D01*
X171305057Y-98144285D01*
X171271345Y-98174042D01*
X171257649Y-98183941D01*
X171254277Y-98179207D01*
X171233523Y-98149313D01*
X171196028Y-98095033D01*
X171144270Y-98019962D01*
X171080728Y-97927694D01*
X171007877Y-97821823D01*
X170928197Y-97705944D01*
X170602286Y-97231817D01*
X170675092Y-97210004D01*
X170682690Y-97207532D01*
X170732145Y-97187898D01*
X170803447Y-97156239D01*
X170888228Y-97116362D01*
X170978120Y-97072076D01*
X171017292Y-97052496D01*
X171234804Y-96951409D01*
X171435283Y-96873238D01*
X171626438Y-96815985D01*
X171815981Y-96777649D01*
X172011622Y-96756231D01*
X172221072Y-96749731D01*
X172366834Y-96753031D01*
G37*
X180774662Y-104040192D02*
X180774734Y-104147519D01*
X180774403Y-104281872D01*
X180774351Y-104382605D01*
X180774011Y-104486330D01*
X180773154Y-104566225D01*
X180771551Y-104625773D01*
X180768973Y-104668460D01*
X180765192Y-104697769D01*
X180759979Y-104717185D01*
X180753106Y-104730192D01*
X180744344Y-104740274D01*
X180735068Y-104748574D01*
X180717763Y-104758293D01*
X180692270Y-104764622D01*
X180653123Y-104768266D01*
X180594855Y-104769935D01*
X180512000Y-104770334D01*
X180446834Y-104769834D01*
X180304566Y-104763938D01*
X180185771Y-104750508D01*
X180086188Y-104728423D01*
X180001552Y-104696563D01*
X179927600Y-104653808D01*
X179860067Y-104599038D01*
X179852095Y-104591246D01*
X179803011Y-104526663D01*
X179761607Y-104445705D01*
X179733005Y-104360174D01*
X179725974Y-104308593D01*
X179921974Y-104308593D01*
X179946314Y-104376406D01*
X179985816Y-104437538D01*
X180047986Y-104494000D01*
X180129717Y-104533678D01*
X180235090Y-104559155D01*
X180237074Y-104559472D01*
X180302272Y-104567183D01*
X180380415Y-104572696D01*
X180455025Y-104574835D01*
X180579019Y-104574949D01*
X180579019Y-103988795D01*
X180477569Y-103988776D01*
X180473538Y-103988788D01*
X180405479Y-103991404D01*
X180325461Y-103997694D01*
X180249961Y-104006386D01*
X180183449Y-104018763D01*
X180083927Y-104053735D01*
X180007362Y-104106056D01*
X179952109Y-104176665D01*
X179923861Y-104244919D01*
X179921974Y-104308593D01*
X179725974Y-104308593D01*
X179722332Y-104281872D01*
X179724035Y-104253625D01*
X179740427Y-104177184D01*
X179770421Y-104097421D01*
X179809337Y-104025462D01*
X179852495Y-103972433D01*
X179878512Y-103949769D01*
X179951353Y-103897597D01*
X180031638Y-103857483D01*
X180123763Y-103828246D01*
X180232125Y-103808699D01*
X180361119Y-103797660D01*
X180515143Y-103793944D01*
X180567708Y-103793409D01*
X180628566Y-103792859D01*
X180676229Y-103795261D01*
X180712297Y-103803625D01*
X180738368Y-103820960D01*
X180756041Y-103850275D01*
X180766915Y-103894579D01*
X180772590Y-103956881D01*
X180773384Y-103988795D01*
X180774662Y-104040192D01*
G36*
X180774662Y-104040192D02*
G01*
X180774734Y-104147519D01*
X180774403Y-104281872D01*
X180774351Y-104382605D01*
X180774011Y-104486330D01*
X180773154Y-104566225D01*
X180771551Y-104625773D01*
X180768973Y-104668460D01*
X180765192Y-104697769D01*
X180759979Y-104717185D01*
X180753106Y-104730192D01*
X180744344Y-104740274D01*
X180735068Y-104748574D01*
X180717763Y-104758293D01*
X180692270Y-104764622D01*
X180653123Y-104768266D01*
X180594855Y-104769935D01*
X180512000Y-104770334D01*
X180446834Y-104769834D01*
X180304566Y-104763938D01*
X180185771Y-104750508D01*
X180086188Y-104728423D01*
X180001552Y-104696563D01*
X179927600Y-104653808D01*
X179860067Y-104599038D01*
X179852095Y-104591246D01*
X179803011Y-104526663D01*
X179761607Y-104445705D01*
X179733005Y-104360174D01*
X179725974Y-104308593D01*
X179921974Y-104308593D01*
X179946314Y-104376406D01*
X179985816Y-104437538D01*
X180047986Y-104494000D01*
X180129717Y-104533678D01*
X180235090Y-104559155D01*
X180237074Y-104559472D01*
X180302272Y-104567183D01*
X180380415Y-104572696D01*
X180455025Y-104574835D01*
X180579019Y-104574949D01*
X180579019Y-103988795D01*
X180477569Y-103988776D01*
X180473538Y-103988788D01*
X180405479Y-103991404D01*
X180325461Y-103997694D01*
X180249961Y-104006386D01*
X180183449Y-104018763D01*
X180083927Y-104053735D01*
X180007362Y-104106056D01*
X179952109Y-104176665D01*
X179923861Y-104244919D01*
X179921974Y-104308593D01*
X179725974Y-104308593D01*
X179722332Y-104281872D01*
X179724035Y-104253625D01*
X179740427Y-104177184D01*
X179770421Y-104097421D01*
X179809337Y-104025462D01*
X179852495Y-103972433D01*
X179878512Y-103949769D01*
X179951353Y-103897597D01*
X180031638Y-103857483D01*
X180123763Y-103828246D01*
X180232125Y-103808699D01*
X180361119Y-103797660D01*
X180515143Y-103793944D01*
X180567708Y-103793409D01*
X180628566Y-103792859D01*
X180676229Y-103795261D01*
X180712297Y-103803625D01*
X180738368Y-103820960D01*
X180756041Y-103850275D01*
X180766915Y-103894579D01*
X180772590Y-103956881D01*
X180773384Y-103988795D01*
X180774662Y-104040192D01*
G37*
%TD*%
M02*
